<?xml version="1.0" encoding="UTF-8"?>
<svg width="308px" height="445px" viewBox="0 0 308 445" version="1.1" xmlns="http://www.w3.org/2000/svg" xmlns:xlink="http://www.w3.org/1999/xlink">
    <!-- Generator: Sketch 44.1 (41455) - http://www.bohemiancoding.com/sketch -->
    <title>加载失败图标</title>
    <desc>Created with Sketch.</desc>
    <defs></defs>
    <g id="切片" stroke="none" stroke-width="1" fill="none" fill-rule="evenodd">
        <g id="加载失败图标">
            <g id="Group-3" fill-rule="nonzero" fill="#DDDDDD">
                <g id="信号" transform="translate(208.000000, 0.000000)">
                    <path d="M81.1341493,127.358068 C80.5067164,127.358068 79.87022,127.208952 79.2769947,126.895094 C77.3392913,125.868518 76.6011951,123.466603 77.6287409,121.530583 C87.0278083,103.821902 91.9953751,83.8331092 91.9953751,63.7252874 C91.9953751,43.6126459 87.0278083,23.6209326 77.6287409,5.91195859 C76.6013414,3.97593866 77.3394376,1.5743159 79.2769947,0.547886503 C81.215429,-0.478688898 83.6187367,0.258564214 84.6464286,2.19458414 C89.5773026,11.4856103 93.3797623,21.349293 95.9473837,31.5114989 C98.5957001,41.9932592 99.9384241,52.8313779 99.9384241,63.7251412 C99.9384241,74.6187585 98.5957003,85.4557088 95.9472376,95.9352783 C93.3799086,106.094125 89.5778874,115.956493 84.6464287,125.24825 C83.9333303,126.591605 82.5572759,127.358068 81.1341493,127.358068 Z" id="Shape"></path>
                    <path d="M42.539279,109.03014 C41.8840707,109.03014 41.2197987,108.868172 40.6069846,108.526272 C38.6917939,107.458073 38.0058864,105.041261 39.0750951,103.127733 C45.7941236,91.1028234 49.3457271,77.4778058 49.3457271,63.7251415 C49.3457271,49.965175 45.7944161,36.3404494 39.07568,24.3235726 C38.0060327,22.4104823 38.691063,19.9933784 40.6061076,18.9245949 C42.521152,17.8562496 44.940394,18.5407792 46.0100414,20.4537235 C53.38881,33.6503807 57.28863,48.6134954 57.28863,63.7251417 C57.28863,78.8287552 53.3886639,93.7912857 46.0106261,106.995976 C45.28364,108.296684 43.9319987,109.03014 42.539279,109.03014 Z" id="Shape"></path>
                    <path d="M3.99104214,90.7175472 C3.25177657,90.7175472 2.50388586,90.5116187 1.83683643,90.0803373 C-0.00453,88.8897493 -0.531240286,86.4329201 0.660472857,84.5934383 C4.70545614,78.3494235 6.84358129,71.1331634 6.84358129,63.7252875 C6.84358129,56.3193103 4.70501757,49.0998371 0.659303429,42.8472055 C-0.531532571,41.0068474 -0.00336042857,38.5506024 1.83873686,37.3610368 C3.680688,36.1713251 6.13925429,36.6988526 7.33009029,38.5392106 C12.208191,46.0782381 14.786484,54.7874067 14.786484,63.7252875 C14.786484,72.6668194 12.2077524,81.3736514 7.32877457,88.9052304 C6.56875043,90.0782925 5.29298,90.7175472 3.99104214,90.7175472 Z" id="Shape"></path>
                </g>
                <g id="问号" transform="translate(121.000000, 44.000000)">
                    <path d="M24.2292527,93.7111089 L40.5079231,93.7111089 L40.5079231,110.894983 L24.2292527,110.894983 L24.2292527,93.7111089 Z M56.7619341,8.1870132 C50.6886044,2.76462046 42.9982747,0.0151419142 33.9045385,0.0151419142 C29.4217363,0.0151419142 25.0984945,0.73059736 21.054,2.14245875 C16.9904066,3.56311221 13.2534286,5.79715512 9.94545055,8.78218812 C6.62018681,11.7859043 4.16537363,15.2505941 2.64906593,19.0794224 C1.14605495,22.8751584 0.284307692,28.4424983 0.0875164835,35.6263597 L0.0579010989,36.709495 L15.0492088,36.709495 L15.0492088,35.6556667 C15.0492088,20.6505182 21.0733407,13.3562673 33.4656264,13.3562673 C38.8898352,13.3562673 43.0627033,14.9086799 45.8677033,17.9691782 C48.7335055,21.1003795 50.1263956,24.5888812 50.1263956,28.6348251 C50.1263956,32.7050693 49.5137802,35.776802 48.3053516,37.7649109 C47.0353956,39.8557162 44.1043187,43.3002574 39.5931099,48.0029208 C34.9990989,52.7919175 31.7665495,56.4865446 29.9852747,58.9844719 C28.1637473,61.5408911 26.7805275,64.5651221 25.8739341,67.9736403 L25.7065165,68.6004422 C24.9176593,71.5433465 24.5216593,73.020538 24.5216593,78.3139802 L24.5216593,79.3678086 L39.5055934,79.3678086 L39.4831099,78.2918779 C39.3987363,74.2321353 39.6586264,73.3746634 40.286956,71.3029076 C40.3651648,71.0450066 40.4486923,70.770132 40.5375385,70.4692475 C41.320956,67.8098878 42.4886484,65.4942739 44.0077363,63.5871254 C45.5842418,61.6097624 48.8522088,58.2119901 53.7208571,53.4874686 C58.7836374,48.5750165 62.0138901,44.5585017 63.5964396,41.2085974 C65.1685934,37.8784752 65.9659121,34.1203498 65.9659121,30.0389934 C65.9659121,20.9965842 62.8693516,13.6449406 56.7615714,8.18725743 L56.7619341,8.1870132 Z" id="Shape"></path>
                </g>
                <g id="信号-copy" transform="translate(50.000000, 64.000000) scale(-1, 1) translate(-50.000000, -64.000000) ">
                    <path d="M81.1341493,127.358068 C80.5067164,127.358068 79.87022,127.208952 79.2769947,126.895094 C77.3392913,125.868518 76.6011951,123.466603 77.6287409,121.530583 C87.0278083,103.821902 91.9953751,83.8331092 91.9953751,63.7252874 C91.9953751,43.6126459 87.0278083,23.6209326 77.6287409,5.91195859 C76.6013414,3.97593866 77.3394376,1.5743159 79.2769947,0.547886503 C81.215429,-0.478688898 83.6187367,0.258564214 84.6464286,2.19458414 C89.5773026,11.4856103 93.3797623,21.349293 95.9473837,31.5114989 C98.5957001,41.9932592 99.9384241,52.8313779 99.9384241,63.7251412 C99.9384241,74.6187585 98.5957003,85.4557088 95.9472376,95.9352783 C93.3799086,106.094125 89.5778874,115.956493 84.6464287,125.24825 C83.9333303,126.591605 82.5572759,127.358068 81.1341493,127.358068 Z" id="Shape"></path>
                    <path d="M42.539279,109.03014 C41.8840707,109.03014 41.2197987,108.868172 40.6069846,108.526272 C38.6917939,107.458073 38.0058864,105.041261 39.0750951,103.127733 C45.7941236,91.1028234 49.3457271,77.4778058 49.3457271,63.7251415 C49.3457271,49.965175 45.7944161,36.3404494 39.07568,24.3235726 C38.0060327,22.4104823 38.691063,19.9933784 40.6061076,18.9245949 C42.521152,17.8562496 44.940394,18.5407792 46.0100414,20.4537235 C53.38881,33.6503807 57.28863,48.6134954 57.28863,63.7251417 C57.28863,78.8287552 53.3886639,93.7912857 46.0106261,106.995976 C45.28364,108.296684 43.9319987,109.03014 42.539279,109.03014 Z" id="Shape"></path>
                    <path d="M3.99104214,90.7175472 C3.25177657,90.7175472 2.50388586,90.5116187 1.83683643,90.0803373 C-0.00453,88.8897493 -0.531240286,86.4329201 0.660472857,84.5934383 C4.70545614,78.3494235 6.84358129,71.1331634 6.84358129,63.7252875 C6.84358129,56.3193103 4.70501757,49.0998371 0.659303429,42.8472055 C-0.531532571,41.0068474 -0.00336042857,38.5506024 1.83873686,37.3610368 C3.680688,36.1713251 6.13925429,36.6988526 7.33009029,38.5392106 C12.208191,46.0782381 14.786484,54.7874067 14.786484,63.7252875 C14.786484,72.6668194 12.2077524,81.3736514 7.32877457,88.9052304 C6.56875043,90.0782925 5.29298,90.7175472 3.99104214,90.7175472 Z" id="Shape"></path>
                </g>
            </g>
            <g id="手机" transform="translate(76.000000, 175.000000)" fill-rule="nonzero" fill="#DDDDDD">
                <path d="M135.298662,0 L21.701338,0 C9.75116983,0 0.0637523081,9.66403775 0.0637523081,21.5853652 L0.0637523081,248.414635 C0.0637523081,260.335962 9.75116983,270 21.701338,270 L135.298662,270 C147.24883,270 156.936248,260.335962 156.936248,248.414635 L156.936248,21.5853652 C156.936248,9.66403775 147.24883,0 135.298662,0 Z M78.5,257.369324 C71.0312465,257.369324 64.976509,251.329199 64.976509,243.87847 C64.976509,236.427742 71.0312465,230.387617 78.5,230.387617 C85.9687535,230.387617 92.023491,236.427742 92.023491,243.87847 C92.023491,251.329199 85.9687535,257.369324 78.5,257.369324 Z M146.117455,217.756941 L10.8825451,217.756941 L10.8825451,23.4886547 L146.117455,23.4886547 L146.117455,217.756941 Z" id="Shape"></path>
            </g>
            <g id="Group-4" transform="translate(212.000000, 389.000000)">
                <circle id="Oval" fill="#FFFFFF" cx="28" cy="28" r="25"></circle>
                <g id="关闭-2" fill-rule="nonzero" fill="#DDDDDD">
                    <path d="M27.9970802,0.015246094 C12.5432153,0.015246094 0.0153102371,12.5432153 0.0153102371,27.9970161 C0.0153102371,43.4510092 12.5432795,55.9787861 27.9970802,55.9787861 C43.4510733,55.9787861 55.9788502,43.4509451 55.9788502,27.9970161 C55.9788502,12.5432153 43.4510092,0.015246094 27.9970802,0.015246094 Z M42.11703,38.050608 C43.2403775,39.1739556 43.2403775,40.9936824 42.11703,42.11703 C41.5554523,42.6786076 40.8195876,42.9594285 40.0839792,42.9594285 C39.3481786,42.9594285 38.6123779,42.6786076 38.0507362,42.11703 L27.9970802,32.063374 L17.9435524,42.11703 C17.3817824,42.6786076 16.64611,42.9594285 15.9103093,42.9594285 C15.1745087,42.9594285 14.438708,42.6786076 13.8770663,42.11703 C12.7537187,40.9936824 12.7537187,39.1739556 13.8770663,38.050608 L23.9307223,27.9970802 L13.8770663,17.9433601 C12.7537188,16.8200125 12.7537188,15.0002857 13.8770663,13.8769381 C15.0004139,12.7537187 16.8201408,12.7537187 17.9434883,13.8769381 L27.9970162,23.9305941 L38.0506722,13.8769381 C39.1738915,12.7537187 40.9937466,12.7537187 42.1169659,13.8769381 C43.2403134,15.0002857 43.2403134,16.8200125 42.1169659,17.9433601 L32.0635022,27.9970802 L42.11703,38.050608 Z" id="Shape"></path>
                </g>
            </g>
        </g>
    </g>
</svg>