<?xml version="1.0" encoding="UTF-8"?>
<svg width="44px" height="44px" viewBox="0 0 44 44" version="1.1" xmlns="http://www.w3.org/2000/svg" xmlns:xlink="http://www.w3.org/1999/xlink">
    <!-- Generator: Sketch 44.1 (41455) - http://www.bohemiancoding.com/sketch -->
    <title>工作量分析图标@2x</title>
    <desc>Created with Sketch.</desc>
    <defs></defs>
    <g id="切片" stroke="none" stroke-width="1" fill="none" fill-rule="evenodd">
        <g id="工作量分析图标" transform="translate(2.000000, 2.000000)" fill="#D63333">
            <path d="M19.99995,40 C8.9714,40 0,31.02575 0,20 C0,11.9057 4.8257,4.65995 12.2943,1.54 C13.0171,1.24285 13.85995,1.5771 14.1628,2.3086 C14.4657,3.03715 14.1229,3.8714 13.3943,4.1743 C6.9943,6.84855 2.8571,13.06 2.8571,20 C2.8571,29.4543 10.5457,37.1428 19.99995,37.1428 C26.93995,37.1428 33.15145,33.00565 35.8257,26.6057 C36.12855,25.87425 36.9743,25.53425 37.6914,25.8371 C38.41995,26.13995 38.76285,26.97425 38.46005,27.7028 C35.34,35.1743 28.0943,40 19.99995,40" id="Fill-1"></path>
            <path d="M21.42855,18.5714 L37.0828,18.5714 C36.39425,10.25715 29.74285,3.6057 21.42855,2.9171 L21.42855,18.5714 Z M38.57145,21.42855 L19.99995,21.42855 C19.2114,21.42855 18.5714,20.78855 18.5714,20 L18.5714,1.42855 C18.5714,0.64 19.2114,0 19.99995,0 C31.0257,0 40,8.97425 40,20 C40,20.78855 39.36,21.42855 38.57145,21.42855 L38.57145,21.42855 Z" id="Fill-3"></path>
        </g>
    </g>
</svg>