<?xml version="1.0" encoding="UTF-8"?>
<svg width="200px" height="200px" viewBox="0 0 200 200" version="1.1" xmlns="http://www.w3.org/2000/svg" xmlns:xlink="http://www.w3.org/1999/xlink">
    <!-- Generator: Sketch 44.1 (41455) - http://www.bohemiancoding.com/sketch -->
    <title>筛选无结果图标</title>
    <desc>Created with Sketch.</desc>
    <defs></defs>
    <g id="切片" stroke="none" stroke-width="1" fill="none" fill-rule="evenodd">
        <g id="筛选无结果图标" fill-rule="nonzero" fill="#DDDDDD">
            <path d="M100,200 C44.9,200 0,155.1 0,100 C0,44.9 44.9,0 100,0 C155.1,0 200,44.9 200,100 C200,155.1 155.1,200 100,200 Z M100,13.2 C52.1,13.2 13.2,52.1 13.2,100 C13.2,147.9 52.1,186.8 100,186.8 C147.9,186.8 186.8,147.9 186.8,100 C186.8,52.1 147.9,13.2 100,13.2 Z" id="Shape"></path>
            <path d="M134.4,143 C132.9,143 131.4,142.3 130.5,140.9 C123.7,130.5 112.3,124.3 100,124.3 C87.7,124.3 76.3,130.5 69.5,140.9 C68.1,143.1 65.2,143.7 63,142.3 C60.8,140.9 60.2,138 61.6,135.8 C70.1,122.8 84.4,115 99.9,115 C115.3,115 129.7,122.8 138.2,135.8 C139.6,138 139,140.9 136.8,142.3 C136.1,142.7 135.2,143 134.4,143 Z" id="Shape"></path>
            <path d="M133.8,62.4 C126.8,62.4 121.1,68.1 121.1,75.1 C121.1,82.1 126.8,87.8 133.8,87.8 C140.8,87.8 146.5,82.1 146.5,75.1 C146.5,68.1 140.8,62.4 133.8,62.4 Z" id="Shape"></path>
            <path d="M66.9,62.4 C59.9,62.4 54.2,68.1 54.2,75.1 C54.2,82.1 59.9,87.8 66.9,87.8 C73.9,87.8 79.6,82.1 79.6,75.1 C79.6,68.1 73.9,62.4 66.9,62.4 Z" id="Shape"></path>
        </g>
    </g>
</svg>