<?xml version="1.0" encoding="UTF-8"?>
<svg width="20px" height="20px" viewBox="0 0 20 20" version="1.1" xmlns="http://www.w3.org/2000/svg" xmlns:xlink="http://www.w3.org/1999/xlink">
    <!-- Generator: Sketch 44.1 (41455) - http://www.bohemiancoding.com/sketch -->
    <title>上拉加载图标@2x</title>
    <desc>Created with Sketch.</desc>
    <defs></defs>
    <g id="切片" stroke="none" stroke-width="1" fill="none" fill-rule="evenodd">
        <g id="上拉加载图标" fill="#999999">
            <path d="M15.0724585,4.5831922 L6.49503461,-3.99423168 C6.20505462,-4.28421168 5.75423024,-4.27956711 5.47330554,-3.99864241 C5.19042228,-3.71575915 5.19435558,-3.26027401 5.47771626,-2.97691333 L13.7177875,5.26315789 L5.47771626,13.5032291 C5.19435558,13.7865898 5.19042228,14.2420749 5.47330554,14.5249582 C5.75423024,14.8058829 6.20505462,14.8105275 6.49503461,14.5205475 L15.0724585,5.94312359 C15.1448818,5.90849215 15.2127668,5.86103304 15.2728739,5.80092595 C15.4212317,5.65256814 15.4907016,5.45673678 15.4823494,5.26315789 C15.4907016,5.06957901 15.4212317,4.87374764 15.2728739,4.72538984 C15.2127668,4.66528275 15.1448818,4.61782364 15.0724585,4.5831922 Z" id="下一级-copy-9" transform="translate(10.373090, 5.263158) scale(-1, 1) rotate(-90.000000) translate(-10.373090, -5.263158) "></path>
            <path d="M15.0724585,14.0568764 L6.49503461,5.47945253 C6.20505462,5.18947253 5.75423024,5.1941171 5.47330554,5.4750418 C5.19042228,5.75792506 5.19435558,6.2134102 5.47771626,6.49677088 L13.7177875,14.7368421 L5.47771626,22.9769133 C5.19435558,23.260274 5.19042228,23.7157591 5.47330554,23.9986424 C5.75423024,24.2795671 6.20505462,24.2842117 6.49503461,23.9942317 L15.0724585,15.4168078 C15.1448818,15.3821764 15.2127668,15.3347173 15.2728739,15.2746102 C15.4212317,15.1262524 15.4907016,14.930421 15.4823494,14.7368421 C15.4907016,14.5432632 15.4212317,14.3474319 15.2728739,14.199074 C15.2127668,14.138967 15.1448818,14.0915078 15.0724585,14.0568764 Z" id="下一级-copy-10" transform="translate(10.373090, 14.736842) scale(-1, 1) rotate(-90.000000) translate(-10.373090, -14.736842) "></path>
        </g>
    </g>
</svg>