<?xml version="1.0" encoding="UTF-8"?>
<svg width="13px" height="24px" viewBox="0 0 13 24" version="1.1" xmlns="http://www.w3.org/2000/svg" xmlns:xlink="http://www.w3.org/1999/xlink">
    <!-- Generator: Sketch 44.1 (41455) - http://www.bohemiancoding.com/sketch -->
    <title>下一级图标@2x</title>
    <desc>Created with Sketch.</desc>
    <defs></defs>
    <g id="切片" stroke="none" stroke-width="1" fill="none" fill-rule="evenodd">
        <path d="M12.4251141,11.1387101 L1.56037717,0.2739732 C1.19306918,-0.0933347893 0.622024974,-0.0874516753 0.266187014,0.268386284 C-0.0921317823,0.626705081 -0.0871495979,1.20365291 0.27177393,1.56257644 L10.7091975,12 L0.27177393,22.4374236 C-0.0871495979,22.7963471 -0.0921317823,23.3732949 0.266187014,23.7316137 C0.622024974,24.0874517 1.19306918,24.0933348 1.56037717,23.7260268 L12.4251141,12.8612899 C12.5168503,12.8174234 12.602838,12.7573085 12.6789736,12.6811729 C12.8668935,12.493253 12.9548887,12.2451999 12.9443093,12 C12.9548887,11.7548001 12.8668935,11.506747 12.6789736,11.3188271 C12.602838,11.2426915 12.5168503,11.1825766 12.4251141,11.1387101 Z" id="下一级图标" fill="#666666" transform="translate(6.472580, 12.000000) scale(-1, 1) rotate(-180.000000) translate(-6.472580, -12.000000) "></path>
    </g>
</svg>