<?xml version="1.0" encoding="UTF-8"?>
<svg width="32px" height="32px" viewBox="0 0 32 32" version="1.1" xmlns="http://www.w3.org/2000/svg" xmlns:xlink="http://www.w3.org/1999/xlink">
    <!-- Generator: Sketch 44.1 (41455) - http://www.bohemiancoding.com/sketch -->
    <title>搜索图标@2x</title>
    <desc>Created with Sketch.</desc>
    <defs>
        <polygon id="path-1" points="4.57142857e-06 0 31.9748114 0 31.9748114 31.9733874 4.57142857e-06 31.9733874"></polygon>
    </defs>
    <g id="切片" stroke="none" stroke-width="1" fill="none" fill-rule="evenodd">
        <g id="搜索图标">
            <mask id="mask-2" fill="white">
                <use xlink:href="#path-1"></use>
            </mask>
            <g id="Clip-2"></g>
            <path d="M2.90674743,13.8064731 C2.90674743,7.78663314 7.78706743,2.90658743 13.8070903,2.90658743 C19.8272046,2.90658743 24.7074331,7.78663314 24.7074331,13.8064731 C24.7074331,16.6733531 23.600096,19.2811246 21.7904503,21.2269989 C21.6752503,21.2904046 21.566816,21.3705417 21.469216,21.4681874 C21.3715703,21.5658331 21.2913874,21.6742674 21.2279817,21.7894674 C19.2820617,23.5990674 16.6741074,24.7064046 13.807136,24.7064046 C7.78706743,24.7064046 2.90674743,19.8263589 2.90674743,13.8064731 M31.5569874,29.5380846 L24.5269531,22.5083246 C26.4571474,20.1336046 27.6142674,17.105216 27.6142674,13.8064731 C27.6142674,6.181376 21.4326446,-1.82857143e-05 13.8071817,-1.82857143e-05 C6.18171886,-1.82857143e-05 4.57142857e-06,6.181376 4.57142857e-06,13.8064731 C4.57142857e-06,21.431616 6.18167314,27.6130103 13.8070903,27.6130103 C17.1059703,27.6130103 20.134496,26.455936 22.5093531,24.5257874 L29.5393417,31.5555474 C30.0964617,32.1126674 30.999776,32.1126674 31.556896,31.5555474 C32.1141074,30.9984274 32.1141074,30.0952046 31.5569874,29.5380846" id="Fill-1" fill="#333333" mask="url(#mask-2)"></path>
        </g>
    </g>
</svg>