<?xml version="1.0" encoding="UTF-8"?>
<svg width="40px" height="40px" viewBox="0 0 40 40" version="1.1" xmlns="http://www.w3.org/2000/svg" xmlns:xlink="http://www.w3.org/1999/xlink">
    <!-- Generator: Sketch 44.1 (41455) - http://www.bohemiancoding.com/sketch -->
    <title>项目类型分析图标@2x</title>
    <desc>Created with Sketch.</desc>
    <defs>
        <polygon id="path-1" points="0 0.00236909871 0 39.9427754 39.9976275 39.9427754 39.9976275 0.00236909871"></polygon>
        <polygon id="path-3" points="0 39.9976538 39.9976504 39.9976538 39.9976504 0.0572246066 0 0.0572246066"></polygon>
    </defs>
    <g id="切片" stroke="none" stroke-width="1" fill="none" fill-rule="evenodd">
        <g id="项目类型分析图标">
            <g id="Group-3" transform="translate(0.000000, 0.054878)">
                <mask id="mask-2" fill="white">
                    <use xlink:href="#path-1"></use>
                </mask>
                <g id="Clip-2"></g>
                <path d="M20.0301203,37.5363319 C10.2987163,37.5363319 2.40989112,29.6587926 2.40989112,19.9413104 C2.40989112,10.2238283 10.2987736,2.34628898 20.0301203,2.34628898 C29.7615817,2.34628898 37.6503496,10.2238856 37.6503496,19.9413104 C37.6503496,29.6588498 29.7615244,37.5363319 20.0301203,37.5363319 M19.9988309,0.00236909871 C8.95378797,0.00236909871 -2.29226361e-05,8.94337053 -2.29226361e-05,19.9725551 C-2.29226361e-05,31.0017969 8.95378797,39.9427983 19.9988309,39.9427983 C31.0438166,39.9427983 39.9976275,31.0017969 39.9976275,19.9725551 C39.9976275,8.94337053 31.0438166,0.00236909871 19.9988309,0.00236909871" id="Fill-1" fill="#D63333" mask="url(#mask-2)"></path>
            </g>
            <mask id="mask-4" fill="white">
                <use xlink:href="#path-3"></use>
            </mask>
            <g id="Clip-5"></g>
            <polygon id="Fill-4" fill="#D63333" mask="url(#mask-4)" points="11.5173639 13.0581402 28.4803438 13.0581402 28.4803438 9.39118741 11.5173639 9.39118741"></polygon>
            <polygon id="Fill-6" fill="#D63333" mask="url(#mask-4)" points="11.5799427 21.8504721 28.5429226 21.8504721 28.5429226 18.1835193 11.5799427 18.1835193"></polygon>
            <polygon id="Fill-7" fill="#D63333" mask="url(#mask-4)" points="11.5381662 30.6012017 28.5011461 30.6012017 28.5011461 26.8925322 11.5381662 26.8925322"></polygon>
        </g>
    </g>
</svg>