<?xml version="1.0" encoding="UTF-8"?>
<svg width="44px" height="44px" viewBox="0 0 44 44" version="1.1" xmlns="http://www.w3.org/2000/svg" xmlns:xlink="http://www.w3.org/1999/xlink">
    <!-- Generator: Sketch 44.1 (41455) - http://www.bohemiancoding.com/sketch -->
    <title>项目状态分析图标@2x</title>
    <desc>Created with Sketch.</desc>
    <defs></defs>
    <g id="切片" stroke="none" stroke-width="1" fill="none" fill-rule="evenodd">
        <path d="M42.4304231,40.5621853 L1.56486342,40.5621853 C0.697589716,40.5621853 0,39.8598822 0,38.9973219 C0,38.1347616 0.70230316,37.4324585 1.56486342,37.4324585 L42.4351366,37.4324585 C43.3024103,37.4324585 44,38.1347616 44,38.9973219 C44,39.8598822 43.2976968,40.5621853 42.4304231,40.5621853 M21.9976433,32.756722 C20.8852705,32.756722 19.9802892,31.8564542 19.9802892,30.739368 L19.9802892,18.3807177 C19.9802892,17.2683449 20.880557,16.3633637 21.9976433,16.3633637 C23.1147295,16.3633637 24.0149973,17.2636315 24.0149973,18.3807177 L24.0149973,30.739368 C24.0102839,31.8517408 23.1100161,32.756722 21.9976433,32.756722 M10.8927691,32.756722 C9.78039636,32.756722 8.8754151,31.8564542 8.8754151,30.739368 L8.8754151,12.0694162 C8.8754151,10.9570434 9.77568291,10.0520621 10.8927691,10.0520621 C12.0098554,10.0520621 12.9101232,10.9523299 12.9101232,12.0694162 L12.9101232,30.739368 C12.9054097,31.8517408 12.0051419,32.756722 10.8927691,32.756722 M33.1025174,32.756722 C31.9901446,32.756722 31.0851634,31.8564542 31.0851634,30.739368 L31.0851634,6.01735404 C31.0851634,4.90498125 31.9854312,4 33.1025174,4 C34.2196036,4 35.1198715,4.90026781 35.1198715,6.01735404 L35.1198715,30.739368 C35.1198715,31.8517408 34.2148902,32.756722 33.1025174,32.756722" id="项目状态分析图标" fill="#D63333"></path>
    </g>
</svg>