<svg id="svg" version="1.1" width="500" height="500" xmlns="http://www.w3.org/2000/svg" xmlns:xlink="http://www.w3.org/1999/xlink" style="display: block;"><g id="svgg"><path id="path2" d="M186.800 16.800 C 187.072 17.240,186.913 17.600,186.447 17.600 C 185.981 17.600,185.600 18.380,185.600 19.333 C 185.600 20.818,186.778 20.818,186.812 19.333 C 186.839 18.155,188.156 16.802,188.855 17.234 C 189.265 17.487,189.600 17.313,189.600 16.847 C 189.600 16.381,188.859 16.000,187.953 16.000 C 187.047 16.000,186.528 16.360,186.800 16.800 M242.400 16.676 C 242.400 17.048,243.120 18.004,244.000 18.800 C 244.880 19.596,245.600 20.012,245.600 19.724 C 245.600 19.436,244.880 18.480,244.000 17.600 C 243.120 16.720,242.400 16.304,242.400 16.676 M120.616 28.914 C 120.111 29.226,119.595 30.498,119.471 31.741 C 119.267 33.784,119.316 33.832,119.979 32.248 C 120.382 31.285,121.722 29.958,122.956 29.300 C 125.021 28.198,125.054 28.113,123.368 28.224 C 122.360 28.291,121.122 28.601,120.616 28.914 M277.851 29.693 C 278.649 30.157,279.580 31.287,279.919 32.205 C 280.259 33.123,280.761 33.511,281.035 33.067 C 281.754 31.903,279.352 28.796,277.755 28.824 C 276.540 28.846,276.550 28.936,277.851 29.693 M180.385 115.200 C 180.385 160.300,180.482 178.750,180.600 156.200 C 180.718 133.650,180.718 96.750,180.600 74.200 C 180.482 51.650,180.385 70.100,180.385 115.200 M289.466 34.952 C 290.052 35.186,291.220 36.507,292.063 37.889 C 293.047 39.502,293.595 39.916,293.597 39.047 C 293.599 38.303,293.234 37.468,292.787 37.192 C 292.340 36.916,292.215 36.299,292.511 35.821 C 292.819 35.323,292.677 35.181,292.179 35.489 C 291.701 35.785,291.084 35.660,290.808 35.213 C 290.532 34.766,289.877 34.428,289.353 34.463 C 288.729 34.505,288.768 34.673,289.466 34.952 M308.447 47.575 C 310.304 48.979,311.200 49.102,311.200 47.953 C 311.200 47.487,310.840 47.328,310.400 47.600 C 309.960 47.872,309.600 47.713,309.600 47.247 C 309.600 46.781,308.991 46.400,308.247 46.400 C 307.067 46.400,307.093 46.550,308.447 47.575 M151.637 50.282 C 150.688 51.569,150.560 52.010,151.311 51.407 C 151.991 50.861,152.842 50.681,153.202 51.007 C 153.562 51.333,153.617 51.181,153.323 50.668 C 153.030 50.156,153.225 49.592,153.756 49.415 C 154.307 49.231,154.395 48.894,153.961 48.629 C 153.542 48.374,152.497 49.118,151.637 50.282 M219.200 115.247 C 219.200 157.742,219.469 179.128,220.000 178.800 C 221.105 178.117,221.105 51.200,220.000 51.200 C 219.473 51.200,219.200 73.082,219.200 115.247 M314.219 52.832 C 315.219 53.234,316.366 54.381,316.768 55.381 C 317.239 56.552,317.517 56.746,317.549 55.924 C 317.610 54.386,315.119 51.980,313.537 52.051 C 312.912 52.079,313.218 52.430,314.219 52.832 M143.139 57.753 C 142.569 60.056,142.694 60.637,143.679 60.259 C 144.989 59.756,145.139 58.704,144.000 58.000 C 143.560 57.728,143.172 57.617,143.139 57.753 M321.711 59.131 C 322.750 59.973,323.754 60.510,323.942 60.323 C 324.353 59.914,321.488 57.662,320.511 57.625 C 320.133 57.611,320.673 58.289,321.711 59.131 M70.133 64.533 C 69.840 64.827,69.600 65.572,69.600 66.190 C 69.600 67.637,67.980 69.244,65.837 69.925 C 64.908 70.220,63.919 71.057,63.639 71.786 C 63.172 73.004,63.247 73.007,64.566 71.828 C 65.355 71.123,66.895 70.423,67.989 70.273 C 69.597 70.052,70.072 69.424,70.463 67.000 C 70.979 63.811,70.964 63.703,70.133 64.533 M328.446 65.135 C 330.121 66.360,330.881 66.225,330.033 64.853 C 329.743 64.384,328.918 64.000,328.200 64.000 C 327.108 64.000,327.148 64.186,328.446 65.135 M265.584 66.200 C 266.543 68.179,267.597 68.499,268.476 67.076 C 268.841 66.486,268.695 66.371,268.070 66.757 C 267.501 67.109,266.597 66.744,265.903 65.880 C 264.790 64.498,264.769 64.519,265.584 66.200 M331.618 67.055 C 331.761 67.795,331.911 68.760,331.951 69.200 C 331.991 69.640,332.373 69.460,332.800 68.800 C 333.856 67.166,333.793 66.645,332.479 66.141 C 331.745 65.859,331.448 66.175,331.618 67.055 M120.521 71.680 C 119.708 72.796,119.256 73.923,119.516 74.183 C 120.183 74.850,123.200 71.977,123.200 70.676 C 123.200 69.039,122.162 69.428,120.521 71.680 M277.224 72.761 C 276.939 73.223,277.237 73.600,277.886 73.600 C 278.535 73.600,279.248 74.050,279.470 74.600 C 279.724 75.228,279.897 75.265,279.937 74.698 C 280.034 73.310,277.849 71.750,277.224 72.761 M60.074 74.886 C 59.061 75.939,58.609 76.800,59.069 76.800 C 59.529 76.800,60.132 76.434,60.408 75.987 C 60.684 75.540,61.156 75.322,61.455 75.503 C 61.755 75.684,62.434 75.362,62.964 74.788 C 64.823 72.776,62.013 72.871,60.074 74.886 M344.619 83.232 C 345.619 83.634,346.766 84.781,347.168 85.781 C 347.757 87.248,347.908 87.318,347.949 86.143 C 348.014 84.272,346.128 82.386,344.257 82.451 C 343.082 82.492,343.152 82.643,344.619 83.232 M300.350 88.464 C 301.046 89.160,301.410 90.060,301.160 90.464 C 300.910 90.869,301.108 91.200,301.600 91.200 C 302.092 91.200,302.238 91.616,301.924 92.124 C 301.583 92.675,301.703 92.831,302.221 92.511 C 302.699 92.215,303.316 92.340,303.592 92.787 C 303.868 93.234,304.703 93.586,305.447 93.568 C 306.407 93.545,306.205 93.212,304.753 92.423 C 303.628 91.811,302.285 90.385,301.771 89.255 C 301.256 88.125,300.441 87.200,299.960 87.200 C 299.479 87.200,299.655 87.769,300.350 88.464 M98.400 89.155 C 98.400 89.790,97.600 90.870,96.622 91.555 C 95.644 92.240,95.263 92.800,95.775 92.800 C 96.287 92.800,96.932 92.434,97.208 91.987 C 97.484 91.540,97.969 91.334,98.286 91.529 C 98.602 91.725,98.933 91.011,99.021 89.942 C 99.110 88.874,99.006 88.000,98.791 88.000 C 98.576 88.000,98.400 88.520,98.400 89.155 M350.847 89.975 C 352.704 91.379,353.600 91.502,353.600 90.353 C 353.600 89.887,353.240 89.728,352.800 90.000 C 352.360 90.272,352.000 90.113,352.000 89.647 C 352.000 89.181,351.391 88.800,350.647 88.800 C 349.467 88.800,349.493 88.950,350.847 89.975 M92.000 95.600 C 92.000 96.260,91.640 96.800,91.200 96.800 C 90.760 96.800,90.400 97.329,90.400 97.975 C 90.400 98.705,90.867 98.971,91.635 98.676 C 92.313 98.416,92.686 98.019,92.463 97.796 C 92.239 97.572,92.416 96.717,92.856 95.895 C 93.398 94.883,93.389 94.400,92.828 94.400 C 92.373 94.400,92.000 94.940,92.000 95.600 M307.200 97.600 C 307.200 98.040,307.920 98.400,308.800 98.400 C 309.680 98.400,310.400 98.700,310.400 99.067 C 310.400 99.433,310.940 99.733,311.600 99.733 C 313.329 99.733,313.101 99.397,310.440 98.021 C 307.666 96.586,307.200 96.526,307.200 97.600 M362.000 107.573 C 362.880 108.267,364.078 109.457,364.663 110.217 C 365.633 111.479,365.703 111.440,365.463 109.768 C 365.318 108.761,364.840 107.915,364.400 107.889 C 363.960 107.863,362.880 107.498,362.000 107.077 L 360.400 106.312 362.000 107.573 M324.893 118.935 C 324.744 120.430,325.711 122.426,326.383 122.010 C 326.722 121.801,327.944 122.506,329.099 123.577 C 330.255 124.648,331.200 125.184,331.200 124.769 C 331.200 124.354,329.951 123.201,328.426 122.207 C 326.900 121.213,325.501 119.860,325.318 119.200 C 325.135 118.540,324.944 118.421,324.893 118.935 M381.300 156.156 C 382.214 157.170,383.204 158.682,383.500 159.515 C 383.796 160.347,384.244 160.822,384.497 160.570 C 385.166 159.901,382.297 155.332,380.861 154.781 C 380.031 154.462,380.172 154.905,381.300 156.156 M55.642 161.000 C 55.186 162.482,55.395 164.872,55.933 164.334 C 56.421 163.846,56.669 160.000,56.212 160.000 C 56.068 160.000,55.811 160.450,55.642 161.000 M252.600 180.600 C 270.310 180.720,299.290 180.720,317.000 180.600 C 334.710 180.480,320.220 180.381,284.800 180.381 C 249.380 180.381,234.890 180.480,252.600 180.600 M50.629 207.600 C 50.635 209.800,50.790 210.605,50.974 209.389 C 51.158 208.173,51.153 206.373,50.963 205.389 C 50.773 204.405,50.623 205.400,50.629 207.600 M382.874 211.600 C 382.153 212.700,380.971 213.600,380.248 213.600 C 379.525 213.600,379.131 213.798,379.372 214.039 C 379.614 214.280,380.770 214.237,381.943 213.943 C 383.115 213.649,383.890 213.224,383.665 212.999 C 383.440 212.774,383.616 211.917,384.056 211.095 C 385.222 208.916,384.403 209.266,382.874 211.600 M203.200 220.000 C 203.200 220.528,231.258 220.796,285.800 220.788 C 339.423 220.780,367.979 220.503,367.200 220.000 C 365.526 218.918,203.200 218.918,203.200 220.000 M53.777 236.130 C 53.947 236.642,54.717 237.153,55.488 237.266 C 56.614 237.431,56.704 237.248,55.947 236.336 C 54.811 234.968,53.343 234.829,53.777 236.130 M17.600 244.000 C 18.480 244.880,19.436 245.600,19.724 245.600 C 20.012 245.600,19.596 244.880,18.800 244.000 C 18.004 243.120,17.048 242.400,16.676 242.400 C 16.304 242.400,16.720 243.120,17.600 244.000 M354.209 246.166 C 355.204 246.357,356.644 246.350,357.409 246.150 C 358.174 245.949,357.360 245.793,355.600 245.802 C 353.840 245.811,353.214 245.974,354.209 246.166 M59.139 254.624 C 61.452 257.219,61.232 257.164,61.381 255.183 C 61.448 254.293,61.149 253.784,60.717 254.052 C 60.284 254.319,59.316 254.068,58.565 253.493 C 57.814 252.919,58.073 253.428,59.139 254.624 M372.229 265.200 C 372.235 267.400,372.390 268.205,372.574 266.989 C 372.758 265.773,372.753 263.973,372.563 262.989 C 372.373 262.005,372.223 263.000,372.229 265.200 M28.824 277.755 C 28.796 279.352,31.903 281.754,33.067 281.035 C 33.511 280.761,33.123 280.259,32.205 279.919 C 31.287 279.580,30.157 278.649,29.693 277.851 C 28.936 276.550,28.846 276.540,28.824 277.755 M326.863 278.544 C 325.057 280.653,326.497 280.890,328.999 278.895 C 330.912 277.370,330.993 277.143,329.629 277.143 C 328.767 277.143,327.522 277.773,326.863 278.544 M369.786 278.400 C 369.236 279.280,368.228 280.000,367.546 280.000 C 366.864 280.000,366.507 280.326,366.754 280.725 C 367.427 281.815,370.400 280.784,370.400 279.459 C 370.400 278.825,370.756 278.526,371.191 278.794 C 371.644 279.075,371.778 278.753,371.505 278.042 C 370.912 276.496,370.984 276.482,369.786 278.400 M363.712 290.155 C 362.949 290.917,363.094 292.800,363.914 292.800 C 364.896 292.800,365.684 290.546,364.877 290.047 C 364.517 289.825,363.993 289.874,363.712 290.155 M36.921 292.436 C 37.648 293.178,38.679 293.640,39.212 293.463 C 39.745 293.285,39.151 292.678,37.891 292.113 C 35.746 291.152,35.684 291.172,36.921 292.436 M310.257 301.128 C 309.078 301.743,307.878 302.011,307.590 301.723 C 307.302 301.435,307.139 301.560,307.228 302.000 C 307.571 303.698,307.141 304.859,305.600 306.400 C 304.720 307.280,304.355 308.000,304.790 308.000 C 305.224 308.000,306.489 306.560,307.600 304.800 C 308.711 303.040,310.134 301.600,310.763 301.600 C 311.391 301.600,312.128 301.240,312.400 300.800 C 313.045 299.757,312.818 299.792,310.257 301.128 M46.400 308.247 C 46.400 308.991,46.781 309.600,47.247 309.600 C 47.713 309.600,47.872 309.960,47.600 310.400 C 47.328 310.840,47.487 311.200,47.953 311.200 C 49.102 311.200,48.979 310.304,47.575 308.447 C 46.550 307.093,46.400 307.067,46.400 308.247 M350.400 310.202 C 347.739 312.851,347.717 312.915,349.965 311.494 C 351.265 310.672,352.525 310.090,352.765 310.200 C 353.004 310.310,353.206 310.130,353.212 309.800 C 353.219 309.470,353.510 308.750,353.859 308.200 C 355.039 306.343,353.218 307.396,350.400 310.202 M289.257 319.657 C 287.354 321.560,287.753 322.056,289.800 320.333 C 290.790 319.499,291.750 318.723,291.933 318.609 C 292.117 318.494,291.872 318.400,291.390 318.400 C 290.909 318.400,289.949 318.966,289.257 319.657 M57.625 320.511 C 57.662 321.488,59.914 324.353,60.323 323.942 C 60.510 323.754,59.973 322.750,59.131 321.711 C 58.289 320.673,57.611 320.133,57.625 320.511 M64.000 328.200 C 64.000 328.918,64.384 329.743,64.853 330.033 C 66.225 330.881,66.360 330.121,65.135 328.446 C 64.186 327.148,64.000 327.108,64.000 328.200 M331.439 330.261 C 330.966 330.557,329.991 332.213,329.272 333.940 C 327.971 337.064,327.973 337.073,329.563 335.633 C 330.443 334.837,330.987 333.903,330.774 333.558 C 330.249 332.708,332.753 330.277,333.609 330.806 C 333.983 331.037,334.469 330.935,334.689 330.579 C 335.185 329.777,332.611 329.525,331.439 330.261 M66.141 332.479 C 66.645 333.793,67.166 333.856,68.800 332.800 C 69.460 332.373,69.640 331.991,69.200 331.951 C 68.760 331.911,67.795 331.761,67.055 331.618 C 66.175 331.448,65.859 331.745,66.141 332.479 M143.666 338.293 C 143.148 339.131,145.929 341.805,146.610 341.124 C 147.535 340.199,146.260 338.504,145.003 338.986 C 144.165 339.308,143.933 339.155,144.316 338.536 C 144.634 338.021,144.714 337.600,144.494 337.600 C 144.274 337.600,143.902 337.912,143.666 338.293 M253.584 338.819 C 253.027 339.490,252.803 340.270,253.086 340.553 C 253.369 340.835,253.600 340.625,253.600 340.086 C 253.600 339.547,254.016 339.362,254.524 339.676 C 255.074 340.017,255.231 339.897,254.912 339.381 C 254.603 338.881,255.143 338.367,256.188 338.166 C 257.910 337.835,257.916 337.813,256.298 337.709 C 255.362 337.649,254.141 338.149,253.584 338.819 M215.400 349.351 C 216.170 349.553,217.430 349.553,218.200 349.351 C 218.970 349.150,218.340 348.986,216.800 348.986 C 215.260 348.986,214.630 349.150,215.400 349.351 M309.350 352.039 C 308.112 353.337,307.482 354.400,307.950 354.400 C 309.026 354.400,312.000 351.463,312.000 350.400 C 312.000 349.300,311.901 349.361,309.350 352.039 M91.553 353.211 C 92.407 353.865,93.577 354.400,94.153 354.400 C 95.937 354.400,95.315 353.795,92.600 352.889 C 90.221 352.096,90.132 352.123,91.553 353.211 M107.090 362.800 C 107.532 364.516,108.262 365.275,109.654 365.463 C 111.419 365.701,111.471 365.627,110.217 364.663 C 109.457 364.078,108.303 362.880,107.653 362.000 C 106.543 360.497,106.509 360.545,107.090 362.800 M290.775 364.040 C 290.015 365.270,291.056 366.064,292.083 365.037 C 292.658 364.462,292.671 364.015,292.125 363.677 C 291.677 363.400,291.070 363.564,290.775 364.040 M278.965 369.624 C 278.223 370.491,277.928 371.200,278.310 371.200 C 279.190 371.200,281.148 368.881,280.671 368.405 C 280.475 368.208,279.707 368.757,278.965 369.624 M243.529 380.400 C 243.252 381.500,242.454 382.400,241.753 382.400 C 240.877 382.400,240.738 382.658,241.306 383.226 C 242.427 384.347,244.997 383.267,244.471 381.897 C 244.240 381.294,244.399 380.800,244.825 380.800 C 245.251 380.800,245.600 380.260,245.600 379.600 C 245.600 377.644,244.072 378.234,243.529 380.400 M154.781 380.861 C 155.332 382.297,159.901 385.166,160.570 384.497 C 160.822 384.244,160.347 383.796,159.515 383.500 C 158.682 383.204,157.170 382.214,156.156 381.300 C 154.905 380.172,154.462 380.031,154.781 380.861 " stroke="none" fill="#e60000" fill-rule="evenodd"></path><path id="path3" d="M197.494 15.573 C 197.272 15.794,195.405 16.040,193.345 16.118 C 191.285 16.196,189.600 16.582,189.600 16.977 C 189.600 17.372,189.281 17.497,188.891 17.256 C 188.024 16.720,186.211 18.744,186.921 19.455 C 187.201 19.734,186.915 20.160,186.286 20.401 C 185.547 20.685,185.184 21.892,185.258 23.820 C 185.347 26.166,184.884 27.242,183.082 28.875 L 180.792 30.950 180.781 114.793 C 180.770 201.685,180.835 203.503,183.943 202.991 C 184.833 202.844,185.103 203.776,185.103 207.000 C 185.103 209.930,185.420 211.200,186.152 211.200 C 186.728 211.200,187.110 211.632,187.000 212.161 C 186.753 213.348,191.468 215.094,195.086 215.155 C 197.072 215.188,197.657 215.497,197.333 216.342 C 196.854 217.590,198.625 219.508,199.474 218.660 C 199.763 218.370,200.000 218.463,200.000 218.867 C 200.000 219.306,233.782 219.600,284.400 219.600 C 330.820 219.600,368.800 219.309,368.800 218.953 C 368.800 218.597,369.216 218.562,369.724 218.876 C 370.298 219.231,370.430 219.096,370.073 218.518 C 369.740 217.980,370.109 217.363,370.949 217.053 C 371.747 216.758,372.626 216.180,372.903 215.769 C 373.363 215.083,376.111 214.497,380.533 214.140 C 381.487 214.063,382.127 213.861,381.957 213.690 C 381.787 213.520,382.331 212.420,383.168 211.246 C 384.899 208.813,385.108 163.357,383.407 159.200 C 382.956 158.100,382.781 156.874,383.018 156.476 C 383.254 156.078,383.112 155.960,382.701 156.214 C 380.168 157.779,378.441 154.027,378.171 146.367 C 378.022 142.169,377.632 138.299,377.303 137.767 C 376.974 137.235,376.895 136.494,377.126 136.121 C 377.631 135.303,373.937 131.929,373.268 132.598 C 373.011 132.856,372.786 132.917,372.770 132.733 C 372.115 125.504,370.885 122.130,368.428 120.815 C 366.962 120.031,366.446 118.891,366.023 115.508 C 365.727 113.139,365.130 111.200,364.695 111.200 C 364.261 111.200,364.130 110.837,364.405 110.393 C 364.679 109.948,363.803 108.958,362.457 108.193 C 360.200 106.908,359.352 104.607,359.928 101.331 C 359.993 100.963,359.295 100.466,358.378 100.226 C 357.325 99.951,356.875 99.359,357.158 98.621 C 357.433 97.906,357.022 97.299,356.101 97.058 C 354.539 96.650,352.488 93.152,353.167 92.054 C 353.380 91.709,352.313 90.759,350.795 89.942 C 349.251 89.110,347.694 87.473,347.258 86.223 C 346.830 84.994,345.555 83.639,344.420 83.207 C 343.286 82.777,342.162 81.789,341.922 81.012 C 341.181 78.618,340.435 77.477,339.600 77.459 C 337.881 77.423,336.000 75.874,336.000 74.496 C 336.000 72.794,333.836 70.683,331.679 70.283 C 330.774 70.114,330.039 69.190,329.864 68.000 C 329.512 65.606,327.578 64.000,325.047 64.000 C 323.636 64.000,323.200 63.551,323.200 62.098 C 323.200 59.860,321.954 58.659,319.233 58.277 C 317.909 58.090,317.113 57.346,316.799 56.000 C 316.529 54.843,315.335 53.526,313.966 52.877 C 311.452 51.683,310.287 50.430,310.847 49.524 C 311.163 49.013,304.614 45.558,302.800 45.278 C 301.387 45.061,300.000 43.932,300.000 43.000 C 300.000 42.502,300.485 42.758,301.078 43.568 C 301.797 44.552,302.339 44.746,302.706 44.152 C 303.324 43.152,298.364 40.333,295.195 39.883 C 294.098 39.728,292.596 38.644,291.858 37.476 C 290.551 35.407,288.856 34.726,283.284 34.027 C 280.961 33.736,277.718 32.000,279.497 32.000 C 280.678 32.000,277.941 29.837,274.987 28.435 C 273.351 27.659,271.416 27.253,270.686 27.533 C 269.227 28.093,266.124 25.384,267.048 24.357 C 267.352 24.020,267.179 23.985,266.664 24.279 C 266.150 24.574,265.241 24.361,264.645 23.807 C 264.049 23.253,263.114 22.708,262.567 22.595 C 261.133 22.300,251.320 21.654,247.838 21.625 C 245.237 21.603,244.709 21.251,243.520 18.744 C 242.660 16.932,241.951 16.232,241.582 16.829 C 241.191 17.462,240.831 17.497,240.484 16.936 C 240.201 16.477,239.346 16.115,238.584 16.131 C 237.823 16.148,228.357 15.938,217.549 15.665 C 206.741 15.392,197.716 15.351,197.494 15.573 M125.600 27.825 C 125.600 28.168,124.492 28.868,123.137 29.379 C 121.782 29.890,120.483 31.040,120.249 31.935 C 119.841 33.493,117.712 34.280,113.000 34.613 C 112.010 34.683,111.200 35.013,111.200 35.345 C 111.200 35.678,110.750 35.777,110.199 35.566 C 109.643 35.352,108.740 36.219,108.166 37.515 C 107.548 38.911,106.607 39.771,105.824 39.657 C 104.403 39.448,100.303 41.263,99.590 42.416 C 99.347 42.809,98.657 42.941,98.055 42.711 C 97.454 42.480,96.690 42.731,96.357 43.269 C 95.937 43.950,96.095 44.046,96.876 43.586 C 97.494 43.222,97.333 43.686,96.517 44.617 C 95.701 45.548,93.984 46.540,92.700 46.822 C 91.080 47.178,90.041 48.111,89.306 49.867 C 88.504 51.783,87.707 52.429,86.032 52.521 C 83.948 52.635,78.955 56.910,79.687 57.954 C 79.859 58.199,79.773 58.233,79.495 58.028 C 78.678 57.427,75.938 59.197,76.069 60.242 C 76.411 62.963,75.896 64.001,74.200 64.012 C 71.550 64.030,70.577 64.920,70.272 67.603 C 70.061 69.460,69.550 70.061,68.000 70.273 C 65.786 70.575,63.028 72.675,63.610 73.616 C 64.025 74.288,62.322 75.938,61.426 75.732 C 60.133 75.435,57.600 78.521,57.600 80.392 C 57.600 81.859,57.174 82.400,56.018 82.400 C 54.499 82.400,51.803 85.472,52.064 86.907 C 52.380 88.647,51.914 89.740,51.000 89.404 C 50.051 89.056,46.470 92.079,46.284 93.386 C 46.055 94.989,45.338 95.975,44.118 96.363 C 42.645 96.830,40.070 102.143,39.813 105.243 C 39.705 106.551,38.893 107.556,37.416 108.210 C 36.187 108.754,35.346 109.626,35.546 110.148 C 35.746 110.670,35.606 111.210,35.235 111.348 C 34.864 111.487,34.434 113.216,34.280 115.192 C 34.044 118.220,33.632 118.974,31.659 119.992 C 28.893 121.419,27.145 125.781,27.663 129.961 C 27.860 131.547,27.664 132.800,27.219 132.800 C 24.210 132.800,21.752 140.810,21.650 150.946 C 21.607 155.179,21.367 155.966,19.986 156.404 C 16.191 157.609,15.886 160.452,15.788 195.600 C 15.685 232.425,15.885 239.834,16.998 240.523 C 17.465 240.811,17.398 241.230,16.829 241.582 C 16.232 241.951,16.932 242.660,18.744 243.520 C 21.253 244.710,21.602 245.235,21.620 247.838 C 21.688 257.749,22.386 263.117,23.807 264.645 C 24.361 265.241,24.574 266.150,24.279 266.664 C 23.985 267.179,24.020 267.352,24.357 267.048 C 25.384 266.124,28.093 269.227,27.533 270.686 C 27.253 271.416,27.659 273.351,28.435 274.987 C 29.837 277.941,32.000 280.678,32.000 279.497 C 32.000 279.158,32.380 279.260,32.844 279.724 C 33.671 280.551,34.565 284.638,34.521 287.400 C 34.509 288.170,34.897 288.800,35.383 288.800 C 35.869 288.800,36.033 289.033,35.748 289.319 C 35.242 289.825,38.148 292.800,39.148 292.800 C 39.425 292.800,39.726 293.708,39.818 294.817 C 40.067 297.824,43.105 303.353,44.152 302.706 C 44.746 302.339,44.552 301.797,43.568 301.078 C 42.758 300.485,42.502 300.000,43.000 300.000 C 43.932 300.000,45.061 301.387,45.278 302.800 C 45.519 304.360,48.960 311.148,49.476 311.080 C 51.200 310.852,51.928 311.452,52.371 313.468 C 52.711 315.017,53.747 316.155,55.635 317.055 C 57.289 317.844,58.400 318.958,58.400 319.827 C 58.400 321.811,59.949 323.200,62.160 323.200 C 63.549 323.200,64.000 323.653,64.000 325.047 C 64.000 327.578,65.606 329.512,68.000 329.864 C 69.190 330.039,70.114 330.774,70.283 331.679 C 70.683 333.836,72.794 336.000,74.496 336.000 C 75.292 336.000,76.329 336.720,76.800 337.600 C 77.271 338.480,77.420 339.200,77.130 339.200 C 76.841 339.200,77.052 339.740,77.600 340.400 C 78.148 341.060,79.303 341.600,80.167 341.600 C 81.181 341.600,82.062 342.457,82.650 344.013 C 83.256 345.619,84.452 346.749,86.221 347.389 C 87.684 347.918,89.313 349.222,89.840 350.286 C 90.368 351.351,91.079 352.157,91.420 352.078 C 92.554 351.813,96.800 354.729,96.800 355.772 C 96.800 356.338,97.327 356.800,97.972 356.800 C 98.616 356.800,99.489 357.445,99.910 358.232 C 100.404 359.155,101.765 359.737,103.738 359.867 C 105.422 359.979,106.927 360.435,107.082 360.880 C 107.435 361.895,111.076 365.572,111.836 365.681 C 112.146 365.725,113.946 365.858,115.836 365.977 C 118.909 366.169,121.480 367.838,121.575 369.703 C 121.614 370.481,125.665 371.875,129.052 372.276 C 131.596 372.578,134.288 373.600,132.539 373.600 C 132.248 373.600,132.782 374.488,133.726 375.573 C 134.669 376.658,135.747 377.356,136.121 377.126 C 136.494 376.895,137.235 376.974,137.767 377.303 C 138.299 377.632,142.169 378.022,146.367 378.171 C 154.027 378.441,157.779 380.168,156.214 382.701 C 155.960 383.112,156.078 383.254,156.476 383.018 C 156.874 382.781,158.100 382.964,159.200 383.423 C 161.657 384.449,224.894 385.033,231.025 384.087 C 233.349 383.728,235.441 383.743,235.674 384.119 C 235.907 384.496,236.769 384.445,237.591 384.005 C 238.412 383.565,239.740 383.442,240.542 383.730 C 241.344 384.019,241.760 383.988,241.467 383.661 C 241.173 383.334,241.578 382.422,242.367 381.633 C 243.155 380.845,243.935 379.827,244.100 379.370 C 244.272 378.894,247.810 378.443,252.400 378.312 C 256.800 378.187,260.919 377.705,261.554 377.242 C 262.417 376.612,262.556 376.652,262.106 377.400 C 261.776 377.950,261.698 378.400,261.932 378.400 C 262.167 378.400,262.902 377.350,263.566 376.067 C 264.828 373.626,267.485 372.423,273.201 371.705 C 277.452 371.171,279.200 370.445,279.200 369.212 C 279.200 367.483,281.552 366.133,284.806 365.995 C 286.518 365.922,288.439 365.431,289.075 364.903 C 289.711 364.376,290.703 364.046,291.278 364.172 C 291.854 364.297,292.377 363.860,292.441 363.200 C 292.504 362.540,292.611 361.550,292.678 361.000 C 292.745 360.450,293.718 360.000,294.840 360.000 C 295.962 360.000,297.942 359.451,299.240 358.779 C 300.538 358.108,301.600 357.774,301.600 358.037 C 301.600 358.299,302.140 357.974,302.800 357.314 C 303.460 356.654,304.000 355.729,304.000 355.257 C 304.000 354.497,304.585 354.270,306.055 354.458 C 306.305 354.491,308.303 352.839,310.495 350.788 C 312.810 348.623,314.957 347.242,315.615 347.495 C 316.239 347.734,316.996 347.530,317.298 347.041 C 317.650 346.471,317.444 346.362,316.724 346.736 C 315.961 347.131,315.995 346.978,316.829 346.259 C 317.505 345.677,317.929 344.570,317.770 343.800 C 317.559 342.773,317.999 342.400,319.419 342.400 C 321.616 342.400,325.187 339.673,324.482 338.533 C 324.227 338.120,324.621 337.291,325.359 336.691 C 326.543 335.727,326.632 335.781,326.115 337.155 C 325.549 338.663,325.580 338.666,327.135 337.258 C 328.018 336.460,329.141 334.590,329.632 333.103 C 330.123 331.616,330.946 330.345,331.462 330.278 C 331.978 330.211,332.760 330.073,333.200 329.970 C 333.640 329.868,334.450 329.743,335.000 329.692 C 335.592 329.638,336.000 328.457,336.000 326.800 C 336.000 324.373,336.267 323.987,338.000 323.900 C 341.652 323.717,341.999 323.607,342.100 322.600 C 342.155 322.050,342.245 321.219,342.300 320.753 C 342.355 320.287,342.761 320.128,343.201 320.401 C 343.642 320.673,344.353 319.975,344.782 318.848 C 345.210 317.722,345.913 316.800,346.344 316.800 C 346.775 316.800,347.356 315.583,347.635 314.096 C 347.966 312.330,348.798 311.093,350.033 310.531 C 351.072 310.057,352.490 308.574,353.182 307.235 C 353.875 305.896,354.813 304.800,355.268 304.800 C 355.722 304.800,355.874 304.444,355.606 304.009 C 355.325 303.556,355.647 303.422,356.358 303.695 C 357.163 304.004,357.600 303.719,357.600 302.886 C 357.600 302.179,357.949 301.600,358.375 301.600 C 358.801 301.600,358.920 301.001,358.639 300.269 C 358.295 299.374,358.435 299.127,359.064 299.516 C 359.579 299.834,360.000 299.743,360.000 299.314 C 360.000 298.885,359.550 298.352,359.000 298.130 C 358.200 297.807,358.200 297.714,359.000 297.663 C 359.550 297.628,360.000 296.580,360.000 295.332 C 360.000 292.971,364.083 288.408,365.254 289.460 C 365.586 289.757,365.626 289.595,365.343 289.101 C 363.618 286.077,367.586 278.638,370.659 279.133 C 371.022 279.192,371.096 278.878,370.822 278.436 C 370.549 277.995,370.726 276.885,371.216 275.971 C 372.147 274.230,372.488 257.998,371.648 255.352 C 371.382 254.514,369.733 253.266,367.982 252.579 C 365.717 251.689,364.800 250.857,364.800 249.693 C 364.800 245.336,353.440 245.045,348.943 249.287 C 347.361 250.779,345.640 252.000,345.119 252.000 C 344.097 252.000,342.921 254.064,342.844 255.989 C 342.818 256.643,342.078 257.311,341.199 257.472 C 338.761 257.919,337.173 259.687,336.984 262.163 C 336.890 263.394,336.090 264.894,335.207 265.498 C 334.323 266.101,333.600 266.937,333.600 267.355 C 333.600 267.772,333.060 268.654,332.400 269.314 C 331.740 269.974,331.155 271.749,331.100 273.257 C 330.962 277.045,331.049 276.859,327.872 280.138 C 326.306 281.753,324.803 284.183,324.532 285.538 C 324.198 287.208,323.570 288.000,322.580 288.000 C 320.644 288.000,319.200 289.530,319.200 291.582 C 319.200 292.496,318.480 293.861,317.600 294.614 C 316.720 295.368,316.000 295.782,316.000 295.535 C 316.000 294.309,313.485 297.803,313.382 299.173 C 313.310 300.132,312.380 301.069,311.033 301.538 C 309.807 301.966,308.361 303.324,307.819 304.558 C 307.277 305.791,306.308 307.126,305.666 307.524 C 305.024 307.922,303.299 309.447,301.834 310.913 C 300.368 312.378,298.270 313.803,297.170 314.079 C 296.071 314.355,295.248 314.990,295.343 315.490 C 295.762 317.718,294.303 319.890,292.608 319.563 C 290.559 319.168,288.000 321.257,288.000 323.324 C 288.000 324.307,287.418 324.800,286.257 324.800 C 284.199 324.800,279.200 326.507,279.200 327.210 C 279.200 328.770,275.650 331.200,273.369 331.203 C 270.448 331.206,265.491 333.904,265.797 335.323 C 265.987 336.203,263.065 337.256,258.400 337.989 C 257.301 338.162,255.561 339.280,254.534 340.474 C 252.888 342.386,252.032 342.665,247.333 342.817 C 244.400 342.913,241.910 343.083,241.800 343.195 C 241.690 343.308,241.270 343.445,240.867 343.500 C 240.463 343.555,239.863 343.870,239.533 344.200 C 239.203 344.530,238.303 344.800,237.533 344.800 C 236.763 344.800,235.412 345.790,234.531 347.000 L 232.928 349.200 199.591 349.277 L 166.254 349.355 165.410 347.503 C 164.946 346.484,164.256 345.842,163.877 346.076 C 163.499 346.310,162.974 345.941,162.711 345.255 C 162.448 344.570,161.910 344.208,161.516 344.452 C 161.122 344.695,160.800 344.492,160.800 344.000 C 160.800 343.508,160.424 343.338,159.965 343.622 C 159.506 343.906,158.696 343.796,158.165 343.379 C 157.634 342.961,154.876 342.660,152.036 342.710 C 147.043 342.797,143.200 340.965,143.200 338.497 C 143.200 338.150,142.750 337.826,142.200 337.776 C 137.282 337.331,134.359 336.461,134.709 335.547 C 134.927 334.981,134.550 334.056,133.872 333.494 C 132.579 332.420,132.274 332.313,128.400 331.566 C 122.899 330.505,122.353 330.323,122.748 329.683 C 122.976 329.315,122.451 328.370,121.581 327.583 C 120.712 326.796,120.000 326.414,120.000 326.733 C 120.000 327.053,119.434 326.749,118.743 326.057 C 118.051 325.366,116.701 324.794,115.743 324.788 C 113.261 324.770,111.941 323.731,111.786 321.673 C 111.667 320.097,108.341 318.453,106.343 318.983 C 106.092 319.050,105.461 317.956,104.940 316.552 C 104.363 314.997,102.979 313.505,101.397 312.732 C 99.918 312.010,98.693 310.741,98.551 309.785 C 98.387 308.677,97.514 307.933,95.988 307.597 C 93.939 307.147,92.181 304.775,92.623 303.056 C 92.700 302.757,91.535 302.107,90.035 301.612 C 88.016 300.945,87.178 300.120,86.807 298.434 C 86.475 296.920,85.519 295.829,83.959 295.183 C 82.269 294.483,81.389 293.387,80.821 291.277 C 80.245 289.139,79.568 288.308,78.325 288.214 C 76.143 288.050,75.973 287.852,75.650 285.093 C 75.503 283.832,75.341 282.509,75.291 282.153 C 75.241 281.797,74.784 281.762,74.276 282.076 C 73.758 282.397,73.568 282.299,73.843 281.854 C 74.490 280.807,72.210 277.600,70.818 277.600 C 69.798 277.600,68.475 273.905,68.926 272.315 C 69.243 271.198,66.571 266.612,64.926 265.449 C 63.645 264.543,61.869 259.168,62.265 257.400 C 62.339 257.070,62.095 256.800,61.722 256.800 C 59.179 256.800,57.454 253.519,57.225 248.246 C 57.095 245.251,56.637 241.900,56.209 240.800 C 55.780 239.700,55.605 238.300,55.819 237.689 C 56.057 237.007,55.856 236.795,55.298 237.139 C 54.798 237.448,54.173 237.139,53.909 236.451 C 53.645 235.763,52.927 235.200,52.314 235.200 C 51.701 235.200,51.187 234.750,51.170 234.200 C 51.154 233.650,51.002 226.101,50.832 217.424 C 50.663 208.747,50.261 201.222,49.939 200.701 C 49.616 200.179,49.678 199.952,50.076 200.195 C 50.497 200.453,50.875 193.425,50.980 183.408 C 51.164 165.837,51.840 162.685,55.200 163.738 C 55.420 163.807,55.636 162.853,55.681 161.619 C 55.725 160.385,56.046 158.706,56.394 157.888 C 56.741 157.069,57.108 154.600,57.209 152.400 C 57.478 146.527,57.549 146.082,58.121 146.654 C 58.407 146.941,59.154 146.551,59.780 145.788 C 60.406 145.024,60.656 144.906,60.336 145.524 C 59.939 146.287,60.066 146.454,60.730 146.043 C 61.267 145.711,61.515 145.248,61.281 145.015 C 61.048 144.781,61.270 143.827,61.775 142.895 C 62.281 141.963,62.726 140.012,62.765 138.560 C 62.804 137.108,63.368 135.583,64.018 135.172 C 64.668 134.761,64.930 134.419,64.600 134.412 C 64.270 134.406,64.630 133.734,65.400 132.920 C 68.559 129.581,69.462 128.045,69.094 126.637 C 68.680 125.053,71.638 121.047,72.947 121.420 C 73.371 121.541,73.491 121.271,73.212 120.820 C 72.934 120.369,73.087 120.000,73.553 120.000 C 74.019 120.000,74.336 119.730,74.259 119.400 C 73.784 117.384,76.207 112.163,77.996 111.348 C 79.098 110.845,80.045 110.067,80.100 109.617 C 80.450 106.760,81.706 104.800,83.188 104.800 C 84.941 104.800,86.449 103.067,86.615 100.864 C 86.684 99.949,87.375 98.999,88.149 98.753 C 88.924 98.507,90.316 97.241,91.242 95.941 C 92.848 93.686,97.024 90.891,97.731 91.598 C 97.914 91.781,98.120 91.191,98.189 90.286 C 98.334 88.354,100.748 86.285,102.242 86.813 C 102.814 87.016,103.086 86.864,102.846 86.475 C 102.606 86.086,102.947 85.561,103.605 85.309 C 104.262 85.057,104.800 84.126,104.800 83.240 C 104.800 81.694,105.637 81.273,110.000 80.624 C 111.073 80.465,111.683 79.664,111.853 78.193 C 112.048 76.508,112.534 76.000,113.955 76.000 C 114.972 76.000,116.249 75.464,116.793 74.809 C 117.336 74.154,118.025 73.768,118.322 73.952 C 118.620 74.136,119.550 73.265,120.389 72.016 C 121.587 70.234,122.900 69.552,126.500 68.844 C 129.022 68.348,131.263 67.505,131.480 66.971 C 131.757 66.289,131.892 66.327,131.937 67.098 C 131.988 67.979,132.235 68.001,133.191 67.207 C 133.846 66.664,134.196 65.918,133.969 65.549 C 133.430 64.677,136.159 63.235,138.758 63.020 C 139.881 62.927,140.800 62.548,140.800 62.178 C 140.800 61.808,141.250 61.765,141.800 62.081 C 142.350 62.398,142.559 62.388,142.265 62.060 C 141.677 61.404,143.156 56.490,143.761 57.094 C 144.424 57.757,148.815 55.871,148.352 55.122 C 148.106 54.725,148.428 54.400,149.067 54.400 C 149.706 54.400,150.456 53.809,150.733 53.087 C 151.157 51.981,151.041 51.936,150.000 52.800 C 148.959 53.664,148.843 53.619,149.267 52.513 C 149.544 51.791,150.093 51.155,150.486 51.100 C 150.879 51.045,151.620 50.955,152.134 50.900 C 155.759 50.512,153.761 35.200,150.085 35.200 C 148.813 35.200,146.743 32.190,147.497 31.436 C 150.370 28.564,131.511 25.499,128.046 28.276 C 127.155 28.990,127.029 28.973,127.494 28.200 C 127.872 27.571,127.632 27.200,126.847 27.200 C 126.161 27.200,125.600 27.481,125.600 27.825 M234.271 51.665 C 235.896 52.013,236.001 52.238,235.071 53.383 C 234.146 54.520,234.185 54.630,235.359 54.191 C 236.377 53.810,236.594 54.005,236.224 54.969 C 235.838 55.977,236.107 56.159,237.464 55.804 C 238.418 55.554,239.356 55.605,239.549 55.917 C 239.742 56.229,242.133 56.547,244.863 56.624 C 251.323 56.806,252.694 57.299,253.285 59.653 C 253.554 60.724,253.848 61.600,253.940 61.600 C 254.557 61.600,263.871 63.368,265.012 63.702 C 265.788 63.929,266.217 64.449,265.964 64.858 C 265.712 65.266,265.908 65.600,266.400 65.600 C 266.892 65.600,267.034 66.021,266.716 66.536 C 266.327 67.165,266.574 67.305,267.469 66.961 C 268.201 66.680,268.800 66.757,268.800 67.132 C 268.800 67.897,271.446 68.847,274.268 69.095 C 276.196 69.264,279.381 72.660,278.678 73.797 C 278.460 74.151,278.578 74.358,278.941 74.258 C 281.182 73.641,288.083 76.452,288.511 78.157 C 288.817 79.378,289.821 80.213,291.487 80.634 C 293.231 81.075,294.350 82.054,295.144 83.835 C 296.191 86.180,297.217 86.777,299.698 86.483 C 300.192 86.425,301.053 87.479,301.611 88.826 C 302.169 90.173,303.655 91.808,304.913 92.458 C 306.961 93.518,307.556 94.433,307.311 96.151 C 307.268 96.454,307.950 96.930,308.828 97.209 C 309.705 97.487,310.242 98.009,310.020 98.367 C 309.799 98.726,310.235 98.970,310.989 98.910 C 311.744 98.849,312.419 99.160,312.488 99.600 C 312.924 102.344,314.031 103.900,316.246 104.883 C 317.960 105.642,318.998 106.819,319.488 108.559 C 320.032 110.493,320.788 111.246,322.583 111.640 C 324.673 112.099,324.916 112.444,324.612 114.516 C 324.422 115.811,324.567 117.056,324.933 117.282 C 325.300 117.509,325.604 118.303,325.610 119.047 C 325.615 119.791,326.875 121.213,328.410 122.207 C 330.700 123.691,331.200 124.505,331.200 126.750 C 331.200 128.255,331.766 130.051,332.457 130.743 C 333.149 131.434,333.488 132.000,333.213 132.000 C 332.937 132.000,333.614 132.810,334.717 133.800 C 336.129 135.067,336.830 136.667,337.082 139.200 C 337.486 143.254,338.996 147.671,339.728 146.939 C 341.163 145.504,343.082 148.108,342.632 150.881 C 342.306 152.886,342.504 153.975,343.282 154.468 C 344.002 154.923,344.061 155.180,343.450 155.188 C 342.927 155.194,342.554 155.920,342.620 156.800 C 342.686 157.680,343.045 158.400,343.417 158.400 C 343.790 158.400,343.877 158.753,343.610 159.183 C 342.886 160.355,344.575 163.021,346.411 163.603 C 347.298 163.885,347.806 164.467,347.540 164.896 C 347.240 165.382,346.554 165.299,345.729 164.677 C 344.591 163.821,344.549 163.844,345.440 164.839 C 346.012 165.477,346.912 166.000,347.440 166.000 C 348.101 166.000,348.472 168.306,348.630 173.400 L 348.860 180.800 285.173 180.800 C 231.044 180.800,221.314 180.628,220.343 179.657 C 219.372 178.686,219.200 168.966,219.200 114.905 L 219.200 51.297 222.200 51.048 C 225.601 50.767,231.485 51.067,234.271 51.665 " stroke="none" fill="#e7001b" fill-rule="evenodd"></path><path id="path4" d="M185.333 15.733 C 185.040 16.027,184.811 17.017,184.824 17.933 C 184.848 19.583,184.858 19.584,185.756 18.000 C 186.255 17.120,187.054 16.136,187.532 15.812 C 188.077 15.443,187.929 15.220,187.133 15.212 C 186.437 15.206,185.627 15.440,185.333 15.733 M244.000 16.421 C 245.067 17.742,245.067 17.839,244.000 17.294 C 243.306 16.940,243.390 17.165,244.200 17.829 C 245.745 19.095,246.130 20.422,244.696 19.536 C 244.148 19.197,243.937 19.415,244.158 20.089 C 244.771 21.950,251.200 22.050,251.200 20.199 C 251.200 17.680,249.346 15.988,245.997 15.449 C 242.959 14.960,242.860 15.008,244.000 16.421 M180.457 22.857 C 179.766 23.549,179.206 25.259,179.212 26.657 C 179.221 28.396,179.443 28.855,179.915 28.109 C 180.499 27.189,180.663 27.189,180.973 28.109 C 181.268 28.985,181.577 29.004,182.544 28.207 C 183.206 27.661,183.984 27.451,184.274 27.740 C 184.563 28.030,184.823 27.937,184.851 27.533 C 184.879 27.130,185.017 25.630,185.158 24.200 C 185.451 21.227,182.834 20.480,180.457 22.857 M263.600 22.400 C 264.480 22.778,264.840 23.155,264.400 23.238 C 263.960 23.321,264.680 23.629,266.000 23.922 C 267.669 24.293,268.362 24.899,268.275 25.913 C 268.188 26.916,268.407 27.113,268.976 26.544 C 270.133 25.387,269.031 21.600,267.538 21.600 C 266.860 21.600,266.528 21.960,266.800 22.400 C 267.072 22.840,266.913 23.200,266.447 23.200 C 265.981 23.200,265.600 22.840,265.600 22.400 C 265.600 21.960,264.790 21.625,263.800 21.656 C 262.082 21.710,262.073 21.744,263.600 22.400 M118.783 28.027 C 118.460 28.551,119.066 28.711,120.434 28.462 C 123.383 27.928,123.929 27.200,121.381 27.200 C 120.233 27.200,119.064 27.572,118.783 28.027 M274.600 27.751 C 275.370 27.953,276.630 27.953,277.400 27.751 C 278.170 27.550,277.540 27.386,276.000 27.386 C 274.460 27.386,273.830 27.550,274.600 27.751 M279.212 27.800 C 279.219 28.130,279.559 28.930,279.969 29.577 C 280.890 31.034,281.972 30.123,281.324 28.435 C 280.845 27.188,279.190 26.690,279.212 27.800 M179.430 31.333 C 179.491 32.140,179.782 32.800,180.077 32.800 C 180.372 32.800,180.786 32.140,180.997 31.333 C 181.222 30.472,180.955 29.867,180.350 29.867 C 179.783 29.867,179.369 30.527,179.430 31.333 M106.451 35.800 C 106.499 37.915,106.529 37.930,107.225 36.200 C 107.623 35.210,108.161 34.400,108.421 34.400 C 108.682 34.400,108.638 34.816,108.324 35.324 C 107.970 35.896,108.104 36.030,108.676 35.676 C 110.136 34.774,109.753 33.600,108.000 33.600 C 106.776 33.600,106.412 34.116,106.451 35.800 M151.200 34.400 C 151.200 34.840,151.941 35.200,152.847 35.200 C 153.753 35.200,154.272 34.840,154.000 34.400 C 153.728 33.960,152.987 33.600,152.353 33.600 C 151.719 33.600,151.200 33.960,151.200 34.400 M96.800 39.913 C 94.815 40.461,93.382 44.000,95.144 44.000 C 95.615 44.000,96.000 43.259,96.000 42.353 C 96.000 41.447,96.335 40.913,96.745 41.166 C 97.154 41.419,97.719 41.254,98.000 40.800 C 98.281 40.346,98.787 40.144,99.124 40.353 C 99.461 40.561,100.786 40.418,102.069 40.035 L 104.400 39.338 101.600 39.349 C 100.060 39.355,97.900 39.608,96.800 39.913 M298.614 39.774 C 299.831 39.958,300.620 40.444,300.366 40.854 C 300.113 41.265,300.257 41.600,300.686 41.600 C 301.115 41.600,301.648 41.150,301.870 40.600 C 302.092 40.050,302.302 40.399,302.337 41.375 C 302.384 42.704,302.751 43.029,303.800 42.667 C 304.934 42.276,304.896 42.426,303.600 43.455 C 302.135 44.619,301.915 44.615,301.000 43.410 C 300.450 42.686,300.000 42.502,300.000 43.000 C 300.000 44.282,301.630 45.155,304.242 45.273 C 305.890 45.348,306.367 45.069,306.042 44.222 C 305.799 43.588,305.600 42.340,305.600 41.449 C 305.600 40.353,305.220 39.975,304.426 40.279 C 303.780 40.527,303.038 40.386,302.778 39.965 C 302.518 39.544,300.977 39.254,299.353 39.320 C 296.916 39.419,296.787 39.498,298.614 39.774 M88.093 47.400 C 88.159 48.675,88.289 48.806,88.542 47.849 C 88.738 47.106,89.686 46.345,90.649 46.158 C 92.091 45.878,92.011 45.799,90.200 45.709 C 88.395 45.620,88.017 45.923,88.093 47.400 M152.800 51.006 C 150.940 53.091,149.436 56.192,150.634 55.473 C 151.227 55.117,151.176 55.416,150.502 56.246 C 149.560 57.408,149.580 57.600,150.645 57.600 C 152.716 57.600,154.400 55.242,154.400 52.343 C 154.400 49.203,154.405 49.207,152.800 51.006 M220.609 115.277 C 220.494 150.519,220.670 179.520,221.000 179.724 C 221.330 179.928,221.600 151.093,221.600 115.647 C 221.600 80.201,221.424 51.200,221.209 51.200 C 220.995 51.200,220.725 80.034,220.609 115.277 M79.594 52.791 C 79.875 53.246,79.551 53.378,78.831 53.101 C 77.948 52.763,77.334 53.324,76.747 55.007 C 76.164 56.679,75.152 57.612,73.361 58.125 C 71.389 58.691,70.712 59.400,70.398 61.229 C 70.092 63.007,69.491 63.669,67.995 63.877 C 65.249 64.257,64.000 65.452,64.000 67.698 C 64.000 69.099,63.556 69.600,62.314 69.600 C 61.145 69.600,60.770 69.967,61.089 70.800 C 61.343 71.460,61.201 72.000,60.775 72.000 C 60.349 72.000,60.000 71.640,60.000 71.200 C 60.000 70.760,59.619 70.400,59.153 70.400 C 58.687 70.400,58.528 70.760,58.800 71.200 C 59.072 71.640,58.913 72.000,58.447 72.000 C 57.981 72.000,57.600 72.720,57.600 73.600 C 57.600 74.489,58.133 75.200,58.800 75.200 C 60.150 75.200,63.200 72.427,63.200 71.200 C 63.200 70.760,63.687 70.400,64.283 70.400 C 64.879 70.400,66.319 69.517,67.483 68.438 C 69.533 66.538,70.371 65.029,68.855 65.966 C 68.446 66.219,67.850 66.005,67.532 65.489 C 67.183 64.926,67.299 64.766,67.821 65.089 C 68.299 65.385,68.879 65.319,69.111 64.944 C 69.343 64.569,70.859 64.212,72.480 64.151 C 76.079 64.016,75.997 64.096,76.285 60.442 C 76.414 58.806,76.988 57.178,77.562 56.824 C 78.162 56.452,78.339 55.749,77.979 55.166 C 77.588 54.533,77.676 54.352,78.212 54.684 C 78.684 54.976,79.597 54.689,80.240 54.045 C 80.883 53.402,81.690 53.129,82.033 53.438 C 82.376 53.747,82.398 53.550,82.081 53.000 C 81.765 52.450,80.966 52.000,80.306 52.000 C 79.646 52.000,79.326 52.356,79.594 52.791 M233.748 55.800 C 233.918 56.693,234.880 57.283,236.407 57.430 C 238.172 57.599,238.495 57.455,237.638 56.882 C 236.999 56.455,236.189 56.283,235.838 56.500 C 235.487 56.717,235.200 56.333,235.200 55.647 C 235.200 54.961,234.814 54.400,234.341 54.400 C 233.869 54.400,233.602 55.030,233.748 55.800 M322.630 58.651 C 323.416 59.294,324.004 60.131,323.935 60.510 C 323.450 63.193,324.112 64.000,326.800 64.000 C 329.032 64.000,329.600 63.687,329.600 62.457 C 329.600 60.748,327.609 58.406,326.143 58.389 C 325.624 58.383,324.300 58.176,323.200 57.930 C 321.345 57.514,321.303 57.566,322.630 58.651 M145.600 59.600 C 145.600 60.260,145.060 60.800,144.400 60.800 C 143.740 60.800,143.200 60.951,143.200 61.135 C 143.200 61.319,142.980 62.043,142.711 62.744 C 142.353 63.675,142.568 63.885,143.506 63.525 C 144.213 63.254,144.592 62.710,144.348 62.316 C 144.105 61.922,144.257 61.600,144.686 61.600 C 145.115 61.600,145.600 61.999,145.763 62.488 C 145.948 63.043,146.459 62.893,147.127 62.088 C 147.833 61.237,147.891 60.800,147.298 60.800 C 146.804 60.800,146.400 60.419,146.400 59.953 C 146.400 59.487,146.760 59.328,147.200 59.600 C 147.640 59.872,148.000 59.713,148.000 59.247 C 148.000 58.781,147.460 58.400,146.800 58.400 C 146.140 58.400,145.600 58.940,145.600 59.600 M252.093 61.385 C 251.993 63.303,254.580 64.476,257.337 63.764 C 258.294 63.516,258.023 63.354,256.553 63.293 C 255.294 63.241,254.521 62.852,254.794 62.409 C 255.068 61.966,254.768 61.816,254.112 62.068 C 253.400 62.341,252.792 61.944,252.563 61.059 C 252.258 59.880,252.168 59.942,252.093 61.385 M334.721 65.987 C 335.011 68.711,335.621 69.164,335.816 66.802 C 335.904 65.744,335.645 64.675,335.241 64.425 C 334.837 64.175,334.603 64.878,334.721 65.987 M264.404 67.194 C 263.731 68.283,264.631 69.600,266.047 69.600 C 267.507 69.600,267.508 68.994,266.051 67.537 C 265.333 66.818,264.715 66.690,264.404 67.194 M268.267 68.443 C 268.267 69.079,268.927 69.600,269.733 69.600 C 270.540 69.600,271.200 69.433,271.200 69.228 C 271.200 69.024,270.540 68.503,269.733 68.071 C 268.625 67.478,268.267 67.569,268.267 68.443 M132.000 68.800 C 131.030 69.427,131.144 69.578,132.600 69.588 C 133.590 69.594,134.400 69.240,134.400 68.800 C 134.400 67.798,133.551 67.798,132.000 68.800 M122.401 72.459 C 121.742 73.747,120.842 75.094,120.401 75.452 C 119.961 75.811,120.500 75.857,121.600 75.553 C 124.210 74.833,124.162 74.901,123.860 72.332 L 123.600 70.118 122.401 72.459 M335.908 71.400 C 335.539 75.401,336.060 76.139,339.522 76.521 L 342.296 76.826 341.563 74.269 C 340.570 70.807,336.168 68.574,335.908 71.400 M276.000 74.447 C 276.000 74.913,276.360 75.072,276.800 74.800 C 277.240 74.528,277.600 74.687,277.600 75.153 C 277.600 75.619,278.410 75.958,279.400 75.907 C 280.755 75.837,280.854 75.724,279.800 75.449 C 279.030 75.247,278.400 74.749,278.400 74.341 C 278.400 73.934,277.860 73.600,277.200 73.600 C 276.540 73.600,276.000 73.981,276.000 74.447 M116.762 75.241 C 116.123 75.645,114.831 75.981,113.891 75.988 C 112.492 75.998,110.596 80.224,111.495 81.329 C 112.232 82.236,116.324 80.148,117.049 78.494 C 117.554 77.342,118.283 76.175,118.669 75.900 C 119.834 75.070,118.022 74.444,116.762 75.241 M55.515 77.522 C 52.363 79.443,51.365 82.406,53.875 82.388 C 56.436 82.370,57.338 81.489,57.751 78.600 C 57.956 77.170,58.095 76.001,58.061 76.003 C 58.028 76.005,56.882 76.688,55.515 77.522 M283.200 77.155 C 283.200 78.268,286.102 80.800,287.378 80.800 C 287.720 80.800,288.000 79.720,288.000 78.400 C 288.000 76.267,287.733 76.000,285.600 76.000 C 284.042 76.000,283.200 76.405,283.200 77.155 M343.400 82.151 C 344.170 82.353,345.430 82.353,346.200 82.151 C 346.970 81.950,346.340 81.786,344.800 81.786 C 343.260 81.786,342.630 81.950,343.400 82.151 M51.200 85.600 C 51.200 86.920,51.339 88.000,51.509 88.000 C 51.679 88.000,51.977 86.920,52.171 85.600 C 52.364 84.280,52.225 83.200,51.861 83.200 C 51.498 83.200,51.200 84.280,51.200 85.600 M105.334 83.800 C 104.988 84.350,104.919 84.800,105.181 84.800 C 105.442 84.800,105.242 85.610,104.735 86.600 C 103.873 88.283,103.902 88.315,105.183 87.095 C 105.937 86.377,106.421 85.117,106.258 84.295 C 106.045 83.218,105.787 83.079,105.334 83.800 M99.512 88.342 C 99.271 88.970,99.233 90.320,99.428 91.342 C 99.705 92.794,99.806 92.646,99.891 90.667 C 99.951 89.273,100.450 87.952,101.000 87.730 C 101.783 87.414,101.778 87.313,100.975 87.263 C 100.411 87.228,99.753 87.714,99.512 88.342 M300.000 91.953 C 300.000 93.243,300.477 93.576,302.200 93.491 C 304.104 93.397,304.156 93.335,302.588 93.034 C 301.592 92.842,300.967 92.376,301.201 91.998 C 301.435 91.620,301.260 91.084,300.813 90.808 C 300.363 90.530,300.000 91.041,300.000 91.953 M306.534 96.600 C 306.410 99.749,306.551 100.000,308.447 100.000 C 309.695 100.000,310.288 99.666,309.966 99.145 C 309.676 98.675,308.955 98.476,308.365 98.703 C 307.615 98.991,307.198 98.223,306.980 96.157 L 306.669 93.200 306.534 96.600 M39.551 98.045 C 39.266 99.945,39.222 101.972,39.454 102.550 C 39.685 103.128,39.902 102.821,39.937 101.867 C 39.972 100.913,40.450 99.951,41.000 99.728 C 41.753 99.422,41.703 99.112,40.800 98.473 C 39.771 97.745,39.806 97.623,41.047 97.612 C 41.947 97.605,42.276 97.246,41.916 96.664 C 41.533 96.045,41.765 95.892,42.603 96.214 C 43.298 96.481,44.034 96.266,44.237 95.737 C 44.466 95.138,43.750 94.740,42.338 94.682 C 40.257 94.597,40.027 94.875,39.551 98.045 M354.412 95.800 C 354.423 96.996,354.537 97.026,355.200 96.000 C 355.627 95.340,355.981 95.181,355.988 95.646 C 355.994 96.111,356.990 96.882,358.200 97.360 C 360.226 98.161,360.258 98.237,358.600 98.315 C 357.610 98.362,356.800 98.802,356.800 99.293 C 356.800 99.793,357.506 100.002,358.401 99.768 C 359.282 99.538,359.800 99.676,359.554 100.075 C 359.307 100.474,359.487 100.800,359.953 100.800 C 361.008 100.800,361.076 97.865,360.035 97.222 C 359.614 96.962,359.473 96.220,359.721 95.574 C 360.065 94.676,359.494 94.400,357.286 94.400 C 355.066 94.400,354.403 94.723,354.412 95.800 M92.909 96.135 C 92.849 96.869,92.567 98.129,92.282 98.935 C 91.883 100.066,91.989 100.193,92.750 99.492 C 93.292 98.993,93.574 97.733,93.377 96.692 C 93.179 95.652,92.969 95.401,92.909 96.135 M86.400 104.847 C 86.400 105.313,86.040 105.472,85.600 105.200 C 85.160 104.928,84.800 105.087,84.800 105.553 C 84.800 106.776,86.044 106.593,87.200 105.200 C 87.888 104.371,87.918 104.000,87.298 104.000 C 86.804 104.000,86.400 104.381,86.400 104.847 M33.600 108.000 C 33.600 109.753,34.774 110.136,35.676 108.676 C 36.030 108.104,35.896 107.970,35.324 108.324 C 34.816 108.638,34.400 108.682,34.400 108.421 C 34.400 108.161,35.210 107.623,36.200 107.225 C 37.930 106.529,37.915 106.499,35.800 106.451 C 34.116 106.412,33.600 106.776,33.600 108.000 M76.000 114.309 C 76.000 117.064,74.112 121.019,73.193 120.188 C 72.836 119.865,72.802 120.050,73.119 120.600 C 74.124 122.347,76.000 121.725,76.000 119.644 C 76.000 118.298,76.686 117.359,78.200 116.636 C 81.494 115.062,81.663 112.000,78.456 112.000 C 76.282 112.000,76.000 112.265,76.000 114.309 M319.200 112.622 C 319.200 115.456,323.422 117.860,324.314 115.535 C 325.364 112.799,324.841 112.000,322.000 112.000 C 320.460 112.000,319.200 112.280,319.200 112.622 M324.121 119.600 C 324.016 122.204,325.173 124.694,326.071 123.796 C 326.377 123.490,326.251 122.780,325.791 122.219 C 325.330 121.659,324.788 120.300,324.586 119.200 C 324.253 117.390,324.209 117.428,324.121 119.600 M27.733 118.933 C 26.872 119.795,27.123 122.542,28.013 121.992 C 28.460 121.716,28.617 121.151,28.362 120.738 C 28.106 120.325,28.730 119.652,29.749 119.244 C 31.492 118.545,31.503 118.498,29.933 118.451 C 29.017 118.423,28.027 118.640,27.733 118.933 M369.600 119.116 C 369.600 119.577,370.227 119.715,371.000 119.425 C 372.233 118.963,372.267 119.064,371.287 120.269 C 370.311 121.468,370.340 121.573,371.521 121.120 C 372.261 120.835,372.733 120.197,372.568 119.701 C 372.179 118.533,369.600 118.025,369.600 119.116 M372.186 124.000 C 372.186 125.540,372.350 126.170,372.551 125.400 C 372.753 124.630,372.753 123.370,372.551 122.600 C 372.350 121.830,372.186 122.460,372.186 124.000 M330.550 132.122 C 330.809 135.724,332.596 136.836,335.335 135.100 C 336.427 134.407,335.365 134.043,333.070 134.324 C 332.495 134.395,332.314 133.773,332.596 132.694 C 332.907 131.505,332.760 131.130,332.135 131.516 C 331.555 131.875,331.382 131.658,331.664 130.922 C 331.909 130.284,331.702 129.510,331.205 129.203 C 330.572 128.812,330.376 129.690,330.550 132.122 M23.012 131.258 C 22.213 131.723,21.691 132.877,21.781 133.976 C 21.868 135.026,22.229 135.706,22.583 135.487 C 22.937 135.268,23.014 134.664,22.754 134.145 C 22.494 133.625,22.805 133.841,23.446 134.624 C 24.681 136.132,26.216 134.443,25.161 132.737 C 24.917 132.342,25.276 132.233,25.958 132.495 C 26.763 132.804,27.200 132.519,27.200 131.686 C 27.200 130.244,25.116 130.031,23.012 131.258 M374.400 131.200 C 374.400 131.951,375.565 132.335,377.060 132.075 C 377.423 132.011,377.489 132.689,377.206 133.580 C 376.924 134.471,377.000 135.200,377.376 135.200 C 378.448 135.200,378.438 131.720,377.363 131.037 C 375.997 130.169,374.400 130.256,374.400 131.200 M68.000 132.847 C 68.000 133.313,67.669 133.490,67.264 133.240 C 66.358 132.679,63.712 135.195,64.471 135.895 C 64.773 136.173,65.180 135.950,65.376 135.400 C 65.573 134.850,66.085 134.400,66.514 134.400 C 66.943 134.400,67.072 134.760,66.800 135.200 C 66.528 135.640,66.828 136.000,67.467 136.000 C 68.106 136.000,68.847 135.431,69.114 134.735 C 69.817 132.904,69.713 132.000,68.800 132.000 C 68.360 132.000,68.000 132.381,68.000 132.847 M336.186 138.400 C 336.186 139.940,336.350 140.570,336.551 139.800 C 336.753 139.030,336.753 137.770,336.551 137.000 C 336.350 136.230,336.186 136.860,336.186 138.400 M62.400 145.200 C 62.400 145.860,62.760 146.400,63.200 146.400 C 63.640 146.400,64.000 145.860,64.000 145.200 C 64.000 144.540,63.640 144.000,63.200 144.000 C 62.760 144.000,62.400 144.540,62.400 145.200 M336.812 146.514 C 336.799 147.976,338.437 148.833,341.065 148.737 C 342.483 148.685,342.361 148.517,340.400 147.817 C 339.080 147.346,337.736 146.564,337.412 146.080 C 337.043 145.526,336.820 145.688,336.812 146.514 M59.200 148.000 C 59.200 149.012,60.835 149.012,62.400 148.000 C 63.335 147.396,63.114 147.222,61.400 147.212 C 60.190 147.206,59.200 147.560,59.200 148.000 M18.682 149.595 C 16.090 150.640,13.756 157.600,15.997 157.600 C 16.534 157.600,16.765 157.062,16.511 156.400 C 16.257 155.740,16.373 155.200,16.766 155.200 C 17.160 155.200,17.647 155.830,17.849 156.600 C 18.197 157.933,18.219 157.933,18.307 156.600 C 18.363 155.764,19.045 155.200,20.000 155.200 C 21.333 155.200,21.600 154.667,21.600 152.000 C 21.600 148.629,21.427 148.487,18.682 149.595 M378.552 151.766 C 378.787 154.574,378.965 154.748,381.903 155.030 C 384.949 155.322,384.996 155.287,384.459 153.064 C 383.262 148.107,378.151 146.984,378.552 151.766 M342.528 161.800 C 342.458 163.890,342.551 165.600,342.735 165.600 C 342.919 165.600,343.639 165.819,344.335 166.086 C 345.043 166.357,345.600 166.160,345.600 165.638 C 345.600 165.125,345.179 164.966,344.664 165.284 C 344.035 165.673,343.895 165.426,344.239 164.531 C 344.520 163.799,344.424 163.200,344.026 163.200 C 343.627 163.200,343.156 162.030,342.979 160.600 C 342.731 158.602,342.626 158.879,342.528 161.800 M52.313 165.741 C 52.125 166.045,53.071 166.263,54.414 166.224 C 55.758 166.186,57.019 165.892,57.218 165.571 C 57.416 165.250,56.470 165.033,55.116 165.088 C 53.762 165.144,52.500 165.438,52.313 165.741 M15.429 200.400 C 15.435 202.600,15.590 203.405,15.774 202.189 C 15.958 200.973,15.953 199.173,15.763 198.189 C 15.573 197.205,15.423 198.200,15.429 200.400 M179.200 204.784 C 179.200 207.297,180.287 208.422,183.225 208.948 C 185.126 209.289,185.242 209.118,185.135 206.132 C 184.984 201.919,179.200 200.606,179.200 204.784 M384.000 213.514 C 384.000 214.053,383.665 214.287,383.255 214.034 C 382.846 213.781,382.284 213.940,382.008 214.387 C 381.732 214.834,382.046 215.200,382.706 215.200 C 384.048 215.200,385.221 213.754,384.480 213.013 C 384.216 212.749,384.000 212.975,384.000 213.514 M373.017 215.997 C 372.301 216.834,371.419 217.335,371.057 217.112 C 369.949 216.427,370.326 217.412,371.697 218.782 C 372.892 219.978,372.838 220.040,371.005 219.580 C 369.572 219.220,368.874 219.452,368.506 220.411 C 368.002 221.726,371.293 221.674,376.198 220.288 C 377.527 219.913,379.027 216.360,378.204 215.538 C 377.048 214.381,374.183 214.635,373.017 215.997 M191.200 217.102 C 191.200 219.737,193.077 221.036,196.333 220.656 C 197.848 220.479,198.912 220.619,198.697 220.967 C 198.482 221.315,199.227 221.600,200.353 221.600 C 201.793 221.600,202.381 221.185,202.337 220.200 C 202.299 219.354,202.113 219.198,201.868 219.806 C 201.570 220.545,200.856 220.379,199.168 219.177 C 197.771 218.182,197.048 217.084,197.322 216.371 C 197.671 215.460,197.042 215.200,194.486 215.200 C 191.559 215.200,191.200 215.408,191.200 217.102 M244.261 221.400 C 267.065 221.518,304.145 221.518,326.661 221.400 C 349.177 221.282,330.520 221.185,285.200 221.185 C 239.880 221.185,221.457 221.282,244.261 221.400 M52.800 233.888 C 52.800 234.105,53.903 234.833,55.252 235.506 C 57.513 236.634,57.684 236.623,57.445 235.365 C 57.219 234.174,52.800 232.770,52.800 233.888 M15.449 245.997 C 15.988 249.346,17.680 251.200,20.199 251.200 C 22.050 251.200,21.950 244.771,20.089 244.158 C 19.415 243.937,19.197 244.148,19.536 244.696 C 20.422 246.130,19.095 245.745,17.829 244.200 C 17.165 243.390,16.940 243.306,17.294 244.000 C 17.839 245.067,17.742 245.067,16.421 244.000 C 15.008 242.860,14.960 242.959,15.449 245.997 M343.800 247.267 C 340.833 250.516,342.523 252.688,346.556 250.808 C 348.010 250.131,348.582 249.746,347.826 249.953 C 347.070 250.161,346.233 249.977,345.966 249.545 C 345.699 249.114,345.949 248.859,346.522 248.980 C 347.094 249.101,347.686 248.390,347.837 247.400 C 348.184 245.123,345.828 245.045,343.800 247.267 M362.400 246.226 C 362.400 246.570,363.320 246.927,364.444 247.020 C 365.628 247.118,366.281 246.855,365.997 246.395 C 365.418 245.458,362.400 245.316,362.400 246.226 M60.800 252.302 C 60.800 252.468,61.340 253.052,62.000 253.600 C 62.983 254.416,63.200 254.361,63.200 253.298 C 63.200 252.584,62.660 252.000,62.000 252.000 C 61.340 252.000,60.800 252.136,60.800 252.302 M337.333 252.533 C 336.453 253.414,336.732 256.800,337.686 256.800 C 338.173 256.800,338.366 256.264,338.114 255.610 C 337.863 254.955,337.915 254.472,338.229 254.537 C 339.225 254.741,341.600 253.458,341.600 252.714 C 341.600 251.888,338.126 251.740,337.333 252.533 M62.118 255.809 C 61.911 256.144,62.250 257.112,62.871 257.962 C 63.946 259.432,64.000 259.403,64.000 257.353 C 64.000 255.326,62.950 254.464,62.118 255.809 M336.000 261.907 C 336.000 263.083,335.438 263.960,334.533 264.197 C 333.727 264.408,333.067 265.141,333.067 265.827 C 333.067 266.930,333.279 266.919,334.908 265.737 C 336.501 264.581,337.692 260.000,336.400 260.000 C 336.180 260.000,336.000 260.858,336.000 261.907 M21.656 263.800 C 21.625 264.790,21.960 265.600,22.400 265.600 C 22.840 265.600,23.200 265.981,23.200 266.447 C 23.200 266.913,22.840 267.072,22.400 266.800 C 21.960 266.528,21.600 266.860,21.600 267.538 C 21.600 269.031,25.387 270.133,26.544 268.976 C 27.113 268.407,26.916 268.188,25.913 268.275 C 24.899 268.362,24.293 267.669,23.922 266.000 C 23.629 264.680,23.321 263.960,23.238 264.400 C 23.155 264.840,22.778 264.480,22.400 263.600 C 21.744 262.073,21.710 262.082,21.656 263.800 M63.212 263.042 C 63.206 263.615,64.280 264.460,65.600 264.920 C 67.390 265.544,68.000 266.257,68.000 267.725 C 68.000 268.808,68.338 269.486,68.751 269.230 C 70.592 268.092,69.212 264.536,66.803 264.214 C 65.498 264.039,64.159 263.469,63.827 262.948 C 63.380 262.244,63.221 262.269,63.212 263.042 M330.825 265.035 C 330.483 265.823,330.427 266.693,330.701 266.968 C 331.514 267.780,332.168 266.639,331.795 265.063 C 331.463 263.665,331.420 263.664,330.825 265.035 M27.386 276.000 C 27.386 277.540,27.550 278.170,27.751 277.400 C 27.953 276.630,27.953 275.370,27.751 274.600 C 27.550 273.830,27.386 274.460,27.386 276.000 M324.307 279.200 C 324.026 280.960,323.370 282.400,322.851 282.400 C 320.881 282.400,319.227 284.510,318.871 287.478 C 318.523 290.378,318.583 290.482,319.914 289.278 C 320.690 288.575,321.928 288.000,322.663 288.000 C 323.398 288.000,324.040 287.730,324.089 287.400 C 324.139 287.070,324.312 285.540,324.475 284.000 C 324.940 279.604,325.588 277.498,326.333 277.958 C 326.710 278.192,327.464 277.846,328.007 277.191 C 328.840 276.188,328.666 276.000,326.907 276.000 C 325.089 276.000,324.753 276.415,324.307 279.200 M371.855 277.206 C 371.555 277.509,371.527 278.320,371.791 279.009 C 372.134 279.904,371.968 280.075,371.212 279.608 C 370.538 279.191,370.345 279.263,370.681 279.808 C 370.972 280.278,370.758 280.846,370.205 281.069 C 369.608 281.309,369.779 281.499,370.625 281.537 C 371.409 281.572,372.249 281.081,372.493 280.447 C 373.060 278.968,372.571 276.484,371.855 277.206 M27.200 280.025 C 27.200 281.056,29.479 281.987,30.211 281.255 C 30.510 280.957,30.224 280.378,29.577 279.969 C 28.028 278.989,27.200 279.009,27.200 280.025 M75.081 281.400 C 75.487 282.170,75.814 283.805,75.809 285.033 C 75.798 287.770,75.834 287.807,79.043 288.372 C 81.539 288.812,81.618 288.745,81.123 286.615 C 80.576 284.261,78.776 282.400,77.047 282.400 C 76.471 282.400,76.000 281.860,76.000 281.200 C 76.000 280.540,75.627 280.000,75.172 280.000 C 74.636 280.000,74.604 280.493,75.081 281.400 M364.600 292.067 C 363.261 293.533,363.270 293.600,364.800 293.600 C 365.867 293.600,366.400 293.067,366.400 292.000 C 366.400 290.103,366.392 290.104,364.600 292.067 M33.600 292.800 C 33.600 293.240,34.410 293.594,35.400 293.588 C 36.856 293.578,36.970 293.427,36.000 292.800 C 34.449 291.798,33.600 291.798,33.600 292.800 M312.440 295.400 C 311.585 298.159,311.557 300.533,312.380 300.533 C 312.919 300.533,313.201 299.439,313.075 297.839 C 312.952 296.272,313.185 295.343,313.632 295.620 C 314.054 295.881,314.400 295.713,314.400 295.247 C 314.400 294.062,312.816 294.185,312.440 295.400 M39.320 299.353 C 39.254 300.977,39.544 302.518,39.965 302.778 C 40.386 303.038,40.527 303.780,40.279 304.426 C 39.975 305.220,40.353 305.600,41.449 305.600 C 42.340 305.600,43.588 305.799,44.222 306.042 C 45.069 306.367,45.348 305.890,45.273 304.242 C 45.155 301.630,44.282 300.000,43.000 300.000 C 42.502 300.000,42.686 300.450,43.410 301.000 C 44.615 301.915,44.619 302.135,43.455 303.600 C 42.426 304.896,42.276 304.934,42.667 303.800 C 43.029 302.751,42.704 302.384,41.375 302.337 C 40.399 302.302,40.050 302.092,40.600 301.870 C 41.150 301.648,41.600 301.115,41.600 300.686 C 41.600 300.257,41.265 300.113,40.854 300.366 C 40.444 300.620,39.958 299.831,39.774 298.614 C 39.498 296.787,39.419 296.916,39.320 299.353 M359.804 298.800 C 359.594 299.900,359.732 300.800,360.111 300.800 C 360.490 300.800,360.800 299.900,360.800 298.800 C 360.800 297.700,360.662 296.800,360.493 296.800 C 360.325 296.800,360.014 297.700,359.804 298.800 M90.808 300.813 C 91.084 301.260,91.620 301.435,91.998 301.201 C 92.376 300.967,92.842 301.592,93.034 302.588 C 93.335 304.156,93.397 304.104,93.491 302.200 C 93.576 300.477,93.243 300.000,91.953 300.000 C 91.041 300.000,90.530 300.363,90.808 300.813 M358.788 303.162 C 359.176 304.385,358.956 304.661,357.774 304.433 C 356.178 304.126,353.755 305.222,354.463 305.930 C 355.505 306.971,359.613 305.003,359.856 303.346 C 359.996 302.386,359.702 301.600,359.202 301.600 C 358.664 301.600,358.495 302.238,358.788 303.162 M93.785 306.851 C 94.033 307.099,95.321 307.333,96.647 307.371 C 98.227 307.416,98.926 307.784,98.674 308.439 C 98.463 308.988,98.675 309.676,99.145 309.966 C 99.666 310.288,100.000 309.695,100.000 308.447 C 100.000 306.578,99.709 306.400,96.667 306.400 C 94.833 306.400,93.536 306.603,93.785 306.851 M300.400 307.200 C 300.128 307.640,300.377 308.006,300.953 308.012 C 301.722 308.021,301.682 308.249,300.800 308.873 C 300.005 309.435,299.958 309.627,300.660 309.441 C 301.243 309.286,301.662 308.849,301.592 308.469 C 301.521 308.090,301.944 307.474,302.532 307.102 C 303.359 306.577,303.295 306.422,302.247 306.412 C 301.503 306.406,300.672 306.760,300.400 307.200 M353.600 309.541 C 353.600 310.389,352.970 311.247,352.200 311.449 C 351.146 311.724,351.245 311.837,352.600 311.907 C 354.011 311.980,354.400 311.568,354.400 310.000 C 354.400 308.900,354.220 308.000,354.000 308.000 C 353.780 308.000,353.600 308.694,353.600 309.541 M103.200 312.571 C 103.860 312.815,104.858 313.377,105.418 313.821 C 106.180 314.423,106.310 314.296,105.933 313.313 C 105.656 312.591,104.657 312.028,103.714 312.063 C 102.544 312.106,102.381 312.267,103.200 312.571 M346.808 318.412 C 347.287 319.188,347.095 319.331,346.090 318.945 C 345.335 318.655,344.887 318.694,345.096 319.032 C 345.304 319.369,344.855 320.466,344.098 321.470 C 342.742 323.268,341.338 323.818,337.800 323.939 C 336.248 323.992,336.000 324.435,336.000 327.153 C 336.000 328.887,335.634 330.532,335.187 330.808 C 334.740 331.084,334.586 331.736,334.846 332.255 C 335.106 332.775,334.752 332.501,334.059 331.647 C 332.956 330.286,332.800 330.261,332.800 331.447 C 332.800 332.191,332.191 332.800,331.447 332.800 C 330.278 332.800,330.252 332.936,331.257 333.800 C 331.896 334.350,332.274 334.719,332.097 334.621 C 331.360 334.211,327.200 337.228,327.200 338.172 C 327.200 338.738,326.801 339.200,326.314 339.200 C 325.827 339.200,325.636 338.660,325.889 338.000 C 326.143 337.340,326.001 336.800,325.575 336.800 C 325.149 336.800,324.772 337.430,324.739 338.200 C 324.705 338.970,324.557 340.230,324.410 341.000 C 324.221 341.987,324.652 342.396,325.871 342.388 C 328.141 342.372,330.404 340.842,329.000 340.272 C 328.450 340.049,328.000 339.313,328.000 338.635 C 328.000 337.632,328.222 337.588,329.200 338.400 C 330.203 339.232,330.400 339.117,330.400 337.698 C 330.400 336.443,330.897 336.000,332.302 336.000 C 334.548 336.000,335.743 334.751,336.123 332.005 C 336.331 330.509,336.993 329.908,338.771 329.602 C 340.600 329.288,341.309 328.611,341.875 326.639 C 342.379 324.880,343.323 323.835,344.904 323.284 C 346.167 322.843,347.228 322.195,347.261 321.842 C 347.295 321.489,347.443 320.571,347.590 319.803 C 347.737 319.035,347.474 318.169,347.005 317.880 C 346.463 317.545,346.391 317.739,346.808 318.412 M110.877 319.314 C 111.249 319.912,111.662 321.098,111.795 321.951 C 112.153 324.257,112.653 324.488,117.800 324.733 C 118.570 324.770,119.228 325.430,119.263 326.200 C 119.301 327.036,119.489 327.197,119.730 326.600 C 120.202 325.430,123.200 325.235,123.200 326.375 C 123.200 326.801,122.570 326.947,121.800 326.699 C 120.618 326.319,120.587 326.384,121.600 327.112 C 123.346 328.368,124.000 328.197,124.000 326.486 C 124.000 324.825,122.517 324.000,119.535 324.000 C 118.471 324.000,117.600 323.529,117.600 322.953 C 117.600 321.081,115.659 319.362,112.900 318.789 C 110.738 318.341,110.335 318.445,110.877 319.314 M284.222 320.200 C 283.797 320.750,283.224 321.830,282.949 322.600 C 282.657 323.421,281.633 324.000,280.472 324.000 C 279.384 324.000,278.287 324.335,278.034 324.745 C 277.478 325.645,278.756 326.577,279.512 325.822 C 280.098 325.236,281.450 324.872,285.400 324.241 C 287.638 323.883,288.000 323.503,288.000 321.512 C 288.000 319.023,285.741 318.238,284.222 320.200 M57.930 323.200 C 58.176 324.300,58.383 325.624,58.389 326.143 C 58.406 327.609,60.748 329.600,62.457 329.600 C 63.687 329.600,64.000 329.032,64.000 326.800 C 64.000 324.112,63.193 323.450,60.510 323.935 C 60.131 324.004,59.294 323.416,58.651 322.630 C 57.566 321.303,57.514 321.345,57.930 323.200 M131.200 331.248 C 131.200 331.662,131.885 332.000,132.722 332.000 C 133.693 332.000,134.546 332.868,135.080 334.400 C 135.798 336.458,136.293 336.782,138.558 336.672 L 141.200 336.544 138.600 336.221 C 136.720 335.988,135.972 335.470,135.900 334.349 C 135.845 333.497,135.755 332.358,135.700 331.817 C 135.584 330.677,131.200 330.122,131.200 331.248 M265.000 330.931 C 264.450 331.152,264.000 331.865,264.000 332.514 C 264.000 333.245,264.380 333.466,265.000 333.094 C 265.679 332.685,265.648 332.927,264.902 333.846 C 264.298 334.591,264.164 335.200,264.604 335.200 C 265.728 335.200,267.295 333.162,266.660 332.526 C 266.370 332.237,266.553 331.955,267.067 331.900 C 269.104 331.682,269.483 331.584,269.899 331.168 C 270.460 330.607,266.306 330.406,265.000 330.931 M64.425 335.241 C 64.675 335.645,65.744 335.904,66.802 335.816 C 69.164 335.621,68.711 335.011,65.987 334.721 C 64.878 334.603,64.175 334.837,64.425 335.241 M71.370 335.810 C 68.802 336.666,70.744 340.552,74.242 341.555 C 76.869 342.308,77.013 341.929,76.089 336.693 C 75.972 336.027,72.608 335.397,71.370 335.810 M260.200 336.551 C 260.970 336.753,262.230 336.753,263.000 336.551 C 263.770 336.350,263.140 336.186,261.600 336.186 C 260.060 336.186,259.430 336.350,260.200 336.551 M143.606 337.591 C 143.325 338.046,143.649 338.178,144.369 337.901 C 145.057 337.637,146.156 337.865,146.810 338.408 C 147.780 339.213,148.000 339.156,148.000 338.098 C 148.000 336.655,144.438 336.244,143.606 337.591 M252.164 339.106 C 252.297 340.204,252.988 341.141,253.745 341.249 C 254.674 341.383,254.940 341.053,254.606 340.182 C 254.230 339.204,254.466 339.053,255.661 339.509 C 256.932 339.993,257.016 339.912,256.146 339.047 C 255.277 338.184,254.891 338.272,253.946 339.553 C 252.929 340.931,252.800 340.951,252.800 339.727 C 252.800 338.969,253.610 338.021,254.600 337.621 C 256.287 336.939,256.260 336.902,254.164 337.024 C 252.291 337.134,251.966 337.471,252.164 339.106 M81.786 344.800 C 81.786 346.340,81.950 346.970,82.151 346.200 C 82.353 345.430,82.353 344.170,82.151 343.400 C 81.950 342.630,81.786 343.260,81.786 344.800 M163.467 343.407 C 163.467 343.997,164.150 344.531,164.985 344.594 C 165.839 344.658,166.364 344.291,166.185 343.754 C 165.736 342.404,163.467 342.114,163.467 343.407 M234.000 343.200 C 233.259 344.399,234.288 345.593,235.621 345.081 C 236.264 344.834,236.605 344.331,236.377 343.963 C 236.150 343.595,237.502 343.156,239.382 342.987 C 242.711 342.688,242.692 342.676,238.647 342.540 C 236.363 342.463,234.272 342.760,234.000 343.200 M318.341 343.000 C 318.308 343.330,318.130 344.410,317.946 345.400 C 317.692 346.763,317.987 347.200,319.160 347.200 C 320.582 347.200,323.200 344.493,323.200 343.022 C 323.200 342.223,318.420 342.202,318.341 343.000 M88.150 352.600 C 88.303 353.404,89.264 354.095,90.408 354.224 C 92.228 354.428,92.281 354.352,91.012 353.344 C 90.249 352.738,89.859 352.007,90.146 351.721 C 90.432 351.434,90.040 351.200,89.275 351.200 C 88.381 351.200,87.978 351.701,88.150 352.600 M94.400 357.286 C 94.400 359.494,94.676 360.065,95.574 359.721 C 96.220 359.473,96.962 359.614,97.222 360.035 C 97.865 361.076,100.800 361.008,100.800 359.953 C 100.800 359.487,100.444 359.326,100.009 359.594 C 99.568 359.867,99.415 359.571,99.664 358.922 C 99.909 358.284,99.725 357.524,99.255 357.234 C 98.744 356.918,98.395 357.449,98.388 358.553 C 98.378 359.987,98.211 360.140,97.641 359.238 C 97.236 358.599,97.085 357.787,97.303 357.433 C 97.522 357.078,97.108 356.561,96.384 356.283 C 95.330 355.879,95.280 355.642,96.133 355.101 C 96.950 354.583,96.872 354.422,95.800 354.412 C 94.723 354.403,94.400 355.066,94.400 357.286 M305.204 355.206 C 305.977 356.457,303.548 358.400,301.210 358.400 C 299.807 358.400,299.298 358.712,299.684 359.336 C 300.071 359.962,299.830 360.106,298.957 359.771 C 298.239 359.495,297.438 359.614,297.178 360.035 C 296.912 360.466,297.928 360.800,299.506 360.800 C 301.046 360.800,302.518 360.456,302.778 360.035 C 303.038 359.614,303.842 359.497,304.565 359.774 C 305.545 360.150,305.750 359.945,305.374 358.965 C 305.097 358.242,305.214 357.438,305.635 357.178 C 306.672 356.538,306.609 354.400,305.553 354.400 C 305.087 354.400,304.930 354.763,305.204 355.206 M106.412 364.600 C 106.406 365.590,106.760 366.400,107.200 366.400 C 108.202 366.400,108.202 365.551,107.200 364.000 C 106.573 363.030,106.422 363.144,106.412 364.600 M291.800 364.867 C 290.461 366.333,290.470 366.400,292.000 366.400 C 293.067 366.400,293.600 365.867,293.600 364.800 C 293.600 362.903,293.592 362.904,291.800 364.867 M118.541 370.934 C 118.900 372.784,120.495 373.147,121.120 371.521 C 121.573 370.340,121.468 370.311,120.269 371.287 C 119.064 372.267,118.963 372.233,119.425 371.000 C 119.715 370.227,119.577 369.600,119.116 369.600 C 118.658 369.600,118.399 370.200,118.541 370.934 M122.600 372.551 C 123.370 372.753,124.630 372.753,125.400 372.551 C 126.170 372.350,125.540 372.186,124.000 372.186 C 122.460 372.186,121.830 372.350,122.600 372.551 M265.766 374.200 C 265.197 374.977,264.984 375.066,265.288 374.400 C 265.731 373.428,265.630 373.390,264.760 374.197 C 263.868 375.025,263.950 375.393,265.243 376.367 C 266.743 377.496,266.731 377.527,264.892 377.195 C 263.842 377.005,263.221 377.088,263.512 377.379 C 265.662 379.528,269.600 377.502,269.600 374.247 C 269.600 372.383,267.120 372.353,265.766 374.200 M130.412 375.400 C 130.435 377.223,131.627 378.329,133.425 378.193 C 134.401 378.120,135.200 377.752,135.200 377.376 C 135.200 377.000,134.471 376.924,133.580 377.206 C 132.689 377.489,132.011 377.423,132.075 377.060 C 132.335 375.565,131.951 374.400,131.200 374.400 C 130.760 374.400,130.406 374.850,130.412 375.400 M148.800 379.799 C 148.800 381.991,150.489 383.837,153.064 384.459 C 155.287 384.996,155.322 384.949,155.030 381.903 C 154.688 378.340,148.800 376.352,148.800 379.799 M245.600 381.200 C 245.600 385.648,249.306 384.929,250.756 380.200 C 251.257 378.567,251.044 378.400,248.454 378.400 C 245.726 378.400,245.600 378.523,245.600 381.200 " stroke="none" fill="#ff0000" fill-rule="evenodd"></path></g></svg>