<svg id="svg" version="1.1" width="515" height="500" xmlns="http://www.w3.org/2000/svg" xmlns:xlink="http://www.w3.org/1999/xlink" style="display: block;"><g id="svgg"><path id="path0" d="M229.903 62.429 C 229.903 62.590,230.427 63.158,231.068 63.689 C 232.022 64.481,232.233 64.428,232.233 63.396 C 232.233 62.703,231.709 62.136,231.068 62.136 C 230.427 62.136,229.903 62.268,229.903 62.429 M132.039 69.247 C 132.039 70.871,132.084 70.879,133.592 69.515 C 134.447 68.741,135.146 67.988,135.146 67.841 C 135.146 67.693,134.447 67.573,133.592 67.573 C 132.519 67.573,132.039 68.091,132.039 69.247 M259.806 80.777 C 260.579 81.631,261.332 82.330,261.480 82.330 C 261.627 82.330,261.748 81.631,261.748 80.777 C 261.748 79.704,261.230 79.223,260.074 79.223 C 258.449 79.223,258.441 79.269,259.806 80.777 M277.670 98.641 C 278.443 99.495,279.196 100.194,279.344 100.194 C 279.491 100.194,279.612 99.495,279.612 98.641 C 279.612 97.568,279.094 97.087,277.938 97.087 C 276.313 97.087,276.305 97.133,277.670 98.641 M289.110 115.874 C 289.590 117.314,291.262 117.553,291.262 116.181 C 291.262 115.505,290.709 114.951,290.032 114.951 C 289.356 114.951,288.941 115.367,289.110 115.874 M391.456 356.117 C 391.456 358.614,391.621 358.888,392.621 358.058 C 393.262 357.526,393.786 356.653,393.786 356.117 C 393.786 355.580,393.262 354.707,392.621 354.175 C 391.621 353.345,391.456 353.619,391.456 356.117 " stroke="none" fill="#ffffff" fill-rule="evenodd"></path><path id="path1" d="" stroke="none" fill="#800000" fill-rule="evenodd"></path><path id="path2" d="M279.612 41.211 C 279.612 41.663,279.925 41.840,280.307 41.604 C 280.689 41.367,281.203 41.696,281.448 42.335 C 281.693 42.973,282.250 43.495,282.686 43.495 C 283.123 43.495,282.881 42.796,282.150 41.942 C 280.692 40.239,279.612 39.928,279.612 41.211 M252.035 76.899 C 251.496 77.772,253.771 78.916,254.532 78.154 C 254.798 77.888,254.588 77.670,254.064 77.670 C 253.541 77.670,253.328 77.320,253.592 76.893 C 253.856 76.466,253.723 76.117,253.296 76.117 C 252.868 76.117,252.301 76.468,252.035 76.899 M293.821 211.667 C 293.086 212.459,293.123 212.767,293.990 213.100 C 295.303 213.604,296.038 212.701,295.289 211.505 C 294.917 210.912,294.476 210.961,293.821 211.667 M257.970 258.125 C 257.244 258.999,257.295 259.331,258.208 259.681 C 259.619 260.223,260.311 259.309,259.492 257.984 C 259.023 257.225,258.691 257.256,257.970 258.125 M64.295 268.444 C 64.082 268.819,64.959 270.123,66.243 271.342 C 67.649 272.677,68.377 273.038,68.075 272.249 C 67.799 271.530,67.573 270.599,67.573 270.182 C 67.573 269.764,67.245 269.626,66.844 269.873 C 66.443 270.121,65.792 269.747,65.398 269.043 C 65.004 268.338,64.507 268.069,64.295 268.444 M81.683 289.191 C 82.215 289.761,83.149 290.227,83.758 290.227 C 84.563 290.227,84.479 289.943,83.449 289.191 C 82.671 288.621,81.737 288.155,81.374 288.155 C 81.012 288.155,81.151 288.621,81.683 289.191 " stroke="none" fill="#aa0000" fill-rule="evenodd"></path><path id="path3" d="M151.499 15.802 C 151.048 16.253,150.680 16.334,150.680 15.983 C 150.680 15.631,150.088 15.823,149.365 16.410 C 148.473 17.134,148.238 17.165,148.635 16.505 C 148.955 15.971,148.848 15.534,148.395 15.534 C 147.943 15.534,147.573 15.904,147.573 16.357 C 147.573 16.809,147.282 16.999,146.926 16.779 C 146.570 16.559,146.220 16.888,146.149 17.510 C 146.078 18.132,145.961 19.165,145.890 19.806 C 145.785 20.750,144.375 20.971,138.465 20.971 C 133.149 20.971,131.321 21.214,131.725 21.868 C 132.064 22.417,131.938 22.554,131.398 22.220 C 129.868 21.274,127.247 23.218,127.782 24.902 C 128.156 26.081,127.869 26.432,126.460 26.518 C 125.470 26.578,123.961 26.693,123.107 26.773 C 122.252 26.853,120.409 26.979,119.010 27.052 C 116.843 27.165,116.396 27.532,115.997 29.531 C 115.451 32.257,115.080 32.569,112.108 32.794 C 110.895 32.886,109.441 33.409,108.877 33.956 C 108.312 34.504,107.351 34.951,106.741 34.951 C 106.130 34.951,105.631 35.293,105.631 35.710 C 105.631 37.198,101.546 39.170,97.670 39.554 C 97.350 39.586,97.087 40.615,97.087 41.842 C 97.087 43.917,96.830 44.106,93.387 44.563 C 90.578 44.935,89.495 45.474,88.893 46.799 C 88.456 47.758,87.674 48.456,87.156 48.350 C 86.638 48.243,86.214 48.596,86.214 49.134 C 86.214 49.672,85.478 50.571,84.579 51.133 C 83.492 51.812,83.133 51.848,83.508 51.242 C 83.908 50.594,83.539 50.615,82.232 51.315 C 81.059 51.943,80.756 52.420,81.396 52.634 C 82.433 52.979,79.927 55.665,75.905 58.517 C 74.749 59.337,74.068 60.413,74.309 61.041 C 74.567 61.713,74.230 62.136,73.435 62.136 C 72.724 62.136,72.327 62.436,72.554 62.803 C 72.781 63.171,72.076 63.373,70.987 63.254 C 69.625 63.104,69.128 63.351,69.395 64.045 C 69.607 64.600,69.389 65.446,68.910 65.925 C 68.266 66.569,68.296 66.796,69.024 66.796 C 69.653 66.796,69.359 67.709,68.211 69.320 C 67.223 70.709,66.529 71.961,66.670 72.104 C 66.810 72.246,66.780 72.508,66.602 72.686 C 66.424 72.864,66.273 72.398,66.266 71.650 C 66.260 70.903,66.638 70.034,67.108 69.721 C 67.600 69.391,67.633 69.150,67.184 69.150 C 66.249 69.150,63.805 70.651,64.713 70.668 C 65.063 70.674,64.656 71.652,63.810 72.840 C 62.964 74.028,62.154 76.038,62.010 77.306 C 61.789 79.244,61.340 79.674,59.193 80.000 C 57.788 80.214,56.643 80.649,56.650 80.967 C 56.706 83.707,55.535 86.142,53.974 86.534 C 52.052 87.017,50.485 90.384,50.485 94.033 C 50.485 97.095,49.751 98.608,48.499 98.128 C 46.029 97.180,44.595 100.895,44.339 108.908 C 44.292 110.400,43.947 110.895,43.166 110.595 C 42.256 110.246,40.417 112.299,39.960 114.175 C 39.908 114.388,39.634 115.087,39.350 115.728 C 39.067 116.369,38.712 120.145,38.561 124.119 C 38.283 131.452,37.811 132.761,35.312 133.128 C 33.248 133.431,33.230 133.680,32.850 167.905 C 32.513 198.195,32.563 199.644,34.048 203.001 C 35.228 205.668,35.335 206.402,34.498 206.081 C 33.893 205.849,33.398 206.046,33.398 206.519 C 33.398 206.992,33.660 207.405,33.981 207.438 C 34.301 207.471,35.176 207.615,35.926 207.758 C 36.676 207.902,37.092 207.700,36.851 207.310 C 36.610 206.921,36.783 206.602,37.236 206.602 C 37.688 206.602,38.089 207.214,38.126 207.961 C 38.164 208.709,38.297 211.417,38.422 213.981 C 38.960 224.988,39.039 225.359,40.998 226.104 C 42.016 226.491,43.169 226.609,43.560 226.367 C 43.965 226.117,44.272 228.241,44.272 231.292 C 44.272 235.541,44.595 237.028,45.825 238.447 C 47.687 240.594,47.744 240.868,46.205 240.277 C 45.365 239.955,45.168 240.183,45.511 241.079 C 45.775 241.767,46.566 242.335,47.268 242.342 C 49.713 242.365,50.814 243.715,50.629 246.464 C 50.462 248.944,51.378 250.115,53.722 250.418 C 54.006 250.455,54.531 250.777,54.887 251.133 C 55.243 251.489,55.184 251.709,54.757 251.623 C 54.330 251.537,53.501 251.508,52.915 251.559 C 51.504 251.680,53.299 253.981,54.805 253.981 C 55.421 253.981,56.035 255.369,56.351 257.476 C 56.640 259.398,57.185 261.015,57.564 261.068 C 57.943 261.121,58.602 261.252,59.029 261.359 C 59.456 261.466,60.330 261.597,60.971 261.650 C 61.713 261.712,62.136 262.556,62.136 263.978 C 62.136 265.647,62.809 266.669,64.816 268.044 C 66.290 269.054,67.695 270.672,67.938 271.639 C 68.180 272.607,68.897 273.398,69.529 273.398 C 70.181 273.398,70.680 274.107,70.680 275.035 C 70.680 276.212,71.026 276.538,71.917 276.196 C 72.742 275.880,73.289 276.240,73.561 277.278 C 73.784 278.134,74.244 278.835,74.581 278.835 C 74.918 278.835,75.048 279.447,74.869 280.194 C 74.362 282.308,75.892 284.226,76.881 282.718 C 77.546 281.706,77.648 281.721,77.658 282.830 C 77.665 283.531,78.176 284.300,78.795 284.538 C 79.586 284.841,79.793 284.577,79.490 283.650 C 79.253 282.924,79.793 283.379,80.690 284.660 C 81.586 285.942,82.322 287.394,82.325 287.888 C 82.328 288.382,82.981 288.616,83.777 288.408 C 84.773 288.148,85.354 288.532,85.646 289.646 C 85.960 290.848,86.690 291.262,88.495 291.262 C 90.879 291.262,91.552 291.964,91.976 294.891 C 92.115 295.853,93.035 296.436,94.828 296.699 C 96.934 297.008,97.529 297.485,97.736 299.029 C 97.879 300.097,98.329 301.316,98.736 301.739 C 99.568 302.600,99.754 302.629,105.437 302.794 C 109.109 302.901,109.516 303.086,109.526 304.660 C 109.545 307.326,110.637 308.503,113.304 308.730 C 115.794 308.942,118.058 310.308,118.058 311.597 C 118.058 311.997,117.621 312.103,117.087 311.833 C 116.553 311.562,116.806 311.899,117.648 312.581 C 118.490 313.263,119.626 313.649,120.172 313.440 C 120.718 313.230,121.165 313.348,121.165 313.702 C 121.165 314.055,123.684 314.408,126.764 314.486 C 133.118 314.647,132.696 314.494,133.042 316.757 C 133.538 320.009,135.935 320.662,147.715 320.754 C 150.313 320.775,152.359 322.863,151.513 324.630 C 150.925 325.858,157.848 326.134,188.594 326.106 C 218.130 326.080,223.076 325.914,223.452 324.935 C 223.693 324.308,224.387 323.985,224.995 324.218 C 225.603 324.452,225.906 324.328,225.669 323.945 C 224.269 321.680,226.241 320.777,232.589 320.777 C 239.012 320.777,243.883 319.719,243.883 318.325 C 243.883 317.914,243.531 317.796,243.101 318.062 C 242.648 318.342,242.701 317.706,243.226 316.554 C 244.052 314.740,244.570 314.554,249.057 314.466 C 251.765 314.413,254.330 314.282,254.757 314.175 C 255.184 314.068,256.058 313.937,256.699 313.883 C 257.340 313.830,257.864 313.242,257.864 312.576 C 257.864 311.910,258.214 311.581,258.641 311.845 C 259.999 312.684,261.147 311.439,260.137 310.222 C 259.399 309.333,259.575 309.109,261.070 309.037 C 262.083 308.987,263.262 308.866,263.689 308.767 C 264.117 308.667,265.098 308.533,265.871 308.468 C 266.644 308.403,267.060 308.000,266.796 307.573 C 266.532 307.146,266.686 306.796,267.139 306.796 C 267.591 306.796,267.986 306.010,268.016 305.049 C 268.068 303.381,268.101 303.372,268.738 304.854 C 269.203 305.936,269.439 306.054,269.515 305.243 C 269.591 304.431,269.826 304.549,270.291 305.631 C 270.936 307.131,270.961 307.126,271.013 305.489 C 271.068 303.786,271.654 303.458,276.311 302.521 C 278.303 302.120,278.835 301.626,278.835 300.178 C 278.835 298.025,279.076 297.846,282.913 297.154 C 285.387 296.708,285.829 296.838,285.850 298.023 C 285.879 299.649,287.677 302.249,288.651 302.073 C 290.773 301.689,292.769 304.069,292.173 306.271 C 292.078 306.623,292.359 306.690,292.796 306.420 C 293.234 306.149,293.592 306.264,293.592 306.674 C 293.592 307.640,297.928 309.160,298.743 308.480 C 299.086 308.195,298.921 308.545,298.376 309.260 C 297.574 310.312,297.576 310.861,298.385 312.157 C 299.532 313.994,301.359 314.921,301.359 313.667 C 301.359 312.270,303.686 314.593,303.714 316.017 C 303.752 317.980,305.499 319.822,307.603 320.119 C 308.654 320.267,309.532 320.738,309.553 321.165 C 309.670 323.556,310.977 325.379,312.873 325.795 C 314.987 326.260,317.761 329.320,316.068 329.320 C 314.567 329.320,317.498 331.634,319.358 331.917 C 320.352 332.068,321.284 332.803,321.430 333.549 C 321.827 335.576,324.043 337.864,325.610 337.864 C 326.397 337.864,327.001 338.448,327.015 339.223 C 327.052 341.278,328.902 343.301,330.743 343.301 C 331.886 343.301,332.800 344.203,333.764 346.283 C 334.814 348.550,335.565 349.234,336.893 349.132 C 337.854 349.058,338.641 349.309,338.641 349.690 C 338.641 350.071,339.078 350.136,339.612 349.835 C 340.388 349.396,340.388 349.496,339.612 350.333 C 338.457 351.576,338.315 352.915,339.409 352.239 C 339.840 351.972,339.984 352.266,339.737 352.910 C 339.378 353.844,342.302 356.403,343.107 355.859 C 343.966 355.278,344.854 356.001,344.854 357.282 C 344.854 358.136,345.204 358.835,345.631 358.835 C 346.058 358.835,346.408 359.359,346.408 360.000 C 346.408 360.780,347.188 361.165,348.772 361.165 C 350.245 361.165,351.066 361.531,350.950 362.136 C 350.586 364.031,351.965 366.722,353.080 366.294 C 353.682 366.063,354.175 366.172,354.175 366.536 C 354.175 366.900,354.919 367.392,355.829 367.630 C 356.889 367.907,357.325 368.475,357.043 369.210 C 356.801 369.841,357.127 370.558,357.768 370.804 C 358.409 371.050,358.743 371.559,358.510 371.936 C 357.851 373.002,362.930 373.504,374.519 373.516 L 385.154 373.528 384.982 370.453 C 384.807 367.320,385.552 366.813,389.620 367.300 C 391.157 367.485,391.375 365.439,391.073 353.644 C 390.702 339.164,390.725 339.436,389.855 339.320 C 389.454 339.267,388.777 339.136,388.350 339.029 C 387.922 338.922,387.092 338.791,386.505 338.738 C 385.917 338.684,385.234 337.624,384.985 336.382 C 384.641 334.663,383.887 333.910,381.827 333.230 C 379.582 332.489,379.080 331.915,378.881 329.858 C 378.671 327.692,378.305 327.330,375.984 326.990 C 373.858 326.680,373.300 326.230,373.193 324.738 C 373.043 322.668,370.938 320.777,368.784 320.777 C 367.740 320.777,367.379 320.177,367.379 318.447 C 367.379 317.165,367.117 316.091,366.796 316.059 C 362.533 315.636,361.735 315.155,361.389 312.796 C 361.105 310.858,359.173 309.126,357.294 309.126 C 356.566 309.126,355.741 308.093,355.306 306.639 C 354.740 304.743,353.963 304.000,352.039 303.510 C 349.690 302.913,348.979 301.643,349.423 298.835 C 349.473 298.515,348.816 298.209,347.961 298.155 C 347.107 298.102,345.996 298.015,345.493 297.961 C 344.990 297.908,344.312 296.870,343.987 295.654 C 343.335 293.215,341.294 291.325,339.273 291.287 C 338.369 291.270,337.887 290.479,337.719 288.738 C 337.509 286.555,337.154 286.182,335.101 285.981 C 333.190 285.794,332.584 285.268,331.995 283.281 C 331.446 281.432,330.629 280.635,328.738 280.100 C 326.646 279.509,326.214 279.007,326.214 277.169 C 326.214 275.949,325.951 274.925,325.631 274.894 C 321.399 274.474,320.574 273.986,320.223 271.691 C 319.854 269.271,318.515 267.961,316.410 267.961 C 314.773 267.961,314.563 267.608,314.563 264.854 C 314.563 262.058,314.757 261.748,316.505 261.748 C 317.573 261.748,318.447 261.377,318.447 260.925 C 318.447 260.473,318.796 260.319,319.223 260.583 C 319.650 260.847,320.044 260.343,320.097 259.463 C 320.150 258.584,320.282 257.515,320.388 257.087 C 320.495 256.660,320.626 255.961,320.680 255.534 C 320.733 255.107,321.301 254.757,321.942 254.757 C 322.583 254.757,323.112 254.146,323.119 253.398 C 323.128 252.357,323.284 252.281,323.787 253.075 C 324.311 253.901,324.544 253.849,324.940 252.817 C 325.622 251.040,325.648 251.073,323.689 251.189 C 322.547 251.256,321.979 251.754,322.048 252.628 C 322.107 253.363,321.845 253.772,321.466 253.538 C 319.521 252.336,321.818 249.906,325.049 249.747 C 325.476 249.726,325.934 248.194,326.067 246.343 C 326.259 243.676,326.559 243.073,327.513 243.439 C 328.326 243.751,328.582 243.551,328.303 242.824 C 328.046 242.153,328.380 241.783,329.188 241.844 C 329.975 241.903,330.444 241.411,330.379 240.591 C 330.320 239.848,330.543 239.407,330.873 239.611 C 331.666 240.101,332.403 237.224,332.417 233.592 C 332.423 231.943,332.810 230.680,333.309 230.680 C 336.167 230.680,337.863 226.785,337.978 219.960 C 338.159 209.223,338.190 208.932,339.132 208.932 C 339.625 208.932,340.236 209.474,340.491 210.137 C 340.790 210.917,340.640 211.149,340.065 210.794 C 339.518 210.456,339.390 210.590,339.732 211.142 C 340.519 212.416,341.748 212.253,341.748 210.874 C 341.748 210.233,342.155 209.709,342.654 209.709 C 343.152 209.709,343.330 209.479,343.049 209.198 C 342.768 208.917,342.972 208.150,343.502 207.495 C 344.032 206.840,344.087 206.530,343.625 206.807 C 343.162 207.084,342.783 206.817,342.783 206.214 C 342.783 205.610,343.062 205.289,343.402 205.500 C 344.715 206.311,344.216 134.526,342.895 132.509 C 342.231 131.495,341.788 130.220,341.912 129.674 C 342.035 129.128,341.262 128.461,340.194 128.191 C 338.332 127.721,338.243 127.424,338.028 120.911 C 337.904 117.176,337.518 114.297,337.169 114.513 C 336.820 114.728,336.700 114.041,336.902 112.986 C 337.143 111.726,336.904 111.037,336.207 110.978 C 335.623 110.929,334.796 110.808,334.369 110.708 C 333.942 110.609,333.243 110.474,332.816 110.408 C 332.388 110.342,332.021 108.276,331.999 105.816 C 331.948 100.031,331.398 98.743,328.554 97.751 C 326.260 96.952,325.555 94.719,326.174 90.213 C 326.253 89.636,325.949 89.392,325.498 89.671 C 324.998 89.980,324.860 89.703,325.144 88.962 C 325.473 88.107,324.933 87.510,323.323 86.949 C 321.588 86.344,320.864 85.457,320.324 83.276 C 319.737 80.906,319.201 80.329,317.282 80.002 C 315.381 79.678,314.903 79.175,314.689 77.278 C 314.544 75.998,314.107 74.567,313.719 74.096 C 313.330 73.626,312.936 72.326,312.843 71.209 C 312.717 69.678,312.140 69.059,310.512 68.701 C 308.895 68.346,308.350 67.766,308.350 66.402 C 308.350 64.183,306.450 62.136,304.391 62.136 C 303.317 62.136,302.734 61.436,302.395 59.740 C 301.914 57.338,299.612 55.757,297.670 56.496 C 296.784 56.833,296.344 55.408,296.621 53.098 C 296.745 52.058,294.881 51.174,291.690 50.761 C 289.034 50.417,287.885 49.029,289.072 47.599 C 289.666 46.883,289.640 46.602,288.981 46.602 C 288.454 46.602,288.312 46.189,288.647 45.631 C 288.987 45.065,288.620 45.146,287.767 45.825 C 286.593 46.760,286.435 46.772,286.969 45.887 C 287.467 45.060,287.310 44.909,286.341 45.281 C 285.630 45.553,285.049 45.438,285.049 45.024 C 285.049 44.610,284.506 44.272,283.844 44.272 C 283.181 44.272,281.521 43.058,280.155 41.574 C 278.441 39.714,276.886 38.818,275.146 38.690 C 273.278 38.553,272.718 38.194,272.992 37.311 C 273.520 35.608,272.371 34.118,270.416 33.971 C 269.493 33.901,268.738 33.569,268.738 33.233 C 268.738 32.896,267.010 32.621,264.899 32.621 C 261.538 32.621,261.096 32.437,261.346 31.137 C 261.979 27.849,260.463 27.225,249.957 26.447 C 249.666 26.425,249.308 25.621,249.162 24.660 C 249.015 23.699,248.467 23.000,247.943 23.107 C 247.419 23.214,247.078 22.873,247.184 22.350 C 247.390 21.344,245.955 21.170,236.401 21.044 C 231.547 20.980,230.810 20.778,230.455 19.417 C 230.231 18.563,230.386 17.864,230.798 17.864 C 231.211 17.864,231.346 17.537,231.099 17.137 C 230.851 16.737,230.044 16.440,229.305 16.478 C 228.566 16.515,226.563 16.158,224.854 15.685 C 220.667 14.524,152.668 14.633,151.499 15.802 M208.364 55.881 L 215.952 55.922 215.465 57.864 C 215.091 59.354,215.279 59.806,216.272 59.806 C 216.985 59.806,217.351 60.155,217.087 60.583 C 216.797 61.052,218.006 61.398,220.148 61.456 C 222.096 61.510,224.388 61.641,225.243 61.748 C 226.097 61.854,228.194 61.985,229.903 62.039 C 232.297 62.114,233.015 62.448,233.034 63.495 C 233.082 66.134,234.827 67.183,239.612 67.451 C 245.131 67.759,245.093 67.730,245.377 71.951 C 245.410 72.436,247.037 73.073,248.993 73.367 C 251.767 73.783,252.448 74.164,252.089 75.102 C 251.738 76.014,252.015 76.202,253.237 75.883 C 254.637 75.517,254.717 75.631,253.856 76.760 C 253.312 77.474,253.159 77.813,253.516 77.513 C 253.873 77.213,254.673 77.475,255.294 78.095 C 255.914 78.716,257.604 79.223,259.049 79.223 C 261.438 79.223,261.724 79.471,262.187 81.942 C 262.508 83.654,263.168 84.704,263.970 84.778 C 264.670 84.844,265.754 84.932,266.379 84.975 C 267.029 85.019,267.817 86.328,268.220 88.030 C 268.775 90.378,269.224 90.928,270.348 90.634 C 272.262 90.133,274.010 91.608,274.314 93.981 C 274.497 95.406,275.234 96.120,277.087 96.665 C 279.274 97.309,279.612 97.751,279.612 99.966 C 279.612 101.373,279.961 102.524,280.388 102.524 C 280.816 102.524,281.165 103.049,281.165 103.689 C 281.165 104.330,281.552 104.854,282.025 104.854 C 282.498 104.854,282.692 105.357,282.456 105.971 C 282.176 106.701,282.618 107.172,283.732 107.330 C 285.082 107.522,285.518 108.220,285.825 110.680 C 286.180 113.522,286.429 113.807,288.738 114.030 C 291.134 114.261,291.265 114.438,291.320 117.525 C 291.435 124.018,292.283 125.786,295.294 125.813 C 297.222 125.831,297.360 126.364,297.531 134.408 C 297.697 142.225,298.002 143.936,299.108 143.252 C 300.419 142.442,302.953 142.218,302.499 142.953 C 302.249 143.358,302.286 144.080,302.581 144.557 C 303.231 145.610,303.145 194.723,302.491 195.782 C 302.237 196.193,301.686 196.319,301.268 196.060 C 300.789 195.764,300.844 195.184,301.417 194.494 C 301.985 193.809,302.025 193.398,301.524 193.398 C 299.821 193.398,297.476 200.029,297.476 204.842 C 297.476 210.030,296.926 212.271,295.822 211.588 C 295.429 211.345,295.203 211.610,295.321 212.175 C 295.438 212.741,295.071 213.108,294.505 212.990 C 293.940 212.873,293.669 213.089,293.905 213.469 C 294.140 213.850,293.717 214.718,292.964 215.399 C 291.983 216.287,291.548 218.002,291.425 221.462 C 291.222 227.192,291.175 227.252,286.762 227.513 C 286.209 227.546,285.814 228.010,285.883 228.544 C 286.237 231.266,285.544 232.798,283.162 234.563 C 281.720 235.631,280.702 236.767,280.899 237.087 C 281.096 237.408,280.887 237.670,280.434 237.670 C 279.982 237.670,279.612 238.369,279.612 239.223 C 279.612 240.078,279.286 240.777,278.887 240.777 C 278.489 240.777,277.926 241.522,277.637 242.433 C 277.224 243.734,276.966 243.859,276.432 243.015 C 275.817 242.044,275.611 242.233,275.794 243.602 C 275.831 243.875,275.438 244.360,274.921 244.679 C 274.404 244.999,273.981 246.201,273.981 247.352 C 273.981 248.602,273.473 249.603,272.718 249.841 C 269.070 250.989,267.961 251.984,267.961 254.112 C 267.961 256.339,267.702 256.479,263.516 256.512 C 262.566 256.519,261.962 256.805,262.173 257.147 C 262.384 257.489,262.050 258.052,261.431 258.399 C 260.811 258.746,260.280 259.379,260.249 259.806 C 260.219 260.233,259.932 260.595,259.612 260.610 C 259.291 260.625,258.155 261.134,257.087 261.740 C 256.019 262.346,254.526 262.748,253.769 262.632 C 252.968 262.509,252.481 262.848,252.604 263.443 C 252.720 264.006,252.379 264.379,251.845 264.272 C 251.311 264.165,250.874 264.707,250.874 265.476 C 250.874 267.272,249.419 268.727,248.121 268.229 C 246.400 267.568,243.999 269.413,243.741 271.594 C 243.541 273.289,243.064 273.703,241.165 273.833 C 234.700 274.273,233.010 274.549,233.010 275.163 C 233.010 275.531,232.352 275.624,231.548 275.369 C 229.948 274.861,228.729 276.768,229.661 278.323 C 229.958 278.818,229.610 278.744,228.887 278.157 C 227.755 277.239,227.573 277.266,227.573 278.351 C 227.573 279.239,226.827 279.635,225.049 279.690 C 222.806 279.759,219.823 279.900,212.602 280.276 C 210.863 280.367,210.356 280.841,209.979 282.729 C 209.340 285.920,209.089 285.951,186.370 285.676 C 170.734 285.487,166.645 285.227,166.807 284.435 C 167.427 281.394,162.837 278.870,159.720 280.538 C 158.825 281.017,158.439 281.028,158.725 280.567 C 159.003 280.116,157.268 279.770,154.394 279.706 C 149.914 279.604,147.885 278.662,148.835 277.124 C 149.185 276.557,148.026 276.188,146.602 276.413 C 146.282 276.463,146.107 276.112,146.214 275.631 C 146.320 275.150,145.922 274.581,145.329 274.365 C 144.590 274.097,144.442 274.311,144.860 275.045 C 145.353 275.910,145.269 275.930,144.425 275.146 C 143.849 274.612,141.855 274.175,139.993 274.175 C 137.627 274.175,136.775 273.904,137.163 273.276 C 137.544 272.660,137.191 272.515,136.044 272.815 C 135.123 273.056,134.369 272.936,134.369 272.549 C 134.369 272.161,134.739 271.845,135.191 271.845 C 135.644 271.845,135.779 271.465,135.492 271.000 C 135.116 270.392,134.734 270.392,134.126 271.000 C 133.052 272.075,132.039 272.085,132.039 271.022 C 132.039 270.570,132.330 270.380,132.686 270.600 C 133.042 270.820,133.333 270.524,133.333 269.943 C 133.333 269.362,132.867 269.065,132.298 269.283 C 131.728 269.502,131.262 269.294,131.262 268.821 C 131.262 268.348,130.039 267.961,128.544 267.961 C 125.906 267.961,125.486 267.391,125.892 264.359 C 126.018 263.412,123.869 262.548,121.359 262.536 C 119.971 262.530,118.913 262.262,119.008 261.942 C 119.307 260.934,116.369 257.080,115.643 257.528 C 115.263 257.763,114.951 257.586,114.951 257.133 C 114.951 256.681,113.574 256.311,111.892 256.311 C 108.916 256.311,108.825 256.230,108.591 253.398 C 108.370 250.739,108.130 250.464,105.825 250.242 C 103.721 250.039,103.301 249.678,103.301 248.071 C 103.301 247.011,102.443 245.285,101.395 244.237 C 100.346 243.188,99.822 242.330,100.229 242.330 C 101.769 242.330,100.892 240.787,99.096 240.336 C 97.930 240.043,97.030 239.102,96.715 237.845 C 96.436 236.733,95.619 235.365,94.900 234.803 C 93.714 233.878,93.737 233.830,95.146 234.297 C 96.000 234.579,96.448 234.533,96.141 234.194 C 95.304 233.268,92.120 233.240,91.468 234.152 C 91.154 234.592,90.892 233.487,90.886 231.696 C 90.879 229.906,90.519 228.222,90.084 227.953 C 89.650 227.685,89.431 227.227,89.597 226.937 C 89.763 226.646,89.255 225.746,88.467 224.937 C 87.066 223.497,87.044 223.503,87.377 225.236 C 87.565 226.210,87.467 226.755,87.160 226.448 C 86.853 226.141,86.575 225.657,86.542 225.372 C 86.509 225.087,86.178 223.456,85.808 221.748 C 85.115 218.554,84.982 217.822,84.778 216.071 C 84.709 215.474,84.259 215.295,83.689 215.637 C 83.022 216.038,83.050 215.812,83.778 214.914 C 84.844 213.599,82.168 211.631,80.583 212.564 C 80.262 212.753,80.000 212.701,80.000 212.448 C 80.000 212.195,80.786 211.642,81.748 211.219 C 83.368 210.505,83.344 210.479,81.411 210.858 L 79.327 211.266 78.956 203.303 C 78.527 194.075,78.414 193.326,77.535 193.870 C 77.176 194.092,76.665 193.707,76.399 193.014 C 76.133 192.322,75.437 191.939,74.851 192.164 C 73.965 192.504,73.786 188.931,73.786 170.849 C 73.786 158.902,74.069 149.126,74.415 149.126 C 74.760 149.126,75.721 148.576,76.551 147.904 C 77.380 147.231,77.534 146.942,76.893 147.260 C 76.121 147.645,76.230 147.268,77.218 146.142 C 78.960 144.155,79.073 143.417,79.159 133.398 L 79.223 125.825 81.578 125.825 C 84.401 125.825,85.207 124.202,85.113 118.707 C 85.077 116.641,85.311 114.907,85.631 114.854 C 85.951 114.801,86.883 114.714,87.702 114.660 C 90.113 114.503,90.583 113.776,90.777 109.903 C 90.852 108.389,91.291 107.961,92.770 107.961 C 94.716 107.961,95.767 106.942,95.957 104.868 C 96.603 97.822,97.542 96.408,101.182 97.001 C 102.037 97.140,103.441 93.136,102.969 91.905 C 102.708 91.225,103.205 90.874,104.427 90.874 C 107.625 90.874,108.738 90.050,108.738 87.684 C 108.738 86.448,109.000 85.392,109.320 85.338 C 109.641 85.283,110.700 85.156,111.675 85.054 C 113.983 84.814,114.391 84.342,114.524 81.758 C 114.615 79.988,115.037 79.566,116.929 79.352 C 118.191 79.210,119.835 78.544,120.583 77.873 C 121.468 77.078,121.942 76.975,121.942 77.577 C 121.942 78.246,122.351 78.282,123.425 77.707 C 124.341 77.217,124.766 76.369,124.536 75.490 C 124.230 74.319,124.827 73.939,127.907 73.344 C 130.304 72.881,131.688 72.202,131.755 71.456 C 131.813 70.816,131.900 69.680,131.949 68.932 C 132.023 67.811,132.797 67.573,136.362 67.573 C 141.351 67.573,143.689 66.587,143.689 64.485 C 143.689 62.486,143.951 62.391,150.989 61.812 C 154.363 61.535,157.509 61.067,157.980 60.772 C 158.450 60.477,159.359 60.226,160.000 60.215 C 160.800 60.201,161.096 59.533,160.946 58.087 L 160.727 55.979 168.325 55.757 C 172.503 55.634,181.515 55.603,188.350 55.687 C 195.184 55.772,204.191 55.859,208.364 55.881 M117.727 261.207 C 117.989 262.986,117.519 262.865,116.457 260.881 C 115.772 259.602,115.794 259.310,116.556 259.564 C 117.094 259.743,117.621 260.483,117.727 261.207 M241.165 271.068 C 239.802 272.574,239.808 272.621,241.385 272.621 C 242.531 272.621,242.976 272.164,242.893 271.068 C 242.829 270.214,242.730 269.515,242.674 269.515 C 242.617 269.515,241.938 270.214,241.165 271.068 " stroke="none" fill="#e7001b" fill-rule="evenodd"></path><path id="path4" d="M144.895 15.728 C 144.406 17.318,144.677 19.417,145.372 19.417 C 145.728 19.417,146.045 19.155,146.077 18.835 C 146.109 18.515,146.281 17.466,146.461 16.505 C 146.798 14.694,145.423 14.012,144.895 15.728 M186.602 15.314 C 187.777 15.492,189.699 15.492,190.874 15.314 C 192.049 15.136,191.087 14.990,188.738 14.990 C 186.388 14.990,185.427 15.136,186.602 15.314 M226.019 15.648 C 226.019 16.012,226.456 16.339,226.990 16.374 C 227.524 16.408,228.926 16.508,230.106 16.594 C 231.298 16.681,232.131 16.394,231.982 15.948 C 231.660 14.984,226.019 14.700,226.019 15.648 M230.455 19.417 C 230.678 20.272,231.170 20.971,231.547 20.971 C 231.924 20.971,232.233 20.272,232.233 19.417 C 232.233 18.563,231.741 17.864,231.141 17.864 C 230.431 17.864,230.191 18.408,230.455 19.417 M127.023 21.586 C 126.301 22.307,126.563 26.408,127.331 26.408 C 127.732 26.408,127.994 25.447,127.913 24.272 C 127.787 22.426,128.051 22.142,129.854 22.177 C 131.002 22.200,131.795 21.982,131.616 21.692 C 131.229 21.066,127.626 20.983,127.023 21.586 M247.433 22.274 C 247.144 23.026,247.157 23.394,247.460 23.090 C 247.764 22.786,248.522 22.960,249.144 23.477 C 250.075 24.250,250.226 24.156,249.992 22.952 C 249.611 20.983,248.084 20.578,247.433 22.274 M115.469 26.926 C 115.184 27.210,114.983 28.521,115.022 29.838 L 115.092 32.233 115.807 29.759 C 116.346 27.897,117.049 27.206,118.650 26.963 C 120.722 26.649,120.716 26.638,118.382 26.524 C 117.065 26.460,115.754 26.641,115.469 26.926 M258.252 26.935 C 259.107 27.164,260.300 27.751,260.903 28.239 C 261.765 28.936,261.919 28.877,261.620 27.961 C 261.411 27.320,260.218 26.733,258.969 26.657 C 257.543 26.569,257.276 26.673,258.252 26.935 M103.327 35.534 C 103.352 38.425,103.363 38.434,104.729 36.799 C 105.487 35.893,106.873 34.908,107.810 34.611 C 109.520 34.068,110.194 32.621,108.738 32.621 C 108.311 32.621,107.961 32.971,107.961 33.398 C 107.961 33.825,107.591 34.175,107.139 34.175 C 106.686 34.175,106.532 33.825,106.796 33.398 C 107.068 32.958,106.416 32.621,105.289 32.621 C 103.505 32.621,103.304 32.920,103.327 35.534 M270.291 33.398 C 270.291 33.825,271.011 34.175,271.890 34.175 C 272.770 34.175,273.274 33.825,273.010 33.398 C 272.746 32.971,272.026 32.621,271.410 32.621 C 270.795 32.621,270.291 32.971,270.291 33.398 M95.722 39.219 C 94.331 39.823,92.854 41.208,92.440 42.295 C 92.027 43.382,91.069 44.309,90.310 44.354 C 85.923 44.617,85.825 44.668,85.748 46.735 C 85.705 47.876,85.093 49.386,84.388 50.091 C 82.655 51.825,82.774 52.260,84.660 51.082 C 85.515 50.548,86.214 49.672,86.214 49.134 C 86.214 48.596,86.638 48.243,87.156 48.350 C 87.674 48.456,88.456 47.758,88.893 46.799 C 89.495 45.474,90.578 44.935,93.387 44.563 C 96.830 44.106,97.087 43.917,97.087 41.842 C 97.087 40.615,97.350 39.586,97.670 39.554 C 99.445 39.378,102.091 38.750,102.412 38.429 C 103.253 37.588,98.065 38.201,95.722 39.219 M277.087 38.606 C 278.049 38.792,278.835 39.306,278.835 39.749 C 278.835 40.192,279.398 40.338,280.086 40.074 C 281.016 39.718,281.211 39.924,280.845 40.878 C 280.430 41.960,280.542 42.005,281.553 41.165 C 282.564 40.326,282.677 40.370,282.265 41.444 C 281.960 42.238,282.173 42.723,282.830 42.730 C 283.650 42.740,283.626 42.928,282.718 43.580 C 281.730 44.291,281.756 44.353,282.892 43.989 C 283.688 43.734,284.545 44.098,285.004 44.887 C 286.157 46.864,285.982 45.614,284.666 42.463 C 283.530 39.745,279.962 37.867,276.505 38.168 C 275.864 38.224,276.126 38.421,277.087 38.606 M286.861 45.282 C 286.861 45.878,287.841 46.317,289.256 46.354 C 291.262 46.407,291.336 46.353,289.709 46.024 C 287.895 45.658,287.869 45.590,289.320 45.006 C 290.711 44.446,290.664 44.375,288.867 44.326 C 287.711 44.295,286.861 44.700,286.861 45.282 M288.641 47.998 C 288.030 48.987,289.130 50.029,291.786 50.978 C 293.819 51.705,294.179 51.671,293.839 50.784 C 293.612 50.193,292.610 49.709,291.613 49.709 C 290.616 49.709,289.548 49.300,289.239 48.800 C 288.861 48.189,289.101 48.054,289.970 48.387 C 290.681 48.660,291.262 48.545,291.262 48.131 C 291.262 47.227,289.183 47.121,288.641 47.998 M79.551 52.394 C 78.865 55.127,79.402 55.813,80.971 54.207 C 82.185 52.964,82.195 52.816,81.070 52.816 C 80.038 52.816,79.985 52.605,80.777 51.650 C 81.427 50.867,81.463 50.485,80.887 50.485 C 80.415 50.485,79.814 51.344,79.551 52.394 M74.149 56.595 C 73.332 57.412,73.866 59.029,74.951 59.029 C 75.592 59.029,76.117 58.484,76.117 57.818 C 76.117 57.152,76.442 56.808,76.840 57.054 C 77.237 57.300,77.739 57.216,77.954 56.867 C 78.361 56.210,74.790 55.955,74.149 56.595 M160.941 58.058 C 161.116 59.723,160.836 60.195,159.675 60.197 C 158.856 60.199,158.040 60.636,157.863 61.168 C 157.223 63.088,164.266 61.362,166.019 59.170 C 167.823 56.914,167.162 55.922,163.854 55.922 C 160.896 55.922,160.731 56.044,160.941 58.058 M210.014 57.151 C 210.273 57.827,210.485 58.538,210.485 58.732 C 210.485 59.335,217.672 62.198,218.103 61.767 C 218.328 61.543,218.083 61.359,217.559 61.359 C 217.036 61.359,216.823 61.010,217.087 60.583 C 217.351 60.155,216.985 59.806,216.272 59.806 C 215.279 59.806,215.091 59.354,215.465 57.864 C 215.925 56.028,215.778 55.922,212.747 55.922 C 210.144 55.922,209.631 56.153,210.014 57.151 M300.136 56.576 C 300.959 56.921,301.914 57.876,302.259 58.699 C 302.789 59.963,302.858 59.894,302.705 58.252 C 302.570 56.805,302.030 56.265,300.583 56.130 C 298.941 55.977,298.872 56.046,300.136 56.576 M67.898 63.185 C 67.677 63.762,67.554 64.549,67.626 64.933 C 67.972 66.781,67.359 67.440,64.861 67.909 C 62.265 68.396,62.155 68.551,62.273 71.570 L 62.397 74.723 63.759 72.917 C 64.508 71.924,64.976 70.876,64.798 70.589 C 64.402 69.948,66.857 68.928,67.425 69.496 C 67.649 69.720,67.446 69.903,66.974 69.903 C 66.502 69.903,66.167 70.587,66.230 71.423 C 66.350 73.011,66.562 73.163,66.817 71.845 C 66.899 71.417,67.651 70.107,68.488 68.932 C 69.426 67.614,69.655 66.796,69.084 66.796 C 68.388 66.796,68.398 66.508,69.126 65.631 C 69.847 64.763,69.859 64.466,69.175 64.466 C 68.671 64.466,68.477 64.111,68.746 63.677 C 69.014 63.242,69.559 63.088,69.957 63.334 C 70.354 63.580,70.680 63.411,70.680 62.958 C 70.680 61.762,68.372 61.950,67.898 63.185 M144.207 62.654 C 143.922 62.939,143.689 63.795,143.689 64.557 C 143.689 65.319,143.078 66.298,142.330 66.734 C 141.368 67.294,141.290 67.532,142.063 67.549 C 143.398 67.578,148.350 63.895,148.350 62.873 C 148.350 62.038,145.000 61.861,144.207 62.654 M232.479 64.331 C 232.570 66.837,233.424 68.194,234.337 67.281 C 234.583 67.035,234.423 66.388,233.981 65.844 C 233.539 65.300,232.999 64.155,232.782 63.301 C 232.564 62.447,232.428 62.910,232.479 64.331 M243.883 69.773 C 243.883 71.126,244.240 72.233,244.675 72.233 C 245.111 72.233,245.301 71.316,245.098 70.196 C 244.553 67.189,243.883 66.956,243.883 69.773 M310.184 68.113 C 311.024 68.953,313.010 69.070,313.010 68.281 C 313.010 67.891,312.252 67.573,311.327 67.573 C 310.401 67.573,309.887 67.816,310.184 68.113 M313.226 69.221 C 312.368 70.078,312.492 71.104,313.825 74.175 C 314.195 75.029,314.600 76.597,314.725 77.659 C 314.907 79.213,315.497 79.679,317.737 80.041 C 321.706 80.682,321.043 76.435,316.864 74.452 C 314.531 73.344,314.208 72.856,314.427 70.762 C 314.704 68.126,314.536 67.911,313.226 69.221 M124.559 75.534 C 124.817 76.495,125.037 77.631,125.050 78.058 C 125.062 78.485,125.411 78.311,125.825 77.670 C 126.993 75.863,126.737 73.786,125.346 73.786 C 124.423 73.786,124.215 74.249,124.559 75.534 M250.097 76.021 C 250.097 76.823,250.546 77.853,251.096 78.308 C 251.851 78.935,252.094 78.769,252.094 77.627 C 252.094 76.796,251.732 76.111,251.290 76.105 C 250.847 76.098,251.010 75.754,251.650 75.340 C 252.646 74.696,252.618 74.585,251.456 74.575 C 250.640 74.568,250.097 75.146,250.097 76.021 M58.231 77.476 L 56.544 79.612 58.231 79.867 C 60.920 80.274,62.136 79.440,61.960 77.308 C 61.748 74.746,60.338 74.809,58.231 77.476 M114.874 79.417 C 114.832 79.524,114.714 80.514,114.613 81.616 C 114.512 82.719,114.191 84.006,113.900 84.476 C 113.610 84.946,114.428 84.804,115.719 84.160 C 117.771 83.137,119.612 81.009,119.612 79.663 C 119.612 79.246,115.037 79.009,114.874 79.417 M262.009 83.099 C 262.095 84.412,262.635 85.083,263.689 85.190 C 264.807 85.304,264.875 85.238,263.931 84.956 C 263.210 84.741,262.454 83.800,262.251 82.865 C 261.941 81.440,261.902 81.478,262.009 83.099 M51.003 85.955 C 50.718 86.239,50.497 87.201,50.510 88.091 C 50.534 89.680,50.555 89.682,51.675 88.201 C 53.316 86.031,52.766 84.192,51.003 85.955 M49.889 93.981 C 49.889 95.476,50.049 96.087,50.244 95.340 C 50.439 94.592,50.439 93.369,50.244 92.621 C 50.049 91.874,49.889 92.485,49.889 93.981 M102.371 95.590 C 102.130 96.219,100.958 96.814,99.766 96.913 C 96.978 97.143,97.093 96.957,96.716 101.836 C 96.538 104.137,96.573 105.234,96.794 104.273 C 97.029 103.248,97.986 102.328,99.111 102.046 C 100.992 101.574,103.658 96.995,103.074 95.240 C 102.928 94.804,102.612 94.962,102.371 95.590 M273.398 95.552 C 273.398 95.996,273.937 96.566,274.597 96.819 C 276.418 97.518,276.632 96.764,274.916 95.692 C 273.955 95.092,273.398 95.041,273.398 95.552 M44.533 98.305 C 44.276 98.974,44.513 99.935,45.059 100.441 C 45.829 101.152,45.930 101.140,45.505 100.388 C 45.204 99.854,45.327 99.417,45.779 99.417 C 46.232 99.417,46.602 98.893,46.602 98.252 C 46.602 96.717,45.128 96.754,44.533 98.305 M330.122 97.605 C 330.135 97.961,330.687 98.951,331.348 99.806 C 332.525 101.327,332.544 101.320,332.294 99.478 C 332.064 97.781,330.063 96.055,330.122 97.605 M279.612 105.924 C 279.612 107.534,281.735 108.973,283.450 108.525 C 284.354 108.288,285.108 108.571,285.317 109.225 C 285.518 109.855,285.613 109.737,285.539 108.947 C 285.469 108.191,284.893 107.526,284.259 107.468 C 283.625 107.411,282.670 107.323,282.136 107.274 C 281.602 107.225,281.165 106.660,281.165 106.019 C 281.165 105.379,280.816 104.854,280.388 104.854 C 279.961 104.854,279.612 105.336,279.612 105.924 M41.165 109.490 C 41.165 109.904,40.641 110.041,40.000 109.795 C 38.584 109.252,38.476 110.371,39.806 111.803 C 40.392 112.435,40.425 112.652,39.887 112.351 C 38.834 111.762,38.054 113.488,38.070 116.374 L 38.081 118.447 39.088 116.505 C 39.653 115.416,39.790 114.355,39.400 114.089 C 39.018 113.828,39.258 113.402,39.935 113.142 C 40.611 112.883,41.165 112.124,41.165 111.456 C 41.165 110.788,41.951 109.925,42.913 109.539 L 44.660 108.836 42.913 108.787 C 41.951 108.760,41.165 109.076,41.165 109.490 M332.089 109.433 C 331.433 110.495,334.043 111.207,335.169 110.272 C 335.881 109.681,336.260 109.732,336.517 110.453 C 336.714 111.005,337.175 111.175,337.541 110.832 C 337.908 110.488,337.693 109.882,337.065 109.484 C 335.603 108.560,332.648 108.530,332.089 109.433 M85.602 114.767 C 85.235 114.889,85.087 116.029,85.274 117.301 C 85.824 121.048,89.127 120.220,90.414 116.012 C 90.899 114.429,88.487 113.805,85.602 114.767 M287.194 114.724 C 288.160 114.910,289.558 114.903,290.300 114.708 C 291.043 114.514,290.252 114.362,288.544 114.371 C 286.835 114.379,286.227 114.538,287.194 114.724 M84.435 124.272 C 84.139 125.403,83.376 125.825,81.626 125.825 C 79.341 125.825,79.223 125.977,79.223 128.932 C 79.223 135.031,84.094 132.926,85.064 126.408 C 85.613 122.723,85.203 121.334,84.435 124.272 M291.262 125.256 C 291.262 126.213,293.801 130.485,294.370 130.485 C 294.736 130.485,295.584 131.035,296.255 131.706 C 297.365 132.816,297.476 132.643,297.476 129.810 C 297.476 128.096,297.214 126.539,296.893 126.351 C 295.967 125.805,291.262 124.891,291.262 125.256 M35.169 127.394 C 34.220 127.776,33.293 128.890,33.108 129.869 C 32.538 132.887,32.683 135.146,33.446 135.146 C 33.847 135.146,34.087 134.725,33.981 134.210 C 33.874 133.695,34.223 133.215,34.757 133.142 C 35.291 133.069,36.065 132.966,36.478 132.913 C 37.724 132.751,38.953 129.750,38.437 128.126 C 37.903 126.442,37.667 126.389,35.169 127.394 M342.524 129.780 C 341.643 130.403,341.597 130.700,342.335 130.999 C 342.872 131.217,343.113 131.714,342.872 132.105 C 342.630 132.496,342.803 132.816,343.255 132.816 C 343.708 132.816,344.078 131.942,344.078 130.874 C 344.078 128.662,344.091 128.672,342.524 129.780 M297.549 144.466 C 297.487 147.858,298.114 148.867,300.685 149.512 C 303.014 150.097,304.544 146.820,302.879 144.814 C 302.397 144.233,302.216 143.411,302.478 142.987 C 302.955 142.215,300.458 142.418,299.093 143.262 C 298.703 143.502,298.208 143.260,297.992 142.723 C 297.775 142.187,297.576 142.971,297.549 144.466 M74.563 149.126 C 73.621 149.735,73.732 149.881,75.146 149.891 C 76.107 149.898,76.893 149.553,76.893 149.126 C 76.893 148.153,76.069 148.153,74.563 149.126 M74.757 191.603 C 75.505 191.799,76.117 192.282,76.117 192.678 C 76.117 193.074,76.816 193.398,77.670 193.398 C 78.524 193.398,79.223 193.089,79.223 192.712 C 79.223 191.966,76.432 191.041,74.563 191.169 C 73.737 191.225,73.793 191.351,74.757 191.603 M299.806 191.759 C 297.569 192.376,296.454 196.505,298.524 196.505 C 299.158 196.505,299.823 196.767,300.002 197.087 C 300.181 197.408,300.203 197.184,300.049 196.590 C 299.628 194.955,300.592 192.535,301.453 193.068 C 301.934 193.365,301.900 193.911,301.359 194.563 C 300.765 195.280,300.755 195.743,301.328 196.097 C 302.269 196.679,303.671 193.498,303.116 192.039 C 302.713 190.980,302.648 190.974,299.806 191.759 M32.624 205.243 C 32.628 209.196,35.143 213.819,37.087 213.445 C 37.892 213.289,38.370 212.515,38.317 211.450 C 38.270 210.492,38.192 209.010,38.145 208.155 C 38.097 207.301,37.688 206.602,37.236 206.602 C 36.783 206.602,36.610 206.921,36.851 207.310 C 37.092 207.700,36.676 207.902,35.926 207.758 C 35.176 207.615,34.301 207.471,33.981 207.438 C 33.660 207.405,33.398 206.992,33.398 206.519 C 33.398 206.046,33.926 205.862,34.572 206.110 C 35.612 206.509,35.610 206.296,34.552 204.251 C 32.955 201.162,32.621 201.333,32.624 205.243 M296.699 208.155 C 296.699 208.583,296.175 208.932,295.534 208.932 C 294.893 208.932,294.369 209.239,294.369 209.614 C 294.369 210.532,296.684 212.411,296.757 211.551 C 296.788 211.179,296.961 210.087,297.140 209.126 C 297.319 208.165,297.293 207.379,297.083 207.379 C 296.872 207.379,296.699 207.728,296.699 208.155 M79.223 210.048 C 79.223 211.480,79.295 211.492,81.936 210.488 C 83.289 209.973,83.812 209.973,83.494 210.488 C 83.230 210.914,82.532 211.262,81.942 211.262 C 79.567 211.262,80.283 212.517,82.752 212.683 C 85.210 212.849,85.357 212.733,84.754 211.091 C 83.957 208.919,79.223 208.026,79.223 210.048 M338.175 211.972 C 338.117 214.216,338.369 214.903,339.141 214.607 C 339.715 214.386,339.945 213.806,339.652 213.317 C 339.359 212.827,339.711 212.907,340.433 213.493 C 342.033 214.791,344.078 213.486,344.078 211.167 C 344.078 210.365,343.553 209.709,342.913 209.709 C 342.272 209.709,341.748 210.233,341.748 210.874 C 341.748 212.253,340.519 212.416,339.732 211.142 C 339.390 210.590,339.518 210.456,340.065 210.794 C 340.640 211.149,340.790 210.917,340.491 210.137 C 339.612 207.848,338.253 208.924,338.175 211.972 M292.184 210.534 C 292.371 211.095,292.983 211.706,293.544 211.893 C 294.126 212.087,294.417 211.796,294.223 211.214 C 294.036 210.653,293.425 210.041,292.864 209.854 C 292.282 209.660,291.990 209.951,292.184 210.534 M291.262 214.489 C 291.262 216.889,291.294 216.911,292.813 215.536 C 293.996 214.466,294.157 213.885,293.494 213.086 C 292.073 211.373,291.262 211.883,291.262 214.489 M86.990 221.829 C 88.058 222.484,88.309 222.828,87.548 222.593 C 86.158 222.164,85.885 225.173,87.195 226.483 C 87.483 226.771,87.568 226.173,87.384 225.154 C 87.080 223.469,87.143 223.424,88.076 224.660 C 88.641 225.408,89.544 226.019,90.084 226.019 C 90.839 226.019,90.820 225.718,89.998 224.705 C 89.274 223.812,89.243 223.578,89.903 223.974 C 90.516 224.343,90.874 224.105,90.874 223.328 C 90.874 222.651,89.977 221.757,88.881 221.340 C 85.882 220.199,84.793 220.481,86.990 221.829 M288.556 221.262 C 286.588 221.684,286.155 222.226,285.688 224.860 C 284.902 229.291,284.954 233.135,285.772 231.068 C 286.110 230.214,286.223 229.078,286.023 228.544 C 285.823 228.010,286.221 227.529,286.907 227.476 C 287.594 227.422,288.505 227.291,288.932 227.184 C 289.359 227.078,290.022 226.947,290.404 226.893 C 290.786 226.840,291.232 225.398,291.395 223.689 C 291.558 221.981,291.508 220.624,291.283 220.674 C 291.058 220.725,289.831 220.990,288.556 221.262 M38.480 226.019 C 39.066 230.898,39.226 231.155,42.136 231.874 C 44.198 232.383,44.272 232.294,44.272 229.297 C 44.272 227.312,43.922 226.205,43.301 226.228 C 40.089 226.347,38.700 225.937,39.068 224.978 C 39.288 224.405,39.130 223.444,38.718 222.842 C 38.219 222.115,38.140 223.181,38.480 226.019 M336.694 229.117 C 336.976 229.574,336.625 229.677,335.828 229.371 C 334.789 228.972,334.603 229.158,335.002 230.197 C 335.308 230.994,335.205 231.345,334.748 231.062 C 334.326 230.801,333.981 230.958,333.981 231.410 C 333.981 232.340,334.834 232.453,336.636 231.762 C 337.998 231.239,338.342 228.350,337.042 228.350 C 336.589 228.350,336.433 228.695,336.694 229.117 M90.935 233.660 C 90.975 234.497,91.137 234.603,91.395 233.961 C 91.693 233.219,92.456 233.381,94.440 234.607 L 97.087 236.243 97.087 234.626 C 97.087 232.874,97.111 232.887,93.398 232.578 C 91.459 232.417,90.888 232.668,90.935 233.660 M280.583 232.747 C 279.277 233.274,279.339 236.117,280.656 236.117 C 281.705 236.117,284.272 233.730,284.272 232.754 C 284.272 232.163,282.042 232.158,280.583 232.747 M44.272 239.133 C 44.272 239.510,44.945 239.995,45.767 240.210 C 46.816 240.484,47.139 240.279,46.849 239.524 C 46.398 238.347,44.272 238.024,44.272 239.133 M98.854 239.417 C 99.042 239.951,99.770 240.340,100.472 240.280 C 102.097 240.143,102.138 241.452,100.528 242.070 C 99.545 242.447,99.708 242.800,101.369 243.890 C 102.502 244.633,103.400 245.460,103.365 245.727 C 102.916 249.135,103.391 250.007,105.825 250.242 C 108.130 250.464,108.370 250.739,108.591 253.398 C 108.819 256.164,108.969 256.311,111.552 256.311 C 115.427 256.311,115.264 251.732,111.349 250.617 C 109.549 250.104,108.731 249.286,108.217 247.485 C 107.717 245.735,106.981 244.972,105.605 244.776 C 103.409 244.464,102.553 243.426,102.536 241.054 C 102.530 240.139,101.971 239.177,101.296 238.918 C 99.370 238.179,98.481 238.361,98.854 239.417 M275.146 238.961 C 273.764 239.519,273.941 240.543,275.728 242.330 C 277.209 243.811,277.653 243.457,277.353 241.029 C 277.291 240.528,277.653 239.862,278.158 239.550 C 278.772 239.171,278.867 239.319,278.447 240.000 C 278.031 240.673,278.122 240.829,278.715 240.463 C 281.063 239.011,278.105 237.767,275.146 238.961 M330.448 239.939 C 331.320 241.351,330.003 243.219,328.824 242.240 C 327.948 241.513,327.827 241.583,328.214 242.592 C 328.894 244.364,331.980 243.742,332.274 241.773 C 332.408 240.877,331.972 239.992,331.263 239.719 C 330.577 239.456,330.210 239.555,330.448 239.939 M44.272 241.896 C 44.272 242.511,44.600 243.218,45.002 243.466 C 45.403 243.714,45.678 243.210,45.613 242.347 C 45.479 240.573,44.272 240.167,44.272 241.896 M46.602 243.107 C 46.602 243.534,47.126 243.883,47.767 243.883 C 48.408 243.883,48.932 243.534,48.932 243.107 C 48.932 242.680,48.408 242.330,47.767 242.330 C 47.126 242.330,46.602 242.680,46.602 243.107 M274.175 243.147 C 274.175 243.597,273.101 244.339,271.789 244.796 C 269.459 245.608,267.493 248.712,268.390 250.162 C 268.632 250.554,267.960 250.874,266.897 250.874 C 264.469 250.874,262.524 252.766,262.524 255.128 C 262.524 256.560,262.197 256.856,260.971 256.536 C 259.891 256.253,259.417 256.512,259.417 257.385 C 259.417 258.951,260.154 258.971,262.309 257.462 C 263.235 256.813,264.274 256.330,264.618 256.388 C 267.032 256.799,267.961 256.166,267.961 254.112 C 267.961 251.984,269.070 250.989,272.718 249.841 C 273.473 249.603,273.981 248.602,273.981 247.352 C 273.981 246.201,274.286 245.038,274.660 244.766 C 275.652 244.045,275.857 242.330,274.951 242.330 C 274.524 242.330,274.175 242.698,274.175 243.147 M50.045 246.602 C 50.276 248.738,50.471 251.309,50.477 252.315 C 50.486 253.601,50.828 254.015,51.627 253.709 C 52.254 253.468,53.006 253.660,53.299 254.135 C 53.622 254.657,53.479 254.779,52.936 254.443 C 52.442 254.138,52.039 254.259,52.039 254.711 C 52.039 255.164,52.913 255.534,53.981 255.534 C 55.049 255.534,55.922 255.126,55.922 254.628 C 55.922 254.129,55.689 253.955,55.403 254.241 C 54.526 255.118,52.111 252.367,52.612 251.062 C 52.915 250.271,52.768 250.035,52.194 250.390 C 51.195 251.007,50.073 247.632,50.718 245.951 C 50.938 245.377,50.782 244.415,50.371 243.813 C 49.869 243.077,49.762 243.990,50.045 246.602 M322.524 250.323 C 320.751 251.123,320.211 252.762,321.466 253.538 C 321.845 253.772,322.107 253.356,322.048 252.613 C 321.969 251.613,322.497 251.284,324.078 251.346 C 325.252 251.392,326.214 251.167,326.214 250.847 C 326.214 249.791,324.304 249.520,322.524 250.323 M323.168 253.786 C 323.098 255.796,325.224 256.216,325.946 254.335 C 326.546 252.770,325.541 251.779,324.712 253.120 C 324.181 253.980,324.000 253.976,323.650 253.098 C 323.408 252.488,323.203 252.780,323.168 253.786 M115.293 257.163 C 114.945 257.727,115.037 257.903,115.523 257.602 C 116.334 257.101,119.335 260.839,119.008 261.942 C 118.913 262.262,119.971 262.477,121.359 262.418 C 123.185 262.342,123.400 262.220,122.136 261.976 C 121.175 261.791,120.351 261.227,120.306 260.723 C 120.260 260.218,120.173 259.107,120.112 258.252 C 119.983 256.460,116.249 255.616,115.293 257.163 M256.667 257.139 C 256.386 257.595,256.342 258.154,256.570 258.382 C 257.126 258.938,258.641 257.958,258.641 257.042 C 258.641 256.049,257.300 256.115,256.667 257.139 M116.457 260.881 C 117.519 262.865,117.989 262.986,117.727 261.207 C 117.621 260.483,117.094 259.743,116.556 259.564 C 115.794 259.310,115.772 259.602,116.457 260.881 M256.171 260.737 C 255.992 261.666,255.119 262.068,253.215 262.096 C 251.332 262.124,250.437 262.529,250.261 263.433 C 250.086 264.327,250.443 264.647,251.411 264.463 C 252.184 264.317,252.990 264.164,253.204 264.125 C 253.417 264.086,253.068 263.694,252.427 263.254 C 251.502 262.620,251.662 262.494,253.204 262.644 C 255.339 262.853,258.641 261.348,258.641 260.167 C 258.641 258.854,256.435 259.363,256.171 260.737 M124.789 262.718 C 125.124 263.252,125.517 264.557,125.662 265.617 C 126.028 268.281,126.602 268.644,126.602 266.212 C 126.602 263.674,125.876 261.748,124.920 261.748 C 124.513 261.748,124.454 262.184,124.789 262.718 M62.197 267.716 C 62.092 269.302,63.614 272.621,64.447 272.621 C 64.885 272.621,65.243 271.902,65.243 271.022 C 65.243 270.011,65.573 269.627,66.139 269.977 C 66.708 270.328,66.825 270.189,66.459 269.597 C 66.013 268.876,65.605 268.892,64.673 269.665 C 63.620 270.539,63.536 270.420,64.017 268.732 C 64.390 267.420,64.331 267.138,63.834 267.855 C 63.215 268.749,63.035 268.749,62.680 267.855 C 62.417 267.195,62.235 267.143,62.197 267.716 M131.262 268.821 C 131.262 269.294,131.728 269.502,132.298 269.283 C 132.867 269.065,133.333 269.362,133.333 269.943 C 133.333 270.524,133.042 270.820,132.686 270.600 C 132.330 270.380,132.039 270.570,132.039 271.022 C 132.039 272.085,133.052 272.075,134.126 271.000 C 134.734 270.392,135.116 270.392,135.492 271.000 C 135.779 271.465,135.644 271.845,135.191 271.845 C 134.739 271.845,134.369 272.161,134.369 272.549 C 134.369 272.936,135.123 273.056,136.044 272.815 C 137.191 272.515,137.544 272.660,137.163 273.276 C 136.842 273.795,137.073 274.175,137.711 274.175 C 138.933 274.175,138.642 270.659,137.276 268.932 C 136.328 267.732,131.262 267.639,131.262 268.821 M239.423 268.932 C 237.281 271.641,237.809 274.007,240.515 273.826 C 243.601 273.620,243.532 273.683,244.141 270.485 C 244.659 267.762,241.238 266.635,239.423 268.932 M242.863 271.088 C 243.131 272.842,240.477 273.291,239.533 271.650 C 239.226 271.117,239.260 270.939,239.610 271.255 C 240.505 272.066,242.420 270.303,241.809 269.232 C 241.531 268.747,241.602 268.621,241.967 268.952 C 242.331 269.283,242.734 270.245,242.863 271.088 M66.043 271.605 C 66.030 272.113,66.329 272.721,66.708 272.955 C 67.087 273.189,67.620 274.571,67.893 276.025 C 68.317 278.289,68.777 278.742,71.088 279.176 C 72.572 279.454,73.792 280.103,73.798 280.618 C 73.806 281.203,74.081 281.125,74.534 280.409 C 74.932 279.779,74.989 279.080,74.660 278.855 C 74.331 278.631,73.838 277.841,73.565 277.100 C 73.264 276.285,72.598 275.935,71.874 276.213 C 71.032 276.536,70.680 276.188,70.680 275.035 C 70.680 273.930,70.187 273.398,69.165 273.398 C 68.332 273.398,67.294 272.786,66.858 272.039 C 66.423 271.291,66.056 271.096,66.043 271.605 M228.544 274.199 C 227.474 274.629,226.796 275.564,226.796 276.609 C 226.796 277.549,227.026 278.087,227.307 277.806 C 227.588 277.525,228.375 277.729,229.055 278.259 C 230.104 279.077,230.154 279.046,229.385 278.056 C 228.117 276.424,229.945 273.750,231.360 275.166 C 231.961 275.767,232.495 275.827,232.848 275.333 C 233.150 274.910,234.097 274.443,234.951 274.295 C 237.789 273.805,237.197 273.397,233.722 273.447 C 231.835 273.474,229.505 273.813,228.544 274.199 M322.609 273.936 C 323.491 274.818,326.355 275.032,325.827 274.177 C 325.562 273.749,324.609 273.398,323.708 273.398 C 322.808 273.398,322.313 273.640,322.609 273.936 M165.473 280.628 C 166.133 281.137,166.667 282.427,166.659 283.495 C 166.646 285.248,166.967 285.447,169.950 285.546 C 175.430 285.726,173.097 280.762,167.379 280.076 C 164.866 279.774,164.501 279.880,165.473 280.628 M206.907 281.089 C 203.583 283.116,202.892 285.830,205.704 285.813 C 208.610 285.797,209.498 285.029,209.953 282.136 C 210.414 279.202,210.151 279.111,206.907 281.089 M73.931 283.285 C 74.096 284.143,75.019 284.692,76.484 284.805 C 77.810 284.907,79.340 285.727,80.112 286.751 C 80.846 287.724,81.733 288.235,82.082 287.886 C 82.431 287.537,82.018 286.741,81.164 286.117 C 80.310 285.492,79.725 284.813,79.864 284.607 C 80.003 284.401,79.943 283.805,79.731 283.282 C 79.433 282.544,79.332 282.548,79.285 283.301 C 79.195 284.724,77.670 284.488,77.670 283.051 C 77.670 281.942,77.559 281.942,76.449 283.051 C 74.911 284.590,74.266 284.612,74.844 283.107 C 75.090 282.466,74.927 281.942,74.482 281.942 C 74.037 281.942,73.789 282.546,73.931 283.285 M181.205 285.628 C 185.393 285.768,192.033 285.767,195.963 285.627 C 199.892 285.486,196.466 285.372,188.350 285.372 C 180.233 285.373,177.018 285.488,181.205 285.628 M83.983 289.469 C 84.707 290.362,84.737 290.597,84.078 290.200 C 83.544 289.880,83.107 289.987,83.107 290.440 C 83.107 290.892,83.631 291.262,84.272 291.262 C 84.919 291.262,85.437 290.572,85.437 289.709 C 85.437 288.794,84.919 288.155,84.177 288.155 C 83.091 288.155,83.064 288.337,83.983 289.469 M86.214 292.798 C 86.214 294.828,89.326 296.787,92.980 297.055 C 94.598 297.174,94.933 297.118,93.724 296.931 C 92.450 296.734,91.672 296.206,91.874 295.674 C 92.066 295.170,91.931 293.971,91.573 293.010 C 90.692 290.639,86.214 290.461,86.214 292.798 M284.858 298.641 C 285.063 299.709,285.364 300.583,285.527 300.583 C 285.691 300.583,285.825 299.709,285.825 298.641 C 285.825 297.573,285.524 296.699,285.156 296.699 C 284.788 296.699,284.654 297.573,284.858 298.641 M103.301 304.759 C 103.301 307.054,104.502 308.051,107.825 308.514 C 110.136 308.836,110.361 308.705,109.971 307.253 C 109.732 306.361,109.531 305.019,109.525 304.272 C 109.517 303.206,108.845 302.913,106.408 302.913 C 103.654 302.913,103.301 303.123,103.301 304.759 M272.039 303.427 C 271.505 303.642,271.068 304.285,271.068 304.854 C 271.068 305.424,271.505 306.066,272.039 306.282 C 272.619 306.516,272.462 306.698,271.650 306.735 C 270.855 306.771,270.286 306.233,270.279 305.437 C 270.270 304.349,270.130 304.294,269.581 305.161 C 269.030 306.032,268.821 305.956,268.518 304.773 C 268.199 303.526,268.128 303.568,268.051 305.049 C 268.002 306.010,267.591 306.796,267.139 306.796 C 266.686 306.796,266.516 307.119,266.760 307.514 C 267.004 307.909,266.588 308.410,265.835 308.627 C 265.082 308.844,266.214 308.822,268.350 308.578 C 270.485 308.334,272.490 307.746,272.804 307.271 C 273.322 306.486,273.663 302.829,273.204 302.974 C 273.097 303.008,272.573 303.212,272.039 303.427 M291.368 305.890 C 291.263 308.449,292.696 309.098,293.450 306.834 C 293.644 306.254,293.434 306.025,292.972 306.311 C 292.510 306.596,292.002 306.048,291.812 305.060 C 291.571 303.808,291.443 304.047,291.368 305.890 M260.109 310.188 C 260.776 310.993,260.724 311.471,259.891 312.162 C 259.043 312.866,258.717 312.850,258.464 312.091 C 258.283 311.548,257.934 311.881,257.685 312.836 C 257.310 314.268,257.552 314.563,259.102 314.563 C 261.101 314.563,261.135 314.514,261.365 311.262 C 261.466 309.830,261.139 309.126,260.372 309.126 C 259.492 309.126,259.431 309.372,260.109 310.188 M114.951 311.689 C 114.951 313.073,116.562 314.568,118.019 314.538 C 118.962 314.519,118.887 314.255,117.670 313.319 C 116.816 312.661,116.204 311.799,116.311 311.401 C 116.417 311.004,116.155 310.680,115.728 310.680 C 115.301 310.680,114.951 311.134,114.951 311.689 M127.379 316.061 C 127.379 317.790,129.336 320.000,130.866 320.000 C 131.441 320.000,132.552 320.240,133.335 320.534 C 134.553 320.991,134.614 320.891,133.759 319.839 C 133.210 319.163,132.815 318.311,132.880 317.946 C 133.347 315.344,132.705 314.563,130.097 314.563 C 127.930 314.563,127.379 314.867,127.379 316.061 M243.226 316.554 C 242.701 317.706,242.648 318.342,243.101 318.062 C 243.531 317.796,243.883 317.919,243.883 318.336 C 243.883 318.753,242.922 319.468,241.748 319.925 C 239.982 320.612,240.353 320.676,243.883 320.290 C 249.205 319.708,249.320 319.634,249.320 316.847 C 249.320 313.645,244.653 313.421,243.226 316.554 M362.979 315.083 C 363.673 315.776,367.479 316.131,367.067 315.463 C 366.827 315.075,365.736 314.757,364.642 314.757 C 363.548 314.757,362.800 314.904,362.979 315.083 M302.913 317.802 C 302.913 319.708,304.145 320.793,306.277 320.765 C 306.892 320.757,306.919 320.569,306.363 320.182 C 305.911 319.868,304.950 318.747,304.227 317.691 L 302.913 315.771 302.913 317.802 M150.089 323.107 C 150.259 325.389,150.603 325.848,152.233 325.969 C 153.374 326.053,153.610 325.949,152.806 325.716 C 152.053 325.498,151.586 325.079,151.767 324.786 C 151.948 324.492,151.599 323.383,150.992 322.320 C 149.888 320.391,149.887 320.392,150.089 323.107 M225.631 322.330 C 225.360 323.184,224.791 323.883,224.368 323.883 C 223.944 323.883,223.795 324.203,224.037 324.594 C 224.278 324.985,224.037 325.481,223.500 325.698 C 222.922 325.931,223.089 326.116,223.911 326.152 C 226.121 326.250,230.633 323.049,230.668 321.359 C 230.697 319.942,226.108 320.826,225.631 322.330 M309.321 324.412 C 309.398 325.431,310.058 325.931,311.416 325.999 C 312.506 326.054,312.874 325.909,312.233 325.678 C 311.592 325.447,310.650 324.733,310.138 324.091 C 309.336 323.083,309.224 323.127,309.321 324.412 M314.906 328.679 C 315.199 332.241,315.253 332.427,315.987 332.427 C 316.343 332.427,316.634 331.903,316.634 331.262 C 316.634 330.621,316.256 330.092,315.793 330.085 C 315.244 330.077,315.266 329.873,315.856 329.498 C 316.533 329.067,316.500 328.566,315.727 327.509 C 314.799 326.239,314.715 326.358,314.906 328.679 M380.583 332.725 C 380.583 333.414,383.725 333.775,384.123 333.131 C 384.362 332.744,383.663 332.427,382.570 332.427 C 381.477 332.427,380.583 332.561,380.583 332.725 M320.777 336.804 C 320.777 337.384,321.274 337.625,321.942 337.368 C 322.583 337.122,323.107 336.667,323.107 336.357 C 323.107 336.047,322.583 335.793,321.942 335.793 C 321.301 335.793,320.777 336.248,320.777 336.804 M324.418 338.367 C 325.353 338.570,326.273 339.419,326.463 340.254 C 326.732 341.434,326.786 341.380,326.705 340.012 C 326.629 338.718,326.088 338.219,324.660 338.125 C 323.043 338.019,323.003 338.060,324.418 338.367 M389.808 339.272 C 390.397 339.683,390.682 340.338,390.442 340.727 C 390.202 341.115,390.345 341.941,390.760 342.561 C 391.318 343.396,391.456 343.099,391.291 341.419 C 391.168 340.171,390.544 339.008,389.903 338.836 C 388.945 338.578,388.928 338.656,389.808 339.272 M332.489 347.715 C 332.429 349.356,335.077 351.007,336.110 349.974 C 336.363 349.721,336.162 349.515,335.663 349.515 C 335.165 349.515,334.757 348.970,334.757 348.304 C 334.757 347.638,334.438 347.290,334.047 347.532 C 333.656 347.773,333.160 347.532,332.943 346.995 C 332.727 346.458,332.522 346.782,332.489 347.715 M344.183 357.709 C 344.085 359.904,345.196 361.942,346.490 361.942 C 346.792 361.942,346.856 361.243,346.633 360.388 C 346.409 359.534,345.942 358.835,345.595 358.835 C 345.247 358.835,344.811 358.049,344.626 357.087 C 344.366 355.737,344.265 355.879,344.183 357.709 M350.486 365.577 C 350.604 367.140,354.175 368.080,354.175 366.547 C 354.175 366.100,353.772 365.982,353.280 366.286 C 352.788 366.590,351.933 366.220,351.380 365.464 C 350.429 364.163,350.380 364.170,350.486 365.577 M390.680 366.636 C 390.680 367.082,390.243 367.390,389.709 367.321 C 385.077 366.719,384.599 367.321,385.183 373.010 C 385.261 373.767,388.465 373.742,389.672 372.975 C 390.650 372.353,392.015 365.825,391.167 365.825 C 390.899 365.825,390.680 366.190,390.680 366.636 M355.728 369.371 C 355.728 371.620,357.313 373.593,359.056 373.515 C 360.678 373.442,360.665 373.402,358.835 372.816 C 357.767 372.474,357.417 372.148,358.058 372.093 C 359.008 372.010,358.978 371.848,357.896 371.218 C 357.164 370.791,356.766 369.931,357.009 369.300 C 357.250 368.670,357.061 368.155,356.588 368.155 C 356.115 368.155,355.728 368.703,355.728 369.371 " stroke="none" fill="#ff0000" fill-rule="evenodd"></path></g></svg>