<svg id="svg" version="1.1" width="500" height="500" xmlns="http://www.w3.org/2000/svg" xmlns:xlink="http://www.w3.org/1999/xlink" style="display: block;"><g id="svgg"><path id="path0" d="M136.000 37.600 C 136.000 38.705,136.533 39.200,137.724 39.200 C 139.397 39.200,139.405 39.153,138.000 37.600 C 137.204 36.720,136.428 36.000,136.276 36.000 C 136.124 36.000,136.000 36.720,136.000 37.600 M273.760 134.560 C 272.350 135.970,272.587 136.800,274.400 136.800 C 275.467 136.800,276.000 136.267,276.000 135.200 C 276.000 133.387,275.170 133.150,273.760 134.560 M37.200 137.600 C 37.996 138.480,38.772 139.200,38.924 139.200 C 39.076 139.200,39.200 138.480,39.200 137.600 C 39.200 136.495,38.667 136.000,37.476 136.000 C 35.803 136.000,35.795 136.047,37.200 137.600 M378.400 198.375 C 378.400 199.408,378.791 199.800,379.538 199.513 C 381.430 198.787,381.750 196.800,379.975 196.800 C 378.942 196.800,378.400 197.342,378.400 198.375 M231.657 231.657 C 230.221 233.094,230.211 233.219,231.520 233.471 C 232.293 233.620,233.109 233.558,233.333 233.333 C 233.558 233.109,233.620 232.293,233.471 231.520 C 233.219 230.211,233.094 230.221,231.657 231.657 M92.160 280.160 C 90.853 281.467,90.953 282.400,92.400 282.400 C 93.067 282.400,93.600 281.689,93.600 280.800 C 93.600 278.935,93.451 278.869,92.160 280.160 M124.000 295.200 C 124.000 296.080,124.347 296.800,124.772 296.800 C 125.196 296.800,125.929 296.080,126.400 295.200 C 127.126 293.844,127.008 293.600,125.628 293.600 C 124.533 293.600,124.000 294.124,124.000 295.200 " stroke="none" fill="#ffffff" fill-rule="evenodd"></path><path id="path1" d="M107.806 101.260 C 107.504 101.563,107.616 102.483,108.056 103.305 C 108.611 104.342,108.588 104.800,107.981 104.800 C 107.499 104.800,107.328 105.160,107.600 105.600 C 107.872 106.040,108.454 106.400,108.894 106.400 C 109.334 106.400,109.472 106.040,109.200 105.600 C 108.541 104.534,109.854 104.574,110.933 105.653 C 111.538 106.258,111.759 106.021,111.693 104.843 C 111.642 103.928,111.345 103.274,111.034 103.390 C 110.723 103.505,109.993 102.950,109.412 102.155 C 108.831 101.361,108.109 100.958,107.806 101.260 M100.800 108.000 C 99.928 108.564,99.886 108.779,100.647 108.788 C 101.223 108.794,101.466 109.169,101.188 109.620 C 100.573 110.615,102.369 110.313,103.680 109.200 C 105.382 107.755,102.826 106.690,100.800 108.000 M72.477 112.675 C 72.200 113.123,72.364 113.730,72.840 114.025 C 74.070 114.785,74.864 113.744,73.837 112.717 C 73.262 112.142,72.815 112.129,72.477 112.675 M249.371 126.412 C 249.990 128.779,251.034 129.090,250.591 126.776 C 250.383 125.689,249.929 124.800,249.582 124.800 C 249.234 124.800,249.140 125.526,249.371 126.412 M127.200 150.408 C 127.200 151.882,127.596 152.326,129.000 152.429 C 130.720 152.556,130.731 152.639,128.800 150.986 C 127.920 150.232,127.200 149.972,127.200 150.408 M343.015 156.620 C 342.562 158.353,343.370 159.399,345.400 159.707 C 345.950 159.790,346.400 159.492,346.400 159.044 C 346.400 158.595,345.852 158.439,345.181 158.696 C 344.169 159.085,344.115 158.880,344.861 157.485 C 345.395 156.489,345.430 156.011,344.948 156.308 C 344.502 156.584,343.989 156.367,343.809 155.826 C 343.628 155.284,343.271 155.642,343.015 156.620 M100.000 189.507 C 100.000 189.895,100.741 190.407,101.646 190.644 C 102.996 190.997,103.122 190.870,102.348 189.937 C 101.292 188.664,100.000 188.428,100.000 189.507 M269.802 200.400 C 269.811 202.160,269.974 202.786,270.166 201.791 C 270.357 200.796,270.350 199.356,270.150 198.591 C 269.949 197.826,269.793 198.640,269.802 200.400 M107.329 203.563 C 107.821 204.642,108.623 205.452,109.111 205.363 C 109.606 205.272,109.920 206.087,109.820 207.200 C 109.722 208.300,109.842 208.748,110.089 208.195 C 110.335 207.642,110.875 207.399,111.288 207.654 C 111.701 207.910,111.941 207.672,111.820 207.126 C 111.501 205.687,109.303 203.399,108.600 203.774 C 108.270 203.950,108.000 203.533,108.000 202.847 C 108.000 202.161,107.648 201.600,107.217 201.600 C 106.737 201.600,106.780 202.359,107.329 203.563 M121.234 231.945 C 120.981 232.354,121.140 232.916,121.587 233.192 C 122.034 233.468,122.400 233.269,122.400 232.749 C 122.400 232.081,122.810 232.125,123.800 232.902 C 125.069 233.897,125.097 233.869,124.102 232.600 C 122.880 231.042,121.927 230.824,121.234 231.945 M107.228 247.947 C 106.215 249.841,106.168 250.638,107.103 250.060 C 107.809 249.623,108.910 246.400,108.353 246.400 C 108.190 246.400,107.684 247.096,107.228 247.947 M94.400 341.172 C 94.400 341.867,95.095 342.400,96.000 342.400 C 96.880 342.400,97.600 342.233,97.600 342.028 C 97.600 341.824,96.880 341.271,96.000 340.800 C 94.723 340.117,94.400 340.192,94.400 341.172 M125.867 377.317 C 125.867 378.082,126.131 378.189,126.674 377.646 C 127.218 377.102,127.894 377.146,128.741 377.780 C 129.790 378.565,129.834 378.537,129.008 377.610 C 127.658 376.094,125.867 375.927,125.867 377.317 " stroke="none" fill="#bf0000" fill-rule="evenodd"></path><path id="path2" d="M101.000 15.751 C 101.770 15.953,103.030 15.953,103.800 15.751 C 104.570 15.550,103.940 15.386,102.400 15.386 C 100.860 15.386,100.230 15.550,101.000 15.751 M108.580 16.511 C 109.119 16.736,109.799 16.862,110.091 16.792 C 110.382 16.721,110.959 17.144,111.371 17.732 C 111.984 18.604,112.066 18.593,111.819 17.673 C 111.652 17.054,110.635 16.446,109.558 16.324 C 108.481 16.201,108.041 16.286,108.580 16.511 M53.800 18.130 C 53.250 18.352,52.800 19.283,52.800 20.200 C 52.800 21.640,53.979 21.575,54.012 20.133 C 54.019 19.840,54.310 19.150,54.659 18.600 C 55.340 17.528,55.320 17.517,53.800 18.130 M45.600 22.284 C 45.600 22.807,44.700 23.644,43.600 24.146 C 41.332 25.179,40.981 26.133,42.869 26.133 C 44.276 26.133,46.910 22.644,46.108 21.842 C 45.829 21.562,45.600 21.761,45.600 22.284 M39.710 27.756 C 39.404 28.063,38.596 28.395,37.914 28.495 C 35.540 28.843,34.302 29.594,34.792 30.388 C 35.436 31.430,31.430 35.436,30.388 34.792 C 29.617 34.316,28.851 35.521,28.516 37.738 C 28.427 38.322,28.026 39.340,27.624 40.000 C 26.990 41.041,27.075 41.052,28.266 40.086 C 29.021 39.473,29.472 38.805,29.268 38.601 C 28.741 38.074,31.328 35.554,33.018 34.946 C 33.798 34.666,34.666 33.798,34.946 33.018 C 35.554 31.328,38.074 28.741,38.601 29.268 C 38.805 29.472,39.427 29.090,39.984 28.419 C 40.989 27.208,40.775 26.691,39.710 27.756 M140.217 40.873 C 140.996 41.327,141.425 42.036,141.170 42.449 C 140.914 42.862,141.125 43.200,141.638 43.200 C 142.160 43.200,142.357 42.643,142.086 41.935 C 141.819 41.239,141.600 40.519,141.600 40.335 C 141.600 40.151,140.970 40.011,140.200 40.024 C 138.877 40.047,138.878 40.094,140.217 40.873 M24.800 42.400 C 24.800 42.840,24.080 43.920,23.200 44.800 C 21.380 46.620,22.144 46.949,24.384 45.311 C 25.966 44.154,26.754 41.600,25.529 41.600 C 25.128 41.600,24.800 41.960,24.800 42.400 M81.800 50.951 C 82.570 51.153,83.830 51.153,84.600 50.951 C 85.370 50.750,84.740 50.586,83.200 50.586 C 81.660 50.586,81.030 50.750,81.800 50.951 M67.774 53.623 C 68.162 55.107,66.033 56.329,64.528 55.485 C 63.973 55.174,64.011 55.407,64.622 56.065 C 65.360 56.858,66.006 56.936,66.945 56.344 C 68.696 55.239,69.782 52.267,68.435 52.267 C 67.874 52.267,67.578 52.874,67.774 53.623 M18.067 54.113 C 17.669 55.151,17.792 55.236,18.655 54.520 C 19.256 54.022,19.948 53.815,20.193 54.060 C 20.439 54.306,20.877 54.122,21.167 53.653 C 21.472 53.160,21.035 52.800,20.133 52.800 C 19.274 52.800,18.344 53.391,18.067 54.113 M107.200 61.732 C 107.200 62.352,107.961 62.917,108.890 62.987 C 109.820 63.057,110.450 63.032,110.290 62.931 C 110.131 62.830,109.370 62.265,108.600 61.676 C 107.422 60.774,107.200 60.783,107.200 61.732 M55.257 66.732 C 54.660 67.450,54.409 68.276,54.699 68.566 C 55.446 69.313,57.045 67.534,56.661 66.382 C 56.440 65.720,56.007 65.828,55.257 66.732 M15.402 102.800 C 15.411 104.560,15.574 105.186,15.766 104.191 C 15.957 103.196,15.950 101.756,15.750 100.991 C 15.549 100.226,15.393 101.040,15.402 102.800 M106.400 107.175 C 106.400 107.601,105.801 107.720,105.069 107.439 C 104.287 107.139,103.939 107.254,104.226 107.718 C 104.495 108.153,103.756 109.543,102.584 110.806 C 101.043 112.468,100.852 112.951,101.892 112.552 C 102.683 112.248,103.841 112.000,104.465 112.000 C 105.089 112.000,105.600 111.619,105.600 111.153 C 105.600 110.687,105.150 110.534,104.600 110.812 C 104.050 111.091,104.140 110.842,104.800 110.259 C 107.019 108.301,108.249 106.400,107.298 106.400 C 106.804 106.400,106.400 106.749,106.400 107.175 M316.600 106.973 C 315.390 107.156,314.031 107.994,313.581 108.835 C 312.921 110.069,312.998 110.274,313.981 109.896 C 314.652 109.639,315.200 109.086,315.200 108.667 C 315.200 108.248,315.507 108.095,315.882 108.327 C 316.257 108.559,317.247 108.232,318.082 107.600 C 318.917 106.968,319.420 106.493,319.200 106.545 C 318.980 106.597,317.810 106.790,316.600 106.973 M61.676 108.600 C 62.265 109.370,62.830 110.131,62.931 110.290 C 63.032 110.450,63.057 109.820,62.987 108.890 C 62.917 107.961,62.352 107.200,61.732 107.200 C 60.783 107.200,60.774 107.422,61.676 108.600 M190.463 107.825 C 190.428 108.389,190.940 109.057,191.600 109.311 C 192.260 109.564,192.800 110.114,192.800 110.533 C 192.800 110.952,192.350 111.035,191.800 110.719 C 191.250 110.402,191.080 110.452,191.423 110.828 C 191.766 111.205,192.486 111.588,193.023 111.679 C 193.560 111.771,194.686 112.120,195.525 112.456 C 196.696 112.925,196.531 112.484,194.813 110.556 C 193.582 109.175,192.297 108.217,191.956 108.427 C 191.615 108.638,191.154 108.358,190.931 107.805 C 190.612 107.012,190.513 107.016,190.463 107.825 M16.244 109.379 C 16.380 110.358,16.741 111.408,17.046 111.713 C 17.895 112.562,17.680 110.159,16.786 108.800 C 16.159 107.848,16.047 107.967,16.244 109.379 M69.684 113.828 C 70.298 114.494,70.961 114.884,71.158 114.694 C 71.356 114.505,71.934 115.130,72.444 116.083 C 72.955 117.036,73.592 117.461,73.860 117.026 C 74.550 115.910,72.750 113.866,70.484 113.190 C 68.803 112.689,68.705 112.767,69.684 113.828 M96.331 113.412 C 95.409 114.036,93.404 119.200,94.083 119.200 C 94.303 119.200,94.853 118.141,95.304 116.846 C 95.790 115.450,96.995 114.173,98.262 113.709 C 99.964 113.086,100.074 112.916,98.800 112.875 C 97.920 112.847,96.809 113.089,96.331 113.412 M296.103 114.166 C 294.796 115.565,294.993 116.367,296.365 115.229 C 297.006 114.697,297.816 114.435,298.165 114.647 C 298.514 114.859,299.227 114.569,299.750 114.004 C 300.503 113.188,300.318 112.999,298.852 113.088 C 297.837 113.149,296.600 113.635,296.103 114.166 M351.200 113.371 C 351.860 113.615,352.858 114.177,353.418 114.621 C 354.180 115.223,354.310 115.096,353.933 114.113 C 353.656 113.391,352.657 112.828,351.714 112.863 C 350.544 112.906,350.381 113.067,351.200 113.371 M219.411 118.974 C 220.627 119.158,222.427 119.153,223.411 118.963 C 224.395 118.773,223.400 118.623,221.200 118.629 C 219.000 118.635,218.195 118.790,219.411 118.974 M288.533 118.933 C 287.547 119.920,287.961 121.028,289.000 120.184 C 289.550 119.738,290.720 119.195,291.600 118.979 C 292.888 118.662,292.796 118.567,291.133 118.493 C 289.997 118.442,288.827 118.640,288.533 118.933 M363.372 120.416 C 365.338 122.459,365.901 122.514,365.163 120.593 C 364.903 119.914,363.987 119.174,363.129 118.950 C 361.698 118.575,361.718 118.698,363.372 120.416 M241.600 125.109 C 241.600 125.279,242.661 125.574,243.958 125.764 C 245.255 125.955,246.133 125.816,245.911 125.455 C 245.514 124.814,241.600 124.500,241.600 125.109 M367.487 125.354 C 367.792 125.659,368.842 126.020,369.821 126.156 C 371.233 126.353,371.352 126.241,370.400 125.614 C 369.041 124.720,366.638 124.505,367.487 125.354 M248.247 127.030 C 248.993 127.855,249.333 128.828,249.002 129.193 C 248.671 129.558,248.834 129.607,249.365 129.303 C 250.582 128.604,249.888 126.682,248.183 126.027 C 247.040 125.589,247.047 125.705,248.247 127.030 M142.995 131.551 C 143.213 132.691,143.709 133.820,144.098 134.061 C 145.071 134.662,144.500 131.380,143.448 130.328 C 142.849 129.729,142.715 130.089,142.995 131.551 M255.809 130.966 C 256.804 131.157,258.244 131.150,259.009 130.950 C 259.774 130.749,258.960 130.593,257.200 130.602 C 255.440 130.611,254.814 130.774,255.809 130.966 M372.446 131.275 C 372.693 131.674,373.295 132.000,373.784 132.000 C 374.274 132.000,375.332 132.596,376.137 133.324 C 376.942 134.052,377.600 134.276,377.600 133.822 C 377.600 133.368,377.150 132.644,376.600 132.214 C 375.221 131.135,371.895 130.383,372.446 131.275 M265.924 133.507 C 266.762 134.438,267.842 135.194,268.324 135.188 C 268.813 135.181,268.727 134.876,268.132 134.498 C 267.544 134.126,267.113 133.501,267.174 133.111 C 267.235 132.720,266.635 132.268,265.842 132.107 C 264.490 131.832,264.496 131.920,265.924 133.507 M162.010 137.400 C 162.157 138.170,162.348 138.980,162.434 139.200 C 162.519 139.420,162.538 139.897,162.475 140.259 C 162.412 140.622,162.704 140.706,163.125 140.446 C 163.545 140.187,164.119 140.346,164.400 140.800 C 164.681 141.254,165.272 141.403,165.714 141.130 C 166.172 140.846,165.805 140.134,164.859 139.471 C 163.946 138.832,163.200 137.790,163.200 137.155 C 163.200 136.520,162.872 136.000,162.471 136.000 C 162.070 136.000,161.862 136.630,162.010 137.400 M40.024 140.200 C 40.011 140.970,40.151 141.600,40.335 141.600 C 40.519 141.600,41.239 141.819,41.935 142.086 C 42.643 142.357,43.200 142.160,43.200 141.638 C 43.200 141.125,42.862 140.914,42.449 141.170 C 42.036 141.425,41.327 140.996,40.873 140.217 C 40.094 138.878,40.047 138.877,40.024 140.200 M180.000 143.804 C 180.000 146.127,182.171 147.773,183.434 146.408 C 184.206 145.574,184.127 145.460,183.041 145.842 C 182.136 146.159,181.814 145.974,182.077 145.287 C 182.295 144.720,181.916 143.795,181.236 143.230 C 180.191 142.363,180.000 142.452,180.000 143.804 M380.800 143.760 C 381.460 143.998,382.622 144.959,383.382 145.896 C 384.142 146.833,384.772 147.176,384.782 146.657 C 384.809 145.252,382.477 143.191,380.943 143.263 C 379.849 143.315,379.822 143.407,380.800 143.760 M320.291 145.195 C 320.039 145.853,319.596 146.245,319.307 146.066 C 319.019 145.888,318.066 146.274,317.191 146.924 C 315.693 148.036,315.740 148.073,318.000 147.556 C 321.012 146.866,324.359 144.000,322.153 144.000 C 321.381 144.000,320.543 144.538,320.291 145.195 M326.895 145.242 C 326.633 145.924,326.743 146.282,327.141 146.037 C 327.538 145.791,328.046 146.042,328.269 146.595 C 328.583 147.374,328.688 147.364,328.737 146.553 C 328.774 145.933,329.209 145.751,329.800 146.106 C 330.479 146.515,330.448 146.273,329.702 145.354 C 328.337 143.671,327.510 143.638,326.895 145.242 M198.667 149.299 C 198.667 149.867,199.169 150.524,199.784 150.760 C 200.399 150.996,200.643 151.607,200.327 152.118 C 199.959 152.713,200.103 152.831,200.727 152.445 C 201.274 152.107,202.379 152.457,203.250 153.246 C 204.579 154.448,204.800 154.471,204.800 153.410 C 204.800 152.728,204.180 151.933,203.422 151.643 C 202.242 151.190,202.214 151.007,203.222 150.369 C 204.382 149.636,203.431 149.185,201.400 149.505 C 201.070 149.557,200.800 149.300,200.800 148.933 C 200.800 148.567,200.320 148.267,199.733 148.267 C 199.147 148.267,198.667 148.731,198.667 149.299 M310.088 149.933 C 309.805 151.063,308.690 152.199,307.402 152.670 C 305.477 153.373,305.419 153.482,306.943 153.537 C 309.078 153.614,311.200 151.623,311.200 149.543 C 311.200 147.423,310.672 147.608,310.088 149.933 M343.472 154.754 C 343.762 155.511,344.000 156.303,344.000 156.513 C 344.000 156.723,344.356 156.674,344.791 156.406 C 345.244 156.125,345.378 156.447,345.105 157.158 C 344.660 158.318,344.938 158.513,347.324 158.720 C 347.832 158.764,348.340 158.168,348.454 157.396 C 348.567 156.624,348.356 156.180,347.985 156.409 C 347.614 156.639,347.101 156.487,346.845 156.074 C 346.590 155.660,346.835 155.166,347.390 154.975 C 347.946 154.785,347.821 154.711,347.114 154.810 C 346.406 154.910,345.178 154.628,344.385 154.184 C 343.194 153.517,343.035 153.617,343.472 154.754 M302.800 159.200 C 301.257 159.863,301.263 159.890,302.953 159.944 C 303.917 159.975,304.928 159.640,305.200 159.200 C 305.785 158.254,305.002 158.254,302.800 159.200 M89.180 163.232 C 88.919 163.654,89.108 164.000,89.600 164.000 C 90.092 164.000,90.235 164.450,89.919 165.000 C 89.602 165.550,89.638 165.733,89.998 165.407 C 90.358 165.081,91.136 165.215,91.726 165.705 C 92.317 166.195,92.800 166.272,92.800 165.876 C 92.800 164.668,89.695 162.400,89.180 163.232 M348.983 169.600 C 348.969 175.209,349.134 176.475,349.615 174.433 C 349.973 172.911,349.982 169.491,349.635 166.833 C 349.028 162.189,349.002 162.297,348.983 169.600 M94.797 175.996 C 95.068 176.433,96.079 177.206,97.045 177.712 C 98.788 178.626,98.789 178.621,97.276 176.916 C 95.749 175.197,93.873 174.500,94.797 175.996 M299.200 178.864 C 299.200 179.206,304.692 181.600,305.476 181.600 C 305.740 181.600,305.246 181.116,304.378 180.524 C 302.779 179.435,299.200 178.287,299.200 178.864 M100.107 183.647 C 100.044 185.554,100.520 187.535,101.259 188.447 C 101.952 189.301,102.231 189.460,101.880 188.800 C 101.529 188.140,101.010 185.980,100.728 184.000 L 100.214 180.400 100.107 183.647 M312.378 191.965 C 312.638 192.386,313.345 192.541,313.948 192.309 C 314.552 192.078,316.520 192.601,318.323 193.471 C 320.125 194.342,321.600 194.797,321.600 194.481 C 321.600 193.630,315.737 191.200,313.684 191.200 C 312.706 191.200,312.118 191.544,312.378 191.965 M145.005 192.599 C 145.338 192.785,145.485 193.176,145.332 193.468 C 145.179 193.761,145.712 194.626,146.517 195.390 C 147.916 196.719,147.973 196.693,147.816 194.790 C 147.725 193.696,147.399 192.800,147.091 192.800 C 146.783 192.800,146.051 192.679,145.465 192.531 C 144.879 192.383,144.672 192.414,145.005 192.599 M328.695 193.874 C 329.185 194.464,329.412 195.187,329.200 195.480 C 328.987 195.773,329.211 195.682,329.697 195.276 C 330.679 194.458,329.981 192.800,328.655 192.800 C 328.074 192.800,328.087 193.140,328.695 193.874 M106.520 198.102 C 106.446 199.646,106.936 201.024,107.800 201.702 C 109.018 202.658,109.079 202.644,108.271 201.600 C 107.760 200.940,107.184 199.320,106.991 198.000 L 106.640 195.600 106.520 198.102 M150.130 204.799 C 151.081 205.183,152.097 206.245,152.387 207.160 C 153.053 209.257,154.396 208.559,153.834 206.408 C 153.605 205.534,153.099 205.015,152.709 205.256 C 152.319 205.497,152.000 205.313,152.000 204.847 C 152.000 204.381,151.190 204.023,150.200 204.051 L 148.400 204.101 150.130 204.799 M375.200 207.214 C 374.248 207.841,374.367 207.953,375.779 207.756 C 376.758 207.620,377.808 207.259,378.113 206.954 C 378.962 206.105,376.559 206.320,375.200 207.214 M256.192 211.673 C 254.758 212.803,253.786 214.054,254.033 214.453 C 254.597 215.366,257.101 215.025,257.496 213.981 C 257.659 213.552,258.100 212.390,258.476 211.400 C 259.321 209.178,259.365 209.173,256.192 211.673 M371.200 211.600 C 370.652 212.260,370.518 212.806,370.902 212.812 C 371.286 212.819,371.060 213.173,370.400 213.600 C 369.357 214.274,369.371 214.377,370.507 214.388 C 371.270 214.395,371.972 213.569,372.196 212.400 C 372.641 210.069,372.539 209.987,371.200 211.600 M114.545 215.834 C 114.730 218.270,117.061 219.920,118.051 218.318 C 118.606 217.420,117.633 214.100,117.001 214.733 C 116.751 214.982,116.054 214.777,115.452 214.277 C 114.561 213.538,114.392 213.828,114.545 215.834 M365.600 216.655 C 365.600 217.491,364.494 218.675,363.000 219.437 L 360.400 220.764 362.800 220.259 C 364.120 219.981,365.464 219.359,365.788 218.877 C 366.454 217.883,366.609 215.200,366.000 215.200 C 365.780 215.200,365.600 215.855,365.600 216.655 M155.398 216.993 C 155.531 217.393,155.982 217.720,156.400 217.720 C 156.818 217.720,157.269 217.393,157.402 216.993 C 157.535 216.594,157.084 216.267,156.400 216.267 C 155.716 216.267,155.265 216.594,155.398 216.993 M248.172 216.677 C 247.606 217.036,246.978 218.380,246.775 219.665 L 246.408 222.000 247.629 219.800 C 248.301 218.590,249.200 217.600,249.626 217.600 C 250.051 217.600,250.400 217.240,250.400 216.800 C 250.400 215.838,249.567 215.792,248.172 216.677 M158.020 218.368 C 157.341 219.466,157.942 220.290,159.124 219.883 C 159.609 219.717,159.670 219.152,159.274 218.515 C 158.774 217.710,158.450 217.672,158.020 218.368 M192.461 222.930 C 192.217 223.564,192.367 223.868,192.793 223.605 C 193.218 223.341,194.286 223.511,195.165 223.982 C 196.446 224.667,196.677 224.610,196.327 223.697 C 195.705 222.078,192.994 221.540,192.461 222.930 M241.400 222.464 C 239.969 223.298,239.426 226.400,240.711 226.400 C 241.102 226.400,241.372 225.770,241.311 225.000 C 241.250 224.230,241.616 223.679,242.124 223.775 C 242.632 223.871,243.251 223.421,243.499 222.775 C 244.022 221.412,243.372 221.316,241.400 222.464 M119.200 227.455 C 119.200 228.835,121.426 230.840,122.153 230.114 C 122.435 229.831,122.247 229.600,121.733 229.600 C 121.220 229.600,120.800 229.081,120.800 228.447 C 120.800 227.813,120.440 227.072,120.000 226.800 C 119.560 226.528,119.200 226.823,119.200 227.455 M308.012 227.453 C 307.975 229.441,309.799 231.245,311.349 230.753 C 312.365 230.430,312.810 230.537,312.505 231.030 C 311.888 232.029,313.848 232.826,316.665 232.720 C 318.504 232.652,318.578 232.562,317.200 232.077 C 313.542 230.787,309.161 228.560,308.612 227.710 C 308.289 227.210,308.019 227.094,308.012 227.453 M337.232 230.451 C 337.470 230.837,336.841 231.330,335.833 231.545 C 334.825 231.761,333.280 232.090,332.400 232.276 C 331.520 232.462,332.510 232.656,334.600 232.707 C 336.800 232.761,338.400 232.443,338.400 231.953 C 338.400 231.487,338.760 231.328,339.200 231.600 C 339.640 231.872,340.000 231.755,340.000 231.341 C 340.000 230.926,339.280 230.398,338.399 230.168 C 337.518 229.938,336.993 230.065,337.232 230.451 M279.667 241.315 C 278.905 243.301,279.745 243.572,280.763 241.669 C 281.255 240.750,281.322 240.000,280.914 240.000 C 280.505 240.000,279.944 240.592,279.667 241.315 M114.000 244.000 C 113.317 245.320,112.291 246.400,111.719 246.400 C 110.114 246.400,107.378 249.731,106.790 252.400 L 106.261 254.800 107.581 252.400 C 108.307 251.080,110.102 248.920,111.570 247.600 C 114.028 245.389,116.604 241.600,115.649 241.600 C 115.425 241.600,114.683 242.680,114.000 244.000 M250.463 264.102 C 250.428 264.818,249.860 265.852,249.200 266.400 C 247.819 267.546,247.621 268.800,248.820 268.800 C 249.818 268.800,251.394 264.900,250.889 263.679 C 250.690 263.195,250.498 263.386,250.463 264.102 M146.400 266.000 C 145.982 267.100,145.211 268.000,144.686 268.000 C 144.162 268.000,143.943 268.209,144.198 268.465 C 145.119 269.385,147.898 267.162,147.780 265.599 C 147.621 263.494,147.319 263.582,146.400 266.000 M197.875 266.534 C 198.023 267.506,198.988 268.561,200.070 268.934 C 201.794 269.530,201.852 269.486,200.612 268.521 C 199.849 267.928,199.459 267.207,199.746 266.921 C 200.032 266.634,199.825 266.400,199.286 266.400 C 198.747 266.400,198.528 266.040,198.800 265.600 C 199.072 265.160,198.915 264.800,198.452 264.800 C 197.989 264.800,197.729 265.580,197.875 266.534 M203.733 270.158 C 204.017 270.951,204.549 271.993,204.917 272.474 C 205.285 272.954,205.409 273.524,205.193 273.740 C 204.977 273.956,205.341 274.133,206.003 274.133 C 207.074 274.133,207.074 273.987,206.003 272.804 C 205.341 272.072,204.800 271.074,204.800 270.584 C 204.800 270.095,204.444 269.474,204.009 269.206 C 203.538 268.915,203.427 269.300,203.733 270.158 M245.600 271.148 C 245.600 271.589,246.199 271.720,246.931 271.439 C 247.923 271.058,248.094 271.218,247.603 272.064 C 247.240 272.689,247.242 272.929,247.607 272.598 C 247.972 272.267,248.929 272.593,249.735 273.322 C 251.278 274.719,251.681 273.998,250.447 272.048 C 249.598 270.707,245.600 269.964,245.600 271.148 M136.000 272.719 C 136.000 273.824,138.022 274.330,139.273 273.538 C 139.893 273.146,140.220 272.792,140.000 272.753 C 139.780 272.713,138.790 272.530,137.800 272.346 C 136.810 272.161,136.000 272.329,136.000 272.719 M134.868 277.214 C 134.528 278.567,133.508 279.594,131.972 280.130 C 130.277 280.720,129.626 281.448,129.693 282.678 C 129.761 283.949,129.879 284.047,130.141 283.053 C 130.337 282.312,131.514 281.482,132.757 281.209 C 134.482 280.830,135.135 280.125,135.514 278.229 C 136.126 275.171,135.591 274.332,134.868 277.214 M209.600 278.800 C 209.600 279.900,209.910 280.800,210.289 280.800 C 210.668 280.800,210.806 279.900,210.596 278.800 C 210.386 277.700,210.075 276.800,209.907 276.800 C 209.738 276.800,209.600 277.700,209.600 278.800 M89.333 286.133 C 89.040 286.427,88.806 287.597,88.812 288.733 C 88.822 290.301,89.002 290.520,89.559 289.638 C 89.964 288.999,90.092 288.149,89.845 287.749 C 89.597 287.349,89.891 286.707,90.498 286.323 C 91.104 285.939,91.210 285.619,90.733 285.612 C 90.257 285.606,89.627 285.840,89.333 286.133 M215.200 288.800 C 215.200 290.120,215.498 291.200,215.861 291.200 C 216.225 291.200,216.364 290.120,216.171 288.800 C 215.977 287.480,215.679 286.400,215.509 286.400 C 215.339 286.400,215.200 287.480,215.200 288.800 M216.012 296.867 C 216.019 297.930,216.378 299.340,216.811 300.000 C 217.365 300.844,217.445 300.370,217.084 298.400 C 216.451 294.950,215.996 294.299,216.012 296.867 M88.000 304.267 C 88.000 308.520,88.270 312.000,88.600 312.000 C 89.327 312.001,89.248 297.781,88.517 297.050 C 88.233 296.766,88.000 300.013,88.000 304.267 M255.200 298.706 C 255.200 299.366,255.560 300.128,256.000 300.400 C 256.440 300.672,256.800 300.354,256.800 299.694 C 256.800 299.034,256.440 298.272,256.000 298.000 C 255.560 297.728,255.200 298.046,255.200 298.706 M216.838 302.000 C 216.921 302.440,216.934 302.980,216.865 303.200 C 216.797 303.420,216.619 305.940,216.469 308.800 C 216.202 313.909,216.213 313.942,217.098 310.656 C 217.594 308.816,218.270 307.046,218.600 306.722 C 218.930 306.398,219.200 305.833,219.200 305.467 C 219.200 305.100,218.930 304.843,218.600 304.895 C 217.029 305.143,216.519 304.700,217.593 304.021 C 218.578 303.399,218.603 303.086,217.736 302.233 C 217.158 301.665,216.754 301.560,216.838 302.000 M124.432 313.548 C 124.143 314.017,124.313 314.400,124.810 314.400 C 125.956 314.400,128.000 316.414,128.000 317.543 C 128.000 318.014,128.360 318.400,128.800 318.400 C 130.461 318.400,129.547 316.568,126.679 314.148 C 125.556 313.200,124.776 312.992,124.432 313.548 M215.212 319.000 C 215.206 320.870,215.339 322.400,215.509 322.400 C 216.178 322.400,216.479 317.577,215.871 316.619 C 215.483 316.008,215.220 316.961,215.212 319.000 M212.838 325.559 C 212.199 325.964,211.334 326.083,210.915 325.824 C 210.496 325.565,210.410 325.768,210.724 326.276 C 211.038 326.784,210.913 327.200,210.447 327.200 C 209.981 327.200,209.614 328.010,209.632 329.000 C 209.662 330.675,209.749 330.643,210.891 328.537 C 211.673 327.094,212.546 326.438,213.300 326.728 C 213.951 326.977,214.282 326.857,214.037 326.459 C 213.791 326.062,214.042 325.554,214.595 325.331 C 215.148 325.109,215.240 324.903,214.800 324.875 C 214.360 324.847,213.477 325.155,212.838 325.559 M132.175 328.298 C 132.265 329.391,132.623 330.109,132.970 329.895 C 133.858 329.346,133.754 327.390,132.805 326.803 C 132.347 326.520,132.080 327.153,132.175 328.298 M250.191 332.711 C 249.974 333.543,250.106 334.713,250.486 335.311 C 250.955 336.052,251.179 335.568,251.188 333.800 C 251.201 330.889,250.786 330.436,250.191 332.711 M201.570 339.144 C 201.996 339.939,202.092 340.907,201.785 341.295 C 201.478 341.683,201.739 341.554,202.365 341.008 C 204.051 339.540,204.020 337.942,202.304 337.813 C 201.089 337.721,200.947 337.979,201.570 339.144 M245.904 339.637 C 246.140 340.253,245.718 341.116,244.967 341.555 C 244.215 341.993,243.903 342.362,244.274 342.376 C 246.264 342.448,248.812 339.390,247.129 338.950 C 245.934 338.637,245.593 338.828,245.904 339.637 M198.826 339.958 C 198.540 340.421,198.509 341.129,198.758 341.532 C 199.006 341.934,198.758 342.428,198.205 342.630 C 197.652 342.831,198.546 342.971,200.191 342.940 C 201.924 342.907,202.765 342.626,202.191 342.271 C 201.646 341.934,201.200 341.225,201.200 340.696 C 201.200 339.421,199.487 338.889,198.826 339.958 M151.225 344.153 C 151.211 344.897,151.584 345.743,152.053 346.033 C 153.463 346.904,153.661 345.986,152.417 344.342 C 151.393 342.988,151.248 342.965,151.225 344.153 M192.148 345.195 C 191.305 347.044,191.350 347.120,192.768 346.234 C 193.609 345.709,194.138 345.023,193.943 344.708 C 193.749 344.394,194.042 343.954,194.595 343.731 C 195.254 343.466,195.163 343.305,194.328 343.263 C 193.629 343.228,192.648 344.098,192.148 345.195 M100.923 350.313 C 101.091 351.469,101.982 352.513,103.177 352.952 L 105.153 353.679 103.177 351.440 C 102.089 350.208,101.075 349.020,100.923 348.800 C 100.771 348.580,100.771 349.261,100.923 350.313 M161.800 349.373 C 163.010 349.556,164.990 349.556,166.200 349.373 C 167.410 349.190,166.420 349.040,164.000 349.040 C 161.580 349.040,160.590 349.190,161.800 349.373 M237.808 354.968 C 237.263 356.131,236.964 357.230,237.144 357.410 C 237.625 357.891,239.347 354.436,239.052 353.582 C 238.913 353.181,238.354 353.804,237.808 354.968 M234.875 358.094 C 234.205 359.839,234.763 360.324,236.391 359.413 C 237.525 358.778,237.546 358.551,236.544 357.719 C 235.621 356.953,235.283 357.029,234.875 358.094 M112.851 363.746 C 112.802 365.436,115.533 367.134,116.594 366.073 C 116.854 365.813,116.455 365.600,115.708 365.600 C 114.960 365.600,114.023 364.790,113.625 363.800 L 112.901 362.000 112.851 363.746 M118.882 368.540 C 119.534 371.255,119.214 370.882,121.500 371.586 C 122.804 371.988,123.229 371.894,122.853 371.286 C 122.552 370.799,121.748 370.400,121.067 370.400 C 120.386 370.400,120.002 369.948,120.214 369.396 C 120.426 368.843,120.091 367.917,119.470 367.336 C 118.508 366.438,118.420 366.617,118.882 368.540 M223.357 369.276 C 221.903 370.797,220.373 371.831,219.957 371.573 C 219.541 371.316,219.200 371.487,219.200 371.953 C 219.200 373.015,219.387 373.010,222.148 371.871 C 223.387 371.360,224.697 371.009,225.059 371.091 C 225.422 371.173,225.491 370.871,225.212 370.420 C 224.934 369.969,225.010 369.600,225.383 369.600 C 225.755 369.600,226.114 368.880,226.180 368.000 C 226.246 367.120,226.233 366.425,226.150 366.455 C 226.068 366.485,224.811 367.754,223.357 369.276 M128.000 373.813 C 128.000 374.479,128.630 375.710,129.400 376.549 C 130.170 377.389,130.499 377.624,130.131 377.073 C 129.763 376.521,129.669 375.735,129.922 375.326 C 130.175 374.916,129.846 374.136,129.191 373.593 C 128.226 372.791,128.000 372.833,128.000 373.813 M139.406 380.985 C 139.340 381.863,139.502 382.365,139.766 382.101 C 140.030 381.837,141.540 382.370,143.123 383.285 L 146.000 384.949 143.988 383.075 C 142.881 382.044,141.981 380.874,141.988 380.476 C 142.013 378.947,139.523 379.438,139.406 380.985 " stroke="none" fill="#e30000" fill-rule="evenodd"></path><path id="path3" d="M66.961 15.706 C 66.749 15.917,64.776 16.104,62.575 16.121 C 57.919 16.157,53.361 18.447,54.102 20.378 C 54.569 21.593,53.410 21.968,50.200 21.642 C 49.430 21.564,48.800 21.871,48.800 22.325 C 48.800 22.778,48.268 22.946,47.619 22.696 C 46.859 22.405,46.090 23.005,45.466 24.375 C 44.656 26.152,40.681 28.746,39.181 28.476 C 38.455 28.345,35.479 31.538,34.946 33.018 C 34.666 33.798,33.798 34.666,33.018 34.946 C 31.579 35.464,29.267 37.517,28.920 38.585 C 27.736 42.238,26.132 44.665,24.375 45.466 C 23.005 46.090,22.405 46.859,22.696 47.619 C 22.946 48.268,22.848 48.800,22.479 48.800 C 22.110 48.800,21.811 49.430,21.814 50.200 C 21.828 53.706,21.542 54.460,20.288 54.235 C 16.386 53.536,15.695 58.439,15.693 86.800 C 15.692 108.165,16.320 111.994,19.777 111.715 C 20.810 111.632,21.258 112.258,21.411 114.000 C 21.963 120.273,22.479 121.600,24.836 122.819 C 26.136 123.491,27.200 124.523,27.200 125.113 C 27.200 126.856,30.441 130.455,31.799 130.218 C 32.596 130.080,33.286 130.850,33.692 132.332 C 34.410 134.947,35.625 135.970,38.035 135.988 C 39.182 135.996,39.900 136.775,40.443 138.600 C 40.869 140.030,41.663 141.110,42.208 141.000 C 42.754 140.890,43.200 141.181,43.200 141.647 C 43.200 142.113,43.553 142.277,43.983 142.010 C 45.147 141.291,48.134 143.135,47.491 144.176 C 47.123 144.771,47.414 144.889,48.358 144.527 C 49.404 144.126,49.658 144.294,49.324 145.165 C 48.623 146.992,51.546 147.889,59.643 148.334 C 63.080 148.523,65.062 149.328,64.466 150.293 C 62.922 152.791,69.497 154.116,84.585 154.348 C 87.608 154.394,88.022 154.635,88.457 156.600 C 89.622 161.864,90.566 163.818,92.421 164.811 C 93.998 165.655,94.400 166.494,94.400 168.935 C 94.400 170.621,94.726 172.000,95.125 172.000 C 95.524 172.000,95.675 172.671,95.460 173.491 C 95.197 174.497,95.891 175.625,97.593 176.957 C 99.558 178.495,100.206 179.713,100.522 182.466 C 101.033 186.911,102.368 190.514,103.293 189.943 C 103.682 189.702,104.000 189.887,104.000 190.353 C 104.000 190.819,104.432 191.110,104.961 191.000 C 105.556 190.876,106.242 192.628,106.762 195.600 C 107.623 200.522,109.697 205.232,111.227 205.742 C 111.700 205.900,112.190 206.563,112.315 207.215 C 113.339 212.541,113.839 214.335,114.284 214.277 C 114.568 214.241,115.070 214.298,115.400 214.405 C 115.730 214.512,116.450 214.645,117.000 214.700 C 117.623 214.762,118.252 216.910,118.668 220.400 C 119.035 223.480,119.846 226.569,120.470 227.265 C 121.093 227.961,121.363 228.771,121.068 229.065 C 120.774 229.359,120.975 229.600,121.514 229.600 C 122.053 229.600,122.288 229.934,122.036 230.342 C 121.783 230.751,122.320 231.321,123.229 231.609 C 126.303 232.585,125.148 239.527,121.860 239.846 C 120.462 239.982,118.888 240.612,118.362 241.246 C 117.835 241.881,116.887 242.400,116.255 242.400 C 115.623 242.400,115.297 242.710,115.532 243.090 C 115.766 243.469,114.437 245.255,112.579 247.058 C 107.773 251.721,107.225 252.477,106.683 255.184 C 106.258 257.308,105.518 258.054,104.484 257.400 C 103.638 256.864,100.800 260.472,100.800 262.083 C 100.800 263.099,99.706 264.941,98.350 266.209 C 95.723 268.663,94.450 272.575,94.419 278.285 C 94.404 281.040,93.979 282.101,92.392 283.349 C 91.288 284.217,90.589 285.259,90.840 285.664 C 91.090 286.069,90.936 286.400,90.497 286.400 C 89.530 286.400,89.586 285.574,89.236 305.076 C 88.930 322.210,88.682 320.972,93.143 324.632 C 94.297 325.578,94.815 329.365,94.442 334.115 C 94.213 337.037,96.548 341.600,98.274 341.600 C 100.037 341.600,100.800 343.070,100.800 346.465 C 100.800 347.749,101.181 348.800,101.647 348.800 C 102.113 348.800,102.306 349.105,102.075 349.478 C 101.845 349.852,102.882 351.134,104.380 352.328 C 106.018 353.635,107.202 355.356,107.352 356.650 C 107.522 358.125,108.040 358.765,109.000 358.689 C 109.770 358.628,110.400 358.898,110.400 359.289 C 110.400 359.680,110.888 360.000,111.484 360.000 C 112.081 360.000,112.896 361.142,113.296 362.537 C 113.808 364.323,114.727 365.309,116.398 365.866 C 119.142 366.781,120.640 368.073,120.271 369.207 C 119.963 370.154,123.928 372.139,124.912 371.531 C 125.291 371.297,125.600 371.487,125.600 371.953 C 125.600 372.419,126.276 372.800,127.102 372.800 C 128.652 372.800,130.704 374.629,129.974 375.360 C 129.102 376.231,132.169 377.829,135.410 378.193 C 137.274 378.402,139.319 378.984,139.954 379.487 C 140.881 380.221,140.968 380.165,140.400 379.200 C 139.787 378.160,139.875 378.148,141.066 379.114 C 141.821 379.727,142.262 380.404,142.046 380.620 C 141.831 380.836,142.623 381.775,143.807 382.706 C 146.529 384.848,194.389 385.952,194.412 383.874 C 194.422 382.986,194.544 382.988,195.114 383.887 C 196.675 386.352,204.141 381.516,202.659 379.000 C 202.465 378.670,204.487 378.400,207.153 378.400 C 210.031 378.400,212.000 378.056,212.000 377.553 C 212.000 377.087,212.318 376.902,212.707 377.143 C 213.096 377.383,213.860 376.504,214.404 375.190 C 215.356 372.892,216.029 372.458,218.200 372.740 C 218.750 372.812,219.200 372.494,219.200 372.035 C 219.200 371.576,219.535 371.290,219.944 371.400 C 220.352 371.510,221.279 370.880,222.003 370.000 C 222.727 369.120,223.064 368.940,222.753 369.600 C 222.442 370.260,223.295 369.630,224.649 368.200 C 226.002 366.770,227.511 365.600,228.002 365.600 C 228.493 365.600,228.674 365.244,228.406 364.809 C 228.137 364.374,228.392 364.200,228.972 364.423 C 229.552 364.646,230.561 364.068,231.213 363.139 C 234.744 358.115,236.000 356.563,236.000 357.223 C 236.000 359.181,238.416 354.184,238.884 351.258 C 239.261 348.895,239.739 348.036,240.509 348.331 C 241.109 348.561,241.600 348.380,241.600 347.928 C 241.600 347.476,241.942 347.317,242.360 347.575 C 243.367 348.198,244.621 345.662,244.424 343.400 C 244.338 342.410,244.567 341.600,244.934 341.600 C 245.300 341.600,245.606 340.970,245.612 340.200 C 245.619 339.430,246.013 338.260,246.488 337.600 C 247.192 336.620,247.257 336.685,246.842 337.953 C 246.432 339.204,246.703 339.107,248.233 337.456 C 250.504 335.005,250.401 335.529,250.919 323.892 C 251.321 314.858,251.384 314.596,253.067 314.962 C 254.471 315.267,254.572 315.176,253.600 314.482 C 252.785 313.900,252.721 313.621,253.400 313.612 C 253.950 313.606,254.400 313.086,254.400 312.457 C 254.400 311.829,254.895 310.819,255.500 310.214 C 256.821 308.893,256.972 304.805,255.700 304.788 C 255.205 304.781,255.340 304.427,256.000 304.000 C 256.999 303.355,256.932 303.212,255.600 303.149 C 254.720 303.108,254.450 302.892,255.000 302.670 C 256.173 302.197,256.358 300.000,255.225 300.000 C 254.799 300.000,254.659 299.455,254.915 298.790 C 255.501 297.262,253.824 295.164,252.441 295.695 C 251.633 296.005,251.368 294.296,251.261 288.086 C 251.185 283.681,250.931 279.249,250.697 278.238 C 250.463 277.227,250.253 275.860,250.230 275.200 C 250.168 273.433,247.863 271.081,246.650 271.547 C 245.958 271.812,245.600 271.277,245.600 269.975 C 245.600 268.889,246.060 268.000,246.622 268.000 C 247.769 268.000,250.400 265.208,250.400 263.991 C 250.400 263.556,251.256 263.200,252.302 263.200 C 254.279 263.200,255.678 262.038,256.134 260.016 C 256.578 258.049,258.179 256.800,260.257 256.800 C 262.227 256.800,263.462 255.203,263.900 252.089 C 263.955 251.698,265.260 251.142,266.800 250.853 C 269.339 250.376,270.007 249.653,269.675 247.741 C 269.612 247.378,269.929 247.309,270.380 247.588 C 270.831 247.866,271.200 247.512,271.200 246.800 C 271.200 246.088,271.547 245.720,271.971 245.982 C 272.395 246.244,273.385 245.815,274.171 245.029 C 274.957 244.243,276.133 243.600,276.783 243.600 C 277.434 243.600,278.694 242.444,279.583 241.031 C 280.545 239.502,281.879 238.449,282.876 238.431 C 284.797 238.395,287.591 235.679,286.883 234.534 C 286.356 233.681,288.144 232.800,290.403 232.800 C 291.370 232.800,292.186 231.862,292.777 230.071 C 293.860 226.787,294.273 226.613,300.400 226.844 C 303.040 226.943,306.391 227.064,307.847 227.112 C 309.303 227.161,310.292 227.527,310.045 227.927 C 309.798 228.328,311.300 229.480,313.383 230.489 C 318.861 233.141,338.874 233.109,337.232 230.451 C 336.993 230.065,337.518 229.938,338.399 230.168 C 339.628 230.489,340.000 230.193,340.000 228.893 C 340.000 227.962,340.270 227.243,340.600 227.295 C 340.930 227.347,341.380 227.312,341.600 227.218 C 341.820 227.124,343.980 226.977,346.400 226.892 C 352.363 226.681,354.368 225.909,353.993 223.966 C 353.669 222.279,355.374 221.114,358.000 221.229 C 358.880 221.268,360.034 220.976,360.565 220.581 C 361.096 220.186,361.961 220.129,362.489 220.455 C 363.072 220.815,363.238 220.709,362.912 220.181 C 362.618 219.705,363.079 219.092,363.938 218.820 C 364.796 218.547,365.611 217.553,365.749 216.609 C 365.921 215.434,366.828 214.681,368.629 214.217 C 370.074 213.844,371.058 213.218,370.815 212.825 C 370.573 212.432,370.740 211.884,371.187 211.608 C 371.634 211.332,372.000 210.479,372.000 209.713 C 372.000 208.850,373.058 207.939,374.785 207.314 C 376.316 206.761,377.533 206.058,377.490 205.754 C 377.446 205.449,377.495 204.840,377.598 204.400 C 377.700 203.960,377.868 203.240,377.970 202.800 C 378.073 202.360,378.211 200.872,378.278 199.493 C 378.393 197.139,379.513 196.185,382.724 195.708 C 384.026 195.514,384.225 192.669,384.471 170.800 C 384.719 148.608,384.110 143.297,381.416 144.195 C 379.820 144.727,378.426 142.760,378.204 139.663 C 378.092 138.090,377.709 136.802,377.353 136.802 C 376.997 136.801,376.938 136.424,377.222 135.965 C 377.884 134.894,376.169 132.825,373.907 131.965 C 372.849 131.562,371.934 130.321,371.611 128.848 C 371.315 127.502,370.741 126.355,370.336 126.300 C 368.800 126.091,368.366 125.936,367.199 125.179 C 366.538 124.751,365.512 123.456,364.918 122.303 C 363.857 120.239,359.742 118.400,356.185 118.400 C 355.086 118.400,354.278 117.600,353.699 115.940 C 353.227 114.587,352.497 113.693,352.076 113.953 C 351.655 114.213,351.069 114.036,350.774 113.559 C 350.479 113.081,349.735 112.884,349.119 113.120 C 348.504 113.357,348.000 113.255,348.000 112.895 C 348.000 112.535,346.470 112.243,344.600 112.245 C 338.885 112.253,334.400 110.435,334.400 108.110 C 334.400 107.172,334.195 107.171,333.046 108.102 C 331.990 108.959,331.832 108.968,332.329 108.143 C 333.944 105.459,316.604 107.446,313.899 110.256 C 312.481 111.729,311.203 112.129,307.695 112.194 C 305.265 112.240,303.440 112.541,303.640 112.864 C 303.839 113.187,303.335 113.276,302.520 113.063 C 301.705 112.850,300.532 113.183,299.912 113.802 C 299.293 114.422,298.372 114.791,297.866 114.622 C 297.015 114.338,295.776 115.590,295.512 117.000 C 295.451 117.330,295.354 117.870,295.298 118.200 C 295.243 118.530,294.055 118.880,292.660 118.979 C 289.703 119.187,288.895 119.831,288.406 122.367 C 287.960 124.685,288.106 124.571,284.955 125.062 C 279.877 125.854,276.000 130.232,276.000 135.174 C 276.000 137.545,270.233 137.480,267.767 135.082 C 266.795 134.138,266.506 133.653,267.124 134.006 C 267.883 134.439,268.059 134.343,267.668 133.711 C 267.350 133.195,266.795 132.956,266.435 133.178 C 266.076 133.400,265.336 133.046,264.793 132.391 C 264.164 131.633,262.312 131.183,259.702 131.154 C 253.831 131.088,249.200 130.132,249.200 128.986 C 249.200 128.444,248.994 128.090,248.743 128.200 C 248.491 128.310,247.656 127.770,246.886 127.000 C 246.116 126.230,244.701 125.546,243.743 125.479 C 242.784 125.413,240.290 125.272,238.201 125.166 C 232.660 124.886,230.383 124.174,230.881 122.878 C 231.479 121.318,225.841 119.473,218.000 118.662 C 212.547 118.098,211.635 117.793,211.835 116.600 C 211.995 115.647,211.548 115.200,210.435 115.200 C 209.536 115.200,208.800 114.886,208.800 114.502 C 208.800 113.678,203.542 112.639,198.234 112.413 C 196.163 112.325,193.844 111.746,193.081 111.126 C 191.893 110.162,191.791 110.162,192.370 111.124 C 192.830 111.886,192.751 112.064,192.124 111.676 C 191.616 111.362,191.200 110.599,191.200 109.981 C 191.200 107.772,185.770 106.529,175.714 106.436 C 172.878 106.410,171.936 106.121,172.225 105.366 C 172.821 103.813,170.571 101.209,168.566 101.131 C 167.595 101.093,164.010 100.781,160.600 100.437 L 154.400 99.812 154.257 97.306 C 154.179 95.928,154.131 94.080,154.151 93.200 C 154.171 92.320,153.785 91.336,153.293 91.012 C 152.689 90.615,152.678 90.421,153.258 90.412 C 154.120 90.400,154.172 71.829,153.320 68.400 C 153.101 67.520,152.895 66.357,152.861 65.815 C 152.828 65.274,151.900 64.605,150.800 64.329 C 149.700 64.052,148.759 63.596,148.709 63.313 C 148.659 63.031,148.518 61.360,148.396 59.600 C 147.822 51.316,146.977 48.629,145.165 49.324 C 144.294 49.658,144.126 49.404,144.527 48.358 C 144.889 47.414,144.771 47.123,144.176 47.491 C 143.135 48.134,141.291 45.147,142.010 43.983 C 142.277 43.553,142.113 43.200,141.647 43.200 C 141.181 43.200,140.890 42.754,141.000 42.208 C 141.110 41.663,140.030 40.869,138.600 40.443 C 136.775 39.900,135.996 39.182,135.988 38.035 C 135.970 35.625,134.947 34.410,132.332 33.692 C 130.850 33.286,130.080 32.596,130.218 31.799 C 130.455 30.441,126.856 27.200,125.113 27.200 C 124.523 27.200,123.506 26.166,122.853 24.902 C 121.568 22.417,119.685 21.628,115.000 21.611 C 113.350 21.605,111.955 21.240,111.900 20.800 C 111.845 20.360,111.710 19.640,111.600 19.200 C 111.490 18.760,111.355 18.100,111.300 17.733 C 111.245 17.367,110.750 17.017,110.200 16.957 C 109.650 16.896,108.120 16.619,106.800 16.342 C 103.925 15.737,67.511 15.156,66.961 15.706 M95.400 51.165 C 99.389 51.195,100.000 51.404,100.000 52.735 C 100.000 55.785,100.913 56.800,103.657 56.800 C 106.231 56.800,108.025 58.390,107.721 60.400 C 107.654 60.840,108.860 61.829,110.400 62.597 C 111.940 63.366,113.071 64.183,112.914 64.413 C 112.363 65.220,113.680 70.400,114.436 70.400 C 114.856 70.400,115.110 70.837,115.000 71.371 C 114.890 71.905,115.610 72.710,116.600 73.160 C 118.533 74.040,118.449 73.377,118.509 88.263 C 118.534 94.290,117.587 96.649,115.094 96.775 C 114.816 96.789,113.916 98.957,113.094 101.593 C 112.272 104.229,111.291 106.389,110.914 106.393 C 110.537 106.397,110.470 105.770,110.764 105.000 C 111.212 103.828,111.050 103.861,109.774 105.200 C 108.935 106.080,107.202 107.852,105.924 109.138 C 104.646 110.424,104.050 111.213,104.600 110.891 C 105.150 110.569,105.600 110.597,105.599 110.953 C 105.598 111.309,103.470 112.225,100.869 112.990 C 97.031 114.117,96.005 114.785,95.422 116.534 L 94.704 118.689 84.765 118.489 C 78.198 118.356,74.622 117.968,74.225 117.344 C 73.895 116.825,73.606 116.760,73.584 117.200 C 73.562 117.640,73.029 117.100,72.400 116.000 C 71.771 114.900,71.238 114.360,71.216 114.800 C 71.194 115.240,70.873 115.123,70.503 114.539 C 70.133 113.956,68.429 113.288,66.715 113.055 C 64.206 112.714,63.367 112.143,62.400 110.116 C 61.740 108.732,60.750 107.555,60.200 107.500 C 59.650 107.445,58.886 107.355,58.502 107.300 C 58.118 107.245,57.581 105.799,57.307 104.087 C 56.811 100.988,55.706 100.000,52.735 100.000 C 51.166 100.000,50.663 97.516,51.064 91.746 C 51.157 90.413,50.893 89.695,50.419 89.988 C 49.979 90.260,49.768 90.014,49.951 89.442 C 50.134 88.869,50.516 84.118,50.801 78.883 C 51.160 72.285,51.669 69.017,52.459 68.226 C 53.312 67.374,53.600 67.341,53.600 68.098 C 53.600 68.655,54.514 67.872,55.631 66.358 C 56.749 64.843,57.609 62.883,57.543 62.002 C 57.274 58.410,57.615 57.600,59.400 57.589 C 62.384 57.571,64.814 56.670,64.267 55.785 C 63.984 55.327,64.136 55.189,64.604 55.479 C 66.092 56.399,68.157 55.088,67.739 53.489 C 67.525 52.669,67.676 52.200,68.075 52.446 C 68.474 52.693,68.800 52.567,68.800 52.167 C 68.800 51.150,83.714 49.879,87.600 50.565 C 89.360 50.876,92.870 51.146,95.400 51.165 M336.383 109.581 C 337.170 110.451,338.180 110.936,338.628 110.659 C 339.113 110.359,338.846 109.720,337.968 109.078 C 335.758 107.462,334.753 107.780,336.383 109.581 M143.909 130.744 C 144.413 131.055,144.604 131.670,144.333 132.109 C 144.061 132.548,144.591 133.104,145.511 133.345 C 146.430 133.585,146.987 134.097,146.749 134.482 C 146.512 134.867,146.876 134.967,147.558 134.705 C 148.241 134.443,148.800 134.559,148.800 134.964 C 148.800 135.368,150.510 135.726,152.600 135.761 C 163.095 135.934,162.894 135.893,163.875 138.045 C 164.387 139.170,165.135 139.888,165.535 139.640 C 165.936 139.393,166.391 139.572,166.546 140.039 C 166.702 140.505,167.543 141.020,168.415 141.182 C 169.287 141.345,170.000 141.532,170.000 141.598 C 170.000 141.665,172.336 141.879,175.191 142.074 C 179.439 142.364,180.720 142.793,182.240 144.432 C 183.261 145.533,184.404 146.245,184.780 146.012 C 185.156 145.780,185.598 145.995,185.763 146.490 C 186.088 147.464,190.937 148.248,197.000 148.307 C 199.090 148.328,200.800 148.627,200.800 148.972 C 200.800 149.318,201.070 149.557,201.400 149.505 C 203.478 149.177,204.385 149.634,203.200 150.412 C 202.198 151.070,202.296 151.281,203.791 151.691 C 204.776 151.961,205.385 152.501,205.144 152.891 C 204.903 153.281,204.997 153.629,205.353 153.666 C 205.709 153.702,208.501 153.902,211.557 154.111 C 215.892 154.408,217.355 154.836,218.212 156.059 C 218.815 156.921,219.645 157.419,220.055 157.166 C 220.465 156.913,220.800 157.043,220.800 157.456 C 220.800 159.165,227.970 160.536,238.030 160.749 C 239.924 160.789,240.488 161.179,240.589 162.519 C 240.828 165.695,242.519 166.111,256.200 166.360 C 257.875 166.390,258.400 166.793,258.400 168.047 C 258.400 168.953,258.756 169.474,259.191 169.206 C 259.644 168.925,259.778 169.247,259.505 169.958 C 259.053 171.137,259.988 171.527,263.000 171.415 C 263.628 171.392,264.042 172.611,264.113 174.689 C 264.176 176.510,264.294 178.720,264.376 179.600 C 264.459 180.480,264.588 182.571,264.663 184.247 C 264.743 186.023,265.130 187.090,265.591 186.806 C 266.029 186.535,266.187 186.825,265.945 187.455 C 265.461 188.717,267.756 191.445,268.773 190.817 C 269.652 190.274,270.097 193.069,270.044 198.789 C 270.001 203.472,269.947 203.586,267.600 203.989 C 265.744 204.307,265.029 204.980,264.446 206.961 C 263.837 209.027,263.219 209.568,261.249 209.761 C 259.243 209.957,258.735 210.422,258.401 212.368 C 258.079 214.247,257.479 214.841,255.489 215.248 C 252.738 215.811,248.417 218.598,247.355 220.494 C 246.984 221.157,246.048 221.793,245.276 221.907 C 244.504 222.020,243.591 222.568,243.247 223.125 C 242.903 223.681,242.301 224.127,241.911 224.115 C 241.520 224.103,241.247 224.593,241.304 225.204 C 241.361 225.815,239.838 227.052,237.920 227.954 C 235.574 229.057,234.268 230.249,233.929 231.597 C 233.578 232.998,232.881 233.600,231.611 233.600 C 229.121 233.600,227.784 235.341,227.261 239.259 C 227.046 240.875,221.934 239.289,221.267 237.400 C 220.723 235.859,219.678 235.107,217.212 234.486 C 215.385 234.026,212.733 232.545,211.319 231.194 C 209.905 229.843,208.400 228.953,207.974 229.216 C 207.548 229.479,207.200 229.336,207.200 228.897 C 207.200 228.458,206.570 228.075,205.800 228.045 C 205.030 228.014,203.320 227.841,202.000 227.660 C 200.680 227.478,198.970 227.301,198.200 227.265 C 197.430 227.229,196.800 226.673,196.800 226.028 C 196.800 224.574,193.889 222.927,192.660 223.687 C 192.065 224.054,191.976 223.886,192.401 223.198 C 192.885 222.416,192.610 222.263,191.326 222.599 C 190.378 222.847,189.410 222.740,189.177 222.362 C 188.943 221.984,182.328 221.693,174.477 221.716 C 159.978 221.759,155.680 220.859,157.365 218.134 C 157.630 217.704,157.472 217.584,157.014 217.868 C 155.750 218.649,154.645 216.794,153.996 212.800 C 153.261 208.277,151.515 204.800,149.979 204.800 C 149.331 204.800,148.800 204.080,148.800 203.200 C 148.800 202.320,148.502 201.600,148.139 201.600 C 147.775 201.600,147.636 200.520,147.829 199.200 C 148.050 197.698,147.831 196.800,147.244 196.800 C 146.728 196.800,146.530 196.437,146.803 195.994 C 147.077 195.551,146.741 194.974,146.055 194.711 C 145.370 194.448,144.992 193.936,145.216 193.574 C 145.440 193.212,144.898 192.685,144.012 192.404 C 142.466 191.913,141.928 189.633,142.358 185.400 C 142.436 184.630,142.118 184.000,141.650 184.000 C 141.183 184.000,140.871 183.730,140.959 183.400 C 141.440 181.577,139.735 179.200,137.946 179.200 C 136.240 179.200,135.993 178.829,135.945 176.200 C 135.813 168.999,135.001 167.240,131.800 167.212 C 131.030 167.206,130.379 166.750,130.354 166.200 C 129.958 157.571,129.088 154.511,126.290 151.897 C 124.671 150.385,123.820 148.772,123.716 147.019 C 123.631 145.579,123.302 143.988,122.985 143.484 C 122.434 142.608,124.470 141.185,125.843 141.487 C 126.974 141.736,128.800 139.370,128.800 137.657 C 128.800 136.746,129.250 135.945,129.800 135.878 C 130.350 135.811,131.218 135.716,131.728 135.667 C 133.142 135.532,136.019 132.679,135.534 131.893 C 134.325 129.937,141.099 129.007,143.909 130.744 M327.619 143.505 C 328.227 144.112,328.471 144.890,328.162 145.233 C 327.853 145.576,328.053 145.596,328.606 145.278 C 329.175 144.950,329.797 145.183,330.040 145.816 C 330.276 146.431,330.903 146.967,331.434 147.009 C 331.965 147.050,333.210 147.332,334.200 147.635 C 335.455 148.020,336.004 147.856,336.012 147.093 C 336.023 146.172,336.133 146.172,336.714 147.089 C 337.094 147.687,338.589 148.237,340.038 148.310 C 342.317 148.424,342.713 148.762,342.985 150.821 C 343.276 153.024,346.966 157.039,348.072 156.356 C 348.656 155.995,350.426 171.792,349.946 173.074 C 349.617 173.951,349.084 177.946,348.889 181.000 C 348.840 181.770,348.392 182.400,347.893 182.400 C 346.476 182.400,343.177 186.564,342.663 189.000 C 342.288 190.782,341.763 191.200,339.900 191.200 C 338.635 191.200,337.600 191.581,337.600 192.047 C 337.600 192.513,337.296 192.707,336.925 192.477 C 335.528 191.614,330.578 193.632,330.159 195.236 C 329.927 196.121,329.437 196.793,329.069 196.728 C 328.701 196.663,328.220 196.689,328.000 196.785 C 325.821 197.733,319.851 197.247,320.216 196.151 C 320.317 195.848,320.130 195.510,319.800 195.400 C 319.470 195.290,318.447 194.447,317.526 193.526 C 316.534 192.534,315.230 192.015,314.327 192.251 C 313.488 192.470,312.594 192.314,312.340 191.904 C 312.087 191.493,311.456 191.210,310.940 191.274 C 307.308 191.722,306.400 191.183,306.400 188.578 C 306.400 187.136,305.873 185.203,305.228 184.283 C 304.584 183.363,304.278 182.388,304.549 182.117 C 304.820 181.846,303.842 181.120,302.376 180.503 L 299.709 179.382 299.852 170.019 C 300.009 159.741,300.143 159.200,302.533 159.200 C 303.685 159.200,304.030 158.831,303.695 157.958 C 303.433 157.276,303.548 156.921,303.952 157.170 C 304.657 157.606,306.084 154.631,305.759 153.400 C 305.671 153.070,305.981 152.800,306.447 152.800 C 306.913 152.800,307.093 152.474,306.846 152.075 C 306.600 151.676,307.102 151.533,307.963 151.758 C 309.142 152.067,309.655 151.661,310.044 150.110 C 310.328 148.979,310.794 148.084,311.080 148.121 C 313.336 148.417,316.094 147.792,317.137 146.749 C 317.825 146.061,318.713 145.699,319.110 145.944 C 319.818 146.382,321.177 144.181,320.927 143.000 C 320.701 141.930,326.480 142.366,327.619 143.505 M184.907 257.508 C 185.625 257.559,186.402 258.320,186.632 259.200 C 186.862 260.080,187.645 260.800,188.372 260.800 C 189.178 260.800,189.468 261.166,189.116 261.736 C 188.729 262.362,188.970 262.506,189.843 262.171 C 190.561 261.895,191.375 262.035,191.651 262.482 C 191.927 262.929,192.932 263.192,193.885 263.068 C 195.773 262.820,199.516 265.018,198.662 265.872 C 198.371 266.162,198.575 266.400,199.114 266.400 C 199.653 266.400,199.888 266.734,199.636 267.142 C 199.237 267.788,201.600 269.046,203.427 269.161 C 203.771 269.182,204.498 270.093,205.042 271.184 C 205.586 272.276,206.924 273.614,208.016 274.158 C 209.107 274.702,210.045 275.519,210.100 275.973 C 210.155 276.428,210.288 277.070,210.395 277.400 C 210.502 277.730,210.534 278.308,210.467 278.684 C 210.256 279.859,212.130 281.600,213.606 281.600 C 214.955 281.600,216.656 288.635,216.088 291.864 C 215.985 292.449,216.472 295.439,217.170 298.508 C 217.868 301.578,218.195 304.485,217.896 304.968 C 217.569 305.497,217.721 305.620,218.276 305.276 C 218.784 304.962,219.200 305.066,219.200 305.506 C 219.200 305.946,218.891 306.496,218.514 306.729 C 217.755 307.198,215.735 315.933,216.092 317.200 C 216.537 318.779,215.085 325.600,214.304 325.600 C 213.865 325.600,213.726 325.956,213.994 326.391 C 214.275 326.844,213.953 326.978,213.241 326.705 C 212.345 326.361,211.570 327.186,210.460 329.665 C 209.614 331.555,208.084 333.785,207.061 334.620 C 206.037 335.455,205.650 335.906,206.200 335.622 C 206.750 335.338,207.200 335.487,207.200 335.953 C 207.200 336.730,206.093 337.131,204.600 336.895 C 204.055 336.809,203.704 337.993,203.880 339.323 C 203.918 339.611,203.351 340.331,202.621 340.923 C 201.498 341.834,201.397 341.827,201.970 340.876 C 202.458 340.066,202.356 339.933,201.602 340.399 C 200.768 340.914,200.812 341.230,201.817 341.965 C 202.858 342.727,202.583 342.900,200.233 342.967 C 198.668 343.011,197.082 343.532,196.707 344.124 C 196.224 344.885,196.021 344.915,196.012 344.225 C 196.006 343.689,195.462 343.457,194.805 343.709 C 194.147 343.961,193.785 344.452,194.000 344.800 C 194.215 345.148,193.853 345.639,193.195 345.891 C 192.538 346.143,192.000 346.901,192.000 347.575 C 192.000 348.470,191.085 348.821,188.600 348.879 C 186.730 348.923,184.120 349.091,182.800 349.252 C 179.565 349.647,161.605 349.637,159.600 349.240 C 158.720 349.065,156.918 348.895,155.595 348.861 C 153.727 348.814,152.956 348.270,152.140 346.426 C 151.121 344.124,150.221 343.712,144.400 342.878 C 143.520 342.752,142.671 341.963,142.514 341.124 C 142.082 338.823,140.859 337.661,138.122 336.952 C 136.198 336.453,135.647 335.873,135.656 334.355 C 135.668 332.308,134.318 330.400,132.857 330.400 C 132.386 330.400,132.090 329.950,132.200 329.400 C 132.310 328.850,131.971 328.483,131.447 328.584 C 130.872 328.696,130.287 327.266,129.973 324.984 C 129.414 320.911,127.891 315.843,127.380 316.353 C 127.208 316.526,126.393 315.993,125.569 315.169 C 123.606 313.206,122.907 293.600,124.800 293.600 C 126.958 293.600,128.930 290.103,129.454 285.346 C 129.933 281.011,130.224 280.368,131.813 280.143 C 133.646 279.882,136.000 275.755,136.000 272.800 C 136.000 272.028,136.540 270.948,137.200 270.400 C 138.029 269.712,138.400 269.682,138.400 270.302 C 138.400 270.796,137.980 271.200,137.467 271.200 C 136.953 271.200,136.771 271.438,137.062 271.728 C 137.352 272.019,138.236 271.673,139.024 270.959 C 139.813 270.245,141.795 269.102,143.429 268.420 C 145.063 267.737,146.400 266.656,146.400 266.017 C 146.400 265.007,148.824 263.108,150.600 262.728 C 150.930 262.658,151.470 262.512,151.800 262.405 C 152.130 262.298,152.670 262.253,153.000 262.305 C 153.330 262.357,153.655 261.770,153.722 261.000 C 153.789 260.230,153.927 259.240,154.030 258.800 C 154.132 258.360,154.257 257.798,154.308 257.551 C 154.382 257.190,179.871 257.155,184.907 257.508 " stroke="none" fill="#e7001b" fill-rule="evenodd"></path><path id="path4" d="M52.307 16.353 C 52.064 16.988,52.033 18.158,52.240 18.953 C 52.475 19.860,52.670 19.505,52.763 18.000 C 52.882 16.083,53.031 15.901,53.501 17.098 C 54.037 18.461,54.203 18.483,55.350 17.336 C 56.043 16.643,56.832 16.299,57.105 16.571 C 57.377 16.844,57.600 16.647,57.600 16.133 C 57.600 14.778,52.836 14.976,52.307 16.353 M109.133 15.800 C 109.463 16.130,110.153 16.401,110.667 16.403 C 111.180 16.405,111.652 17.125,111.715 18.003 C 111.778 18.881,111.868 20.050,111.915 20.600 C 111.966 21.199,113.156 21.600,114.886 21.600 C 117.188 21.600,117.673 21.344,117.286 20.335 C 117.019 19.639,116.800 18.720,116.800 18.294 C 116.800 17.867,115.552 16.997,114.026 16.359 C 111.086 15.131,108.126 14.793,109.133 15.800 M40.357 22.470 C 39.529 23.809,41.242 25.022,43.119 24.426 C 45.467 23.681,45.266 21.600,42.847 21.600 C 41.773 21.600,40.653 21.991,40.357 22.470 M39.547 26.139 C 39.098 26.851,37.689 27.471,36.417 27.517 C 34.379 27.590,34.070 27.933,33.825 30.400 C 33.626 32.405,33.767 32.870,34.321 32.038 C 34.746 31.399,34.915 30.587,34.697 30.233 C 34.287 29.570,35.571 28.886,38.138 28.400 C 38.942 28.247,39.600 28.067,39.600 28.000 C 39.600 27.933,40.258 27.753,41.062 27.600 C 43.812 27.079,44.901 26.411,44.379 25.567 C 44.022 24.988,43.546 24.981,42.870 25.542 C 42.247 26.059,41.602 26.082,41.123 25.603 C 40.644 25.124,40.062 25.322,39.547 26.139 M129.341 28.200 C 130.048 29.314,130.156 29.731,130.300 31.912 C 130.372 33.002,131.142 33.512,133.055 33.735 C 136.573 34.146,136.219 30.998,132.492 28.726 C 129.610 26.968,128.434 26.772,129.341 28.200 M27.436 34.939 C 27.228 35.480,27.283 36.287,27.558 36.733 C 27.833 37.178,27.338 38.262,26.458 39.142 C 25.502 40.098,25.184 40.943,25.668 41.242 C 26.206 41.574,26.183 42.098,25.600 42.800 C 24.988 43.537,24.978 44.016,25.567 44.379 C 26.411 44.901,27.079 43.812,27.600 41.062 C 27.753 40.258,27.933 39.600,28.000 39.600 C 28.067 39.600,28.247 38.942,28.400 38.138 C 28.886 35.571,29.570 34.287,30.233 34.697 C 30.587 34.915,31.399 34.756,32.038 34.343 C 32.869 33.806,32.432 33.644,30.507 33.773 C 29.026 33.873,27.644 34.398,27.436 34.939 M22.133 40.533 C 21.840 40.827,21.600 41.907,21.600 42.933 C 21.600 45.231,23.691 45.435,24.398 43.207 C 25.151 40.834,23.629 39.038,22.133 40.533 M143.200 46.183 C 143.860 46.434,144.664 47.036,144.988 47.520 C 145.350 48.063,145.580 47.864,145.588 47.000 C 145.596 46.059,145.009 45.621,143.800 45.663 C 142.597 45.705,142.398 45.878,143.200 46.183 M94.696 53.000 C 94.961 53.990,95.183 55.053,95.189 55.362 C 95.206 56.237,100.887 57.603,104.000 57.482 L 106.800 57.373 103.600 56.886 C 100.694 56.445,100.377 56.161,100.149 53.800 C 99.918 51.402,99.678 51.200,97.056 51.200 C 94.499 51.200,94.262 51.381,94.696 53.000 M15.733 52.533 C 14.821 53.446,15.149 57.600,16.133 57.600 C 16.647 57.600,16.844 57.377,16.571 57.105 C 16.299 56.832,16.643 56.043,17.336 55.350 C 18.483 54.203,18.461 54.040,17.098 53.540 C 15.876 53.091,16.043 52.920,18.000 52.615 C 20.202 52.271,20.230 52.230,18.333 52.120 C 17.197 52.054,16.027 52.240,15.733 52.533 M68.569 54.398 C 68.339 55.277,67.307 56.351,66.275 56.785 C 64.487 57.538,64.509 57.566,66.737 57.387 C 68.625 57.236,69.130 56.777,69.365 55.000 C 69.701 52.449,69.181 52.056,68.569 54.398 M60.682 57.378 C 56.580 57.812,55.542 63.200,59.561 63.200 C 61.748 63.200,62.842 61.998,63.382 59.000 C 63.600 57.790,63.738 56.861,63.689 56.934 C 63.640 57.008,62.287 57.208,60.682 57.378 M148.739 58.711 C 148.705 59.200,148.564 60.182,148.425 60.893 C 148.059 62.772,148.926 63.800,151.401 64.421 C 154.011 65.077,154.851 63.691,153.692 60.643 C 152.900 58.558,148.858 56.982,148.739 58.711 M56.893 66.135 C 56.842 66.649,56.567 67.729,56.282 68.535 C 55.881 69.672,55.987 69.795,56.757 69.085 C 57.303 68.582,57.578 67.502,57.368 66.685 C 57.158 65.868,56.944 65.621,56.893 66.135 M112.000 70.778 C 112.000 71.931,112.562 73.066,113.267 73.336 C 114.297 73.732,114.335 73.965,113.467 74.587 C 112.663 75.162,112.739 75.242,113.774 74.910 C 114.530 74.668,115.362 74.814,115.622 75.235 C 116.369 76.443,118.400 76.125,118.400 74.800 C 118.400 74.053,117.644 73.600,116.400 73.600 C 115.300 73.600,114.400 73.219,114.400 72.753 C 114.400 72.287,114.074 72.107,113.675 72.354 C 113.276 72.600,113.127 72.122,113.344 71.291 C 113.562 70.460,113.348 69.539,112.870 69.243 C 112.329 68.909,112.000 69.489,112.000 70.778 M51.200 97.200 C 51.200 99.784,51.387 100.000,53.626 100.000 C 55.394 100.000,56.248 100.488,56.775 101.800 C 57.772 104.279,57.777 101.869,56.783 98.290 C 56.241 96.339,55.385 95.222,54.187 94.901 C 51.343 94.139,51.200 94.249,51.200 97.200 M112.533 94.933 C 112.240 95.227,112.000 96.727,112.000 98.267 C 112.000 100.462,113.163 101.485,113.212 99.333 C 113.219 99.040,113.510 98.350,113.859 97.800 C 114.229 97.218,114.121 96.800,113.600 96.800 C 113.108 96.800,112.932 96.434,113.208 95.987 C 113.484 95.540,114.101 95.415,114.579 95.711 C 115.097 96.031,115.217 95.875,114.876 95.324 C 114.236 94.287,113.330 94.136,112.533 94.933 M154.400 97.200 C 154.400 99.867,154.533 100.000,157.200 100.000 C 160.560 100.000,161.108 97.666,158.222 95.645 C 155.414 93.679,154.400 94.091,154.400 97.200 M169.200 100.675 C 170.080 101.062,171.340 101.181,172.000 100.940 C 173.030 100.563,173.045 100.691,172.102 101.850 C 171.320 102.812,171.278 103.200,171.956 103.200 C 172.544 103.200,172.714 103.812,172.400 104.800 C 171.949 106.221,172.256 106.400,175.146 106.400 C 181.952 106.400,179.039 101.004,171.885 100.358 C 169.034 100.101,168.136 100.207,169.200 100.675 M107.734 102.551 C 105.841 105.549,105.123 108.506,106.625 107.116 C 107.289 106.502,107.631 105.669,107.385 105.264 C 107.139 104.859,107.532 104.756,108.259 105.035 C 109.057 105.341,109.505 105.172,109.390 104.608 C 109.286 104.093,109.740 103.656,110.400 103.636 C 112.049 103.586,111.921 101.284,110.251 100.962 C 109.507 100.819,108.377 101.533,107.734 102.551 M101.284 107.064 C 100.798 107.850,103.720 107.747,104.517 106.950 C 104.819 106.647,104.308 106.400,103.381 106.400 C 102.453 106.400,101.510 106.699,101.284 107.064 M188.727 107.138 C 189.348 107.531,190.397 107.644,191.059 107.390 C 191.925 107.058,192.080 107.247,191.614 108.064 C 191.089 108.984,191.170 109.010,192.043 108.200 C 193.492 106.855,194.452 106.935,193.906 108.355 C 193.603 109.145,193.972 109.473,195.071 109.390 C 198.748 109.113,195.377 106.399,191.372 106.412 C 188.848 106.420,187.973 106.661,188.727 107.138 M310.800 107.325 C 306.671 109.580,306.257 112.000,310.000 112.000 C 312.003 112.000,312.800 111.645,312.800 110.753 C 312.800 110.067,313.099 109.690,313.464 109.916 C 313.829 110.141,314.070 109.553,314.001 108.609 C 313.848 106.531,312.929 106.163,310.800 107.325 M334.818 107.842 C 333.961 110.075,340.752 113.219,342.016 111.174 C 342.310 110.698,342.331 109.432,342.062 108.361 C 341.484 106.061,335.661 105.644,334.818 107.842 M337.947 108.085 C 338.861 106.607,339.680 107.090,339.680 109.106 C 339.680 110.154,339.248 110.948,338.721 110.871 C 337.127 110.637,335.185 108.672,335.709 107.824 C 336.016 107.327,336.425 107.394,336.800 108.000 C 337.229 108.694,337.556 108.718,337.947 108.085 M15.200 109.892 C 15.200 111.897,17.396 116.800,18.294 116.800 C 18.720 116.800,19.639 117.019,20.335 117.286 C 21.344 117.673,21.600 117.188,21.600 114.886 C 21.600 112.567,21.286 111.980,20.000 111.900 C 16.739 111.696,16.400 111.580,16.400 110.667 C 16.400 110.153,16.130 109.463,15.800 109.133 C 15.470 108.803,15.200 109.145,15.200 109.892 M100.000 109.933 C 100.000 110.630,100.570 111.200,101.267 111.200 C 102.679 111.200,102.433 109.478,100.950 108.983 C 100.428 108.809,100.000 109.237,100.000 109.933 M68.517 112.610 C 68.310 112.946,69.350 113.241,70.828 113.266 C 72.307 113.291,73.334 113.017,73.111 112.656 C 72.600 111.829,69.022 111.793,68.517 112.610 M94.800 112.800 C 94.210 113.755,95.777 113.755,98.000 112.800 C 99.429 112.186,99.369 112.106,97.447 112.056 C 96.263 112.025,95.072 112.360,94.800 112.800 M206.730 112.687 C 207.049 113.204,207.646 113.419,208.055 113.166 C 208.465 112.913,208.800 113.267,208.800 113.953 C 208.800 114.676,209.487 115.200,210.435 115.200 C 211.548 115.200,211.995 115.647,211.835 116.600 C 211.675 117.555,212.208 118.086,213.514 118.271 C 215.237 118.514,215.696 114.629,214.128 113.062 C 213.271 112.204,206.211 111.847,206.730 112.687 M294.834 112.745 C 294.581 113.154,294.809 113.758,295.340 114.086 C 295.871 114.415,296.440 114.280,296.604 113.787 C 296.769 113.293,297.420 113.088,298.052 113.331 C 298.683 113.573,299.200 113.373,299.200 112.886 C 299.200 111.814,295.483 111.694,294.834 112.745 M351.800 112.555 C 352.790 112.748,353.642 113.332,353.692 113.853 C 353.743 114.374,353.868 115.160,353.970 115.600 C 354.073 116.040,354.211 116.850,354.278 117.400 C 354.531 119.475,360.000 118.613,360.000 116.498 C 360.000 113.868,358.615 112.960,353.980 112.554 C 351.791 112.362,350.810 112.362,351.800 112.555 M74.149 113.901 C 73.832 114.727,73.935 115.840,74.379 116.375 C 74.823 116.910,74.949 117.584,74.660 117.874 C 74.370 118.163,74.553 118.400,75.067 118.400 C 76.086 118.400,76.137 117.463,75.283 114.400 C 74.784 112.608,74.666 112.556,74.149 113.901 M226.400 119.199 C 226.400 119.691,226.760 119.872,227.200 119.600 C 227.640 119.328,228.000 119.462,228.000 119.897 C 228.000 120.333,228.810 120.804,229.800 120.945 C 230.898 121.101,231.561 121.721,231.500 122.533 C 231.445 123.266,232.096 124.048,232.946 124.270 C 234.216 124.602,234.321 124.469,233.536 123.523 C 233.010 122.889,232.540 121.568,232.490 120.586 C 232.392 118.648,226.400 117.283,226.400 119.199 M283.800 119.264 C 283.030 119.713,282.400 120.940,282.400 121.993 C 282.400 123.045,282.040 124.128,281.600 124.400 C 280.035 125.367,280.771 126.472,282.400 125.600 C 283.280 125.129,284.000 125.008,284.000 125.332 C 284.000 125.655,284.404 125.516,284.897 125.023 C 285.391 124.529,286.291 124.315,286.897 124.548 C 288.076 125.000,288.093 124.960,288.317 121.000 C 288.476 118.196,286.764 117.538,283.800 119.264 M364.511 119.600 C 364.764 120.260,365.293 120.800,365.686 120.800 C 366.079 120.800,366.400 120.260,366.400 119.600 C 366.400 118.940,365.871 118.400,365.225 118.400 C 364.509 118.400,364.230 118.869,364.511 119.600 M240.800 124.316 C 240.800 124.490,242.240 124.769,244.000 124.937 C 245.760 125.105,247.200 124.963,247.200 124.621 C 247.200 124.280,245.760 124.000,244.000 124.000 C 242.240 124.000,240.800 124.142,240.800 124.316 M370.661 125.967 C 372.067 127.558,372.453 127.691,372.679 126.663 C 372.963 125.365,371.549 124.034,369.861 124.012 C 369.344 124.006,369.704 124.885,370.661 125.967 M276.286 126.008 C 275.446 128.198,276.896 128.934,278.472 127.117 C 280.328 124.977,280.338 125.166,278.357 125.017 C 277.453 124.949,276.522 125.395,276.286 126.008 M27.203 129.353 C 27.211 131.082,30.462 135.025,32.145 135.347 C 33.881 135.679,34.018 135.481,33.735 133.055 C 33.512 131.142,33.002 130.372,31.912 130.300 C 29.731 130.156,29.314 130.048,28.200 129.341 C 27.650 128.991,27.201 128.997,27.203 129.353 M142.534 132.730 C 142.811 135.572,145.081 136.908,145.920 134.721 C 146.416 133.428,145.488 133.232,144.333 134.387 C 143.818 134.902,143.486 134.442,143.371 133.051 C 143.275 131.884,142.987 130.720,142.732 130.466 C 142.477 130.211,142.388 131.230,142.534 132.730 M267.200 131.380 C 267.200 131.993,267.687 133.160,268.282 133.975 C 269.284 135.344,269.359 135.285,269.282 133.193 C 269.201 130.962,267.200 129.220,267.200 131.380 M376.455 132.061 C 378.162 133.947,378.595 133.999,378.259 132.276 C 378.116 131.547,377.339 130.854,376.531 130.736 C 375.131 130.531,375.128 130.594,376.455 132.061 M160.941 138.768 C 160.796 140.909,161.111 141.591,162.439 142.012 C 165.003 142.826,165.285 141.820,163.136 139.532 C 162.071 138.399,161.320 137.290,161.467 137.069 C 161.613 136.848,161.596 136.529,161.428 136.362 C 161.260 136.194,161.041 137.277,160.941 138.768 M128.467 140.515 C 127.797 142.260,128.686 143.071,129.631 141.577 C 130.577 140.081,130.597 139.200,129.686 139.200 C 129.293 139.200,128.744 139.792,128.467 140.515 M45.663 143.800 C 45.621 145.009,46.059 145.596,47.000 145.588 C 47.864 145.580,48.063 145.350,47.520 144.988 C 47.036 144.664,46.434 143.860,46.183 143.200 C 45.878 142.398,45.705 142.597,45.663 143.800 M323.524 143.324 C 323.170 143.896,323.304 144.030,323.876 143.676 C 324.483 143.302,324.800 143.809,324.800 145.153 C 324.800 146.279,325.160 147.245,325.600 147.300 C 326.729 147.441,327.395 147.648,329.035 148.368 C 331.036 149.247,331.647 148.333,330.095 146.781 C 329.130 145.816,328.786 145.755,328.746 146.543 C 328.716 147.124,328.276 146.700,327.768 145.600 C 326.350 142.530,324.596 141.589,323.524 143.324 M179.200 145.855 C 179.200 147.418,179.691 147.720,183.352 148.406 C 186.050 148.912,186.256 148.821,185.857 147.298 C 185.511 145.974,185.128 145.796,183.964 146.419 C 181.996 147.472,181.390 147.402,182.081 146.200 C 182.398 145.650,182.362 145.467,182.002 145.793 C 181.642 146.119,180.864 145.985,180.274 145.495 C 179.453 144.814,179.200 144.899,179.200 145.855 M322.400 146.047 C 322.400 146.733,322.040 147.072,321.600 146.800 C 321.160 146.528,320.800 146.713,320.800 147.211 C 320.800 148.652,323.553 147.730,323.849 146.191 C 323.997 145.426,323.731 144.800,323.259 144.800 C 322.786 144.800,322.400 145.361,322.400 146.047 M316.800 148.000 C 315.865 148.604,316.086 148.778,317.800 148.788 C 319.010 148.794,320.000 148.440,320.000 148.000 C 320.000 146.988,318.365 146.988,316.800 148.000 M59.118 148.573 C 57.100 149.044,58.209 152.767,60.643 153.692 C 63.463 154.765,64.910 154.014,64.593 151.644 C 64.211 148.792,62.438 147.798,59.118 148.573 M339.000 148.579 C 335.400 149.114,336.237 153.027,340.162 154.012 C 341.471 154.340,342.447 155.224,342.662 156.275 C 342.857 157.224,342.938 155.860,342.843 153.245 C 342.661 148.242,342.509 148.058,339.000 148.579 M125.234 149.545 C 124.981 149.954,125.115 150.500,125.532 150.758 C 125.948 151.015,126.539 150.822,126.845 150.328 C 127.240 149.688,127.589 149.736,128.057 150.491 C 128.418 151.076,128.949 151.318,129.237 151.030 C 130.087 150.180,128.827 148.800,127.200 148.800 C 126.372 148.800,125.487 149.135,125.234 149.545 M196.800 149.553 C 196.800 149.967,197.166 150.532,197.613 150.808 C 198.060 151.084,198.194 151.686,197.911 152.145 C 197.359 153.038,198.953 154.368,200.600 154.388 C 201.150 154.394,201.600 154.019,201.600 153.553 C 201.600 153.087,201.216 152.943,200.746 153.233 C 200.235 153.549,199.995 153.174,200.146 152.298 C 200.286 151.494,199.950 150.783,199.400 150.718 C 197.335 150.474,197.230 150.356,198.400 149.600 C 199.426 148.937,199.396 148.823,198.200 148.812 C 197.430 148.806,196.800 149.139,196.800 149.553 M309.800 152.433 C 309.250 153.038,308.800 153.728,308.800 153.966 C 308.800 154.764,311.098 154.411,311.643 153.530 C 312.493 152.156,310.910 151.213,309.800 152.433 M128.150 152.850 C 128.343 153.428,128.972 154.058,129.550 154.250 C 130.150 154.450,130.450 154.150,130.250 153.550 C 130.058 152.972,129.428 152.343,128.850 152.150 C 128.250 151.950,127.950 152.250,128.150 152.850 M306.133 154.133 C 305.840 154.427,305.600 155.365,305.600 156.219 C 305.600 157.350,305.220 157.639,304.200 157.284 C 303.005 156.867,303.023 156.969,304.325 157.978 C 305.804 159.123,305.791 159.182,303.925 159.929 C 302.706 160.416,302.477 160.717,303.302 160.749 C 305.058 160.818,306.126 159.327,306.561 156.200 C 306.951 153.398,306.937 153.330,306.133 154.133 M215.496 157.000 C 215.761 157.990,215.983 159.109,215.989 159.487 C 215.995 159.864,216.878 159.953,217.951 159.684 C 219.024 159.414,220.125 159.555,220.398 159.997 C 220.671 160.439,221.473 160.800,222.181 160.800 C 223.614 160.800,222.806 159.621,221.333 159.564 C 220.820 159.544,220.505 159.048,220.634 158.461 C 220.790 157.751,220.332 157.536,219.261 157.816 C 218.378 158.047,217.685 158.003,217.722 157.718 C 217.936 156.071,217.447 155.200,216.307 155.200 C 215.356 155.200,215.141 155.677,215.496 157.000 M88.000 162.400 C 88.000 163.893,88.213 164.107,88.960 163.360 C 89.707 162.613,89.707 162.187,88.960 161.440 C 88.213 160.693,88.000 160.907,88.000 162.400 M130.262 162.600 C 129.666 165.910,130.376 167.200,132.792 167.200 C 134.043 167.200,135.248 167.650,135.470 168.200 C 135.692 168.750,135.902 168.030,135.937 166.600 C 136.044 162.201,130.977 158.630,130.262 162.600 M233.600 162.343 C 233.600 164.763,235.892 166.516,238.700 166.243 C 240.426 166.075,241.118 165.631,240.936 164.807 C 240.790 164.151,240.624 162.981,240.566 162.207 C 240.401 160.029,233.600 160.161,233.600 162.343 M252.000 168.302 C 252.000 170.779,253.226 171.691,257.501 172.397 C 260.015 172.812,260.845 172.721,260.446 172.074 C 260.140 171.579,259.493 171.419,259.009 171.718 C 258.442 172.068,258.310 171.788,258.639 170.931 C 258.920 170.199,258.835 169.600,258.450 169.600 C 258.065 169.600,257.938 168.880,258.168 168.000 C 258.537 166.591,258.193 166.400,255.293 166.400 C 252.359 166.400,252.000 166.607,252.000 168.302 M93.786 172.000 C 93.786 173.540,93.950 174.170,94.151 173.400 C 94.353 172.630,94.353 171.370,94.151 170.600 C 93.950 169.830,93.786 170.460,93.786 172.000 M136.000 176.709 C 136.000 178.663,136.369 179.073,138.400 179.371 C 141.107 179.768,141.435 178.862,139.555 176.178 C 137.773 173.634,136.000 173.899,136.000 176.709 M94.400 177.102 C 94.400 177.900,95.068 178.400,96.133 178.400 C 97.087 178.400,97.717 178.298,97.533 178.174 C 97.350 178.049,96.570 177.465,95.800 176.876 C 94.602 175.958,94.400 175.991,94.400 177.102 M303.651 180.083 C 303.904 180.492,304.424 180.632,304.807 180.396 C 305.190 180.159,305.512 180.603,305.523 181.383 C 305.638 189.695,307.788 193.309,311.319 191.126 C 312.971 190.105,311.167 186.158,308.793 185.601 C 307.275 185.244,306.705 184.490,306.400 182.440 C 306.138 180.674,305.517 179.677,304.596 179.543 C 303.824 179.432,303.399 179.675,303.651 180.083 M343.180 181.252 C 342.751 182.381,342.400 183.821,342.400 184.452 C 342.400 185.083,341.770 185.606,341.000 185.612 C 338.869 185.631,337.782 186.596,337.177 189.008 C 336.656 191.083,336.775 191.200,339.411 191.200 C 342.041 191.200,342.224 191.022,342.707 188.000 C 342.989 186.240,343.613 184.800,344.095 184.800 C 344.579 184.800,344.745 184.212,344.467 183.487 C 344.046 182.389,344.163 182.339,345.182 183.185 C 346.015 183.877,346.400 183.912,346.400 183.298 C 346.400 182.804,346.940 182.400,347.600 182.400 C 348.267 182.400,348.800 181.689,348.800 180.800 C 348.800 179.047,347.626 178.664,346.724 180.124 C 346.346 180.735,346.507 180.828,347.200 180.400 C 347.898 179.969,348.054 180.065,347.668 180.689 C 347.350 181.205,346.748 181.415,346.332 181.158 C 345.915 180.900,345.781 180.354,346.034 179.945 C 346.287 179.535,345.924 179.200,345.227 179.200 C 344.531 179.200,343.609 180.123,343.180 181.252 M264.109 188.240 C 263.910 192.335,267.802 197.363,269.672 195.426 C 270.486 194.583,269.602 190.305,268.725 190.846 C 267.529 191.586,264.927 189.682,264.565 187.802 C 264.272 186.282,264.201 186.350,264.109 188.240 M102.444 192.862 C 104.591 195.877,106.598 195.979,106.253 193.056 C 106.042 191.270,105.564 190.880,103.389 190.718 L 100.779 190.523 102.444 192.862 M144.800 191.771 C 145.460 192.016,146.622 192.536,147.382 192.927 C 148.449 193.475,148.657 193.359,148.296 192.419 C 148.031 191.726,146.916 191.227,145.714 191.263 C 144.473 191.300,144.096 191.510,144.800 191.771 M317.234 192.055 C 317.524 192.525,318.265 192.716,318.881 192.480 C 319.496 192.243,320.000 192.399,320.000 192.825 C 320.000 193.251,319.580 193.600,319.067 193.600 C 318.553 193.600,318.365 193.831,318.647 194.114 C 318.930 194.397,319.678 194.199,320.309 193.675 C 321.030 193.077,321.638 193.014,321.942 193.506 C 322.208 193.937,322.060 194.516,321.613 194.792 C 321.166 195.068,320.800 195.677,320.800 196.145 C 320.800 196.708,321.180 196.681,321.922 196.065 C 322.784 195.349,323.141 195.373,323.459 196.167 C 323.687 196.735,323.902 196.282,323.937 195.160 C 323.972 194.038,323.568 192.688,323.040 192.160 C 321.828 190.948,316.490 190.851,317.234 192.055 M325.731 192.189 C 324.393 193.527,324.571 196.533,325.987 196.533 C 326.952 196.533,326.989 196.298,326.187 195.280 C 325.378 194.254,325.590 194.276,327.358 195.405 C 328.904 196.391,329.677 196.522,330.082 195.868 C 330.408 195.340,330.295 195.170,329.815 195.467 C 329.357 195.750,328.795 195.266,328.566 194.392 C 328.139 192.758,329.238 191.314,329.747 192.841 C 329.903 193.309,330.652 193.453,331.411 193.162 C 332.170 192.871,332.628 192.369,332.429 192.047 C 331.832 191.080,326.731 191.189,325.731 192.189 M384.000 194.886 C 384.000 195.719,383.563 196.004,382.758 195.695 C 382.047 195.422,381.725 195.556,382.006 196.009 C 382.871 197.409,384.800 196.851,384.800 195.200 C 384.800 194.320,384.620 193.600,384.400 193.600 C 384.180 193.600,384.000 194.179,384.000 194.886 M106.852 204.400 C 107.452 207.521,108.640 208.754,109.581 207.232 C 110.435 205.848,109.827 204.565,108.659 205.287 C 108.123 205.618,108.019 205.126,108.367 203.900 C 108.737 202.593,108.669 202.340,108.149 203.091 C 107.511 204.011,107.316 204.011,106.892 203.091 C 106.616 202.491,106.598 203.080,106.852 204.400 M264.000 203.867 C 264.000 204.380,263.520 204.800,262.932 204.800 C 262.345 204.800,260.902 205.880,259.726 207.200 C 258.550 208.520,257.140 209.638,256.594 209.685 C 256.047 209.732,254.880 209.822,254.000 209.885 C 252.818 209.970,252.295 210.722,252.000 212.761 C 251.633 215.298,251.372 215.526,248.800 215.561 C 246.431 215.594,245.959 215.908,245.731 217.600 L 245.462 219.600 247.162 217.800 C 249.049 215.803,250.387 215.474,250.424 217.000 C 250.438 217.550,250.820 217.362,251.273 216.583 C 251.727 215.804,252.436 215.375,252.849 215.630 C 253.262 215.886,253.600 215.552,253.600 214.888 C 253.600 213.180,258.347 209.798,261.200 209.473 C 263.399 209.223,265.671 204.698,264.316 203.267 C 264.142 203.083,264.000 203.353,264.000 203.867 M110.933 206.933 C 110.085 207.782,110.309 208.594,111.521 209.059 C 112.185 209.314,112.575 209.032,112.478 208.368 C 112.261 206.889,111.595 206.271,110.933 206.933 M112.133 215.699 C 112.290 216.514,113.134 217.295,114.009 217.434 C 115.181 217.620,115.318 217.493,114.532 216.954 C 113.944 216.551,113.521 215.910,113.592 215.531 C 113.662 215.151,113.299 214.700,112.784 214.528 C 112.235 214.345,111.966 214.830,112.133 215.699 M154.400 216.076 C 154.400 216.424,155.061 216.581,155.868 216.425 C 158.066 216.002,159.400 217.167,159.400 219.509 C 159.400 220.659,159.715 221.600,160.100 221.600 C 161.015 221.600,160.990 219.803,160.040 217.304 C 159.309 215.383,154.400 214.313,154.400 216.076 M112.995 219.400 C 113.381 220.575,118.400 221.259,118.400 220.136 C 118.400 218.871,115.777 218.268,115.076 219.373 C 114.569 220.173,114.422 220.179,114.412 219.400 C 114.406 218.850,114.010 218.400,113.533 218.400 C 113.057 218.400,112.814 218.850,112.995 219.400 M363.052 220.414 C 362.824 220.642,360.934 220.973,358.851 221.149 C 354.374 221.527,354.066 221.761,353.993 224.842 C 353.950 226.626,354.298 227.200,355.421 227.200 C 358.019 227.200,360.000 225.630,360.000 223.572 C 360.000 221.914,360.382 221.600,362.400 221.600 C 363.720 221.600,364.800 221.240,364.800 220.800 C 364.800 219.952,363.747 219.720,363.052 220.414 M196.291 223.383 C 196.559 224.382,196.783 225.650,196.789 226.200 C 196.795 226.775,197.819 227.200,199.200 227.200 C 202.953 227.200,202.205 223.999,198.086 222.433 C 195.941 221.617,195.833 221.674,196.291 223.383 M240.200 222.130 C 239.650 222.352,239.200 223.558,239.200 224.811 C 239.200 226.525,238.755 227.184,237.400 227.475 C 235.814 227.816,235.838 227.847,237.600 227.731 C 239.087 227.634,239.666 227.087,239.857 225.600 C 239.998 224.500,240.697 223.150,241.409 222.600 C 242.703 221.602,242.094 221.366,240.200 222.130 M118.537 229.572 C 118.807 232.353,120.287 233.691,121.010 231.808 C 121.233 231.225,120.709 229.875,119.845 228.807 L 118.274 226.867 118.537 229.572 M207.467 228.387 C 207.467 229.350,207.698 229.388,208.687 228.587 C 209.658 227.802,209.784 227.804,209.306 228.600 C 208.928 229.229,209.168 229.600,209.953 229.600 C 210.639 229.600,211.200 229.915,211.200 230.300 C 211.200 230.685,212.100 231.000,213.200 231.000 C 215.505 231.000,215.727 230.241,213.943 228.457 C 212.299 226.813,207.467 226.761,207.467 228.387 M306.400 229.286 C 306.400 230.791,306.727 231.246,307.574 230.921 C 308.220 230.673,308.996 230.870,309.298 231.359 C 309.631 231.897,309.483 232.022,308.924 231.676 C 308.416 231.362,308.000 231.487,308.000 231.953 C 308.000 232.419,308.540 232.800,309.200 232.800 C 310.575 232.800,310.804 231.544,309.567 230.780 C 309.110 230.497,308.926 229.486,309.160 228.533 C 309.394 227.580,309.379 227.250,309.126 227.800 C 308.873 228.350,308.315 228.800,307.886 228.800 C 307.457 228.800,307.328 228.440,307.600 228.000 C 307.872 227.560,307.713 227.200,307.247 227.200 C 306.781 227.200,306.400 228.139,306.400 229.286 M340.206 231.385 C 340.142 232.239,340.509 232.764,341.046 232.585 C 342.396 232.136,342.686 229.867,341.393 229.867 C 340.803 229.867,340.269 230.550,340.206 231.385 M120.600 234.530 C 119.390 235.814,118.400 237.391,118.400 238.033 C 118.400 238.675,117.701 239.200,116.847 239.200 C 115.993 239.200,115.068 239.566,114.792 240.013 C 114.516 240.460,113.992 240.642,113.629 240.418 C 112.865 239.946,112.000 241.855,112.000 244.015 C 112.000 245.103,111.309 245.565,109.407 245.749 C 107.550 245.929,106.734 246.454,106.535 247.600 L 106.256 249.200 107.530 247.600 C 108.597 246.260,108.723 246.232,108.306 247.427 C 107.875 248.663,108.183 248.609,110.607 247.027 C 112.147 246.022,113.302 245.016,113.174 244.791 C 112.696 243.950,115.127 241.461,115.938 241.961 C 116.431 242.266,116.603 242.018,116.352 241.364 C 116.045 240.564,116.674 240.193,118.562 240.061 C 120.013 239.959,121.828 239.827,122.596 239.767 C 124.466 239.620,125.453 234.682,123.902 233.228 C 122.991 232.373,122.419 232.598,120.600 234.530 M316.000 232.800 L 313.200 233.389 316.200 233.495 C 317.850 233.553,319.200 233.240,319.200 232.800 C 319.200 232.360,319.110 232.047,319.000 232.105 C 318.890 232.163,317.540 232.476,316.000 232.800 M220.111 234.468 C 220.527 234.726,221.141 235.958,221.475 237.208 C 221.962 239.026,226.555 240.983,227.230 239.659 C 227.247 239.627,227.456 238.253,227.695 236.607 L 228.129 233.614 223.742 233.807 C 221.329 233.913,219.695 234.211,220.111 234.468 M287.200 236.600 C 287.200 237.077,286.210 237.828,285.000 238.270 L 282.800 239.074 285.025 239.137 C 287.140 239.197,288.829 237.362,287.699 236.232 C 287.424 235.958,287.200 236.123,287.200 236.600 M278.655 243.469 C 278.735 243.875,277.918 244.285,276.841 244.381 C 275.763 244.477,274.742 244.973,274.572 245.483 C 274.402 245.993,273.844 246.159,273.332 245.851 C 272.819 245.544,272.894 245.902,273.498 246.646 C 274.764 248.207,273.627 248.493,272.091 247.000 C 271.259 246.191,271.113 246.381,271.331 247.991 C 271.484 249.126,271.198 249.986,270.667 249.991 C 269.115 250.006,268.695 250.927,270.200 251.016 C 273.870 251.232,275.312 250.386,275.053 248.171 C 274.831 246.262,275.117 245.952,277.431 245.600 C 278.879 245.380,280.049 244.930,280.031 244.600 C 279.947 242.997,280.083 242.891,280.800 244.000 C 281.469 245.035,281.577 245.014,281.588 243.850 C 281.595 243.005,281.021 242.543,280.055 242.616 C 279.206 242.680,278.576 243.064,278.655 243.469 M106.124 251.565 C 105.863 252.244,104.901 252.800,103.984 252.800 C 102.839 252.800,101.956 253.668,101.159 255.574 C 99.820 258.779,99.534 261.976,100.759 260.038 C 101.164 259.399,101.342 258.630,101.156 258.329 C 100.970 258.027,101.263 257.797,101.809 257.816 C 105.788 257.960,106.229 257.625,106.587 254.200 C 106.979 250.454,106.844 249.688,106.124 251.565 M263.905 252.200 C 263.853 252.750,263.860 253.489,263.920 253.843 C 264.058 254.659,262.333 256.401,260.786 257.008 C 259.875 257.366,259.937 257.488,261.053 257.537 C 262.895 257.617,268.000 253.772,268.000 252.305 C 268.000 250.915,264.037 250.813,263.905 252.200 M154.400 259.502 C 154.400 261.583,153.269 262.814,150.800 263.421 C 149.531 263.733,149.636 263.834,151.302 263.907 C 154.119 264.032,158.886 261.972,159.503 260.364 C 160.398 258.033,160.037 257.600,157.200 257.600 C 154.785 257.600,154.400 257.862,154.400 259.502 M184.800 259.819 C 184.800 261.496,185.319 262.622,186.347 263.172 C 188.491 264.319,190.933 264.208,190.933 262.963 C 190.933 262.316,190.062 261.987,188.610 262.088 C 187.087 262.193,186.414 261.919,186.654 261.291 C 186.857 260.764,186.522 259.649,185.911 258.814 C 184.877 257.399,184.800 257.469,184.800 259.819 M256.863 260.500 C 256.828 260.995,255.630 261.977,254.200 262.682 L 251.600 263.964 254.225 263.982 C 256.879 264.000,258.145 262.635,257.339 260.626 C 257.092 260.014,256.901 259.963,256.863 260.500 M95.109 264.200 C 94.522 265.487,94.698 268.890,95.373 269.307 C 95.887 269.624,96.019 269.479,95.694 268.953 C 95.014 267.852,97.740 264.980,99.050 265.417 C 99.573 265.591,100.000 265.343,100.000 264.867 C 100.000 264.158,95.413 263.533,95.109 264.200 M196.929 266.738 C 197.078 268.024,197.700 269.241,198.311 269.442 C 199.087 269.697,199.215 269.475,198.734 268.704 C 198.355 268.097,197.972 267.117,197.883 266.527 C 197.546 264.306,196.671 264.500,196.929 266.738 M141.800 269.387 C 139.948 270.630,139.342 272.800,140.847 272.800 C 141.313 272.800,141.501 273.114,141.264 273.497 C 141.027 273.880,139.746 274.067,138.416 273.913 C 136.667 273.709,136.000 273.966,136.000 274.844 C 136.000 275.740,136.366 275.868,137.400 275.336 C 138.170 274.940,139.292 274.791,139.893 275.006 C 141.214 275.477,142.371 273.832,142.388 271.459 C 142.395 270.446,142.986 269.601,143.800 269.440 C 144.570 269.287,144.840 268.941,144.400 268.670 C 143.960 268.400,142.790 268.722,141.800 269.387 M246.820 268.768 C 246.071 269.980,246.610 270.476,248.958 270.734 C 250.344 270.886,250.857 270.545,250.857 269.471 C 250.857 267.830,249.984 267.531,249.147 268.885 C 248.756 269.518,248.429 269.494,248.000 268.800 C 247.544 268.063,247.260 268.055,246.820 268.768 M136.785 270.818 C 135.930 271.848,135.997 271.951,137.218 271.482 C 138.290 271.071,138.493 271.202,138.008 271.988 C 137.581 272.678,137.663 272.856,138.241 272.498 C 138.730 272.196,138.927 271.420,138.679 270.774 C 138.120 269.316,138.030 269.318,136.785 270.818 M203.200 272.611 C 203.200 274.846,203.508 275.185,205.955 275.644 C 208.146 276.055,208.776 276.594,209.035 278.281 C 209.329 280.196,209.372 280.155,209.480 277.854 C 209.594 275.426,207.561 273.661,205.341 274.261 C 204.978 274.359,204.856 274.157,205.070 273.811 C 205.283 273.465,204.950 272.488,204.329 271.638 C 203.269 270.189,203.200 270.248,203.200 272.611 M93.829 274.800 C 93.835 277.000,93.990 277.805,94.174 276.589 C 94.358 275.373,94.353 273.573,94.163 272.589 C 93.973 271.605,93.823 272.600,93.829 274.800 M210.580 283.212 C 212.223 287.240,215.200 287.988,215.200 284.374 C 215.200 282.694,214.806 281.596,214.200 281.589 C 213.650 281.583,212.370 281.356,211.355 281.084 C 209.557 280.603,209.537 280.658,210.580 283.212 M88.960 282.560 C 88.432 283.088,88.006 284.618,88.013 285.960 L 88.027 288.400 89.692 285.800 C 90.608 284.370,91.772 283.194,92.279 283.188 C 92.789 283.181,92.664 282.829,92.000 282.400 C 90.440 281.392,90.111 281.409,88.960 282.560 M251.324 292.800 C 251.492 295.647,252.767 297.521,252.822 295.000 C 252.833 294.450,253.924 295.260,255.245 296.800 L 257.647 299.600 257.423 297.200 C 257.285 295.710,256.798 294.883,256.141 295.020 C 255.558 295.141,255.319 294.855,255.609 294.385 C 256.327 293.224,253.858 289.600,252.349 289.600 C 251.435 289.600,251.182 290.390,251.324 292.800 M128.168 292.316 C 129.233 293.467,130.400 293.277,130.400 291.953 C 130.400 291.539,129.666 291.200,128.768 291.200 C 127.413 291.200,127.312 291.389,128.168 292.316 M215.414 300.039 C 215.434 303.959,215.631 304.492,217.108 304.603 C 218.445 304.704,218.542 304.579,217.590 303.977 C 216.935 303.563,216.760 303.213,217.200 303.200 C 217.640 303.187,217.460 302.827,216.800 302.400 C 216.140 301.973,215.973 301.619,216.429 301.612 C 216.884 301.606,217.257 300.906,217.257 300.059 C 217.257 299.211,217.000 298.676,216.686 298.871 C 216.372 299.065,215.952 298.408,215.753 297.412 C 215.554 296.415,215.401 297.597,215.414 300.039 M215.375 308.000 C 215.338 309.320,215.577 310.400,215.908 310.400 C 216.239 310.400,216.509 309.320,216.509 308.000 C 216.509 306.680,216.269 305.600,215.976 305.600 C 215.683 305.600,215.413 306.680,215.375 308.000 M256.308 309.422 C 255.817 309.740,255.163 310.810,254.854 311.800 C 254.545 312.790,253.866 313.606,253.346 313.612 C 252.771 313.620,252.871 313.961,253.600 314.482 C 254.564 315.170,254.446 315.261,253.000 314.944 C 251.553 314.627,251.200 314.900,251.200 316.336 C 251.200 318.626,255.587 318.267,256.868 315.872 C 257.959 313.835,257.508 308.646,256.308 309.422 M124.000 312.800 C 124.000 313.240,124.450 313.510,125.000 313.400 C 125.550 313.290,125.935 313.575,125.855 314.034 C 125.776 314.493,126.766 314.948,128.055 315.047 C 130.740 315.251,130.890 315.005,129.143 313.257 C 127.755 311.869,124.000 311.535,124.000 312.800 M129.143 317.600 C 129.143 318.480,129.426 319.200,129.771 319.200 C 130.117 319.200,130.400 318.480,130.400 317.600 C 130.400 316.720,130.117 316.000,129.771 316.000 C 129.426 316.000,129.143 316.720,129.143 317.600 M88.486 324.550 C 88.916 328.009,90.035 329.600,92.039 329.600 C 92.833 329.600,93.647 330.230,93.849 331.000 C 94.050 331.770,94.251 330.960,94.295 329.200 C 94.387 325.552,94.044 324.900,91.028 322.982 C 88.117 321.130,88.066 321.161,88.486 324.550 M211.763 324.883 C 212.396 325.516,213.064 325.523,214.123 324.907 C 215.418 324.155,215.309 324.046,213.240 324.024 C 211.519 324.007,211.119 324.239,211.763 324.883 M130.667 326.138 C 130.667 327.378,133.793 327.020,134.223 325.730 C 134.408 325.177,133.756 324.871,132.599 324.967 C 131.536 325.055,130.667 325.582,130.667 326.138 M133.852 327.800 C 133.578 328.570,133.227 329.438,133.073 329.730 C 132.919 330.021,133.424 330.169,134.196 330.057 C 134.968 329.946,135.715 329.078,135.856 328.128 C 136.161 326.064,134.562 325.803,133.852 327.800 M208.893 328.435 C 208.829 329.552,207.977 330.311,206.200 330.835 C 203.914 331.508,203.545 332.009,203.147 334.991 C 202.744 338.016,202.830 338.264,203.947 337.295 C 204.636 336.698,205.650 336.372,206.200 336.571 C 206.750 336.770,207.200 336.522,207.200 336.019 C 207.200 335.517,206.865 335.313,206.455 335.566 C 205.104 336.401,204.919 334.812,206.179 333.191 C 207.123 331.976,207.305 331.921,206.948 332.959 C 206.617 333.923,206.821 334.188,207.648 333.871 C 209.001 333.352,209.911 330.380,209.364 328.263 C 209.031 326.977,208.974 326.998,208.893 328.435 M93.802 335.600 C 93.811 337.360,93.974 337.986,94.166 336.991 C 94.357 335.996,94.350 334.556,94.150 333.791 C 93.949 333.026,93.793 333.840,93.802 335.600 M249.045 336.515 C 248.520 336.729,248.295 337.437,248.545 338.090 C 248.798 338.748,248.333 339.765,247.502 340.373 C 245.462 341.864,246.714 342.878,249.197 341.747 C 251.321 340.779,251.869 338.803,250.200 338.130 C 249.400 337.807,249.400 337.714,250.200 337.663 C 250.750 337.628,251.200 337.240,251.200 336.800 C 251.200 335.955,250.613 335.877,249.045 336.515 M141.600 337.535 C 142.260 337.997,142.561 338.381,142.269 338.388 C 140.437 338.430,143.125 342.735,145.047 342.838 C 149.165 343.058,147.011 338.503,142.400 337.242 C 140.872 336.824,140.683 336.894,141.600 337.535 M198.110 337.451 C 197.933 337.753,197.570 339.260,197.303 340.800 C 197.037 342.340,197.040 343.060,197.309 342.400 C 197.579 341.740,198.649 340.286,199.687 339.169 C 201.478 337.243,201.494 337.132,200.003 337.020 C 199.139 336.955,198.287 337.149,198.110 337.451 M191.200 343.600 C 191.200 344.260,191.521 344.800,191.914 344.800 C 192.307 344.800,192.836 344.260,193.089 343.600 C 193.370 342.869,193.091 342.400,192.375 342.400 C 191.729 342.400,191.200 342.940,191.200 343.600 M244.863 345.826 C 244.798 347.302,241.881 348.849,240.298 348.247 C 239.256 347.851,238.397 352.300,239.249 353.679 C 241.352 357.082,246.930 349.214,245.259 345.200 C 245.076 344.760,244.898 345.042,244.863 345.826 M237.539 357.000 C 236.971 358.854,237.109 360.030,237.864 359.779 C 239.073 359.377,239.587 356.800,238.459 356.800 C 237.986 356.800,237.572 356.890,237.539 357.000 M106.412 358.208 C 106.438 359.459,107.856 360.981,108.726 360.691 C 109.277 360.508,108.997 359.840,108.019 359.002 C 107.128 358.239,106.406 357.882,106.412 358.208 M232.600 362.062 C 232.270 362.394,232.011 363.597,232.024 364.733 C 232.046 366.546,232.150 366.625,232.878 365.375 C 233.789 363.810,233.561 361.092,232.600 362.062 M229.786 364.800 C 228.952 366.134,228.987 366.400,229.993 366.400 C 230.667 366.400,231.200 365.693,231.200 364.800 C 231.200 363.920,231.107 363.200,230.992 363.200 C 230.878 363.200,230.335 363.920,229.786 364.800 M225.840 368.506 C 226.375 369.041,223.627 371.447,221.600 372.217 C 220.940 372.468,221.498 372.702,222.840 372.737 C 224.182 372.772,225.712 372.368,226.240 371.840 C 227.469 370.611,227.487 368.000,226.267 368.000 C 225.753 368.000,225.561 368.228,225.840 368.506 M118.400 371.242 C 118.400 372.216,120.389 373.070,121.664 372.645 C 122.169 372.477,121.641 371.911,120.491 371.387 C 119.179 370.789,118.400 370.735,118.400 371.242 M124.800 375.153 C 124.800 377.667,124.970 377.772,129.365 377.965 C 131.373 378.054,131.744 377.855,131.074 377.048 C 130.604 376.481,129.809 376.274,129.309 376.586 C 127.923 377.453,126.454 377.535,125.982 376.771 C 125.748 376.393,126.258 376.219,127.115 376.384 C 127.978 376.550,128.876 376.155,129.128 375.500 C 129.383 374.834,129.236 374.531,128.791 374.806 C 128.356 375.074,128.000 374.733,128.000 374.047 C 128.000 373.361,127.619 372.800,127.153 372.800 C 126.687 372.800,126.513 373.135,126.766 373.545 C 127.019 373.954,126.805 374.550,126.289 374.868 C 125.726 375.217,125.566 375.101,125.889 374.579 C 126.185 374.101,126.060 373.484,125.613 373.208 C 125.130 372.910,124.800 373.699,124.800 375.153 M214.282 375.562 C 213.192 377.965,213.702 379.098,215.200 377.600 C 215.420 377.380,216.320 376.801,217.200 376.314 C 219.597 374.988,219.737 372.800,217.425 372.800 C 216.043 372.800,215.196 373.544,214.282 375.562 M136.863 380.572 C 136.790 383.554,138.470 384.803,142.547 384.795 L 145.200 384.789 142.805 383.211 C 140.570 381.738,140.373 381.725,139.861 383.016 C 139.245 384.569,138.883 383.252,139.173 380.513 C 139.259 379.694,138.972 379.247,138.533 379.518 C 138.095 379.788,137.554 379.558,137.331 379.005 C 137.109 378.452,136.898 379.157,136.863 380.572 M202.601 378.868 C 203.327 379.594,201.537 384.055,200.722 383.552 C 200.325 383.306,200.000 383.529,200.000 384.046 C 200.000 384.631,200.681 384.804,201.800 384.504 C 202.790 384.239,204.024 384.017,204.543 384.011 C 206.009 383.994,208.000 381.652,208.000 379.943 C 208.000 378.700,207.430 378.400,205.067 378.400 C 203.453 378.400,202.344 378.611,202.601 378.868 " stroke="none" fill="#ff0000" fill-rule="evenodd"></path></g></svg>