<svg id="svg" version="1.1" width="500" height="500" xmlns="http://www.w3.org/2000/svg" xmlns:xlink="http://www.w3.org/1999/xlink" style="display: block;"><g id="svgg"><path id="path0" d="" stroke="none" fill="#000000" fill-rule="evenodd"></path><path id="path1" d="M116.800 348.800 C 116.800 349.876,117.333 350.400,118.428 350.400 C 119.808 350.400,119.926 350.156,119.200 348.800 C 118.729 347.920,117.996 347.200,117.572 347.200 C 117.147 347.200,116.800 347.920,116.800 348.800 " stroke="none" fill="#ffffff" fill-rule="evenodd"></path><path id="path2" d="M170.839 31.957 C 170.067 32.810,169.624 33.978,169.855 34.554 C 170.113 35.198,170.298 35.024,170.337 34.102 C 170.386 32.928,170.636 32.800,171.494 33.512 C 172.321 34.199,172.811 34.151,173.504 33.316 C 175.126 31.362,172.562 30.053,170.839 31.957 M26.412 84.553 C 26.391 86.217,28.106 86.636,29.448 85.295 C 30.181 84.561,30.350 84.000,29.838 84.000 C 29.340 84.000,28.751 84.450,28.528 85.000 C 28.222 85.753,27.912 85.703,27.273 84.800 C 26.751 84.061,26.420 83.966,26.412 84.553 M372.452 84.716 C 372.208 85.110,372.570 85.648,373.255 85.911 C 373.941 86.174,374.314 86.691,374.086 87.061 C 373.857 87.431,374.195 87.733,374.835 87.733 C 376.347 87.733,376.314 86.828,374.743 85.257 C 373.286 83.801,373.052 83.745,372.452 84.716 M24.800 87.139 C 25.867 87.904,25.867 88.096,24.800 88.861 C 23.733 89.626,23.733 89.685,24.800 89.394 C 25.460 89.214,26.000 88.587,26.000 88.000 C 26.000 87.413,25.460 86.786,24.800 86.606 C 23.733 86.315,23.733 86.374,24.800 87.139 M10.767 111.253 C 10.477 111.722,10.432 112.299,10.667 112.533 C 11.240 113.106,12.800 112.097,12.800 111.153 C 12.800 110.130,11.419 110.199,10.767 111.253 M6.412 124.553 C 6.391 126.217,8.106 126.636,9.448 125.295 C 10.181 124.561,10.350 124.000,9.838 124.000 C 9.340 124.000,8.751 124.450,8.528 125.000 C 8.222 125.753,7.912 125.703,7.273 124.800 C 6.751 124.061,6.420 123.966,6.412 124.553 M4.800 127.139 C 5.867 127.904,5.867 128.096,4.800 128.861 C 3.733 129.626,3.733 129.685,4.800 129.394 C 5.460 129.214,6.000 128.587,6.000 128.000 C 6.000 127.413,5.460 126.786,4.800 126.606 C 3.733 126.315,3.733 126.374,4.800 127.139 M388.826 286.733 C 388.422 287.796,387.440 288.834,386.645 289.040 C 385.474 289.344,385.532 289.432,386.953 289.507 C 388.840 289.607,389.515 288.919,389.999 286.403 C 390.425 284.191,389.716 284.390,388.826 286.733 M381.400 301.733 C 380.215 302.974,380.189 303.200,381.225 303.200 C 381.899 303.200,382.663 302.644,382.924 301.965 C 383.618 300.157,382.995 300.062,381.400 301.733 M38.400 330.697 C 38.400 331.245,38.967 332.393,39.659 333.247 C 40.352 334.101,40.691 334.350,40.412 333.800 C 40.134 333.250,40.287 332.800,40.753 332.800 C 41.219 332.800,41.600 333.361,41.600 334.047 C 41.600 334.733,41.929 335.091,42.332 334.842 C 42.734 334.594,43.246 334.842,43.469 335.395 C 43.703 335.976,43.900 335.780,43.937 334.931 C 43.976 334.009,43.126 333.131,41.657 332.577 C 39.706 331.840,39.514 331.547,40.508 330.820 C 41.515 330.083,41.445 329.929,40.050 329.824 C 39.143 329.755,38.400 330.148,38.400 330.697 M357.480 333.629 C 354.793 336.973,353.944 339.200,355.356 339.200 C 355.805 339.200,355.960 338.650,355.702 337.978 C 355.393 337.173,356.096 336.232,357.762 335.218 C 359.153 334.373,360.345 332.942,360.412 332.040 C 360.573 329.848,360.477 329.900,357.480 333.629 M346.600 346.727 C 343.668 349.820,344.983 351.017,348.000 348.000 C 349.611 346.389,350.113 344.788,349.000 344.814 C 348.670 344.821,347.590 345.682,346.600 346.727 M333.484 357.612 C 330.582 360.112,330.338 360.537,331.873 360.424 C 332.957 360.344,334.296 359.278,335.218 357.762 C 336.232 356.096,337.173 355.393,337.978 355.702 C 338.650 355.960,339.200 355.833,339.200 355.419 C 339.200 353.846,336.778 354.776,333.484 357.612 M65.200 357.600 C 64.928 358.040,65.267 358.400,65.953 358.400 C 66.639 358.400,67.200 358.781,67.200 359.247 C 67.200 359.713,66.750 359.866,66.200 359.588 C 65.650 359.309,65.905 359.653,66.768 360.351 C 68.675 361.897,69.787 361.630,70.079 359.557 C 70.287 358.085,70.241 358.078,69.242 359.426 C 68.260 360.752,68.151 360.710,67.678 358.826 C 67.153 356.736,66.066 356.198,65.200 357.600 M147.410 359.867 C 147.471 360.673,147.969 361.333,148.517 361.333 C 149.235 361.333,149.295 360.924,148.729 359.867 C 148.297 359.060,147.799 358.400,147.622 358.400 C 147.444 358.400,147.349 359.060,147.410 359.867 M226.998 367.229 C 225.786 368.480,225.132 369.710,225.542 369.964 C 225.953 370.218,226.519 370.054,226.800 369.600 C 227.081 369.146,227.621 368.966,228.000 369.200 C 228.379 369.434,228.950 369.205,229.268 368.689 C 229.652 368.068,229.469 367.949,228.724 368.336 C 228.106 368.656,228.301 368.351,229.157 367.656 C 230.120 366.876,230.425 366.120,229.957 365.675 C 229.499 365.240,228.330 365.855,226.998 367.229 M301.400 381.733 C 300.215 382.974,300.189 383.200,301.225 383.200 C 301.899 383.200,302.663 382.644,302.924 381.965 C 303.618 380.157,302.995 380.062,301.400 381.733 M273.277 393.475 C 273.000 393.923,273.164 394.530,273.640 394.825 C 274.870 395.585,275.664 394.544,274.637 393.517 C 274.062 392.942,273.615 392.929,273.277 393.475 " stroke="none" fill="#aa0000" fill-rule="evenodd"></path><path id="path3" d="M150.400 1.600 C 150.400 2.480,149.950 3.228,149.400 3.263 C 148.850 3.298,145.520 3.467,142.000 3.638 C 138.480 3.809,134.880 4.113,134.000 4.314 C 133.120 4.514,132.019 4.705,131.554 4.739 C 131.089 4.772,130.783 5.881,130.875 7.202 C 131.089 10.298,131.002 10.336,123.311 10.475 C 119.730 10.540,116.800 10.910,116.800 11.297 C 116.800 11.684,116.530 11.910,116.200 11.800 C 115.418 11.539,111.539 15.418,111.800 16.200 C 111.910 16.530,111.370 16.846,110.600 16.903 C 101.020 17.609,98.400 18.447,98.400 20.805 C 98.400 22.632,97.973 23.085,95.852 23.510 C 94.451 23.790,92.589 24.645,91.715 25.410 C 90.840 26.174,90.351 26.410,90.627 25.933 C 90.904 25.457,90.625 25.067,90.009 25.067 C 89.393 25.067,88.959 25.284,89.044 25.549 C 89.513 27.001,85.480 30.510,83.271 30.573 C 81.873 30.613,81.064 30.980,81.351 31.445 C 81.631 31.897,81.447 32.000,80.930 31.680 C 79.990 31.099,77.040 32.322,77.400 33.144 C 78.545 35.756,76.397 37.659,72.000 37.927 C 71.340 37.967,70.902 38.487,71.028 39.083 C 71.535 41.499,70.205 43.191,67.152 44.013 C 63.987 44.865,63.700 45.279,63.969 48.600 C 64.089 50.089,63.690 50.417,61.657 50.500 C 57.815 50.656,57.588 50.726,56.783 52.000 C 56.366 52.660,55.996 52.840,55.962 52.400 C 55.927 51.960,55.573 52.410,55.175 53.400 C 54.777 54.390,53.879 55.200,53.179 55.200 C 52.478 55.200,52.105 55.522,52.348 55.916 C 52.592 56.310,52.250 56.840,51.588 57.094 C 50.926 57.348,50.431 57.835,50.487 58.178 C 51.079 61.785,50.300 63.848,48.422 63.642 C 46.153 63.393,44.360 65.058,43.595 68.124 C 43.190 69.747,42.422 70.368,40.332 70.760 C 37.657 71.262,37.243 71.970,37.385 75.800 C 37.406 76.350,36.742 76.800,35.911 76.800 C 35.080 76.800,34.400 77.149,34.400 77.575 C 34.400 78.001,33.860 78.143,33.200 77.889 C 32.540 77.636,31.955 77.827,31.900 78.314 C 31.667 80.381,31.571 80.696,31.000 81.267 C 30.670 81.597,30.400 82.459,30.400 83.184 C 30.400 83.908,29.320 85.535,28.000 86.800 C 26.680 88.065,25.600 89.593,25.600 90.197 C 25.600 90.801,25.240 91.072,24.800 90.800 C 24.354 90.524,23.956 91.210,23.900 92.353 C 23.787 94.672,23.698 95.067,22.865 96.949 C 22.536 97.692,21.767 98.107,21.154 97.872 C 19.678 97.305,17.324 99.726,17.897 101.221 C 18.146 101.869,17.978 102.400,17.525 102.400 C 17.071 102.400,16.764 103.030,16.842 103.800 C 17.181 107.134,16.734 110.400,15.938 110.400 C 13.269 110.400,10.613 114.885,10.572 119.462 C 10.535 123.595,10.238 124.386,7.638 127.263 C 6.047 129.024,4.959 130.810,5.220 131.232 C 5.481 131.655,5.337 132.000,4.901 132.000 C 4.022 132.000,3.918 133.113,3.817 143.665 C 3.748 150.837,3.723 150.925,1.874 150.572 L -0.000 150.213 -0.000 199.907 C -0.000 249.067,0.017 249.600,1.600 249.600 C 2.941 249.600,3.208 250.150,3.251 253.000 C 3.280 254.870,3.503 258.560,3.747 261.200 C 3.991 263.840,4.189 267.027,4.186 268.282 C 4.181 270.382,4.368 270.526,6.537 270.093 C 8.622 269.676,8.756 269.758,7.704 270.811 C 7.049 271.465,6.129 272.000,5.657 272.000 C 5.186 272.000,4.800 272.384,4.800 272.854 C 4.800 273.324,5.460 273.498,6.266 273.243 C 8.859 272.419,10.337 275.162,10.639 281.357 C 10.934 287.422,12.124 289.600,15.143 289.600 C 16.725 289.600,17.317 291.459,16.862 294.992 C 16.639 296.720,18.430 302.396,19.231 302.500 C 19.654 302.555,20.360 302.690,20.800 302.800 C 21.240 302.910,22.061 303.045,22.626 303.100 C 23.516 303.187,23.962 304.740,24.204 308.600 C 24.238 309.150,24.837 309.606,25.533 309.612 C 26.534 309.622,26.575 309.767,25.732 310.302 C 24.441 311.120,24.614 312.046,26.321 313.459 C 27.056 314.068,27.122 314.271,26.476 313.936 C 25.776 313.572,25.551 313.674,25.880 314.206 C 26.170 314.675,27.305 314.960,28.403 314.839 C 30.054 314.658,30.421 314.982,30.522 316.710 C 30.589 317.860,30.727 319.160,30.830 319.600 C 30.932 320.040,31.057 320.871,31.108 321.447 C 31.158 322.023,31.535 322.287,31.945 322.034 C 32.354 321.781,32.916 321.940,33.192 322.387 C 33.468 322.834,34.393 323.200,35.247 323.200 C 36.405 323.200,36.803 323.760,36.812 325.400 C 36.828 328.272,37.759 329.651,39.784 329.804 C 40.714 329.874,41.262 330.350,41.050 330.902 C 40.844 331.439,41.424 332.278,42.338 332.767 C 43.252 333.256,44.000 334.364,44.000 335.228 C 44.000 336.093,44.434 336.710,44.964 336.600 C 45.494 336.490,45.989 336.850,46.064 337.400 C 46.139 337.950,46.245 338.681,46.300 339.025 C 46.355 339.368,47.513 340.069,48.873 340.583 C 50.256 341.105,51.117 341.887,50.826 342.358 C 50.540 342.821,50.708 343.200,51.200 343.200 C 51.692 343.200,51.850 343.596,51.551 344.080 C 51.191 344.662,51.613 344.635,52.800 344.000 C 53.820 343.454,54.373 343.396,54.083 343.865 C 53.803 344.318,53.940 344.916,54.387 345.192 C 54.834 345.468,55.200 346.414,55.200 347.294 C 55.200 348.174,55.560 348.672,56.000 348.400 C 56.440 348.128,56.800 348.287,56.800 348.753 C 56.800 349.219,57.327 349.600,57.971 349.600 C 58.615 349.600,60.055 350.944,61.171 352.586 C 62.287 354.228,63.211 355.218,63.224 354.786 C 63.238 354.354,63.616 354.630,64.064 355.400 C 64.513 356.170,65.363 356.800,65.954 356.800 C 66.545 356.800,67.250 357.377,67.521 358.083 C 67.811 358.839,68.521 359.171,69.248 358.892 C 69.927 358.632,70.316 358.689,70.112 359.019 C 69.667 359.739,71.670 363.686,72.335 363.400 C 75.286 362.131,78.332 364.619,77.722 367.800 C 77.543 368.733,78.632 369.173,80.330 368.851 C 82.212 368.495,85.467 370.615,85.196 372.021 C 84.865 373.738,86.729 375.585,88.000 374.800 C 88.479 374.504,89.375 374.682,89.993 375.194 C 90.611 375.707,92.305 376.312,93.758 376.538 C 96.290 376.933,97.735 378.319,98.116 380.720 C 98.415 382.604,100.173 383.175,105.714 383.188 C 109.692 383.197,111.145 383.502,111.489 384.400 C 111.743 385.060,111.575 385.600,111.118 385.600 C 110.660 385.600,110.826 386.140,111.486 386.800 C 112.146 387.460,113.161 388.006,113.743 388.012 C 114.528 388.021,114.491 388.234,113.600 388.839 C 112.723 389.434,113.584 389.628,116.800 389.559 C 124.257 389.398,125.725 389.551,125.178 390.435 C 124.595 391.378,127.074 395.593,127.790 394.876 C 128.045 394.622,128.732 394.811,129.317 395.297 C 130.243 396.066,138.679 396.730,148.200 396.783 C 150.661 396.797,151.200 397.087,151.200 398.400 C 151.200 399.983,151.733 400.000,200.400 400.000 C 249.067 400.000,249.600 399.983,249.600 398.400 C 249.600 397.423,250.145 396.786,251.000 396.764 C 262.778 396.463,268.830 395.968,270.800 395.145 C 272.120 394.593,273.497 394.209,273.859 394.291 C 274.222 394.373,274.306 394.096,274.046 393.675 C 273.787 393.255,273.964 392.669,274.441 392.374 C 274.919 392.079,275.116 391.335,274.880 390.719 C 274.470 389.651,279.176 389.064,285.418 389.407 C 286.418 389.461,287.052 389.208,286.827 388.844 C 286.273 387.947,288.394 386.260,289.139 387.005 C 289.464 387.331,289.482 386.607,289.178 385.398 L 288.627 383.200 293.380 383.200 C 295.994 383.200,298.399 382.935,298.723 382.610 C 299.048 382.286,299.918 382.016,300.656 382.010 C 301.395 382.005,302.035 381.460,302.077 380.800 C 302.260 377.970,303.417 376.949,307.054 376.408 C 309.114 376.101,311.250 375.480,311.800 375.027 C 312.350 374.574,312.800 374.442,312.800 374.734 C 312.800 375.025,313.302 374.799,313.916 374.232 C 314.530 373.664,314.884 372.955,314.703 372.655 C 314.522 372.356,314.746 371.881,315.200 371.600 C 315.654 371.319,315.819 370.754,315.566 370.345 C 315.123 369.629,316.822 369.249,319.080 369.559 C 319.775 369.654,319.934 369.331,319.527 368.654 C 319.003 367.783,319.118 367.782,320.191 368.652 C 321.306 369.555,324.138 366.987,323.335 365.800 C 322.377 364.382,323.588 363.200,326.000 363.200 C 327.540 363.200,328.800 362.852,328.800 362.428 C 328.800 361.408,333.326 356.800,334.328 356.800 C 334.758 356.800,335.641 356.041,336.291 355.113 C 337.053 354.025,337.850 353.654,338.536 354.067 C 339.379 354.574,339.372 354.426,338.502 353.354 C 337.367 351.954,337.674 351.726,340.400 351.944 C 341.632 352.042,341.746 351.900,340.894 351.323 C 340.014 350.728,340.137 350.464,341.494 350.034 C 342.432 349.736,343.200 349.156,343.200 348.746 C 343.200 348.336,343.560 348.000,344.000 348.000 C 344.993 348.000,348.000 345.057,348.000 344.086 C 348.000 343.693,348.540 343.164,349.200 342.911 C 349.860 342.657,350.406 341.809,350.412 341.025 C 350.423 339.804,350.542 339.771,351.248 340.800 C 351.933 341.798,352.050 341.730,351.944 340.400 C 351.726 337.674,351.954 337.367,353.354 338.502 C 354.426 339.372,354.574 339.379,354.067 338.536 C 353.654 337.850,354.025 337.053,355.113 336.291 C 356.041 335.641,356.800 334.758,356.800 334.328 C 356.800 333.326,361.408 328.800,362.428 328.800 C 362.852 328.800,363.200 327.540,363.200 326.000 C 363.200 324.044,363.562 323.200,364.400 323.200 C 365.060 323.200,365.600 322.824,365.600 322.365 C 365.600 321.906,366.050 321.588,366.600 321.660 C 369.170 321.994,369.777 321.549,369.405 319.605 C 369.189 318.476,369.492 317.222,370.103 316.714 C 370.697 316.222,370.951 315.444,370.668 314.986 C 370.362 314.491,370.542 314.393,371.111 314.745 C 372.198 315.417,374.084 314.085,375.323 311.769 C 375.946 310.607,375.919 310.355,375.221 310.787 C 374.522 311.219,374.498 310.988,375.128 309.884 C 375.593 309.068,376.264 307.174,376.619 305.675 C 377.101 303.635,377.753 302.875,379.214 302.652 C 382.426 302.162,383.024 300.761,383.141 293.464 C 383.196 289.964,383.355 289.693,385.648 289.189 C 388.806 288.496,389.906 285.459,390.352 276.200 C 390.378 275.650,391.109 275.200,391.975 275.200 C 393.119 275.200,393.409 274.834,393.036 273.861 C 392.647 272.847,392.847 272.647,393.861 273.036 C 394.857 273.418,395.216 273.095,395.261 271.775 C 395.295 270.799,395.511 269.280,395.741 268.400 C 396.260 266.419,396.698 260.283,396.756 254.200 C 396.795 250.148,396.991 249.600,398.400 249.600 C 399.983 249.600,400.000 249.067,400.000 200.000 C 400.000 150.933,399.983 150.400,398.400 150.400 C 397.284 150.400,396.790 149.855,396.766 148.600 C 396.701 145.147,396.239 133.190,396.120 131.864 C 396.049 131.075,395.015 130.311,393.600 130.000 C 391.104 129.452,390.539 128.503,392.124 127.524 C 392.632 127.210,392.838 127.291,392.582 127.705 C 392.327 128.119,392.797 128.457,393.628 128.457 C 395.026 128.457,395.042 128.351,393.847 127.031 C 392.999 126.094,392.246 125.864,391.650 126.359 C 391.037 126.867,390.710 126.671,390.640 125.756 C 390.584 125.010,390.280 122.600,389.965 120.400 C 389.650 118.200,389.379 115.901,389.363 115.290 C 389.346 114.680,388.673 114.008,387.867 113.797 C 387.060 113.586,386.400 113.074,386.400 112.659 C 386.400 112.245,386.760 112.128,387.200 112.400 C 387.640 112.672,388.000 112.555,388.000 112.141 C 388.000 111.726,387.280 111.198,386.399 110.968 C 385.518 110.738,385.000 110.876,385.246 111.275 C 385.493 111.674,385.334 112.000,384.894 112.000 C 383.607 112.000,383.306 110.988,383.100 105.953 C 382.913 101.384,381.556 97.111,380.597 98.070 C 379.837 98.830,376.800 96.833,376.800 95.572 C 376.800 94.927,376.451 94.400,376.025 94.400 C 375.599 94.400,375.459 93.855,375.715 93.190 C 375.970 92.524,375.748 91.460,375.221 90.825 C 374.694 90.190,374.494 89.294,374.778 88.835 C 375.062 88.376,374.913 88.000,374.447 88.000 C 373.981 88.000,373.690 87.559,373.800 87.019 C 373.910 86.479,373.197 85.915,372.216 85.765 C 370.896 85.564,370.185 84.623,369.481 82.146 C 368.291 77.957,368.023 77.650,365.365 77.430 C 363.633 77.287,363.198 76.846,363.188 75.226 C 363.170 72.336,362.052 70.941,359.474 70.596 C 356.754 70.232,356.987 70.461,356.478 67.651 C 355.962 64.806,355.054 63.843,352.653 63.595 C 351.634 63.490,350.506 63.358,350.146 63.302 C 349.786 63.246,349.705 62.531,349.964 61.713 C 350.575 59.787,349.723 57.600,348.362 57.600 C 347.775 57.600,347.038 57.184,346.724 56.676 C 346.370 56.104,346.504 55.970,347.076 56.324 C 347.624 56.662,348.000 56.386,348.000 55.647 C 348.000 54.798,347.243 54.400,345.625 54.400 C 343.705 54.400,343.346 54.132,343.753 53.000 C 344.029 52.230,343.975 51.853,343.632 52.162 C 343.290 52.471,342.487 52.201,341.848 51.562 C 341.209 50.923,339.811 50.400,338.743 50.400 C 336.998 50.400,336.405 49.630,336.716 47.768 C 336.999 46.073,334.893 44.015,332.397 43.547 C 330.866 43.260,329.793 42.734,330.013 42.379 C 331.177 40.496,328.754 37.611,325.581 37.104 C 323.365 36.750,322.441 36.247,322.712 35.542 C 323.424 33.684,320.104 30.343,318.057 30.857 C 316.940 31.137,315.744 30.829,314.979 30.065 C 314.042 29.128,313.628 29.063,313.327 29.807 C 313.035 30.531,312.909 30.542,312.863 29.847 C 312.828 29.323,313.163 28.670,313.606 28.396 C 314.101 28.090,313.919 27.404,313.134 26.619 C 312.117 25.602,311.724 25.553,311.215 26.376 C 310.735 27.152,310.453 27.028,310.088 25.877 C 309.820 25.033,308.881 24.282,308.000 24.207 C 307.120 24.133,305.507 24.010,304.415 23.936 C 303.323 23.861,302.634 23.469,302.883 23.065 C 303.133 22.661,302.903 21.806,302.371 21.165 C 301.839 20.524,301.642 20.000,301.934 20.000 C 303.018 20.000,300.492 17.938,299.271 17.826 C 293.657 17.312,289.185 16.245,289.100 15.400 C 289.045 14.850,288.912 14.130,288.805 13.800 C 288.698 13.470,288.649 12.943,288.696 12.629 C 288.742 12.315,288.247 12.262,287.595 12.513 C 286.943 12.763,286.640 13.380,286.922 13.884 C 287.205 14.389,286.936 14.336,286.324 13.767 C 285.378 12.887,285.390 12.621,286.407 11.979 C 287.300 11.414,286.897 11.187,284.800 11.075 C 283.260 10.993,281.460 10.846,280.800 10.748 C 280.140 10.650,277.395 10.532,274.700 10.485 C 269.927 10.402,269.800 10.344,269.800 8.233 C 269.800 7.042,269.393 5.931,268.895 5.765 C 268.397 5.599,268.185 5.148,268.424 4.762 C 268.662 4.376,267.854 4.080,266.629 4.104 C 265.403 4.128,261.520 3.962,258.000 3.735 C 254.480 3.507,250.970 3.294,250.200 3.261 C 249.354 3.224,248.800 2.567,248.800 1.600 C 248.800 0.017,248.267 0.000,199.600 0.000 C 150.933 0.000,150.400 0.017,150.400 1.600 M90.400 27.657 C 90.400 27.909,89.903 28.611,89.295 29.219 C 87.907 30.607,86.958 29.815,88.248 28.345 C 89.230 27.226,90.400 26.852,90.400 27.657 M232.000 30.478 C 233.016 31.217,232.985 31.282,231.800 30.901 C 231.030 30.653,230.400 30.769,230.400 31.160 C 230.400 32.594,231.394 34.400,232.184 34.400 C 232.630 34.400,232.502 33.770,231.898 33.000 C 230.911 31.742,230.937 31.707,232.152 32.658 C 232.896 33.241,233.336 34.156,233.130 34.693 C 232.885 35.332,233.754 35.737,235.643 35.864 C 237.638 35.999,238.357 35.777,237.967 35.146 C 237.657 34.645,238.257 34.770,239.302 35.425 C 240.681 36.290,243.321 36.586,248.964 36.508 L 256.727 36.400 257.234 39.400 C 257.513 41.050,257.799 42.417,257.870 42.437 C 257.942 42.458,260.340 42.656,263.200 42.878 C 271.470 43.519,271.842 43.665,271.378 46.092 C 271.077 47.668,271.258 48.105,272.087 47.804 C 272.699 47.582,273.101 46.968,272.980 46.441 C 272.859 45.913,273.147 45.720,273.619 46.012 C 274.228 46.388,274.223 46.850,273.600 47.600 C 272.384 49.066,273.271 49.394,278.753 49.504 C 283.580 49.601,284.853 50.333,284.292 52.689 C 283.603 55.580,285.192 56.126,296.071 56.729 C 296.974 56.780,297.301 57.507,297.198 59.239 C 297.037 61.944,298.543 63.200,301.947 63.200 C 303.879 63.200,304.573 64.591,304.075 67.459 C 304.012 67.822,304.329 67.891,304.780 67.612 C 305.231 67.334,305.600 67.667,305.600 68.353 C 305.600 69.205,306.360 69.600,308.000 69.600 C 309.320 69.600,310.400 69.981,310.400 70.447 C 310.400 70.913,310.850 71.024,311.400 70.694 C 312.156 70.239,312.188 70.374,311.530 71.246 C 310.898 72.085,310.928 72.911,311.640 74.272 C 312.228 75.397,312.751 75.747,312.950 75.149 C 313.416 73.751,317.592 76.558,317.625 78.292 C 317.664 80.290,319.362 82.076,321.800 82.683 C 323.492 83.104,324.000 83.708,324.000 85.301 C 324.000 86.729,324.341 87.240,325.101 86.949 C 325.781 86.688,326.163 87.036,326.101 87.863 C 326.030 88.801,326.669 89.224,328.241 89.281 C 329.474 89.326,330.914 89.829,331.441 90.399 C 332.190 91.207,332.181 91.311,331.400 90.870 C 330.150 90.164,330.123 91.317,331.328 93.962 C 331.902 95.222,332.911 96.000,333.968 96.000 C 336.056 96.000,337.617 97.425,337.076 98.835 C 336.362 100.695,338.238 103.000,340.466 103.000 C 342.679 103.000,344.056 104.362,343.905 106.400 C 343.424 112.876,344.880 116.000,348.380 116.000 C 350.229 116.000,350.863 118.184,351.229 125.817 C 351.266 126.597,351.659 127.011,352.102 126.737 C 352.545 126.463,353.105 126.995,353.347 127.920 C 353.589 128.844,354.126 129.600,354.541 129.600 C 354.955 129.600,355.042 129.150,354.735 128.600 C 354.427 128.050,354.797 128.185,355.558 128.899 C 356.489 129.774,356.953 131.473,356.978 134.099 C 356.998 136.245,357.227 138.360,357.486 138.800 C 357.746 139.240,357.967 140.140,357.979 140.800 C 357.990 141.460,359.148 142.338,360.551 142.752 C 363.591 143.647,363.809 144.385,363.930 154.175 C 363.980 158.232,364.367 162.462,364.791 163.575 C 365.214 164.689,365.345 165.600,365.082 165.600 C 364.819 165.600,365.049 166.136,365.593 166.791 C 366.136 167.446,366.901 167.785,367.291 167.544 C 367.681 167.303,368.000 167.487,368.000 167.953 C 368.000 168.419,368.540 168.800,369.200 168.800 C 370.217 168.800,370.408 170.845,370.450 182.200 C 370.626 228.796,370.480 234.285,369.114 232.418 C 368.136 231.080,367.664 231.272,367.878 232.918 C 367.915 233.203,367.288 233.264,366.485 233.054 C 364.624 232.567,363.240 239.024,364.969 240.121 C 365.810 240.655,365.810 240.778,364.968 240.788 C 364.299 240.796,363.957 241.857,363.997 243.800 C 364.194 253.319,362.888 258.490,360.638 257.100 C 360.287 256.883,360.000 257.108,360.000 257.600 C 360.000 258.092,359.666 258.288,359.258 258.036 C 358.849 257.783,358.237 258.392,357.897 259.388 C 357.012 261.980,357.010 261.996,356.900 266.420 C 356.815 269.826,356.520 270.546,354.967 271.136 C 352.121 272.219,351.165 273.891,350.742 278.523 C 350.211 284.345,349.992 284.765,347.694 284.348 C 345.483 283.947,344.487 284.999,344.234 288.000 C 344.141 289.100,343.937 291.620,343.781 293.600 C 343.537 296.699,343.251 297.200,341.724 297.200 C 340.749 297.200,339.651 297.681,339.286 298.268 C 338.920 298.856,338.301 299.295,337.911 299.243 C 337.520 299.192,337.081 300.116,336.935 301.297 C 336.617 303.871,334.722 306.139,334.181 304.593 C 333.553 302.796,330.236 306.518,330.630 308.578 C 330.887 309.922,330.605 310.400,329.554 310.400 C 326.991 310.400,325.600 311.341,325.588 313.086 C 325.578 314.486,325.433 314.580,324.800 313.600 C 324.212 312.689,324.022 313.027,324.012 315.000 C 324.003 317.063,323.669 317.600,322.400 317.600 C 321.520 317.600,320.772 318.050,320.737 318.600 C 320.688 319.371,320.583 319.376,320.278 318.623 C 319.966 317.855,319.658 317.855,318.830 318.623 C 318.061 319.337,318.023 319.758,318.689 320.188 C 319.345 320.611,319.320 320.779,318.600 320.788 C 318.050 320.794,317.600 321.520,317.600 322.400 C 317.600 323.433,317.033 324.035,316.000 324.100 C 315.120 324.155,314.040 324.290,313.600 324.400 C 313.160 324.510,312.419 324.645,311.953 324.700 C 311.487 324.755,311.313 325.135,311.566 325.545 C 311.819 325.954,311.654 326.519,311.200 326.800 C 310.746 327.081,310.536 327.573,310.734 327.893 C 310.932 328.214,310.848 328.819,310.547 329.238 C 309.752 330.346,306.134 332.278,306.763 331.259 C 307.056 330.787,306.974 330.400,306.582 330.400 C 305.741 330.400,304.188 333.333,303.830 335.600 C 303.646 336.760,302.920 337.225,301.188 337.290 C 297.234 337.440,297.062 337.532,297.215 339.400 C 297.474 342.561,296.780 343.075,291.496 343.641 C 285.873 344.243,284.000 345.446,284.000 348.457 C 284.000 349.750,283.531 350.421,282.600 350.464 C 281.830 350.499,279.528 350.589,277.484 350.664 C 273.294 350.817,270.348 352.852,270.814 355.270 C 271.074 356.622,270.577 356.814,266.554 356.918 C 259.853 357.093,259.401 357.144,258.739 357.800 C 258.406 358.130,257.499 358.400,256.724 358.400 C 255.079 358.400,252.600 360.630,253.188 361.581 C 253.996 362.889,248.418 363.746,235.874 364.241 C 234.183 364.308,232.800 364.641,232.800 364.981 C 232.800 365.322,232.350 365.510,231.800 365.400 C 231.250 365.290,230.890 365.650,231.000 366.200 C 231.110 366.750,230.716 367.200,230.124 367.200 C 229.532 367.200,228.396 367.920,227.600 368.800 C 225.550 371.065,167.390 371.348,168.656 369.086 C 169.555 367.480,168.924 364.629,167.820 365.311 C 167.380 365.583,166.674 365.309,166.250 364.702 C 165.657 363.856,165.385 363.830,165.075 364.594 C 164.780 365.320,164.254 365.364,163.121 364.758 C 162.269 364.302,158.564 363.855,154.889 363.764 C 149.924 363.642,148.305 363.343,148.589 362.600 C 148.799 362.050,148.414 361.600,147.733 361.600 C 147.052 361.600,146.234 361.179,145.916 360.664 C 145.513 360.011,145.801 359.903,146.869 360.307 C 148.230 360.822,148.267 360.753,147.200 359.684 C 145.592 358.072,140.136 357.045,132.200 356.861 C 129.960 356.808,129.600 356.517,129.600 354.753 C 129.600 353.592,129.254 352.920,128.800 353.200 C 128.360 353.472,128.000 353.193,128.000 352.581 C 128.000 351.968,127.550 351.405,127.000 351.329 C 126.450 351.254,124.028 350.992,121.618 350.748 C 117.534 350.335,115.614 349.271,116.466 347.893 C 116.664 347.573,116.454 347.081,116.000 346.800 C 115.546 346.519,115.365 345.980,115.599 345.602 C 116.130 344.743,114.125 344.108,110.080 343.853 C 107.863 343.714,106.852 343.243,106.587 342.228 C 106.381 341.443,105.871 340.800,105.453 340.800 C 105.034 340.800,104.898 341.610,105.150 342.600 C 105.578 344.279,105.542 344.270,104.620 342.461 C 103.839 340.928,103.838 340.454,104.616 340.195 C 105.157 340.014,105.600 339.477,105.600 339.000 C 105.600 338.523,105.363 338.370,105.074 338.660 C 104.784 338.949,104.116 338.828,103.589 338.391 C 103.062 337.953,101.456 337.459,100.021 337.292 C 97.349 336.981,96.034 335.757,96.012 333.560 C 95.994 331.666,94.322 330.400,91.840 330.400 C 90.110 330.400,89.600 330.024,89.600 328.747 C 89.600 325.776,88.093 324.000,85.572 324.000 C 83.649 324.000,83.198 323.659,83.188 322.200 C 83.173 320.001,82.215 318.382,80.720 318.029 C 76.684 317.076,76.000 316.545,76.000 314.369 C 76.000 312.524,75.514 311.964,73.271 311.223 C 70.528 310.318,69.600 309.104,69.600 306.420 C 69.600 304.829,68.087 304.000,65.181 304.000 C 63.531 304.000,63.261 303.570,63.046 300.600 C 62.841 297.774,62.496 297.157,61.000 296.944 C 59.117 296.677,58.635 295.644,60.000 294.800 C 60.440 294.528,60.800 293.959,60.800 293.534 C 60.800 293.110,59.900 293.353,58.800 294.074 C 57.579 294.873,56.800 295.036,56.800 294.492 C 56.800 294.001,57.204 293.600,57.698 293.600 C 58.314 293.600,58.342 293.286,57.788 292.600 C 57.344 292.050,56.730 290.081,56.424 288.224 C 55.920 285.168,55.608 284.799,53.134 284.335 C 50.906 283.917,50.400 283.459,50.400 281.864 C 50.400 280.510,50.091 280.091,49.400 280.506 C 48.687 280.935,48.707 280.729,49.469 279.789 C 50.088 279.025,50.265 278.035,49.889 277.435 C 49.532 276.866,49.336 275.814,49.454 275.098 C 49.571 274.383,49.089 273.575,48.383 273.304 C 47.677 273.033,47.267 272.539,47.473 272.206 C 47.678 271.873,46.958 271.547,45.871 271.481 C 43.135 271.317,43.160 271.383,43.054 264.108 C 42.975 258.722,42.738 257.598,41.679 257.588 C 40.561 257.577,40.551 257.478,41.600 256.800 C 42.400 256.283,42.467 256.020,41.800 256.012 C 41.250 256.006,40.775 255.370,40.744 254.600 C 40.698 253.454,40.589 253.418,40.144 254.400 C 39.845 255.060,39.123 255.699,38.541 255.820 C 37.958 255.941,37.690 255.701,37.946 255.287 C 38.202 254.873,38.040 253.557,37.586 252.362 C 37.131 251.167,36.714 247.807,36.657 244.895 C 36.601 241.983,36.353 239.240,36.107 238.800 C 35.860 238.361,35.763 237.011,35.890 235.800 C 36.037 234.395,35.738 233.596,35.060 233.588 C 34.314 233.579,34.270 233.401,34.911 232.988 C 35.572 232.562,35.517 232.116,34.711 231.368 C 33.984 230.694,33.600 230.644,33.600 231.224 C 33.600 231.712,32.848 231.996,31.929 231.856 C 30.267 231.601,30.259 231.445,30.329 200.924 C 30.406 167.702,30.303 168.842,33.181 169.158 C 34.267 169.278,34.983 169.096,34.773 168.756 C 34.562 168.415,34.765 168.012,35.223 167.859 C 35.711 167.696,36.206 163.604,36.419 157.991 C 36.760 148.953,36.886 148.356,38.591 147.643 C 39.586 147.226,40.519 146.807,40.665 146.711 C 40.810 146.615,40.541 145.811,40.066 144.924 C 39.329 143.546,39.465 143.274,41.002 143.055 C 42.689 142.816,42.814 142.367,43.031 135.800 C 43.251 129.132,43.348 128.800,45.071 128.800 C 47.372 128.800,48.800 127.378,48.800 125.087 C 48.800 124.101,49.177 123.061,49.638 122.776 C 50.099 122.491,50.418 121.660,50.346 120.929 C 50.026 117.663,50.490 116.822,52.972 116.179 C 55.149 115.615,55.672 114.992,56.372 112.126 C 56.828 110.264,57.740 108.359,58.400 107.894 C 59.408 107.184,59.376 107.121,58.200 107.499 C 57.430 107.747,56.800 107.601,56.800 107.175 C 56.800 106.749,57.340 106.400,58.000 106.400 C 58.660 106.400,59.200 106.019,59.200 105.553 C 59.200 105.087,58.784 104.962,58.276 105.276 C 57.700 105.633,57.570 105.496,57.932 104.911 C 58.687 103.689,59.991 104.519,60.032 106.247 C 60.054 107.158,60.457 106.876,61.268 105.381 C 61.929 104.161,62.219 102.755,61.912 102.257 C 61.570 101.704,61.711 101.574,62.276 101.924 C 62.916 102.319,63.200 101.510,63.200 99.297 C 63.200 96.800,63.507 96.091,64.600 96.060 C 68.387 95.954,68.911 95.650,69.416 93.267 C 69.703 91.910,69.864 90.536,69.774 90.214 C 69.683 89.892,70.597 89.412,71.805 89.147 C 75.879 88.255,76.121 88.055,75.858 85.803 C 75.644 83.977,75.941 83.552,77.590 83.320 C 80.142 82.960,82.960 80.142,83.320 77.590 C 83.552 75.941,83.977 75.644,85.803 75.858 C 88.056 76.121,88.254 75.880,89.148 71.800 C 89.530 70.059,90.086 69.597,91.815 69.588 C 95.136 69.569,96.326 68.204,96.163 64.600 C 96.113 63.490,96.761 63.200,99.297 63.200 C 101.510 63.200,102.319 62.916,101.924 62.276 C 101.574 61.711,101.704 61.570,102.257 61.912 C 102.755 62.219,104.161 61.929,105.381 61.268 C 106.876 60.457,107.158 60.054,106.247 60.032 C 104.519 59.991,103.689 58.687,104.911 57.932 C 105.496 57.570,105.633 57.700,105.276 58.276 C 104.962 58.784,105.087 59.200,105.553 59.200 C 106.019 59.200,106.400 58.660,106.400 58.000 C 106.400 57.340,106.749 56.800,107.175 56.800 C 107.601 56.800,107.733 57.430,107.467 58.200 C 107.052 59.404,107.150 59.387,108.169 58.081 C 108.820 57.246,110.359 56.455,111.588 56.324 C 115.190 55.940,115.769 55.480,116.314 52.576 C 116.822 49.871,116.913 49.816,121.733 49.312 C 127.272 48.733,128.800 47.830,128.800 45.133 C 128.800 43.332,129.061 43.254,135.800 43.031 C 142.367 42.814,142.816 42.689,143.055 41.002 C 143.274 39.465,143.546 39.329,144.924 40.066 C 145.811 40.541,146.615 40.810,146.711 40.665 C 146.807 40.519,147.226 39.585,147.643 38.588 C 148.353 36.889,148.959 36.756,157.384 36.445 C 163.822 36.207,166.877 35.757,168.162 34.857 C 169.149 34.165,169.709 33.600,169.407 33.600 C 169.104 33.600,169.654 32.749,170.629 31.709 L 172.400 29.817 201.600 29.711 C 221.591 29.638,231.178 29.880,232.000 30.478 M111.291 91.490 C 110.217 92.785,110.222 133.600,111.297 133.600 C 111.683 133.600,111.910 134.002,111.800 134.494 C 111.410 136.238,115.695 136.337,199.600 136.533 C 293.697 136.753,288.236 136.964,289.436 133.053 C 290.790 128.641,290.312 92.370,288.883 91.040 C 287.955 90.176,287.879 90.204,288.436 91.200 C 288.995 92.200,288.900 92.232,287.863 91.393 C 285.979 89.868,112.559 89.963,111.291 91.490 M111.782 178.342 C 110.098 180.036,109.696 220.188,111.344 222.173 C 112.872 224.015,288.667 223.646,289.425 221.800 C 290.232 219.834,290.146 178.679,289.333 177.866 C 287.792 176.326,113.322 176.793,111.782 178.342 M114.800 263.798 C 110.531 264.409,110.589 264.078,110.698 287.417 L 110.800 309.200 199.824 309.403 C 284.050 309.596,288.879 309.531,289.424 308.203 C 290.486 305.616,290.108 267.574,289.007 266.248 C 288.461 265.591,288.174 264.893,288.369 264.698 C 289.272 263.795,120.913 262.922,114.800 263.798 " stroke="none" fill="#e7001b" fill-rule="evenodd"></path><path id="path4" d="M128.400 3.841 C 122.643 4.562,121.691 10.659,127.400 10.246 C 130.694 10.008,130.802 9.912,130.853 7.200 C 130.898 4.841,131.182 4.415,132.653 4.496 C 133.614 4.548,134.400 4.323,134.400 3.996 C 134.400 3.376,132.499 3.327,128.400 3.841 M264.355 4.183 C 265.268 4.693,266.027 4.693,266.537 4.183 C 267.048 3.672,266.561 3.400,265.138 3.400 C 263.296 3.400,263.174 3.522,264.355 4.183 M268.267 4.437 C 268.267 5.038,268.567 5.344,268.933 5.118 C 269.554 4.734,269.957 7.110,269.660 9.400 C 269.574 10.057,270.641 10.400,272.765 10.400 C 278.590 10.400,277.187 4.710,271.133 3.783 C 269.029 3.461,268.267 3.635,268.267 4.437 M110.645 13.688 C 110.683 15.400,111.003 16.800,111.357 16.800 C 111.711 16.800,111.910 16.530,111.800 16.200 C 111.539 15.418,115.418 11.539,116.200 11.800 C 116.530 11.910,116.800 11.711,116.800 11.357 C 116.800 11.003,115.400 10.683,113.688 10.645 C 110.583 10.577,110.577 10.583,110.645 13.688 M288.332 12.911 C 287.945 13.536,288.102 13.631,288.802 13.199 C 289.584 12.715,289.737 12.990,289.401 14.274 C 289.153 15.222,289.276 16.200,289.675 16.446 C 290.074 16.693,290.400 15.994,290.400 14.894 C 290.400 12.638,289.207 11.494,288.332 12.911 M97.308 17.528 C 96.668 18.849,96.882 23.200,97.587 23.200 C 98.034 23.200,98.400 22.120,98.400 20.800 C 98.400 18.729,98.701 18.392,100.600 18.344 C 101.810 18.313,103.520 17.973,104.400 17.589 C 105.552 17.085,104.816 16.913,101.768 16.973 C 99.441 17.019,97.433 17.268,97.308 17.528 M297.200 17.600 C 299.385 18.539,300.000 18.539,300.000 17.600 C 300.000 17.160,299.010 16.825,297.800 16.856 C 295.851 16.906,295.782 16.991,297.200 17.600 M89.348 23.719 C 89.062 24.005,87.832 24.275,86.614 24.319 C 84.780 24.386,84.386 24.773,84.320 26.574 C 84.275 27.770,83.822 29.250,83.313 29.864 C 82.552 30.780,82.746 30.912,84.393 30.597 C 85.497 30.386,86.400 29.874,86.400 29.460 C 86.400 29.045,85.984 28.962,85.476 29.276 C 84.900 29.633,84.770 29.496,85.132 28.911 C 85.450 28.395,86.021 28.166,86.400 28.400 C 87.046 28.799,88.236 27.545,88.488 26.200 C 88.549 25.870,88.645 25.376,88.700 25.102 C 88.755 24.828,89.285 25.007,89.879 25.499 C 90.701 26.182,91.300 26.016,92.403 24.797 C 93.855 23.192,90.913 22.154,89.348 23.719 M306.779 23.965 C 307.099 24.484,307.847 24.723,308.440 24.495 C 309.055 24.259,309.738 24.774,310.030 25.696 C 310.522 27.244,310.588 27.250,311.646 25.855 C 312.707 24.455,312.750 24.455,312.775 25.847 C 312.789 26.643,313.166 27.068,313.613 26.792 C 314.060 26.516,314.183 25.864,313.885 25.345 C 313.573 24.801,313.653 24.683,314.072 25.067 C 315.169 26.071,314.985 27.490,313.622 28.535 C 312.951 29.049,312.672 29.739,313.001 30.068 C 313.331 30.397,313.600 30.221,313.600 29.676 C 313.600 29.002,314.001 29.087,314.857 29.943 C 315.549 30.634,316.719 31.189,317.457 31.176 C 318.679 31.154,318.674 31.078,317.400 30.336 C 316.577 29.857,316.000 28.566,316.000 27.207 C 316.000 24.402,315.890 24.330,310.498 23.602 C 307.278 23.168,306.342 23.259,306.779 23.965 M88.248 28.345 C 86.958 29.815,87.907 30.607,89.295 29.219 C 89.903 28.611,90.400 27.909,90.400 27.657 C 90.400 26.852,89.230 27.226,88.248 28.345 M172.295 30.230 C 172.563 30.664,172.230 31.477,171.555 32.038 C 170.880 32.598,170.528 33.579,170.773 34.217 C 171.077 35.010,170.834 35.231,170.009 34.914 C 169.344 34.659,168.800 34.821,168.800 35.273 C 168.800 38.253,175.129 34.766,175.592 31.531 C 175.775 30.249,175.733 29.647,175.498 30.194 C 175.177 30.939,174.664 30.969,173.439 30.314 C 172.504 29.813,172.015 29.777,172.295 30.230 M224.000 31.200 C 224.000 33.615,227.002 36.224,229.278 35.789 C 230.335 35.587,231.200 35.732,231.200 36.111 C 231.200 36.490,232.010 36.794,233.000 36.788 C 234.336 36.779,234.516 36.595,233.698 36.077 C 233.091 35.693,232.817 35.019,233.089 34.580 C 233.360 34.141,232.956 33.291,232.191 32.691 C 230.932 31.704,230.904 31.733,231.898 33.000 C 232.502 33.770,232.630 34.400,232.184 34.400 C 231.394 34.400,230.400 32.594,230.400 31.160 C 230.400 30.769,231.030 30.653,231.800 30.901 C 232.982 31.281,233.013 31.216,232.000 30.488 C 229.741 28.863,224.000 29.374,224.000 31.200 M76.981 32.372 C 77.068 33.424,77.429 34.106,77.783 33.887 C 78.137 33.668,78.238 33.185,78.008 32.813 C 77.778 32.441,78.024 31.992,78.555 31.815 C 79.166 31.611,79.026 31.304,78.171 30.976 C 77.118 30.572,76.857 30.878,76.981 32.372 M173.548 33.262 C 173.037 33.878,172.282 34.174,171.871 33.920 C 171.428 33.647,171.502 33.000,172.052 32.338 C 172.563 31.722,173.318 31.426,173.729 31.680 C 174.172 31.953,174.098 32.600,173.548 33.262 M148.200 37.347 C 147.650 38.308,147.200 39.667,147.200 40.366 C 147.200 41.520,147.025 41.522,145.299 40.391 C 143.481 39.200,143.380 39.235,143.009 41.173 C 142.673 42.933,142.903 43.200,144.758 43.200 C 148.156 43.200,149.766 41.546,149.463 38.365 C 149.212 35.721,149.156 35.677,148.200 37.347 M250.612 37.402 C 249.880 39.309,251.184 42.209,252.991 42.693 C 255.543 43.377,259.791 43.297,258.673 42.586 C 258.164 42.262,257.511 40.737,257.222 39.198 C 256.671 36.261,251.581 34.877,250.612 37.402 M68.176 38.208 C 66.733 38.926,65.343 40.346,65.087 41.363 C 64.796 42.525,63.837 43.385,62.512 43.674 C 58.842 44.473,58.374 44.730,57.941 46.182 C 57.708 46.962,57.018 48.582,56.407 49.782 C 55.750 51.071,55.603 52.155,56.047 52.429 C 56.461 52.685,56.800 52.317,56.800 51.612 C 56.800 50.907,57.250 50.388,57.800 50.460 C 61.951 50.999,64.110 50.348,63.969 48.600 C 63.699 45.275,63.988 44.865,67.200 44.000 C 68.960 43.526,70.456 42.702,70.525 42.169 C 70.636 41.311,70.896 36.720,70.827 36.851 C 70.812 36.879,69.619 37.490,68.176 38.208 M328.800 37.476 C 328.800 37.984,329.102 38.400,329.471 38.400 C 329.841 38.400,330.079 39.480,330.000 40.800 C 329.876 42.883,330.131 43.202,331.929 43.212 C 335.509 43.233,336.233 44.223,336.745 49.800 C 336.775 50.130,337.674 50.400,338.743 50.400 C 339.811 50.400,341.169 50.883,341.760 51.474 C 342.350 52.064,343.456 52.456,344.217 52.345 C 346.028 52.079,346.014 53.375,344.200 53.849 C 343.430 54.050,343.970 54.256,345.400 54.307 C 347.182 54.371,348.000 54.792,348.000 55.647 C 348.000 56.386,347.624 56.662,347.076 56.324 C 346.504 55.970,346.370 56.104,346.724 56.676 C 347.930 58.628,349.600 57.632,349.600 54.960 C 349.600 51.736,348.386 50.400,345.455 50.400 C 343.689 50.400,343.122 49.947,342.705 48.200 C 341.965 45.101,340.903 44.000,338.657 44.000 C 337.582 44.000,335.745 43.008,334.555 41.785 C 331.008 38.140,328.800 36.487,328.800 37.476 M128.800 45.102 C 128.800 47.312,127.607 48.487,124.800 49.042 C 123.700 49.260,124.420 49.384,126.400 49.319 C 129.958 49.201,130.003 49.165,130.248 46.200 C 130.392 44.463,130.139 43.200,129.648 43.200 C 129.182 43.200,128.800 44.056,128.800 45.102 M273.157 46.330 C 273.541 46.952,273.150 47.467,272.080 47.747 C 269.960 48.302,269.874 49.540,271.966 49.383 C 272.827 49.318,273.370 49.103,273.173 48.906 C 272.975 48.709,273.188 48.096,273.646 47.545 C 274.230 46.841,274.191 46.365,273.515 45.948 C 272.886 45.559,272.762 45.691,273.157 46.330 M51.360 51.360 C 49.580 53.140,50.223 54.968,52.600 54.881 C 54.426 54.814,54.814 54.426,54.881 52.600 C 54.968 50.223,53.140 49.580,51.360 51.360 M50.816 55.974 C 50.544 56.414,49.199 57.066,47.826 57.421 C 45.182 58.106,44.366 59.102,43.655 62.512 C 43.376 63.845,42.533 64.794,41.367 65.087 C 38.687 65.759,36.179 71.056,38.667 70.790 C 39.620 70.688,40.991 70.558,41.713 70.502 C 42.436 70.446,43.274 69.410,43.576 68.200 C 44.359 65.062,46.135 63.391,48.422 63.642 C 50.360 63.855,50.993 62.072,50.474 57.863 C 50.411 57.347,50.998 56.799,51.779 56.644 C 52.751 56.451,52.901 56.175,52.255 55.768 C 51.736 55.441,51.088 55.534,50.816 55.974 M290.373 58.792 C 290.927 61.502,293.552 63.183,297.200 63.164 C 299.062 63.154,299.315 62.985,298.327 62.407 C 297.542 61.948,297.109 60.730,297.198 59.231 C 297.349 56.689,297.433 56.734,292.142 56.500 C 290.045 56.407,289.919 56.571,290.373 58.792 M106.400 58.050 C 106.400 58.682,106.019 59.200,105.553 59.200 C 105.087 59.200,104.962 58.784,105.276 58.276 C 105.633 57.700,105.496 57.570,104.911 57.932 C 103.419 58.853,104.687 60.000,107.197 60.000 C 108.923 60.000,109.473 59.639,109.392 58.558 C 109.264 56.856,106.400 56.369,106.400 58.050 M350.317 57.069 C 349.951 57.643,349.962 63.223,350.329 63.302 C 350.588 63.358,351.634 63.490,352.653 63.595 C 355.054 63.843,355.962 64.806,356.478 67.651 C 356.995 70.504,356.699 70.263,360.160 70.644 L 363.062 70.964 361.771 68.257 C 361.036 66.717,359.684 65.350,358.633 65.087 C 357.467 64.794,356.624 63.845,356.345 62.512 C 355.653 59.195,354.839 58.126,352.539 57.510 C 351.362 57.196,350.362 56.997,350.317 57.069 M105.600 61.647 C 105.600 62.113,105.240 62.272,104.800 62.000 C 104.360 61.728,104.000 61.887,104.000 62.353 C 104.000 62.819,104.540 63.200,105.200 63.200 C 105.860 63.200,106.400 62.660,106.400 62.000 C 106.400 61.340,106.220 60.800,106.000 60.800 C 105.780 60.800,105.600 61.181,105.600 61.647 M303.323 67.176 C 303.475 68.220,304.050 69.223,304.600 69.404 C 306.039 69.878,305.833 67.589,304.323 66.336 C 303.208 65.411,303.081 65.518,303.323 67.176 M89.259 70.934 C 88.978 71.667,89.119 72.639,89.574 73.094 C 90.142 73.662,90.400 73.246,90.400 71.760 C 90.400 69.292,90.000 69.003,89.259 70.934 M310.689 73.200 C 309.916 75.216,311.039 76.800,313.242 76.800 C 315.424 76.800,315.653 75.158,313.550 74.589 C 312.615 74.336,312.624 74.437,313.600 75.127 C 314.648 75.868,314.633 75.977,313.486 75.988 C 312.763 75.994,311.953 75.431,311.686 74.735 C 310.990 72.922,311.078 72.630,312.124 73.276 C 312.696 73.630,312.830 73.496,312.476 72.924 C 311.712 71.687,311.242 71.760,310.689 73.200 M30.400 79.333 C 30.400 80.727,30.665 81.601,30.990 81.277 C 31.314 80.952,31.584 80.082,31.590 79.344 C 31.596 78.558,32.182 78.046,33.000 78.111 C 33.770 78.172,34.400 77.902,34.400 77.511 C 34.400 77.120,33.500 76.800,32.400 76.800 C 30.688 76.800,30.400 77.164,30.400 79.333 M366.356 77.505 C 367.703 77.882,368.528 78.885,369.007 80.734 C 369.810 83.835,371.641 86.029,372.400 84.800 C 372.676 84.354,372.339 83.773,371.651 83.509 C 370.963 83.245,370.400 82.197,370.400 81.180 C 370.400 77.828,369.563 76.796,366.914 76.880 C 364.601 76.953,364.556 77.003,366.356 77.505 M316.827 80.625 C 316.812 81.629,317.356 82.663,318.035 82.924 C 320.002 83.679,320.169 82.782,318.447 80.713 L 316.853 78.800 316.827 80.625 M81.257 81.257 C 79.667 82.848,79.679 83.106,81.333 82.863 C 82.067 82.755,82.755 82.067,82.863 81.333 C 83.106 79.679,82.848 79.667,81.257 81.257 M27.567 84.053 C 26.656 85.527,27.864 85.851,29.219 84.495 C 30.337 83.377,30.349 83.200,29.304 83.200 C 28.639 83.200,27.857 83.584,27.567 84.053 M323.490 85.993 C 323.604 89.297,326.057 91.326,326.057 88.117 C 326.057 87.243,325.639 86.742,325.088 86.954 C 324.512 87.175,323.969 86.408,323.749 85.063 C 323.509 83.589,323.418 83.914,323.490 85.993 M24.367 84.853 C 23.792 85.785,26.414 88.086,27.375 87.492 C 28.034 87.085,26.338 84.000,25.455 84.000 C 25.147 84.000,24.657 84.384,24.367 84.853 M23.733 87.733 C 23.440 88.027,23.228 89.197,23.263 90.333 C 23.298 91.470,23.509 91.948,23.731 91.395 C 23.954 90.842,24.466 90.594,24.868 90.842 C 25.271 91.091,25.600 90.943,25.600 90.514 C 25.600 90.085,25.150 89.552,24.600 89.330 C 23.800 89.007,23.800 88.914,24.600 88.863 C 25.150 88.828,25.600 88.440,25.600 88.000 C 25.600 87.090,24.530 86.937,23.733 87.733 M378.665 97.332 C 379.511 98.177,383.279 98.375,382.767 97.547 C 382.513 97.136,381.367 96.800,380.219 96.800 C 379.072 96.800,378.373 97.039,378.665 97.332 M337.162 104.000 C 337.965 109.885,344.165 112.547,343.713 106.813 C 343.449 103.467,343.195 103.165,340.461 102.955 C 339.292 102.865,337.962 102.254,337.504 101.596 C 336.899 100.728,336.805 101.387,337.162 104.000 M57.932 104.911 C 57.570 105.496,57.700 105.633,58.276 105.276 C 58.784 104.962,59.200 105.087,59.200 105.553 C 59.200 106.019,58.682 106.400,58.050 106.400 C 56.369 106.400,56.856 109.264,58.558 109.392 C 59.639 109.473,60.000 108.923,60.000 107.197 C 60.000 104.687,58.853 103.419,57.932 104.911 M61.958 104.732 C 62.206 105.134,61.958 105.646,61.405 105.869 C 60.799 106.113,60.955 106.299,61.800 106.337 C 62.570 106.372,63.200 105.860,63.200 105.200 C 63.200 104.540,62.819 104.000,62.353 104.000 C 61.887 104.000,61.709 104.329,61.958 104.732 M12.800 111.600 C 12.800 112.260,12.260 112.800,11.600 112.800 C 10.180 112.800,10.011 114.065,11.324 114.876 C 11.832 115.190,12.069 115.122,11.851 114.724 C 11.334 113.781,14.085 111.170,14.862 111.867 C 15.189 112.160,15.198 111.950,14.881 111.400 C 14.087 110.020,12.800 110.144,12.800 111.600 M343.280 112.553 C 343.236 113.957,343.560 115.328,344.000 115.600 C 344.920 116.169,344.920 114.873,344.000 112.000 C 343.388 110.090,343.356 110.115,343.280 112.553 M386.400 112.818 C 386.400 113.145,387.156 113.611,388.080 113.853 C 389.006 114.095,389.524 114.676,389.233 115.146 C 388.943 115.616,389.087 116.000,389.553 116.000 C 391.395 116.000,390.370 112.981,388.400 112.604 C 387.300 112.394,386.400 112.490,386.400 112.818 M7.567 124.053 C 6.656 125.527,7.864 125.851,9.219 124.495 C 10.337 123.377,10.349 123.200,9.304 123.200 C 8.639 123.200,7.857 123.584,7.567 124.053 M48.800 125.102 C 48.800 127.312,47.607 128.487,44.800 129.042 C 43.700 129.260,44.420 129.384,46.400 129.319 C 49.958 129.201,50.003 129.165,50.248 126.200 C 50.392 124.463,50.139 123.200,49.648 123.200 C 49.182 123.200,48.800 124.056,48.800 125.102 M390.800 125.250 C 390.800 126.897,390.949 127.025,391.688 126.015 C 392.623 124.736,393.666 124.383,393.505 125.400 C 393.251 127.008,393.712 127.478,394.488 126.400 C 395.209 125.397,395.275 125.436,394.885 126.642 C 394.611 127.487,394.745 127.881,395.209 127.594 C 397.232 126.344,396.095 124.529,392.800 123.746 C 391.077 123.336,390.800 123.544,390.800 125.250 M4.367 124.853 C 3.792 125.785,6.414 128.086,7.375 127.492 C 8.034 127.085,6.338 124.000,5.455 124.000 C 5.147 124.000,4.657 124.384,4.367 124.853 M350.400 128.071 C 350.400 129.043,350.957 129.600,351.929 129.600 C 352.901 129.600,353.387 129.114,353.263 128.267 C 352.981 126.344,350.400 126.167,350.400 128.071 M3.736 127.800 C 3.083 128.891,3.287 135.200,3.975 135.200 C 4.346 135.200,4.462 134.480,4.232 133.600 C 3.965 132.579,4.209 131.996,4.907 131.988 C 5.760 131.978,5.736 131.805,4.800 131.200 C 3.733 130.511,3.733 130.422,4.800 130.400 C 5.867 130.378,5.867 130.289,4.800 129.600 C 4.000 129.083,3.933 128.820,4.600 128.812 C 5.150 128.806,5.600 128.440,5.600 128.000 C 5.600 127.067,4.260 126.923,3.736 127.800 M391.594 128.010 C 390.917 129.105,390.968 129.149,394.200 130.240 C 396.544 131.030,396.800 130.963,396.800 129.558 C 396.800 128.701,396.419 128.000,395.953 128.000 C 395.487 128.000,395.351 128.397,395.651 128.883 C 395.951 129.369,395.286 129.169,394.173 128.440 C 392.747 127.505,391.984 127.378,391.594 128.010 M357.305 144.116 C 357.871 147.163,358.674 148.113,361.800 149.435 C 363.821 150.290,363.999 150.221,363.989 148.583 C 363.969 145.268,363.062 143.360,361.327 142.982 C 360.377 142.775,358.971 142.341,358.203 142.018 C 356.986 141.507,356.870 141.777,357.305 144.116 M40.949 143.062 C 39.181 143.313,39.155 143.412,40.367 145.262 C 41.551 147.069,41.538 147.200,40.171 147.200 C 39.365 147.200,38.007 147.729,37.153 148.375 C 35.697 149.476,35.785 149.551,38.572 149.575 C 41.846 149.603,43.501 147.749,43.049 144.560 C 42.861 143.230,42.348 142.864,40.949 143.062 M-0.000 147.051 C -0.000 149.756,0.278 150.267,1.925 150.581 C 3.718 150.924,3.841 150.727,3.725 147.675 C 3.539 142.809,0.000 142.216,-0.000 147.051 M396.624 144.928 C 395.890 147.131,397.005 150.400,398.491 150.400 C 399.718 150.400,400.000 149.802,400.000 147.200 C 400.000 144.046,397.483 142.352,396.624 144.928 M363.200 164.353 C 363.200 165.427,363.544 166.518,363.965 166.778 C 364.386 167.038,364.527 167.780,364.279 168.426 C 363.954 169.273,364.409 169.600,365.914 169.600 C 367.305 169.600,368.000 169.167,368.000 168.302 C 368.000 167.191,367.798 167.158,366.600 168.076 C 365.830 168.665,365.457 168.842,365.772 168.469 C 366.086 168.095,365.843 167.076,365.232 166.203 C 364.621 165.330,364.312 164.118,364.546 163.508 C 364.780 162.899,364.573 162.400,364.086 162.400 C 363.599 162.400,363.200 163.279,363.200 164.353 M35.448 167.545 C 34.925 168.142,34.654 168.788,34.848 168.981 C 35.041 169.174,34.389 169.262,33.400 169.175 C 30.723 168.942,29.876 170.013,30.244 173.168 C 30.914 178.901,35.430 176.678,36.274 170.200 C 36.819 166.016,36.812 165.992,35.448 167.545 M110.463 178.200 C 110.501 179.045,110.687 179.201,110.931 178.595 C 111.154 178.042,111.666 177.794,112.068 178.042 C 112.471 178.291,112.800 178.113,112.800 177.647 C 112.800 177.181,112.260 176.800,111.600 176.800 C 110.940 176.800,110.428 177.430,110.463 178.200 M30.278 226.200 C 30.211 227.410,30.124 229.120,30.085 230.000 C 30.037 231.076,30.601 231.684,31.807 231.856 C 32.826 232.001,33.600 231.689,33.600 231.133 C 33.600 230.595,34.354 231.020,35.275 232.078 L 36.949 234.000 36.374 230.000 C 35.488 223.845,30.578 220.784,30.278 226.200 M363.659 232.600 C 363.101 235.224,363.266 244.127,363.840 242.400 C 364.060 241.740,364.636 240.936,365.120 240.612 C 365.729 240.205,365.693 240.021,365.002 240.012 C 364.311 240.004,364.101 238.950,364.322 236.600 C 364.577 233.882,364.946 233.209,366.162 233.246 C 367.075 233.274,367.726 232.715,367.792 231.846 C 367.984 229.286,364.218 229.973,363.659 232.600 M0.000 252.800 C 0.000 255.467,0.267 256.000,1.600 256.000 C 2.933 256.000,3.200 255.467,3.200 252.800 C 3.200 250.133,2.933 249.600,1.600 249.600 C 0.267 249.600,0.000 250.133,0.000 252.800 M361.061 250.891 C 358.008 252.170,357.938 252.276,357.205 256.701 C 356.775 259.300,356.868 260.052,357.567 259.620 C 358.085 259.300,358.296 258.484,358.036 257.806 C 357.644 256.784,357.771 256.746,358.782 257.585 C 359.615 258.277,360.000 258.312,360.000 257.698 C 360.000 257.204,360.270 256.843,360.600 256.895 C 362.471 257.190,363.114 256.474,363.609 253.546 C 364.276 249.600,364.238 249.560,361.061 250.891 M396.800 252.800 C 396.800 255.467,397.067 256.000,398.400 256.000 C 399.733 256.000,400.000 255.467,400.000 252.800 C 400.000 250.133,399.733 249.600,398.400 249.600 C 397.067 249.600,396.800 250.133,396.800 252.800 M37.800 253.132 C 38.004 255.923,39.168 256.553,40.144 254.400 C 40.589 253.418,40.698 253.454,40.744 254.600 C 40.813 256.335,43.200 256.478,43.200 254.747 C 43.200 252.366,41.559 250.400,39.572 250.400 C 37.823 250.400,37.623 250.708,37.800 253.132 M3.344 267.764 C 3.286 270.495,3.574 272.936,3.984 273.190 C 4.394 273.444,4.527 274.180,4.279 274.826 C 3.728 276.261,4.910 276.364,6.297 275.000 C 7.113 274.198,7.263 274.234,7.057 275.181 C 6.902 275.896,7.511 276.470,8.600 276.637 C 9.590 276.788,10.400 276.582,10.400 276.180 C 10.400 274.828,7.444 272.757,6.197 273.235 C 5.517 273.496,4.724 273.325,4.434 272.855 C 4.142 272.382,4.489 272.000,5.210 272.000 C 5.927 272.000,7.049 271.465,7.704 270.811 C 8.756 269.758,8.607 269.679,6.411 270.118 C 4.138 270.572,3.956 270.454,4.239 268.707 C 4.409 267.658,4.301 265.900,3.999 264.800 C 3.629 263.448,3.416 264.409,3.344 267.764 M110.400 264.498 C 110.400 265.444,110.671 265.572,111.400 264.969 C 111.950 264.514,113.480 263.984,114.800 263.791 C 116.729 263.509,116.532 263.416,113.800 263.320 C 111.148 263.226,110.400 263.485,110.400 264.498 M286.034 264.055 C 286.324 264.525,287.061 264.717,287.671 264.483 C 288.282 264.249,288.728 264.315,288.663 264.629 C 288.599 264.943,288.762 265.740,289.026 266.400 C 289.290 267.060,289.666 268.320,289.860 269.200 C 290.083 270.206,290.249 269.859,290.307 268.265 C 290.443 264.564,289.678 263.200,287.467 263.200 C 286.280 263.200,285.714 263.537,286.034 264.055 M395.934 267.400 C 395.317 269.278,395.339 272.000,395.973 272.000 C 396.428 272.000,396.800 270.920,396.800 269.600 C 396.800 267.688,396.277 266.359,395.934 267.400 M44.674 271.252 C 45.705 271.665,46.930 271.767,47.397 271.478 C 47.884 271.177,48.014 271.331,47.701 271.836 C 47.401 272.322,47.885 273.110,48.778 273.588 C 50.458 274.488,50.785 273.935,49.914 271.665 C 49.575 270.780,48.432 270.415,46.114 270.451 C 43.229 270.495,43.043 270.599,44.674 271.252 M350.400 271.975 C 350.400 273.750,352.387 273.430,353.113 271.538 C 353.400 270.791,353.008 270.400,351.975 270.400 C 350.942 270.400,350.400 270.942,350.400 271.975 M393.012 274.295 C 393.070 275.059,393.741 275.730,394.505 275.788 C 395.363 275.853,395.853 275.363,395.788 274.505 C 395.730 273.741,395.059 273.070,394.295 273.012 C 393.437 272.947,392.947 273.437,393.012 274.295 M50.407 283.462 C 50.623 283.672,51.880 283.968,53.200 284.119 C 54.520 284.271,55.897 284.756,56.261 285.197 C 56.657 285.678,56.792 285.519,56.599 284.800 C 56.399 284.056,55.086 283.501,53.145 283.340 C 51.423 283.197,50.191 283.252,50.407 283.462 M344.160 284.160 C 343.632 284.688,343.200 286.308,343.200 287.760 C 343.200 289.774,342.857 290.400,341.753 290.400 C 339.239 290.400,337.657 292.288,337.229 295.797 C 336.826 299.105,337.836 300.141,339.375 298.000 C 339.692 297.560,340.749 297.200,341.724 297.200 C 343.251 297.200,343.537 296.699,343.781 293.600 C 343.937 291.620,344.141 289.100,344.234 288.000 C 344.485 285.017,345.480 283.947,347.638 284.338 C 348.703 284.531,349.781 284.354,350.034 283.945 C 350.716 282.841,345.280 283.040,344.160 284.160 M56.999 291.400 C 57.182 291.950,58.349 292.580,59.591 292.800 C 61.630 293.161,61.721 293.307,60.525 294.298 C 58.685 295.823,58.867 296.550,61.200 296.996 C 63.431 297.422,63.997 294.984,62.372 291.947 C 61.425 290.178,56.423 289.668,56.999 291.400 M68.000 303.902 C 68.000 304.396,68.334 304.800,68.741 304.800 C 69.149 304.800,69.647 305.430,69.849 306.200 C 70.157 307.381,70.229 307.396,70.307 306.298 C 70.358 305.582,69.860 304.548,69.200 304.000 C 68.371 303.312,68.000 303.282,68.000 303.902 M330.751 304.079 C 330.470 304.534,330.456 305.122,330.720 305.387 C 330.984 305.651,331.200 305.507,331.200 305.067 C 331.200 304.143,333.804 303.952,334.400 304.832 C 334.620 305.157,335.211 304.980,335.713 304.438 C 336.423 303.673,336.028 303.430,333.945 303.352 C 332.470 303.296,331.033 303.624,330.751 304.079 M23.212 309.753 C 23.219 311.209,23.489 312.796,23.812 313.279 C 24.489 314.291,27.341 314.475,26.718 313.467 C 26.491 313.100,25.787 312.800,25.153 312.800 C 23.690 312.800,24.011 310.976,25.600 310.256 C 26.565 309.819,26.517 309.701,25.353 309.656 C 24.557 309.625,24.113 309.265,24.366 308.855 C 24.619 308.446,24.460 307.884,24.013 307.608 C 23.524 307.306,23.205 308.161,23.212 309.753 M375.476 309.208 C 374.967 310.303,374.856 311.387,375.229 311.618 C 375.601 311.848,375.117 312.860,374.153 313.866 C 373.137 314.926,372.035 315.428,371.533 315.060 C 371.015 314.681,370.667 314.903,370.667 315.613 C 370.667 316.932,372.440 317.230,373.178 316.035 C 373.438 315.614,374.207 315.483,374.886 315.744 C 375.666 316.043,376.052 315.809,375.934 315.109 C 375.831 314.499,376.011 313.400,376.333 312.668 C 376.656 311.935,376.802 310.409,376.660 309.276 L 376.400 307.217 375.476 309.208 M323.515 311.532 C 323.276 312.155,323.234 313.685,323.420 314.932 C 323.733 317.017,323.774 316.974,323.936 314.400 C 324.083 312.063,324.226 311.865,324.800 313.200 C 325.449 314.709,325.491 314.695,325.544 312.946 C 325.590 311.415,325.914 311.180,327.400 311.598 C 328.809 311.995,328.939 311.922,328.000 311.265 C 326.292 310.069,324.025 310.204,323.515 311.532 M29.600 315.247 C 29.600 315.713,29.240 315.872,28.800 315.600 C 28.360 315.328,28.000 315.487,28.000 315.953 C 28.000 316.419,28.540 316.800,29.200 316.800 C 29.860 316.800,30.400 316.260,30.400 315.600 C 30.400 314.940,30.220 314.400,30.000 314.400 C 29.780 314.400,29.600 314.781,29.600 315.247 M317.333 317.333 C 316.221 318.445,316.821 320.799,318.200 320.737 C 318.997 320.701,319.179 320.503,318.623 320.278 C 317.855 319.966,317.855 319.658,318.623 318.830 C 319.337 318.061,319.758 318.023,320.188 318.689 C 320.562 319.269,320.780 319.092,320.788 318.200 C 320.800 316.824,318.435 316.231,317.333 317.333 M310.771 324.047 C 310.538 324.425,311.685 324.562,313.321 324.353 C 317.251 323.850,317.611 323.360,314.051 323.360 C 312.481 323.360,311.005 323.669,310.771 324.047 M359.761 330.105 C 359.484 330.383,359.591 331.236,360.000 332.000 C 360.749 333.399,360.340 334.400,359.019 334.400 C 358.627 334.400,358.491 334.100,358.718 333.733 C 358.944 333.367,358.640 333.067,358.041 333.067 C 357.186 333.067,357.149 333.381,357.869 334.533 C 358.878 336.149,360.000 336.476,360.000 335.153 C 360.000 334.687,360.416 334.562,360.924 334.876 C 361.496 335.230,361.630 335.096,361.276 334.524 C 360.962 334.016,361.087 333.600,361.553 333.600 C 362.019 333.600,362.400 332.700,362.400 331.600 C 362.400 329.737,360.951 328.916,359.761 330.105 M303.733 330.933 C 303.440 331.227,303.200 332.195,303.200 333.086 C 303.200 334.682,303.217 334.683,304.375 333.153 C 306.062 330.922,305.542 329.125,303.733 330.933 M38.573 331.876 C 38.008 332.235,37.771 333.115,38.047 333.834 C 38.722 335.593,41.538 336.400,42.681 335.162 C 43.380 334.404,43.361 334.300,42.600 334.730 C 41.986 335.076,41.600 334.813,41.600 334.047 C 41.600 333.361,41.251 332.800,40.825 332.800 C 40.399 332.800,40.246 333.430,40.486 334.200 C 40.858 335.397,40.783 335.383,39.967 334.105 C 39.212 332.920,39.241 332.466,40.107 331.917 C 40.708 331.536,40.840 331.225,40.400 331.225 C 39.960 331.225,39.138 331.518,38.573 331.876 M356.007 336.391 C 355.464 337.046,354.699 337.385,354.309 337.144 C 353.919 336.903,353.600 337.087,353.600 337.553 C 353.600 338.878,354.815 338.551,356.400 336.800 C 357.196 335.920,357.656 335.200,357.422 335.200 C 357.188 335.200,356.551 335.736,356.007 336.391 M43.566 337.399 C 43.805 338.021,44.000 338.681,44.000 338.865 C 44.000 339.049,44.630 339.172,45.400 339.137 C 46.170 339.102,46.370 338.899,45.845 338.685 C 45.320 338.471,45.065 337.840,45.279 337.282 C 45.494 336.723,45.098 336.267,44.400 336.267 C 43.635 336.267,43.304 336.716,43.566 337.399 M102.400 337.861 C 103.742 338.557,104.583 338.627,104.957 338.072 C 105.263 337.618,105.730 337.463,105.995 337.728 C 106.259 337.993,105.873 338.813,105.136 339.550 C 104.056 340.630,103.972 341.231,104.702 342.645 L 105.608 344.400 105.150 342.600 C 104.898 341.610,105.034 340.800,105.453 340.800 C 105.871 340.800,106.386 341.460,106.597 342.267 C 107.292 344.924,109.600 344.023,109.600 341.095 C 109.600 337.965,107.920 336.795,103.453 336.812 C 100.455 336.823,100.436 336.842,102.400 337.861 M292.800 337.383 C 291.181 337.999,290.427 339.250,290.412 341.344 C 290.404 342.495,289.787 343.226,288.600 343.493 C 287.610 343.716,288.960 343.704,291.600 343.468 C 296.683 343.012,297.442 342.512,297.264 339.735 C 297.203 338.781,297.524 337.736,297.977 337.412 C 298.932 336.730,294.580 336.705,292.800 337.383 M351.908 338.275 C 351.857 338.564,351.873 339.520,351.944 340.400 C 352.040 341.601,351.889 341.731,351.342 340.924 C 350.791 340.113,350.481 340.367,350.082 341.957 C 349.791 343.117,349.204 343.849,348.777 343.586 C 348.349 343.322,348.000 343.487,348.000 343.953 C 348.000 344.419,348.540 344.800,349.200 344.800 C 349.860 344.800,350.400 344.514,350.400 344.165 C 350.400 343.816,351.569 343.186,352.998 342.765 C 356.211 341.819,356.684 339.905,354.011 338.675 C 352.905 338.167,351.959 337.987,351.908 338.275 M44.000 340.772 C 44.000 341.803,46.703 343.200,48.699 343.200 C 49.975 343.200,50.354 343.813,50.552 346.200 C 50.787 349.037,50.963 349.213,53.800 349.448 C 56.187 349.646,56.800 350.025,56.800 351.301 C 56.800 352.183,57.173 353.602,57.628 354.453 C 58.652 356.366,61.198 356.592,60.474 354.705 C 60.150 353.861,60.672 354.069,61.975 355.305 C 63.074 356.347,63.984 357.740,63.998 358.400 C 64.056 361.062,70.400 364.305,70.400 361.673 C 70.400 361.221,69.856 361.059,69.191 361.314 C 68.295 361.658,68.107 361.393,68.466 360.289 C 68.863 359.071,68.797 359.018,68.109 359.993 C 67.391 361.010,67.113 361.022,66.233 360.076 C 65.461 359.246,65.453 359.108,66.200 359.530 C 66.750 359.840,67.200 359.713,67.200 359.247 C 67.200 358.781,66.639 358.400,65.953 358.400 C 65.267 358.400,64.905 358.078,65.148 357.684 C 65.392 357.290,65.030 356.752,64.345 356.489 C 63.618 356.210,63.340 355.592,63.678 355.006 C 63.996 354.453,63.961 354.268,63.599 354.596 C 63.238 354.923,62.087 353.933,61.042 352.396 C 59.997 350.858,58.615 349.600,57.971 349.600 C 57.327 349.600,56.800 349.219,56.800 348.753 C 56.800 348.287,56.440 348.128,56.000 348.400 C 55.560 348.672,55.200 348.174,55.200 347.294 C 55.200 346.414,54.834 345.468,54.387 345.192 C 53.940 344.916,53.803 344.318,54.083 343.865 C 54.373 343.396,53.820 343.454,52.800 344.000 C 51.613 344.635,51.191 344.662,51.551 344.080 C 51.850 343.596,51.653 343.200,51.114 343.200 C 50.575 343.200,50.368 342.966,50.654 342.679 C 51.295 342.039,48.805 340.060,47.314 340.025 C 46.625 340.009,46.407 340.510,46.716 341.400 C 47.181 342.733,47.152 342.733,46.114 341.400 C 44.909 339.853,44.000 339.583,44.000 340.772 M114.400 343.981 C 114.400 344.483,114.821 344.634,115.336 344.316 C 115.962 343.929,116.106 344.170,115.771 345.043 C 115.495 345.761,115.644 346.580,116.102 346.863 C 116.609 347.177,116.830 346.664,116.667 345.551 C 116.395 343.694,114.400 342.311,114.400 343.981 M284.160 344.160 C 282.992 345.328,282.915 346.400,284.000 346.400 C 284.440 346.400,284.710 345.950,284.600 345.400 C 284.490 344.850,284.850 344.490,285.400 344.600 C 285.950 344.710,286.400 344.440,286.400 344.000 C 286.400 342.915,285.328 342.992,284.160 344.160 M340.909 350.315 C 339.989 350.899,339.989 351.081,340.909 351.483 C 341.509 351.745,341.206 351.878,340.236 351.780 C 338.281 351.580,338.247 351.642,338.916 354.200 C 339.823 357.670,343.200 355.346,343.200 351.253 C 343.200 349.469,342.620 349.231,340.909 350.315 M59.800 352.467 C 59.038 353.229,57.509 351.994,58.077 351.075 C 58.415 350.529,58.862 350.542,59.437 351.117 C 59.908 351.588,60.071 352.195,59.800 352.467 M125.562 351.159 C 126.201 351.564,127.011 351.717,127.362 351.500 C 127.713 351.283,128.000 351.656,128.000 352.328 C 128.000 353.061,128.459 353.374,129.149 353.109 C 131.162 352.336,129.557 350.399,126.914 350.412 C 125.074 350.421,124.711 350.622,125.562 351.159 M270.520 351.160 C 270.864 352.191,271.961 352.377,272.060 351.420 C 272.093 351.101,271.688 350.696,271.160 350.520 C 270.632 350.344,270.344 350.632,270.520 351.160 M337.068 354.135 C 337.363 354.429,336.973 355.419,336.202 356.335 C 334.801 357.999,334.801 357.999,336.600 356.476 C 338.566 354.812,338.931 353.600,337.467 353.600 C 336.953 353.600,336.774 353.841,337.068 354.135 M145.709 357.840 C 146.243 358.412,147.427 358.932,148.340 358.994 C 149.969 359.105,149.971 359.086,148.447 357.954 C 146.408 356.439,144.319 356.353,145.709 357.840 M252.200 357.642 C 250.498 358.310,249.674 361.407,250.878 362.612 C 251.626 363.359,253.648 362.324,253.117 361.466 C 252.356 360.235,255.305 357.526,256.867 358.021 C 257.636 358.265,258.461 358.148,258.701 357.761 C 259.276 356.830,254.491 356.743,252.200 357.642 M333.067 358.041 C 333.067 358.640,333.413 358.915,333.837 358.653 C 334.261 358.392,334.426 358.677,334.204 359.289 C 333.982 359.900,333.395 360.310,332.900 360.200 C 332.405 360.090,331.559 359.910,331.019 359.800 C 330.479 359.690,329.920 360.364,329.777 361.297 C 329.556 362.729,329.835 362.933,331.558 362.604 C 332.681 362.389,333.600 361.874,333.600 361.460 C 333.600 361.045,334.016 360.962,334.524 361.276 C 335.096 361.630,335.230 361.496,334.876 360.924 C 334.562 360.416,334.687 360.000,335.153 360.000 C 336.476 360.000,336.149 358.878,334.533 357.869 C 333.381 357.149,333.067 357.186,333.067 358.041 M162.400 363.914 C 162.400 364.307,162.940 364.836,163.600 365.089 C 164.331 365.370,164.800 365.091,164.800 364.375 C 164.800 363.729,164.260 363.200,163.600 363.200 C 162.940 363.200,162.400 363.521,162.400 363.914 M166.099 364.370 C 166.378 365.097,167.065 365.516,167.624 365.301 C 168.923 364.803,169.620 367.363,168.656 369.086 C 168.017 370.228,168.449 370.400,171.960 370.400 C 176.168 370.400,177.894 367.327,175.000 364.988 C 173.025 363.391,165.524 362.871,166.099 364.370 M229.386 363.774 C 228.169 363.958,227.355 364.404,227.578 364.764 C 227.801 365.124,227.357 365.370,226.591 365.310 C 225.725 365.241,225.241 365.725,225.310 366.591 C 225.370 367.357,225.100 367.785,224.710 367.544 C 224.319 367.303,224.000 367.847,224.000 368.753 C 224.000 369.659,224.420 370.400,224.933 370.400 C 225.447 370.400,225.645 370.178,225.374 369.908 C 224.610 369.143,229.074 364.967,230.200 365.393 C 230.750 365.601,231.206 365.283,231.212 364.686 C 231.222 363.848,231.402 363.874,232.000 364.800 C 232.564 365.672,232.779 365.714,232.788 364.953 C 232.794 364.377,233.135 364.113,233.545 364.366 C 233.954 364.619,234.516 364.460,234.792 364.013 C 235.296 363.197,233.677 363.126,229.386 363.774 M83.263 370.953 C 83.228 371.917,83.544 372.918,83.965 373.178 C 84.386 373.438,84.503 374.242,84.226 374.965 C 83.850 375.945,84.055 376.150,85.035 375.774 C 85.758 375.497,86.562 375.614,86.822 376.035 C 87.386 376.948,90.400 377.069,90.400 376.178 C 90.400 374.992,87.271 372.839,86.756 373.670 C 86.431 374.197,85.862 374.149,85.119 373.533 C 84.194 372.765,84.170 372.353,84.990 371.340 C 85.646 370.530,85.673 370.289,85.068 370.651 C 84.556 370.959,83.954 370.758,83.731 370.205 C 83.509 369.652,83.298 369.989,83.263 370.953 M314.057 374.057 C 312.481 375.633,312.481 375.636,314.346 375.776 C 315.416 375.857,315.857 375.416,315.776 374.346 C 315.636 372.481,315.633 372.481,314.057 374.057 M289.183 385.524 C 289.474 386.846,289.333 388.071,288.856 388.365 C 288.327 388.692,288.218 388.352,288.559 387.442 C 289.041 386.156,288.948 386.123,287.699 387.140 C 286.394 388.202,286.390 388.331,287.645 389.033 C 288.582 389.558,289.201 389.455,289.683 388.693 C 290.669 387.136,290.564 383.200,289.536 383.200 C 288.999 383.200,288.866 384.079,289.183 385.524 M110.928 387.555 C 110.177 389.512,110.587 389.787,112.884 388.868 C 114.160 388.357,114.355 388.084,113.467 388.051 C 112.733 388.023,111.989 387.568,111.813 387.040 C 111.622 386.467,111.266 386.675,110.928 387.555 M123.531 391.533 C 123.777 392.450,123.983 393.758,123.989 394.440 C 123.996 395.241,124.740 395.680,126.090 395.680 C 128.170 395.680,128.172 395.674,126.524 394.339 C 125.613 393.602,125.093 392.774,125.367 392.499 C 125.642 392.225,125.403 392.000,124.835 392.000 C 124.067 392.000,124.029 391.728,124.689 390.933 C 125.363 390.122,125.276 389.867,124.329 389.867 C 123.457 389.867,123.217 390.366,123.531 391.533 M275.311 390.933 C 275.964 391.721,275.947 392.000,275.244 392.000 C 274.641 392.000,274.488 392.616,274.825 393.679 C 275.279 395.108,275.108 395.279,273.679 394.825 C 272.652 394.499,272.000 394.642,272.000 395.193 C 272.000 395.689,271.665 395.887,271.255 395.634 C 270.846 395.381,270.270 395.563,269.977 396.038 C 269.561 396.710,275.006 396.382,275.694 395.694 C 276.650 394.738,276.592 389.867,275.624 389.867 C 274.716 389.867,274.640 390.125,275.311 390.933 M144.000 398.194 C 144.000 399.801,144.397 400.000,147.600 400.000 C 150.603 400.000,151.200 399.748,151.200 398.481 C 151.200 397.255,150.503 396.906,147.600 396.675 C 144.312 396.413,144.000 396.545,144.000 398.194 M251.400 396.651 C 247.933 397.152,249.123 400.000,252.800 400.000 C 255.600 400.000,256.000 399.771,256.000 398.171 C 256.000 396.319,255.300 396.087,251.400 396.651 " stroke="none" fill="#ff0000" fill-rule="evenodd"></path></g></svg>