<svg id="svg" version="1.1" width="500" height="500" xmlns="http://www.w3.org/2000/svg" xmlns:xlink="http://www.w3.org/1999/xlink" style="display: block;"><g id="svgg"><path id="path0" d="M173.177 224.000 C 173.177 252.820,173.277 264.610,173.400 250.200 C 173.522 235.790,173.522 212.210,173.400 197.800 C 173.277 183.390,173.177 195.180,173.177 224.000 " stroke="none" fill="#000000" fill-rule="evenodd"></path><path id="path1" d="M176.000 281.997 C 176.000 282.628,176.685 283.510,177.521 283.958 C 178.806 284.645,178.981 284.534,178.643 283.241 C 178.157 281.386,176.000 280.370,176.000 281.997 " stroke="none" fill="#ffffff" fill-rule="evenodd"></path><path id="path2" d="M210.400 143.760 C 211.060 143.998,212.235 144.959,213.011 145.896 C 214.341 147.504,214.390 147.510,213.869 146.000 C 213.218 144.114,212.061 143.205,210.400 143.275 C 209.333 143.321,209.333 143.374,210.400 143.760 M176.803 168.957 C 178.241 170.695,177.636 171.481,176.000 170.000 C 173.979 168.171,173.925 168.808,175.908 171.094 C 177.263 172.656,177.469 172.695,177.937 171.474 C 178.241 170.683,177.947 169.673,177.232 169.055 C 176.558 168.472,176.364 168.428,176.803 168.957 M174.411 225.146 C 174.433 261.181,174.711 278.400,175.269 278.400 C 175.723 278.400,175.835 278.850,175.519 279.400 C 175.202 279.950,175.238 280.133,175.598 279.807 C 175.958 279.481,176.736 279.615,177.326 280.105 C 177.917 280.595,178.400 280.722,178.400 280.386 C 178.400 280.051,177.850 279.374,177.178 278.883 C 176.102 278.096,175.959 271.681,175.988 225.448 C 176.011 190.333,175.749 172.739,175.200 172.400 C 174.641 172.055,174.389 188.911,174.411 225.146 M179.200 295.478 C 179.200 295.630,179.920 296.585,180.800 297.600 C 182.570 299.641,182.970 298.818,181.286 296.600 C 180.337 295.349,179.200 294.737,179.200 295.478 M303.600 302.715 C 302.831 303.625,302.162 305.600,302.622 305.600 C 303.294 305.600,305.446 302.400,304.968 302.112 C 304.656 301.923,304.040 302.194,303.600 302.715 " stroke="none" fill="#aa0000" fill-rule="evenodd"></path><path id="path3" d="M178.779 228.400 C 178.779 259.200,178.878 271.684,179.000 256.141 C 179.121 240.599,179.121 215.399,179.000 200.141 C 178.878 184.884,178.779 197.600,178.779 228.400 " stroke="none" fill="#db1237" fill-rule="evenodd"></path><path id="path4" d="M282.004 35.980 C 281.717 37.290,281.709 38.730,281.988 39.180 C 282.291 39.671,281.523 40.000,280.075 40.000 C 278.501 40.000,277.367 40.541,276.827 41.550 C 275.533 43.968,275.721 291.576,277.019 292.641 C 277.558 293.084,278.900 293.571,280.000 293.723 C 281.596 293.944,281.959 294.404,281.794 296.000 C 281.505 298.813,282.903 300.852,283.988 299.200 C 284.564 298.322,284.779 298.282,284.788 299.050 C 284.794 299.628,285.430 300.036,286.200 299.958 C 290.539 299.517,295.253 300.075,295.039 301.004 C 293.889 306.013,308.442 306.508,310.027 301.514 C 310.366 300.446,311.318 299.971,313.254 299.900 C 317.791 299.735,317.997 299.654,318.082 297.996 C 318.303 293.652,318.341 293.600,321.190 293.600 L 323.981 293.600 323.995 166.887 C 324.011 28.293,324.381 39.200,319.662 39.200 C 318.141 39.200,317.866 38.788,317.927 36.600 L 318.000 34.000 301.600 33.852 C 286.884 33.719,285.144 33.842,284.656 35.052 C 284.157 36.290,284.108 36.285,284.056 35.000 C 283.965 32.732,282.571 33.398,282.004 35.980 M81.934 89.977 C 81.685 90.971,81.597 92.463,81.740 93.293 C 81.951 94.513,81.581 94.751,79.800 94.543 C 78.384 94.377,77.596 94.662,77.588 95.343 C 77.579 96.124,77.373 96.086,76.800 95.200 C 76.373 94.540,76.019 94.378,76.012 94.840 C 76.006 95.302,76.432 96.112,76.960 96.640 C 77.679 97.359,77.685 97.600,76.984 97.600 C 76.275 97.600,76.042 121.338,76.022 195.600 L 75.995 293.600 78.798 293.600 C 80.339 293.600,81.645 293.960,81.700 294.400 C 81.901 296.008,82.038 296.421,82.736 297.524 C 83.250 298.336,83.162 298.471,82.420 298.012 C 81.735 297.589,81.515 297.748,81.759 298.489 C 81.984 299.172,83.550 299.693,85.822 299.842 C 88.450 300.014,89.646 300.477,89.957 301.442 C 90.411 302.846,94.616 305.609,96.265 305.588 C 96.804 305.581,96.696 305.257,96.010 304.823 C 95.067 304.227,95.181 304.098,96.555 304.201 C 97.509 304.273,98.136 304.580,97.949 304.882 C 97.537 305.550,100.056 306.611,100.648 306.019 C 100.878 305.788,100.557 305.575,99.933 305.544 C 99.282 305.511,99.481 305.213,100.400 304.843 C 101.326 304.469,102.436 304.546,103.034 305.025 C 104.519 306.213,106.190 304.474,104.972 303.007 C 103.226 300.903,104.610 300.197,111.063 299.903 C 113.338 299.799,115.200 299.374,115.200 298.959 C 115.200 298.544,115.740 298.652,116.400 299.200 C 117.367 300.002,117.623 299.982,117.721 299.098 C 117.787 298.494,117.922 297.280,118.020 296.400 C 118.118 295.520,118.243 294.384,118.299 293.875 C 118.356 293.356,119.104 293.134,120.004 293.369 C 124.174 294.460,123.975 299.315,123.986 196.512 C 123.997 101.312,123.834 95.200,121.285 95.200 C 119.503 95.200,117.200 92.493,117.200 90.400 L 117.200 88.400 99.794 88.284 L 82.388 88.168 81.934 89.977 M186.454 143.166 C 185.834 143.550,185.297 145.096,185.263 146.602 C 185.206 149.080,184.999 149.316,183.076 149.094 C 180.331 148.777,179.083 152.032,178.858 160.098 C 178.826 161.252,178.430 162.054,177.977 161.880 C 173.951 160.336,174.016 159.417,173.798 221.299 C 173.580 283.275,173.498 281.400,176.437 281.400 C 178.069 281.400,178.259 281.194,177.486 280.262 C 176.799 279.435,176.385 279.376,175.971 280.048 C 175.595 280.655,175.227 280.691,174.895 280.154 C 174.617 279.704,174.842 279.154,175.395 278.931 C 176.158 278.624,176.164 278.511,175.422 278.463 C 174.662 278.414,174.437 266.525,174.411 225.146 C 174.389 188.911,174.641 172.055,175.200 172.400 C 175.749 172.739,176.011 190.285,175.988 225.294 C 175.970 254.107,176.167 278.022,176.425 278.440 C 178.150 281.232,178.406 275.127,178.613 226.200 L 178.836 173.200 178.963 232.833 C 179.100 297.587,178.986 294.044,181.000 296.320 C 181.770 297.190,182.400 298.396,182.400 299.001 C 182.400 299.606,183.030 300.036,183.800 299.958 C 188.940 299.435,191.200 300.010,191.200 301.840 C 191.200 304.975,192.663 305.600,200.000 305.600 C 207.337 305.600,208.800 304.975,208.800 301.840 C 208.800 300.311,209.224 300.000,211.312 300.000 C 212.724 300.000,214.247 299.421,214.790 298.679 C 215.555 297.632,215.890 297.574,216.401 298.402 C 216.828 299.093,216.734 299.254,216.124 298.876 C 215.616 298.562,215.200 298.687,215.200 299.153 C 215.200 299.619,215.763 300.000,216.450 300.000 C 217.275 300.000,217.615 299.413,217.450 298.274 C 217.313 297.325,217.622 296.405,218.137 296.229 C 218.734 296.025,218.918 296.505,218.644 297.554 C 218.399 298.490,218.599 299.200,219.107 299.200 C 219.598 299.200,220.046 298.930,220.102 298.600 C 220.158 298.270,220.363 297.100,220.558 296.000 C 220.752 294.900,221.103 291.030,221.338 287.400 C 221.701 281.772,221.973 280.800,223.184 280.800 C 226.435 280.800,226.440 280.714,226.216 222.029 L 226.000 165.461 223.723 163.503 C 221.635 161.707,221.444 161.084,221.412 155.972 C 221.393 152.908,221.046 150.400,220.641 150.400 C 220.237 150.400,220.176 149.950,220.506 149.400 C 220.856 148.817,220.478 148.901,219.600 149.600 C 218.581 150.411,218.298 150.458,218.727 149.746 C 219.134 149.069,218.975 148.746,218.280 148.841 C 216.294 149.114,213.187 148.679,214.200 148.270 C 215.414 147.780,215.539 145.600,214.353 145.600 C 213.887 145.600,213.723 146.050,213.990 146.600 C 214.256 147.150,213.874 146.790,213.139 145.800 C 212.405 144.810,211.219 143.972,210.502 143.937 C 209.745 143.900,209.600 143.711,210.156 143.485 C 210.681 143.271,211.851 143.492,212.756 143.976 C 213.666 144.463,214.400 144.525,214.400 144.115 C 214.400 142.453,189.004 141.591,186.454 143.166 M177.937 171.474 C 177.469 172.695,177.263 172.656,175.908 171.094 C 173.925 168.808,173.979 168.171,176.000 170.000 C 177.636 171.481,178.241 170.695,176.803 168.957 C 176.364 168.428,176.558 168.472,177.232 169.055 C 177.947 169.673,178.241 170.683,177.937 171.474 M304.592 303.558 C 304.046 304.149,303.334 304.471,303.008 304.274 C 302.682 304.077,302.862 303.432,303.408 302.842 C 303.954 302.251,304.666 301.929,304.992 302.126 C 305.318 302.323,305.138 302.968,304.592 303.558 M2.600 336.582 L -0.000 336.901 -0.000 354.845 L -0.000 372.788 200.000 372.797 L 400.000 372.806 400.000 354.912 L 400.000 337.017 396.337 336.515 C 392.423 335.979,6.978 336.044,2.600 336.582 " stroke="none" fill="#e7001b" fill-rule="evenodd"></path></g></svg>