<svg id="svg" version="1.1" width="500" height="500" xmlns="http://www.w3.org/2000/svg" xmlns:xlink="http://www.w3.org/1999/xlink" style="display: block;"><g id="svgg"><path id="path0" d="M281.600 1.600 C 281.600 2.871,281.066 3.201,279.000 3.203 C 275.932 3.207,271.200 5.863,271.200 7.582 C 271.200 8.245,269.865 9.420,268.232 10.194 C 266.358 11.082,265.096 12.320,264.807 13.556 C 264.487 14.922,263.564 15.715,261.748 16.185 C 259.748 16.704,259.041 17.396,258.683 19.186 C 258.332 20.939,257.643 21.639,255.891 22.024 C 254.232 22.388,253.238 23.318,252.423 25.267 C 251.683 27.038,250.739 28.000,249.739 28.000 C 247.967 28.000,246.701 29.308,246.281 31.572 C 246.101 32.539,244.988 33.430,243.387 33.890 C 241.433 34.450,240.627 35.244,240.152 37.078 C 239.677 38.909,238.896 39.681,237.022 40.166 C 235.158 40.649,234.396 41.395,234.021 43.103 C 233.648 44.801,232.859 45.581,230.962 46.125 C 228.993 46.690,228.312 47.401,227.996 49.222 C 227.672 51.095,227.089 51.671,225.193 51.993 C 223.352 52.306,222.628 52.982,222.055 54.926 C 221.515 56.760,220.645 57.642,218.879 58.149 C 217.089 58.662,216.251 59.528,215.708 61.423 C 215.169 63.300,214.500 64.000,213.244 64.000 C 211.013 64.000,209.600 65.452,209.600 67.745 C 209.600 69.075,209.003 69.712,207.400 70.095 C 204.316 70.832,203.200 71.895,203.200 74.098 C 203.200 75.533,202.759 76.003,201.400 76.012 C 198.750 76.030,197.777 76.920,197.472 79.603 C 197.246 81.596,196.796 82.046,194.803 82.272 C 192.120 82.577,191.230 83.550,191.212 86.200 C 191.204 87.437,190.720 88.000,189.665 88.000 C 186.819 88.000,185.646 88.942,185.141 91.633 C 184.712 93.922,184.273 94.346,182.119 94.555 C 179.923 94.769,179.568 95.133,179.349 97.400 C 179.144 99.530,178.756 100.000,177.206 100.000 C 174.785 100.000,172.800 101.985,172.800 104.406 C 172.800 105.956,172.330 106.344,170.200 106.549 C 167.946 106.767,167.568 107.128,167.359 109.269 C 167.153 111.379,166.688 111.844,164.159 112.469 C 161.603 113.100,161.166 113.547,160.953 115.753 C 160.739 117.958,160.367 118.339,158.219 118.553 C 156.179 118.756,155.565 119.302,154.796 121.600 C 154.073 123.761,153.327 124.492,151.529 124.803 C 149.589 125.140,149.158 125.641,148.949 127.803 C 148.734 130.039,148.394 130.400,146.509 130.400 C 143.730 130.400,142.400 131.730,142.400 134.509 C 142.400 136.395,142.039 136.733,139.800 136.949 C 137.514 137.170,137.170 137.514,136.949 139.800 C 136.733 142.039,136.395 142.400,134.509 142.400 C 131.715 142.400,130.400 143.732,130.400 146.560 C 130.400 148.573,130.125 148.800,127.689 148.800 C 125.240 148.800,124.929 149.063,124.469 151.515 C 124.033 153.837,123.557 154.305,121.180 154.751 C 118.644 155.227,118.400 155.515,118.400 158.036 C 118.400 160.659,118.258 160.800,115.615 160.800 C 113.228 160.800,112.762 161.114,112.348 163.000 C 111.503 166.861,111.336 167.080,109.047 167.342 C 106.840 167.595,106.796 167.703,106.565 173.400 L 106.330 179.200 103.165 179.200 L 100.000 179.200 100.000 199.914 C 100.000 222.411,99.833 221.600,104.465 221.600 C 106.326 221.600,106.400 221.813,106.400 227.164 L 106.400 232.727 109.200 233.253 C 111.173 233.623,112.000 234.205,112.000 235.224 C 112.000 238.191,112.935 239.200,115.686 239.200 C 118.248 239.200,118.400 239.355,118.400 241.964 C 118.400 244.485,118.644 244.773,121.180 245.249 C 123.557 245.695,124.033 246.163,124.469 248.485 C 124.929 250.937,125.240 251.200,127.689 251.200 C 130.125 251.200,130.400 251.427,130.400 253.440 C 130.400 256.283,131.717 257.600,134.560 257.600 C 136.573 257.600,136.800 257.875,136.800 260.311 C 136.800 262.776,137.054 263.070,139.600 263.547 C 141.817 263.963,142.400 264.448,142.400 265.876 C 142.400 268.287,143.849 269.600,146.509 269.600 C 148.386 269.600,148.734 269.965,148.949 272.154 C 149.155 274.253,149.642 274.822,151.682 275.346 C 153.563 275.830,154.344 276.616,154.907 278.592 C 155.523 280.753,156.091 281.243,158.225 281.451 C 160.476 281.670,160.800 281.994,160.800 284.023 C 160.800 286.476,162.599 288.000,165.497 288.000 C 166.719 288.000,167.158 288.616,167.349 290.600 C 167.570 292.886,167.914 293.230,170.200 293.451 C 172.330 293.656,172.800 294.044,172.800 295.594 C 172.800 298.015,174.785 300.000,177.206 300.000 C 178.756 300.000,179.144 300.470,179.349 302.600 C 179.568 304.867,179.923 305.231,182.119 305.445 C 184.273 305.654,184.712 306.078,185.141 308.367 C 185.643 311.044,186.821 312.000,189.615 312.000 C 190.704 312.000,191.165 312.691,191.349 314.600 C 191.564 316.825,191.946 317.239,193.997 317.472 C 196.656 317.774,197.569 318.751,197.588 321.314 C 197.600 323.083,198.993 324.000,201.665 324.000 C 202.720 324.000,203.204 324.563,203.212 325.800 C 203.230 328.405,204.069 329.327,207.000 329.963 C 208.983 330.393,209.600 330.948,209.600 332.304 C 209.600 334.560,211.030 336.000,213.271 336.000 C 214.635 336.000,215.137 336.612,215.541 338.769 C 215.988 341.149,216.451 341.612,218.831 342.059 C 221.022 342.470,221.600 342.956,221.600 344.391 C 221.600 346.552,222.879 347.747,225.595 348.123 C 227.099 348.332,227.689 348.990,227.995 350.800 C 228.305 352.636,228.981 353.371,230.871 353.929 C 232.652 354.455,233.545 355.348,234.071 357.129 C 234.628 359.016,235.366 359.696,237.193 360.007 C 239.099 360.331,239.669 360.901,239.993 362.807 C 240.306 364.648,240.982 365.372,242.926 365.945 C 244.767 366.487,245.642 367.354,246.155 369.142 C 246.685 370.990,247.430 371.694,249.178 371.997 C 250.976 372.309,251.648 372.978,252.163 374.966 C 252.709 377.072,253.328 377.627,255.614 378.055 C 257.788 378.463,258.400 378.963,258.400 380.329 C 258.400 382.450,259.814 384.000,261.749 384.000 C 262.624 384.000,263.628 385.076,264.337 386.772 C 265.099 388.597,266.205 389.721,267.576 390.065 C 268.923 390.403,270.049 391.526,270.768 393.247 C 271.808 395.736,272.192 395.942,276.740 396.457 C 280.759 396.912,281.600 397.266,281.600 398.503 C 281.600 399.879,282.345 400.000,290.800 400.000 C 299.467 400.000,300.000 399.907,300.000 398.400 C 300.000 397.067,300.533 396.800,303.200 396.800 C 306.286 396.800,306.400 396.706,306.400 394.165 C 306.400 391.883,306.748 391.428,309.000 390.765 L 311.600 390.000 311.600 381.600 L 311.600 373.200 309.000 372.949 C 306.750 372.732,306.400 372.399,306.400 370.472 C 306.400 367.034,304.102 363.223,301.192 361.835 C 299.742 361.144,298.168 359.728,297.695 358.689 C 297.222 357.650,296.483 356.800,296.054 356.800 C 295.363 356.800,294.504 356.013,290.638 351.839 C 288.824 349.879,287.267 348.800,286.234 348.786 C 284.798 348.767,281.600 345.248,281.600 343.687 C 281.600 342.979,281.060 342.400,280.400 342.400 C 278.875 342.400,276.000 339.561,276.000 338.054 C 276.000 337.424,275.242 336.667,274.314 336.373 C 271.819 335.581,269.600 333.439,269.600 331.822 C 269.600 330.735,268.952 330.400,266.848 330.400 C 264.246 330.400,264.083 330.237,263.848 327.400 C 263.613 324.563,263.437 324.387,260.600 324.152 C 257.763 323.917,257.600 323.754,257.600 321.152 C 257.600 318.475,257.513 318.400,254.400 318.400 L 251.200 318.400 251.200 315.200 C 251.200 312.076,251.133 312.000,248.400 312.000 C 245.733 312.000,245.600 311.867,245.600 309.200 C 245.600 306.467,245.524 306.400,242.400 306.400 L 239.200 306.400 239.200 303.200 C 239.200 300.076,239.133 300.000,236.400 300.000 C 233.735 300.000,233.600 299.865,233.600 297.209 C 233.600 294.572,233.424 294.391,230.400 293.907 C 227.400 293.428,227.200 293.227,227.200 290.698 C 227.200 288.148,227.046 288.000,224.400 288.000 C 221.972 288.000,221.600 287.743,221.600 286.065 C 221.600 282.591,220.782 281.600,217.914 281.600 C 215.346 281.600,215.200 281.450,215.200 278.800 C 215.200 276.067,215.124 276.000,212.000 276.000 L 208.800 276.000 208.800 272.800 C 208.800 269.676,208.733 269.600,206.000 269.600 C 203.333 269.600,203.200 269.467,203.200 266.800 C 203.200 264.067,203.124 264.000,200.000 264.000 L 196.800 264.000 196.800 260.800 C 196.800 257.676,196.733 257.600,194.000 257.600 C 191.430 257.600,191.200 257.406,191.200 255.228 C 191.200 252.707,189.424 251.200,186.453 251.200 C 185.097 251.200,184.800 250.696,184.800 248.400 C 184.800 245.674,184.717 245.600,181.648 245.600 C 178.584 245.600,178.490 245.517,178.248 242.600 C 178.022 239.861,177.774 239.578,175.400 239.349 C 173.020 239.120,172.800 238.866,172.800 236.349 C 172.800 233.675,172.713 233.600,169.600 233.600 L 166.400 233.600 166.400 230.400 C 166.400 227.287,166.325 227.200,163.651 227.200 C 161.134 227.200,160.880 226.980,160.651 224.600 C 160.422 222.226,160.139 221.978,157.400 221.752 C 154.483 221.510,154.400 221.416,154.400 218.352 C 154.400 215.283,154.326 215.200,151.600 215.200 C 149.067 215.200,148.800 214.987,148.800 212.960 C 148.800 210.117,147.483 208.800,144.640 208.800 C 142.613 208.800,142.400 208.533,142.400 206.000 C 142.400 203.267,142.324 203.200,139.200 203.200 L 136.000 203.200 136.000 200.000 L 136.000 196.800 139.200 196.800 C 142.313 196.800,142.400 196.725,142.400 194.048 C 142.400 191.446,142.563 191.283,145.400 191.048 C 148.237 190.813,148.413 190.637,148.648 187.800 C 148.883 184.963,149.046 184.800,151.648 184.800 C 154.325 184.800,154.400 184.713,154.400 181.600 L 154.400 178.400 157.600 178.400 C 160.724 178.400,160.800 178.333,160.800 175.600 C 160.800 172.933,160.933 172.800,163.600 172.800 C 166.333 172.800,166.400 172.724,166.400 169.600 L 166.400 166.400 169.600 166.400 C 172.724 166.400,172.800 166.333,172.800 163.600 C 172.800 160.933,172.933 160.800,175.600 160.800 C 178.333 160.800,178.400 160.724,178.400 157.600 L 178.400 154.400 181.600 154.400 C 184.713 154.400,184.800 154.325,184.800 151.648 C 184.800 149.046,184.963 148.883,187.800 148.648 C 190.637 148.413,190.813 148.237,191.048 145.400 C 191.283 142.563,191.446 142.400,194.048 142.400 C 196.725 142.400,196.800 142.313,196.800 139.200 L 196.800 136.000 200.000 136.000 C 203.124 136.000,203.200 135.933,203.200 133.200 C 203.200 130.533,203.333 130.400,206.000 130.400 C 208.733 130.400,208.800 130.324,208.800 127.200 L 208.800 124.000 212.000 124.000 C 215.113 124.000,215.200 123.925,215.200 121.248 C 215.200 118.646,215.363 118.483,218.200 118.248 C 221.037 118.013,221.213 117.837,221.448 115.000 C 221.683 112.163,221.846 112.000,224.448 112.000 C 227.051 112.000,227.200 111.851,227.200 109.248 C 227.200 106.646,227.363 106.483,230.200 106.248 C 233.037 106.013,233.213 105.837,233.448 103.000 C 233.683 100.163,233.846 100.000,236.448 100.000 C 239.125 100.000,239.200 99.913,239.200 96.800 L 239.200 93.600 242.400 93.600 C 245.524 93.600,245.600 93.533,245.600 90.800 C 245.600 88.133,245.733 88.000,248.400 88.000 C 251.133 88.000,251.200 87.924,251.200 84.800 L 251.200 81.600 254.400 81.600 C 256.711 81.600,257.600 81.267,257.600 80.400 C 257.600 78.862,260.223 76.228,262.118 75.863 C 262.923 75.708,263.709 74.921,263.864 74.114 C 264.277 71.968,266.541 69.600,268.178 69.600 C 268.960 69.600,269.600 69.264,269.600 68.854 C 269.600 68.444,270.282 67.891,271.115 67.627 C 271.949 67.362,273.479 65.901,274.515 64.378 C 275.552 62.856,276.837 61.608,277.372 61.605 C 277.906 61.602,278.773 60.790,279.297 59.800 C 280.368 57.779,283.083 55.200,284.140 55.200 C 284.522 55.200,285.233 54.324,285.721 53.254 C 286.209 52.184,287.658 50.873,288.942 50.341 C 290.225 49.810,291.786 48.388,292.410 47.181 C 293.034 45.975,294.480 44.752,295.625 44.465 C 296.975 44.126,298.098 43.003,298.824 41.265 C 299.537 39.558,300.677 38.404,301.967 38.080 C 304.217 37.515,306.400 33.316,306.400 29.553 C 306.400 27.597,306.742 27.268,309.000 27.051 L 311.600 26.800 311.600 18.451 L 311.600 10.102 309.050 9.441 C 306.928 8.891,306.458 8.346,306.250 6.190 C 306.022 3.828,305.736 3.578,303.000 3.352 C 300.650 3.157,300.000 2.767,300.000 1.552 C 300.000 0.106,299.371 0.000,290.800 0.000 C 282.133 0.000,281.600 0.093,281.600 1.600 " stroke="none" fill="#ffffff" fill-rule="evenodd"></path><path id="path1" d="M281.600 1.600 C 281.600 2.871,281.066 3.201,279.000 3.203 C 275.932 3.207,271.200 5.863,271.200 7.582 C 271.200 8.245,269.865 9.420,268.232 10.194 C 266.358 11.082,265.096 12.320,264.807 13.556 C 264.487 14.922,263.564 15.715,261.748 16.185 C 259.748 16.704,259.041 17.396,258.683 19.186 C 258.332 20.939,257.643 21.639,255.891 22.024 C 254.232 22.388,253.238 23.318,252.423 25.267 C 251.683 27.038,250.739 28.000,249.739 28.000 C 247.967 28.000,246.701 29.308,246.281 31.572 C 246.101 32.539,244.988 33.430,243.387 33.890 C 241.433 34.450,240.627 35.244,240.152 37.078 C 239.677 38.909,238.896 39.681,237.022 40.166 C 235.158 40.649,234.396 41.395,234.021 43.103 C 233.648 44.801,232.859 45.581,230.962 46.125 C 228.993 46.690,228.312 47.401,227.996 49.222 C 227.672 51.095,227.089 51.671,225.193 51.993 C 223.352 52.306,222.628 52.982,222.055 54.926 C 221.515 56.760,220.645 57.642,218.879 58.149 C 217.089 58.662,216.251 59.528,215.708 61.423 C 215.169 63.300,214.500 64.000,213.244 64.000 C 211.013 64.000,209.600 65.452,209.600 67.745 C 209.600 69.075,209.003 69.712,207.400 70.095 C 204.316 70.832,203.200 71.895,203.200 74.098 C 203.200 75.533,202.759 76.003,201.400 76.012 C 198.750 76.030,197.777 76.920,197.472 79.603 C 197.246 81.596,196.796 82.046,194.803 82.272 C 192.120 82.577,191.230 83.550,191.212 86.200 C 191.204 87.437,190.720 88.000,189.665 88.000 C 186.819 88.000,185.646 88.942,185.141 91.633 C 184.712 93.922,184.273 94.346,182.119 94.555 C 179.923 94.769,179.568 95.133,179.349 97.400 C 179.144 99.530,178.756 100.000,177.206 100.000 C 174.785 100.000,172.800 101.985,172.800 104.406 C 172.800 105.956,172.330 106.344,170.200 106.549 C 167.946 106.767,167.568 107.128,167.359 109.269 C 167.153 111.379,166.688 111.844,164.159 112.469 C 161.603 113.100,161.166 113.547,160.953 115.753 C 160.739 117.958,160.367 118.339,158.219 118.553 C 156.179 118.756,155.565 119.302,154.796 121.600 C 154.073 123.761,153.327 124.492,151.529 124.803 C 149.589 125.140,149.158 125.641,148.949 127.803 C 148.734 130.039,148.394 130.400,146.509 130.400 C 143.730 130.400,142.400 131.730,142.400 134.509 C 142.400 136.395,142.039 136.733,139.800 136.949 C 137.514 137.170,137.170 137.514,136.949 139.800 C 136.733 142.039,136.395 142.400,134.509 142.400 C 131.715 142.400,130.400 143.732,130.400 146.560 C 130.400 148.573,130.125 148.800,127.689 148.800 C 125.240 148.800,124.929 149.063,124.469 151.515 C 124.033 153.837,123.557 154.305,121.180 154.751 C 118.644 155.227,118.400 155.515,118.400 158.036 C 118.400 160.659,118.258 160.800,115.615 160.800 C 113.228 160.800,112.762 161.114,112.348 163.000 C 111.503 166.861,111.336 167.080,109.047 167.342 C 106.840 167.595,106.796 167.703,106.565 173.400 L 106.330 179.200 103.165 179.200 L 100.000 179.200 100.000 199.914 C 100.000 222.411,99.833 221.600,104.465 221.600 C 106.326 221.600,106.400 221.813,106.400 227.164 L 106.400 232.727 109.200 233.253 C 111.173 233.623,112.000 234.205,112.000 235.224 C 112.000 238.191,112.935 239.200,115.686 239.200 C 118.248 239.200,118.400 239.355,118.400 241.964 C 118.400 244.485,118.644 244.773,121.180 245.249 C 123.557 245.695,124.033 246.163,124.469 248.485 C 124.929 250.937,125.240 251.200,127.689 251.200 C 130.125 251.200,130.400 251.427,130.400 253.440 C 130.400 256.283,131.717 257.600,134.560 257.600 C 136.573 257.600,136.800 257.875,136.800 260.311 C 136.800 262.776,137.054 263.070,139.600 263.547 C 141.817 263.963,142.400 264.448,142.400 265.876 C 142.400 268.287,143.849 269.600,146.509 269.600 C 148.386 269.600,148.734 269.965,148.949 272.154 C 149.155 274.253,149.642 274.822,151.682 275.346 C 153.563 275.830,154.344 276.616,154.907 278.592 C 155.523 280.753,156.091 281.243,158.225 281.451 C 160.476 281.670,160.800 281.994,160.800 284.023 C 160.800 286.476,162.599 288.000,165.497 288.000 C 166.719 288.000,167.158 288.616,167.349 290.600 C 167.570 292.886,167.914 293.230,170.200 293.451 C 172.330 293.656,172.800 294.044,172.800 295.594 C 172.800 298.015,174.785 300.000,177.206 300.000 C 178.756 300.000,179.144 300.470,179.349 302.600 C 179.568 304.867,179.923 305.231,182.119 305.445 C 184.273 305.654,184.712 306.078,185.141 308.367 C 185.643 311.044,186.821 312.000,189.615 312.000 C 190.704 312.000,191.165 312.691,191.349 314.600 C 191.564 316.825,191.946 317.239,193.997 317.472 C 196.656 317.774,197.569 318.751,197.588 321.314 C 197.600 323.083,198.993 324.000,201.665 324.000 C 202.720 324.000,203.204 324.563,203.212 325.800 C 203.230 328.405,204.069 329.327,207.000 329.963 C 208.983 330.393,209.600 330.948,209.600 332.304 C 209.600 334.560,211.030 336.000,213.271 336.000 C 214.635 336.000,215.137 336.612,215.541 338.769 C 215.988 341.149,216.451 341.612,218.831 342.059 C 221.022 342.470,221.600 342.956,221.600 344.391 C 221.600 346.552,222.879 347.747,225.595 348.123 C 227.099 348.332,227.689 348.990,227.995 350.800 C 228.305 352.636,228.981 353.371,230.871 353.929 C 232.652 354.455,233.545 355.348,234.071 357.129 C 234.628 359.016,235.366 359.696,237.193 360.007 C 239.099 360.331,239.669 360.901,239.993 362.807 C 240.306 364.648,240.982 365.372,242.926 365.945 C 244.767 366.487,245.642 367.354,246.155 369.142 C 246.685 370.990,247.430 371.694,249.178 371.997 C 250.976 372.309,251.648 372.978,252.163 374.966 C 252.709 377.072,253.328 377.627,255.614 378.055 C 257.788 378.463,258.400 378.963,258.400 380.329 C 258.400 382.450,259.814 384.000,261.749 384.000 C 262.624 384.000,263.628 385.076,264.337 386.772 C 265.099 388.597,266.205 389.721,267.576 390.065 C 268.923 390.403,270.049 391.526,270.768 393.247 C 271.808 395.736,272.192 395.942,276.740 396.457 C 280.759 396.912,281.600 397.266,281.600 398.503 C 281.600 399.879,282.345 400.000,290.800 400.000 C 299.467 400.000,300.000 399.907,300.000 398.400 C 300.000 397.067,300.533 396.800,303.200 396.800 C 306.286 396.800,306.400 396.706,306.400 394.165 C 306.400 391.883,306.748 391.428,309.000 390.765 L 311.600 390.000 311.600 381.600 L 311.600 373.200 309.000 372.949 C 306.750 372.732,306.400 372.399,306.400 370.472 C 306.400 367.034,304.102 363.223,301.192 361.835 C 299.742 361.144,298.168 359.728,297.695 358.689 C 297.222 357.650,296.483 356.800,296.054 356.800 C 295.363 356.800,294.504 356.013,290.638 351.839 C 288.824 349.879,287.267 348.800,286.234 348.786 C 284.798 348.767,281.600 345.248,281.600 343.687 C 281.600 342.979,281.060 342.400,280.400 342.400 C 278.875 342.400,276.000 339.561,276.000 338.054 C 276.000 337.424,275.242 336.667,274.314 336.373 C 271.819 335.581,269.600 333.439,269.600 331.822 C 269.600 330.735,268.952 330.400,266.848 330.400 C 264.246 330.400,264.083 330.237,263.848 327.400 C 263.613 324.563,263.437 324.387,260.600 324.152 C 257.763 323.917,257.600 323.754,257.600 321.152 C 257.600 318.475,257.513 318.400,254.400 318.400 L 251.200 318.400 251.200 315.200 C 251.200 312.076,251.133 312.000,248.400 312.000 C 245.733 312.000,245.600 311.867,245.600 309.200 C 245.600 306.467,245.524 306.400,242.400 306.400 L 239.200 306.400 239.200 303.200 C 239.200 300.076,239.133 300.000,236.400 300.000 C 233.735 300.000,233.600 299.865,233.600 297.209 C 233.600 294.572,233.424 294.391,230.400 293.907 C 227.400 293.428,227.200 293.227,227.200 290.698 C 227.200 288.148,227.046 288.000,224.400 288.000 C 221.972 288.000,221.600 287.743,221.600 286.065 C 221.600 282.591,220.782 281.600,217.914 281.600 C 215.346 281.600,215.200 281.450,215.200 278.800 C 215.200 276.067,215.124 276.000,212.000 276.000 L 208.800 276.000 208.800 272.800 C 208.800 269.676,208.733 269.600,206.000 269.600 C 203.333 269.600,203.200 269.467,203.200 266.800 C 203.200 264.067,203.124 264.000,200.000 264.000 L 196.800 264.000 196.800 260.800 C 196.800 257.676,196.733 257.600,194.000 257.600 C 191.430 257.600,191.200 257.406,191.200 255.228 C 191.200 252.707,189.424 251.200,186.453 251.200 C 185.097 251.200,184.800 250.696,184.800 248.400 C 184.800 245.674,184.717 245.600,181.648 245.600 C 178.584 245.600,178.490 245.517,178.248 242.600 C 178.022 239.861,177.774 239.578,175.400 239.349 C 173.020 239.120,172.800 238.866,172.800 236.349 C 172.800 233.675,172.713 233.600,169.600 233.600 L 166.400 233.600 166.400 230.400 C 166.400 227.287,166.325 227.200,163.651 227.200 C 161.134 227.200,160.880 226.980,160.651 224.600 C 160.422 222.226,160.139 221.978,157.400 221.752 C 154.483 221.510,154.400 221.416,154.400 218.352 C 154.400 215.283,154.326 215.200,151.600 215.200 C 149.067 215.200,148.800 214.987,148.800 212.960 C 148.800 210.117,147.483 208.800,144.640 208.800 C 142.613 208.800,142.400 208.533,142.400 206.000 C 142.400 203.267,142.324 203.200,139.200 203.200 L 136.000 203.200 136.000 200.000 L 136.000 196.800 139.200 196.800 C 142.313 196.800,142.400 196.725,142.400 194.048 C 142.400 191.446,142.563 191.283,145.400 191.048 C 148.237 190.813,148.413 190.637,148.648 187.800 C 148.883 184.963,149.046 184.800,151.648 184.800 C 154.325 184.800,154.400 184.713,154.400 181.600 L 154.400 178.400 157.600 178.400 C 160.724 178.400,160.800 178.333,160.800 175.600 C 160.800 172.933,160.933 172.800,163.600 172.800 C 166.333 172.800,166.400 172.724,166.400 169.600 L 166.400 166.400 169.600 166.400 C 172.724 166.400,172.800 166.333,172.800 163.600 C 172.800 160.933,172.933 160.800,175.600 160.800 C 178.333 160.800,178.400 160.724,178.400 157.600 L 178.400 154.400 181.600 154.400 C 184.713 154.400,184.800 154.325,184.800 151.648 C 184.800 149.046,184.963 148.883,187.800 148.648 C 190.637 148.413,190.813 148.237,191.048 145.400 C 191.283 142.563,191.446 142.400,194.048 142.400 C 196.725 142.400,196.800 142.313,196.800 139.200 L 196.800 136.000 200.000 136.000 C 203.124 136.000,203.200 135.933,203.200 133.200 C 203.200 130.533,203.333 130.400,206.000 130.400 C 208.733 130.400,208.800 130.324,208.800 127.200 L 208.800 124.000 212.000 124.000 C 215.113 124.000,215.200 123.925,215.200 121.248 C 215.200 118.646,215.363 118.483,218.200 118.248 C 221.037 118.013,221.213 117.837,221.448 115.000 C 221.683 112.163,221.846 112.000,224.448 112.000 C 227.051 112.000,227.200 111.851,227.200 109.248 C 227.200 106.646,227.363 106.483,230.200 106.248 C 233.037 106.013,233.213 105.837,233.448 103.000 C 233.683 100.163,233.846 100.000,236.448 100.000 C 239.125 100.000,239.200 99.913,239.200 96.800 L 239.200 93.600 242.400 93.600 C 245.524 93.600,245.600 93.533,245.600 90.800 C 245.600 88.133,245.733 88.000,248.400 88.000 C 251.133 88.000,251.200 87.924,251.200 84.800 L 251.200 81.600 254.400 81.600 C 256.711 81.600,257.600 81.267,257.600 80.400 C 257.600 78.862,260.223 76.228,262.118 75.863 C 262.923 75.708,263.709 74.921,263.864 74.114 C 264.277 71.968,266.541 69.600,268.178 69.600 C 268.960 69.600,269.600 69.264,269.600 68.854 C 269.600 68.444,270.282 67.891,271.115 67.627 C 271.949 67.362,273.479 65.901,274.515 64.378 C 275.552 62.856,276.837 61.608,277.372 61.605 C 277.906 61.602,278.773 60.790,279.297 59.800 C 280.368 57.779,283.083 55.200,284.140 55.200 C 284.522 55.200,285.233 54.324,285.721 53.254 C 286.209 52.184,287.658 50.873,288.942 50.341 C 290.225 49.810,291.786 48.388,292.410 47.181 C 293.034 45.975,294.480 44.752,295.625 44.465 C 296.975 44.126,298.098 43.003,298.824 41.265 C 299.537 39.558,300.677 38.404,301.967 38.080 C 304.217 37.515,306.400 33.316,306.400 29.553 C 306.400 27.597,306.742 27.268,309.000 27.051 L 311.600 26.800 311.600 18.451 L 311.600 10.102 309.050 9.441 C 306.928 8.891,306.458 8.346,306.250 6.190 C 306.022 3.828,305.736 3.578,303.000 3.352 C 300.650 3.157,300.000 2.767,300.000 1.552 C 300.000 0.106,299.371 0.000,290.800 0.000 C 282.133 0.000,281.600 0.093,281.600 1.600 " stroke="none" fill="#ffffff" fill-rule="evenodd"></path><path id="path2" d="M281.600 1.600 C 281.600 2.871,281.066 3.201,279.000 3.203 C 275.932 3.207,271.200 5.863,271.200 7.582 C 271.200 8.245,269.865 9.420,268.232 10.194 C 266.358 11.082,265.096 12.320,264.807 13.556 C 264.487 14.922,263.564 15.715,261.748 16.185 C 259.748 16.704,259.041 17.396,258.683 19.186 C 258.332 20.939,257.643 21.639,255.891 22.024 C 254.232 22.388,253.238 23.318,252.423 25.267 C 251.683 27.038,250.739 28.000,249.739 28.000 C 247.967 28.000,246.701 29.308,246.281 31.572 C 246.101 32.539,244.988 33.430,243.387 33.890 C 241.433 34.450,240.627 35.244,240.152 37.078 C 239.677 38.909,238.896 39.681,237.022 40.166 C 235.158 40.649,234.396 41.395,234.021 43.103 C 233.648 44.801,232.859 45.581,230.962 46.125 C 228.993 46.690,228.312 47.401,227.996 49.222 C 227.672 51.095,227.089 51.671,225.193 51.993 C 223.352 52.306,222.628 52.982,222.055 54.926 C 221.515 56.760,220.645 57.642,218.879 58.149 C 217.089 58.662,216.251 59.528,215.708 61.423 C 215.169 63.300,214.500 64.000,213.244 64.000 C 211.013 64.000,209.600 65.452,209.600 67.745 C 209.600 69.075,209.003 69.712,207.400 70.095 C 204.316 70.832,203.200 71.895,203.200 74.098 C 203.200 75.533,202.759 76.003,201.400 76.012 C 198.750 76.030,197.777 76.920,197.472 79.603 C 197.246 81.596,196.796 82.046,194.803 82.272 C 192.120 82.577,191.230 83.550,191.212 86.200 C 191.204 87.437,190.720 88.000,189.665 88.000 C 186.819 88.000,185.646 88.942,185.141 91.633 C 184.712 93.922,184.273 94.346,182.119 94.555 C 179.923 94.769,179.568 95.133,179.349 97.400 C 179.144 99.530,178.756 100.000,177.206 100.000 C 174.785 100.000,172.800 101.985,172.800 104.406 C 172.800 105.956,172.330 106.344,170.200 106.549 C 167.946 106.767,167.568 107.128,167.359 109.269 C 167.153 111.379,166.688 111.844,164.159 112.469 C 161.603 113.100,161.166 113.547,160.953 115.753 C 160.739 117.958,160.367 118.339,158.219 118.553 C 156.179 118.756,155.565 119.302,154.796 121.600 C 154.073 123.761,153.327 124.492,151.529 124.803 C 149.589 125.140,149.158 125.641,148.949 127.803 C 148.734 130.039,148.394 130.400,146.509 130.400 C 143.730 130.400,142.400 131.730,142.400 134.509 C 142.400 136.395,142.039 136.733,139.800 136.949 C 137.514 137.170,137.170 137.514,136.949 139.800 C 136.733 142.039,136.395 142.400,134.509 142.400 C 131.715 142.400,130.400 143.732,130.400 146.560 C 130.400 148.573,130.125 148.800,127.689 148.800 C 125.240 148.800,124.929 149.063,124.469 151.515 C 124.033 153.837,123.557 154.305,121.180 154.751 C 118.644 155.227,118.400 155.515,118.400 158.036 C 118.400 160.659,118.258 160.800,115.615 160.800 C 113.228 160.800,112.762 161.114,112.348 163.000 C 111.503 166.861,111.336 167.080,109.047 167.342 C 106.840 167.595,106.796 167.703,106.565 173.400 L 106.330 179.200 103.165 179.200 L 100.000 179.200 100.000 199.914 C 100.000 222.411,99.833 221.600,104.465 221.600 C 106.326 221.600,106.400 221.813,106.400 227.164 L 106.400 232.727 109.200 233.253 C 111.173 233.623,112.000 234.205,112.000 235.224 C 112.000 238.191,112.935 239.200,115.686 239.200 C 118.248 239.200,118.400 239.355,118.400 241.964 C 118.400 244.485,118.644 244.773,121.180 245.249 C 123.557 245.695,124.033 246.163,124.469 248.485 C 124.929 250.937,125.240 251.200,127.689 251.200 C 130.125 251.200,130.400 251.427,130.400 253.440 C 130.400 256.283,131.717 257.600,134.560 257.600 C 136.573 257.600,136.800 257.875,136.800 260.311 C 136.800 262.776,137.054 263.070,139.600 263.547 C 141.817 263.963,142.400 264.448,142.400 265.876 C 142.400 268.287,143.849 269.600,146.509 269.600 C 148.386 269.600,148.734 269.965,148.949 272.154 C 149.155 274.253,149.642 274.822,151.682 275.346 C 153.563 275.830,154.344 276.616,154.907 278.592 C 155.523 280.753,156.091 281.243,158.225 281.451 C 160.476 281.670,160.800 281.994,160.800 284.023 C 160.800 286.476,162.599 288.000,165.497 288.000 C 166.719 288.000,167.158 288.616,167.349 290.600 C 167.570 292.886,167.914 293.230,170.200 293.451 C 172.330 293.656,172.800 294.044,172.800 295.594 C 172.800 298.015,174.785 300.000,177.206 300.000 C 178.756 300.000,179.144 300.470,179.349 302.600 C 179.568 304.867,179.923 305.231,182.119 305.445 C 184.273 305.654,184.712 306.078,185.141 308.367 C 185.643 311.044,186.821 312.000,189.615 312.000 C 190.704 312.000,191.165 312.691,191.349 314.600 C 191.564 316.825,191.946 317.239,193.997 317.472 C 196.656 317.774,197.569 318.751,197.588 321.314 C 197.600 323.083,198.993 324.000,201.665 324.000 C 202.720 324.000,203.204 324.563,203.212 325.800 C 203.230 328.405,204.069 329.327,207.000 329.963 C 208.983 330.393,209.600 330.948,209.600 332.304 C 209.600 334.560,211.030 336.000,213.271 336.000 C 214.635 336.000,215.137 336.612,215.541 338.769 C 215.988 341.149,216.451 341.612,218.831 342.059 C 221.022 342.470,221.600 342.956,221.600 344.391 C 221.600 346.552,222.879 347.747,225.595 348.123 C 227.099 348.332,227.689 348.990,227.995 350.800 C 228.305 352.636,228.981 353.371,230.871 353.929 C 232.652 354.455,233.545 355.348,234.071 357.129 C 234.628 359.016,235.366 359.696,237.193 360.007 C 239.099 360.331,239.669 360.901,239.993 362.807 C 240.306 364.648,240.982 365.372,242.926 365.945 C 244.767 366.487,245.642 367.354,246.155 369.142 C 246.685 370.990,247.430 371.694,249.178 371.997 C 250.976 372.309,251.648 372.978,252.163 374.966 C 252.709 377.072,253.328 377.627,255.614 378.055 C 257.788 378.463,258.400 378.963,258.400 380.329 C 258.400 382.450,259.814 384.000,261.749 384.000 C 262.624 384.000,263.628 385.076,264.337 386.772 C 265.099 388.597,266.205 389.721,267.576 390.065 C 268.923 390.403,270.049 391.526,270.768 393.247 C 271.808 395.736,272.192 395.942,276.740 396.457 C 280.759 396.912,281.600 397.266,281.600 398.503 C 281.600 399.879,282.345 400.000,290.800 400.000 C 299.467 400.000,300.000 399.907,300.000 398.400 C 300.000 397.067,300.533 396.800,303.200 396.800 C 306.286 396.800,306.400 396.706,306.400 394.165 C 306.400 391.883,306.748 391.428,309.000 390.765 L 311.600 390.000 311.600 381.600 L 311.600 373.200 309.000 372.949 C 306.750 372.732,306.400 372.399,306.400 370.472 C 306.400 367.034,304.102 363.223,301.192 361.835 C 299.742 361.144,298.168 359.728,297.695 358.689 C 297.222 357.650,296.483 356.800,296.054 356.800 C 295.363 356.800,294.504 356.013,290.638 351.839 C 288.824 349.879,287.267 348.800,286.234 348.786 C 284.798 348.767,281.600 345.248,281.600 343.687 C 281.600 342.979,281.060 342.400,280.400 342.400 C 278.875 342.400,276.000 339.561,276.000 338.054 C 276.000 337.424,275.242 336.667,274.314 336.373 C 271.819 335.581,269.600 333.439,269.600 331.822 C 269.600 330.735,268.952 330.400,266.848 330.400 C 264.246 330.400,264.083 330.237,263.848 327.400 C 263.613 324.563,263.437 324.387,260.600 324.152 C 257.763 323.917,257.600 323.754,257.600 321.152 C 257.600 318.475,257.513 318.400,254.400 318.400 L 251.200 318.400 251.200 315.200 C 251.200 312.076,251.133 312.000,248.400 312.000 C 245.733 312.000,245.600 311.867,245.600 309.200 C 245.600 306.467,245.524 306.400,242.400 306.400 L 239.200 306.400 239.200 303.200 C 239.200 300.076,239.133 300.000,236.400 300.000 C 233.735 300.000,233.600 299.865,233.600 297.209 C 233.600 294.572,233.424 294.391,230.400 293.907 C 227.400 293.428,227.200 293.227,227.200 290.698 C 227.200 288.148,227.046 288.000,224.400 288.000 C 221.972 288.000,221.600 287.743,221.600 286.065 C 221.600 282.591,220.782 281.600,217.914 281.600 C 215.346 281.600,215.200 281.450,215.200 278.800 C 215.200 276.067,215.124 276.000,212.000 276.000 L 208.800 276.000 208.800 272.800 C 208.800 269.676,208.733 269.600,206.000 269.600 C 203.333 269.600,203.200 269.467,203.200 266.800 C 203.200 264.067,203.124 264.000,200.000 264.000 L 196.800 264.000 196.800 260.800 C 196.800 257.676,196.733 257.600,194.000 257.600 C 191.430 257.600,191.200 257.406,191.200 255.228 C 191.200 252.707,189.424 251.200,186.453 251.200 C 185.097 251.200,184.800 250.696,184.800 248.400 C 184.800 245.674,184.717 245.600,181.648 245.600 C 178.584 245.600,178.490 245.517,178.248 242.600 C 178.022 239.861,177.774 239.578,175.400 239.349 C 173.020 239.120,172.800 238.866,172.800 236.349 C 172.800 233.675,172.713 233.600,169.600 233.600 L 166.400 233.600 166.400 230.400 C 166.400 227.287,166.325 227.200,163.651 227.200 C 161.134 227.200,160.880 226.980,160.651 224.600 C 160.422 222.226,160.139 221.978,157.400 221.752 C 154.483 221.510,154.400 221.416,154.400 218.352 C 154.400 215.283,154.326 215.200,151.600 215.200 C 149.067 215.200,148.800 214.987,148.800 212.960 C 148.800 210.117,147.483 208.800,144.640 208.800 C 142.613 208.800,142.400 208.533,142.400 206.000 C 142.400 203.267,142.324 203.200,139.200 203.200 L 136.000 203.200 136.000 200.000 L 136.000 196.800 139.200 196.800 C 142.313 196.800,142.400 196.725,142.400 194.048 C 142.400 191.446,142.563 191.283,145.400 191.048 C 148.237 190.813,148.413 190.637,148.648 187.800 C 148.883 184.963,149.046 184.800,151.648 184.800 C 154.325 184.800,154.400 184.713,154.400 181.600 L 154.400 178.400 157.600 178.400 C 160.724 178.400,160.800 178.333,160.800 175.600 C 160.800 172.933,160.933 172.800,163.600 172.800 C 166.333 172.800,166.400 172.724,166.400 169.600 L 166.400 166.400 169.600 166.400 C 172.724 166.400,172.800 166.333,172.800 163.600 C 172.800 160.933,172.933 160.800,175.600 160.800 C 178.333 160.800,178.400 160.724,178.400 157.600 L 178.400 154.400 181.600 154.400 C 184.713 154.400,184.800 154.325,184.800 151.648 C 184.800 149.046,184.963 148.883,187.800 148.648 C 190.637 148.413,190.813 148.237,191.048 145.400 C 191.283 142.563,191.446 142.400,194.048 142.400 C 196.725 142.400,196.800 142.313,196.800 139.200 L 196.800 136.000 200.000 136.000 C 203.124 136.000,203.200 135.933,203.200 133.200 C 203.200 130.533,203.333 130.400,206.000 130.400 C 208.733 130.400,208.800 130.324,208.800 127.200 L 208.800 124.000 212.000 124.000 C 215.113 124.000,215.200 123.925,215.200 121.248 C 215.200 118.646,215.363 118.483,218.200 118.248 C 221.037 118.013,221.213 117.837,221.448 115.000 C 221.683 112.163,221.846 112.000,224.448 112.000 C 227.051 112.000,227.200 111.851,227.200 109.248 C 227.200 106.646,227.363 106.483,230.200 106.248 C 233.037 106.013,233.213 105.837,233.448 103.000 C 233.683 100.163,233.846 100.000,236.448 100.000 C 239.125 100.000,239.200 99.913,239.200 96.800 L 239.200 93.600 242.400 93.600 C 245.524 93.600,245.600 93.533,245.600 90.800 C 245.600 88.133,245.733 88.000,248.400 88.000 C 251.133 88.000,251.200 87.924,251.200 84.800 L 251.200 81.600 254.400 81.600 C 256.711 81.600,257.600 81.267,257.600 80.400 C 257.600 78.862,260.223 76.228,262.118 75.863 C 262.923 75.708,263.709 74.921,263.864 74.114 C 264.277 71.968,266.541 69.600,268.178 69.600 C 268.960 69.600,269.600 69.264,269.600 68.854 C 269.600 68.444,270.282 67.891,271.115 67.627 C 271.949 67.362,273.479 65.901,274.515 64.378 C 275.552 62.856,276.837 61.608,277.372 61.605 C 277.906 61.602,278.773 60.790,279.297 59.800 C 280.368 57.779,283.083 55.200,284.140 55.200 C 284.522 55.200,285.233 54.324,285.721 53.254 C 286.209 52.184,287.658 50.873,288.942 50.341 C 290.225 49.810,291.786 48.388,292.410 47.181 C 293.034 45.975,294.480 44.752,295.625 44.465 C 296.975 44.126,298.098 43.003,298.824 41.265 C 299.537 39.558,300.677 38.404,301.967 38.080 C 304.217 37.515,306.400 33.316,306.400 29.553 C 306.400 27.597,306.742 27.268,309.000 27.051 L 311.600 26.800 311.600 18.451 L 311.600 10.102 309.050 9.441 C 306.928 8.891,306.458 8.346,306.250 6.190 C 306.022 3.828,305.736 3.578,303.000 3.352 C 300.650 3.157,300.000 2.767,300.000 1.552 C 300.000 0.106,299.371 0.000,290.800 0.000 C 282.133 0.000,281.600 0.093,281.600 1.600 " stroke="none" fill="#ffffff" fill-rule="evenodd"></path><path id="path3" d="M281.600 1.600 C 281.600 2.871,281.066 3.201,279.000 3.203 C 275.932 3.207,271.200 5.863,271.200 7.582 C 271.200 8.245,269.865 9.420,268.232 10.194 C 266.358 11.082,265.096 12.320,264.807 13.556 C 264.487 14.922,263.564 15.715,261.748 16.185 C 259.748 16.704,259.041 17.396,258.683 19.186 C 258.332 20.939,257.643 21.639,255.891 22.024 C 254.232 22.388,253.238 23.318,252.423 25.267 C 251.683 27.038,250.739 28.000,249.739 28.000 C 247.967 28.000,246.701 29.308,246.281 31.572 C 246.101 32.539,244.988 33.430,243.387 33.890 C 241.433 34.450,240.627 35.244,240.152 37.078 C 239.677 38.909,238.896 39.681,237.022 40.166 C 235.158 40.649,234.396 41.395,234.021 43.103 C 233.648 44.801,232.859 45.581,230.962 46.125 C 228.993 46.690,228.312 47.401,227.996 49.222 C 227.672 51.095,227.089 51.671,225.193 51.993 C 223.352 52.306,222.628 52.982,222.055 54.926 C 221.515 56.760,220.645 57.642,218.879 58.149 C 217.089 58.662,216.251 59.528,215.708 61.423 C 215.169 63.300,214.500 64.000,213.244 64.000 C 211.013 64.000,209.600 65.452,209.600 67.745 C 209.600 69.075,209.003 69.712,207.400 70.095 C 204.316 70.832,203.200 71.895,203.200 74.098 C 203.200 75.533,202.759 76.003,201.400 76.012 C 198.750 76.030,197.777 76.920,197.472 79.603 C 197.246 81.596,196.796 82.046,194.803 82.272 C 192.120 82.577,191.230 83.550,191.212 86.200 C 191.204 87.437,190.720 88.000,189.665 88.000 C 186.819 88.000,185.646 88.942,185.141 91.633 C 184.712 93.922,184.273 94.346,182.119 94.555 C 179.923 94.769,179.568 95.133,179.349 97.400 C 179.144 99.530,178.756 100.000,177.206 100.000 C 174.785 100.000,172.800 101.985,172.800 104.406 C 172.800 105.956,172.330 106.344,170.200 106.549 C 167.946 106.767,167.568 107.128,167.359 109.269 C 167.153 111.379,166.688 111.844,164.159 112.469 C 161.603 113.100,161.166 113.547,160.953 115.753 C 160.739 117.958,160.367 118.339,158.219 118.553 C 156.179 118.756,155.565 119.302,154.796 121.600 C 154.073 123.761,153.327 124.492,151.529 124.803 C 149.589 125.140,149.158 125.641,148.949 127.803 C 148.734 130.039,148.394 130.400,146.509 130.400 C 143.730 130.400,142.400 131.730,142.400 134.509 C 142.400 136.395,142.039 136.733,139.800 136.949 C 137.514 137.170,137.170 137.514,136.949 139.800 C 136.733 142.039,136.395 142.400,134.509 142.400 C 131.715 142.400,130.400 143.732,130.400 146.560 C 130.400 148.573,130.125 148.800,127.689 148.800 C 125.240 148.800,124.929 149.063,124.469 151.515 C 124.033 153.837,123.557 154.305,121.180 154.751 C 118.644 155.227,118.400 155.515,118.400 158.036 C 118.400 160.659,118.258 160.800,115.615 160.800 C 113.228 160.800,112.762 161.114,112.348 163.000 C 111.503 166.861,111.336 167.080,109.047 167.342 C 106.840 167.595,106.796 167.703,106.565 173.400 L 106.330 179.200 103.165 179.200 L 100.000 179.200 100.000 199.914 C 100.000 222.411,99.833 221.600,104.465 221.600 C 106.326 221.600,106.400 221.813,106.400 227.164 L 106.400 232.727 109.200 233.253 C 111.173 233.623,112.000 234.205,112.000 235.224 C 112.000 238.191,112.935 239.200,115.686 239.200 C 118.248 239.200,118.400 239.355,118.400 241.964 C 118.400 244.485,118.644 244.773,121.180 245.249 C 123.557 245.695,124.033 246.163,124.469 248.485 C 124.929 250.937,125.240 251.200,127.689 251.200 C 130.125 251.200,130.400 251.427,130.400 253.440 C 130.400 256.283,131.717 257.600,134.560 257.600 C 136.573 257.600,136.800 257.875,136.800 260.311 C 136.800 262.776,137.054 263.070,139.600 263.547 C 141.817 263.963,142.400 264.448,142.400 265.876 C 142.400 268.287,143.849 269.600,146.509 269.600 C 148.386 269.600,148.734 269.965,148.949 272.154 C 149.155 274.253,149.642 274.822,151.682 275.346 C 153.563 275.830,154.344 276.616,154.907 278.592 C 155.523 280.753,156.091 281.243,158.225 281.451 C 160.476 281.670,160.800 281.994,160.800 284.023 C 160.800 286.476,162.599 288.000,165.497 288.000 C 166.719 288.000,167.158 288.616,167.349 290.600 C 167.570 292.886,167.914 293.230,170.200 293.451 C 172.330 293.656,172.800 294.044,172.800 295.594 C 172.800 298.015,174.785 300.000,177.206 300.000 C 178.756 300.000,179.144 300.470,179.349 302.600 C 179.568 304.867,179.923 305.231,182.119 305.445 C 184.273 305.654,184.712 306.078,185.141 308.367 C 185.643 311.044,186.821 312.000,189.615 312.000 C 190.704 312.000,191.165 312.691,191.349 314.600 C 191.564 316.825,191.946 317.239,193.997 317.472 C 196.656 317.774,197.569 318.751,197.588 321.314 C 197.600 323.083,198.993 324.000,201.665 324.000 C 202.720 324.000,203.204 324.563,203.212 325.800 C 203.230 328.405,204.069 329.327,207.000 329.963 C 208.983 330.393,209.600 330.948,209.600 332.304 C 209.600 334.560,211.030 336.000,213.271 336.000 C 214.635 336.000,215.137 336.612,215.541 338.769 C 215.988 341.149,216.451 341.612,218.831 342.059 C 221.022 342.470,221.600 342.956,221.600 344.391 C 221.600 346.552,222.879 347.747,225.595 348.123 C 227.099 348.332,227.689 348.990,227.995 350.800 C 228.305 352.636,228.981 353.371,230.871 353.929 C 232.652 354.455,233.545 355.348,234.071 357.129 C 234.628 359.016,235.366 359.696,237.193 360.007 C 239.099 360.331,239.669 360.901,239.993 362.807 C 240.306 364.648,240.982 365.372,242.926 365.945 C 244.767 366.487,245.642 367.354,246.155 369.142 C 246.685 370.990,247.430 371.694,249.178 371.997 C 250.976 372.309,251.648 372.978,252.163 374.966 C 252.709 377.072,253.328 377.627,255.614 378.055 C 257.788 378.463,258.400 378.963,258.400 380.329 C 258.400 382.450,259.814 384.000,261.749 384.000 C 262.624 384.000,263.628 385.076,264.337 386.772 C 265.099 388.597,266.205 389.721,267.576 390.065 C 268.923 390.403,270.049 391.526,270.768 393.247 C 271.808 395.736,272.192 395.942,276.740 396.457 C 280.759 396.912,281.600 397.266,281.600 398.503 C 281.600 399.879,282.345 400.000,290.800 400.000 C 299.467 400.000,300.000 399.907,300.000 398.400 C 300.000 397.067,300.533 396.800,303.200 396.800 C 306.286 396.800,306.400 396.706,306.400 394.165 C 306.400 391.883,306.748 391.428,309.000 390.765 L 311.600 390.000 311.600 381.600 L 311.600 373.200 309.000 372.949 C 306.750 372.732,306.400 372.399,306.400 370.472 C 306.400 367.034,304.102 363.223,301.192 361.835 C 299.742 361.144,298.168 359.728,297.695 358.689 C 297.222 357.650,296.483 356.800,296.054 356.800 C 295.363 356.800,294.504 356.013,290.638 351.839 C 288.824 349.879,287.267 348.800,286.234 348.786 C 284.798 348.767,281.600 345.248,281.600 343.687 C 281.600 342.979,281.060 342.400,280.400 342.400 C 278.875 342.400,276.000 339.561,276.000 338.054 C 276.000 337.424,275.242 336.667,274.314 336.373 C 271.819 335.581,269.600 333.439,269.600 331.822 C 269.600 330.735,268.952 330.400,266.848 330.400 C 264.246 330.400,264.083 330.237,263.848 327.400 C 263.613 324.563,263.437 324.387,260.600 324.152 C 257.763 323.917,257.600 323.754,257.600 321.152 C 257.600 318.475,257.513 318.400,254.400 318.400 L 251.200 318.400 251.200 315.200 C 251.200 312.076,251.133 312.000,248.400 312.000 C 245.733 312.000,245.600 311.867,245.600 309.200 C 245.600 306.467,245.524 306.400,242.400 306.400 L 239.200 306.400 239.200 303.200 C 239.200 300.076,239.133 300.000,236.400 300.000 C 233.735 300.000,233.600 299.865,233.600 297.209 C 233.600 294.572,233.424 294.391,230.400 293.907 C 227.400 293.428,227.200 293.227,227.200 290.698 C 227.200 288.148,227.046 288.000,224.400 288.000 C 221.972 288.000,221.600 287.743,221.600 286.065 C 221.600 282.591,220.782 281.600,217.914 281.600 C 215.346 281.600,215.200 281.450,215.200 278.800 C 215.200 276.067,215.124 276.000,212.000 276.000 L 208.800 276.000 208.800 272.800 C 208.800 269.676,208.733 269.600,206.000 269.600 C 203.333 269.600,203.200 269.467,203.200 266.800 C 203.200 264.067,203.124 264.000,200.000 264.000 L 196.800 264.000 196.800 260.800 C 196.800 257.676,196.733 257.600,194.000 257.600 C 191.430 257.600,191.200 257.406,191.200 255.228 C 191.200 252.707,189.424 251.200,186.453 251.200 C 185.097 251.200,184.800 250.696,184.800 248.400 C 184.800 245.674,184.717 245.600,181.648 245.600 C 178.584 245.600,178.490 245.517,178.248 242.600 C 178.022 239.861,177.774 239.578,175.400 239.349 C 173.020 239.120,172.800 238.866,172.800 236.349 C 172.800 233.675,172.713 233.600,169.600 233.600 L 166.400 233.600 166.400 230.400 C 166.400 227.287,166.325 227.200,163.651 227.200 C 161.134 227.200,160.880 226.980,160.651 224.600 C 160.422 222.226,160.139 221.978,157.400 221.752 C 154.483 221.510,154.400 221.416,154.400 218.352 C 154.400 215.283,154.326 215.200,151.600 215.200 C 149.067 215.200,148.800 214.987,148.800 212.960 C 148.800 210.117,147.483 208.800,144.640 208.800 C 142.613 208.800,142.400 208.533,142.400 206.000 C 142.400 203.267,142.324 203.200,139.200 203.200 L 136.000 203.200 136.000 200.000 L 136.000 196.800 139.200 196.800 C 142.313 196.800,142.400 196.725,142.400 194.048 C 142.400 191.446,142.563 191.283,145.400 191.048 C 148.237 190.813,148.413 190.637,148.648 187.800 C 148.883 184.963,149.046 184.800,151.648 184.800 C 154.325 184.800,154.400 184.713,154.400 181.600 L 154.400 178.400 157.600 178.400 C 160.724 178.400,160.800 178.333,160.800 175.600 C 160.800 172.933,160.933 172.800,163.600 172.800 C 166.333 172.800,166.400 172.724,166.400 169.600 L 166.400 166.400 169.600 166.400 C 172.724 166.400,172.800 166.333,172.800 163.600 C 172.800 160.933,172.933 160.800,175.600 160.800 C 178.333 160.800,178.400 160.724,178.400 157.600 L 178.400 154.400 181.600 154.400 C 184.713 154.400,184.800 154.325,184.800 151.648 C 184.800 149.046,184.963 148.883,187.800 148.648 C 190.637 148.413,190.813 148.237,191.048 145.400 C 191.283 142.563,191.446 142.400,194.048 142.400 C 196.725 142.400,196.800 142.313,196.800 139.200 L 196.800 136.000 200.000 136.000 C 203.124 136.000,203.200 135.933,203.200 133.200 C 203.200 130.533,203.333 130.400,206.000 130.400 C 208.733 130.400,208.800 130.324,208.800 127.200 L 208.800 124.000 212.000 124.000 C 215.113 124.000,215.200 123.925,215.200 121.248 C 215.200 118.646,215.363 118.483,218.200 118.248 C 221.037 118.013,221.213 117.837,221.448 115.000 C 221.683 112.163,221.846 112.000,224.448 112.000 C 227.051 112.000,227.200 111.851,227.200 109.248 C 227.200 106.646,227.363 106.483,230.200 106.248 C 233.037 106.013,233.213 105.837,233.448 103.000 C 233.683 100.163,233.846 100.000,236.448 100.000 C 239.125 100.000,239.200 99.913,239.200 96.800 L 239.200 93.600 242.400 93.600 C 245.524 93.600,245.600 93.533,245.600 90.800 C 245.600 88.133,245.733 88.000,248.400 88.000 C 251.133 88.000,251.200 87.924,251.200 84.800 L 251.200 81.600 254.400 81.600 C 256.711 81.600,257.600 81.267,257.600 80.400 C 257.600 78.862,260.223 76.228,262.118 75.863 C 262.923 75.708,263.709 74.921,263.864 74.114 C 264.277 71.968,266.541 69.600,268.178 69.600 C 268.960 69.600,269.600 69.264,269.600 68.854 C 269.600 68.444,270.282 67.891,271.115 67.627 C 271.949 67.362,273.479 65.901,274.515 64.378 C 275.552 62.856,276.837 61.608,277.372 61.605 C 277.906 61.602,278.773 60.790,279.297 59.800 C 280.368 57.779,283.083 55.200,284.140 55.200 C 284.522 55.200,285.233 54.324,285.721 53.254 C 286.209 52.184,287.658 50.873,288.942 50.341 C 290.225 49.810,291.786 48.388,292.410 47.181 C 293.034 45.975,294.480 44.752,295.625 44.465 C 296.975 44.126,298.098 43.003,298.824 41.265 C 299.537 39.558,300.677 38.404,301.967 38.080 C 304.217 37.515,306.400 33.316,306.400 29.553 C 306.400 27.597,306.742 27.268,309.000 27.051 L 311.600 26.800 311.600 18.451 L 311.600 10.102 309.050 9.441 C 306.928 8.891,306.458 8.346,306.250 6.190 C 306.022 3.828,305.736 3.578,303.000 3.352 C 300.650 3.157,300.000 2.767,300.000 1.552 C 300.000 0.106,299.371 0.000,290.800 0.000 C 282.133 0.000,281.600 0.093,281.600 1.600 " stroke="none" fill="#ffffff" fill-rule="evenodd"></path><path id="path4" d="M281.600 1.600 C 281.600 2.871,281.066 3.201,279.000 3.203 C 275.932 3.207,271.200 5.863,271.200 7.582 C 271.200 8.245,269.865 9.420,268.232 10.194 C 266.358 11.082,265.096 12.320,264.807 13.556 C 264.487 14.922,263.564 15.715,261.748 16.185 C 259.748 16.704,259.041 17.396,258.683 19.186 C 258.332 20.939,257.643 21.639,255.891 22.024 C 254.232 22.388,253.238 23.318,252.423 25.267 C 251.683 27.038,250.739 28.000,249.739 28.000 C 247.967 28.000,246.701 29.308,246.281 31.572 C 246.101 32.539,244.988 33.430,243.387 33.890 C 241.433 34.450,240.627 35.244,240.152 37.078 C 239.677 38.909,238.896 39.681,237.022 40.166 C 235.158 40.649,234.396 41.395,234.021 43.103 C 233.648 44.801,232.859 45.581,230.962 46.125 C 228.993 46.690,228.312 47.401,227.996 49.222 C 227.672 51.095,227.089 51.671,225.193 51.993 C 223.352 52.306,222.628 52.982,222.055 54.926 C 221.515 56.760,220.645 57.642,218.879 58.149 C 217.089 58.662,216.251 59.528,215.708 61.423 C 215.169 63.300,214.500 64.000,213.244 64.000 C 211.013 64.000,209.600 65.452,209.600 67.745 C 209.600 69.075,209.003 69.712,207.400 70.095 C 204.316 70.832,203.200 71.895,203.200 74.098 C 203.200 75.533,202.759 76.003,201.400 76.012 C 198.750 76.030,197.777 76.920,197.472 79.603 C 197.246 81.596,196.796 82.046,194.803 82.272 C 192.120 82.577,191.230 83.550,191.212 86.200 C 191.204 87.437,190.720 88.000,189.665 88.000 C 186.819 88.000,185.646 88.942,185.141 91.633 C 184.712 93.922,184.273 94.346,182.119 94.555 C 179.923 94.769,179.568 95.133,179.349 97.400 C 179.144 99.530,178.756 100.000,177.206 100.000 C 174.785 100.000,172.800 101.985,172.800 104.406 C 172.800 105.956,172.330 106.344,170.200 106.549 C 167.946 106.767,167.568 107.128,167.359 109.269 C 167.153 111.379,166.688 111.844,164.159 112.469 C 161.603 113.100,161.166 113.547,160.953 115.753 C 160.739 117.958,160.367 118.339,158.219 118.553 C 156.179 118.756,155.565 119.302,154.796 121.600 C 154.073 123.761,153.327 124.492,151.529 124.803 C 149.589 125.140,149.158 125.641,148.949 127.803 C 148.734 130.039,148.394 130.400,146.509 130.400 C 143.730 130.400,142.400 131.730,142.400 134.509 C 142.400 136.395,142.039 136.733,139.800 136.949 C 137.514 137.170,137.170 137.514,136.949 139.800 C 136.733 142.039,136.395 142.400,134.509 142.400 C 131.715 142.400,130.400 143.732,130.400 146.560 C 130.400 148.573,130.125 148.800,127.689 148.800 C 125.240 148.800,124.929 149.063,124.469 151.515 C 124.033 153.837,123.557 154.305,121.180 154.751 C 118.644 155.227,118.400 155.515,118.400 158.036 C 118.400 160.659,118.258 160.800,115.615 160.800 C 113.228 160.800,112.762 161.114,112.348 163.000 C 111.503 166.861,111.336 167.080,109.047 167.342 C 106.840 167.595,106.796 167.703,106.565 173.400 L 106.330 179.200 103.165 179.200 L 100.000 179.200 100.000 199.914 C 100.000 222.411,99.833 221.600,104.465 221.600 C 106.326 221.600,106.400 221.813,106.400 227.164 L 106.400 232.727 109.200 233.253 C 111.173 233.623,112.000 234.205,112.000 235.224 C 112.000 238.191,112.935 239.200,115.686 239.200 C 118.248 239.200,118.400 239.355,118.400 241.964 C 118.400 244.485,118.644 244.773,121.180 245.249 C 123.557 245.695,124.033 246.163,124.469 248.485 C 124.929 250.937,125.240 251.200,127.689 251.200 C 130.125 251.200,130.400 251.427,130.400 253.440 C 130.400 256.283,131.717 257.600,134.560 257.600 C 136.573 257.600,136.800 257.875,136.800 260.311 C 136.800 262.776,137.054 263.070,139.600 263.547 C 141.817 263.963,142.400 264.448,142.400 265.876 C 142.400 268.287,143.849 269.600,146.509 269.600 C 148.386 269.600,148.734 269.965,148.949 272.154 C 149.155 274.253,149.642 274.822,151.682 275.346 C 153.563 275.830,154.344 276.616,154.907 278.592 C 155.523 280.753,156.091 281.243,158.225 281.451 C 160.476 281.670,160.800 281.994,160.800 284.023 C 160.800 286.476,162.599 288.000,165.497 288.000 C 166.719 288.000,167.158 288.616,167.349 290.600 C 167.570 292.886,167.914 293.230,170.200 293.451 C 172.330 293.656,172.800 294.044,172.800 295.594 C 172.800 298.015,174.785 300.000,177.206 300.000 C 178.756 300.000,179.144 300.470,179.349 302.600 C 179.568 304.867,179.923 305.231,182.119 305.445 C 184.273 305.654,184.712 306.078,185.141 308.367 C 185.643 311.044,186.821 312.000,189.615 312.000 C 190.704 312.000,191.165 312.691,191.349 314.600 C 191.564 316.825,191.946 317.239,193.997 317.472 C 196.656 317.774,197.569 318.751,197.588 321.314 C 197.600 323.083,198.993 324.000,201.665 324.000 C 202.720 324.000,203.204 324.563,203.212 325.800 C 203.230 328.405,204.069 329.327,207.000 329.963 C 208.983 330.393,209.600 330.948,209.600 332.304 C 209.600 334.560,211.030 336.000,213.271 336.000 C 214.635 336.000,215.137 336.612,215.541 338.769 C 215.988 341.149,216.451 341.612,218.831 342.059 C 221.022 342.470,221.600 342.956,221.600 344.391 C 221.600 346.552,222.879 347.747,225.595 348.123 C 227.099 348.332,227.689 348.990,227.995 350.800 C 228.305 352.636,228.981 353.371,230.871 353.929 C 232.652 354.455,233.545 355.348,234.071 357.129 C 234.628 359.016,235.366 359.696,237.193 360.007 C 239.099 360.331,239.669 360.901,239.993 362.807 C 240.306 364.648,240.982 365.372,242.926 365.945 C 244.767 366.487,245.642 367.354,246.155 369.142 C 246.685 370.990,247.430 371.694,249.178 371.997 C 250.976 372.309,251.648 372.978,252.163 374.966 C 252.709 377.072,253.328 377.627,255.614 378.055 C 257.788 378.463,258.400 378.963,258.400 380.329 C 258.400 382.450,259.814 384.000,261.749 384.000 C 262.624 384.000,263.628 385.076,264.337 386.772 C 265.099 388.597,266.205 389.721,267.576 390.065 C 268.923 390.403,270.049 391.526,270.768 393.247 C 271.808 395.736,272.192 395.942,276.740 396.457 C 280.759 396.912,281.600 397.266,281.600 398.503 C 281.600 399.879,282.345 400.000,290.800 400.000 C 299.467 400.000,300.000 399.907,300.000 398.400 C 300.000 397.067,300.533 396.800,303.200 396.800 C 306.286 396.800,306.400 396.706,306.400 394.165 C 306.400 391.883,306.748 391.428,309.000 390.765 L 311.600 390.000 311.600 381.600 L 311.600 373.200 309.000 372.949 C 306.750 372.732,306.400 372.399,306.400 370.472 C 306.400 367.034,304.102 363.223,301.192 361.835 C 299.742 361.144,298.168 359.728,297.695 358.689 C 297.222 357.650,296.483 356.800,296.054 356.800 C 295.363 356.800,294.504 356.013,290.638 351.839 C 288.824 349.879,287.267 348.800,286.234 348.786 C 284.798 348.767,281.600 345.248,281.600 343.687 C 281.600 342.979,281.060 342.400,280.400 342.400 C 278.875 342.400,276.000 339.561,276.000 338.054 C 276.000 337.424,275.242 336.667,274.314 336.373 C 271.819 335.581,269.600 333.439,269.600 331.822 C 269.600 330.735,268.952 330.400,266.848 330.400 C 264.246 330.400,264.083 330.237,263.848 327.400 C 263.613 324.563,263.437 324.387,260.600 324.152 C 257.763 323.917,257.600 323.754,257.600 321.152 C 257.600 318.475,257.513 318.400,254.400 318.400 L 251.200 318.400 251.200 315.200 C 251.200 312.076,251.133 312.000,248.400 312.000 C 245.733 312.000,245.600 311.867,245.600 309.200 C 245.600 306.467,245.524 306.400,242.400 306.400 L 239.200 306.400 239.200 303.200 C 239.200 300.076,239.133 300.000,236.400 300.000 C 233.735 300.000,233.600 299.865,233.600 297.209 C 233.600 294.572,233.424 294.391,230.400 293.907 C 227.400 293.428,227.200 293.227,227.200 290.698 C 227.200 288.148,227.046 288.000,224.400 288.000 C 221.972 288.000,221.600 287.743,221.600 286.065 C 221.600 282.591,220.782 281.600,217.914 281.600 C 215.346 281.600,215.200 281.450,215.200 278.800 C 215.200 276.067,215.124 276.000,212.000 276.000 L 208.800 276.000 208.800 272.800 C 208.800 269.676,208.733 269.600,206.000 269.600 C 203.333 269.600,203.200 269.467,203.200 266.800 C 203.200 264.067,203.124 264.000,200.000 264.000 L 196.800 264.000 196.800 260.800 C 196.800 257.676,196.733 257.600,194.000 257.600 C 191.430 257.600,191.200 257.406,191.200 255.228 C 191.200 252.707,189.424 251.200,186.453 251.200 C 185.097 251.200,184.800 250.696,184.800 248.400 C 184.800 245.674,184.717 245.600,181.648 245.600 C 178.584 245.600,178.490 245.517,178.248 242.600 C 178.022 239.861,177.774 239.578,175.400 239.349 C 173.020 239.120,172.800 238.866,172.800 236.349 C 172.800 233.675,172.713 233.600,169.600 233.600 L 166.400 233.600 166.400 230.400 C 166.400 227.287,166.325 227.200,163.651 227.200 C 161.134 227.200,160.880 226.980,160.651 224.600 C 160.422 222.226,160.139 221.978,157.400 221.752 C 154.483 221.510,154.400 221.416,154.400 218.352 C 154.400 215.283,154.326 215.200,151.600 215.200 C 149.067 215.200,148.800 214.987,148.800 212.960 C 148.800 210.117,147.483 208.800,144.640 208.800 C 142.613 208.800,142.400 208.533,142.400 206.000 C 142.400 203.267,142.324 203.200,139.200 203.200 L 136.000 203.200 136.000 200.000 L 136.000 196.800 139.200 196.800 C 142.313 196.800,142.400 196.725,142.400 194.048 C 142.400 191.446,142.563 191.283,145.400 191.048 C 148.237 190.813,148.413 190.637,148.648 187.800 C 148.883 184.963,149.046 184.800,151.648 184.800 C 154.325 184.800,154.400 184.713,154.400 181.600 L 154.400 178.400 157.600 178.400 C 160.724 178.400,160.800 178.333,160.800 175.600 C 160.800 172.933,160.933 172.800,163.600 172.800 C 166.333 172.800,166.400 172.724,166.400 169.600 L 166.400 166.400 169.600 166.400 C 172.724 166.400,172.800 166.333,172.800 163.600 C 172.800 160.933,172.933 160.800,175.600 160.800 C 178.333 160.800,178.400 160.724,178.400 157.600 L 178.400 154.400 181.600 154.400 C 184.713 154.400,184.800 154.325,184.800 151.648 C 184.800 149.046,184.963 148.883,187.800 148.648 C 190.637 148.413,190.813 148.237,191.048 145.400 C 191.283 142.563,191.446 142.400,194.048 142.400 C 196.725 142.400,196.800 142.313,196.800 139.200 L 196.800 136.000 200.000 136.000 C 203.124 136.000,203.200 135.933,203.200 133.200 C 203.200 130.533,203.333 130.400,206.000 130.400 C 208.733 130.400,208.800 130.324,208.800 127.200 L 208.800 124.000 212.000 124.000 C 215.113 124.000,215.200 123.925,215.200 121.248 C 215.200 118.646,215.363 118.483,218.200 118.248 C 221.037 118.013,221.213 117.837,221.448 115.000 C 221.683 112.163,221.846 112.000,224.448 112.000 C 227.051 112.000,227.200 111.851,227.200 109.248 C 227.200 106.646,227.363 106.483,230.200 106.248 C 233.037 106.013,233.213 105.837,233.448 103.000 C 233.683 100.163,233.846 100.000,236.448 100.000 C 239.125 100.000,239.200 99.913,239.200 96.800 L 239.200 93.600 242.400 93.600 C 245.524 93.600,245.600 93.533,245.600 90.800 C 245.600 88.133,245.733 88.000,248.400 88.000 C 251.133 88.000,251.200 87.924,251.200 84.800 L 251.200 81.600 254.400 81.600 C 256.711 81.600,257.600 81.267,257.600 80.400 C 257.600 78.862,260.223 76.228,262.118 75.863 C 262.923 75.708,263.709 74.921,263.864 74.114 C 264.277 71.968,266.541 69.600,268.178 69.600 C 268.960 69.600,269.600 69.264,269.600 68.854 C 269.600 68.444,270.282 67.891,271.115 67.627 C 271.949 67.362,273.479 65.901,274.515 64.378 C 275.552 62.856,276.837 61.608,277.372 61.605 C 277.906 61.602,278.773 60.790,279.297 59.800 C 280.368 57.779,283.083 55.200,284.140 55.200 C 284.522 55.200,285.233 54.324,285.721 53.254 C 286.209 52.184,287.658 50.873,288.942 50.341 C 290.225 49.810,291.786 48.388,292.410 47.181 C 293.034 45.975,294.480 44.752,295.625 44.465 C 296.975 44.126,298.098 43.003,298.824 41.265 C 299.537 39.558,300.677 38.404,301.967 38.080 C 304.217 37.515,306.400 33.316,306.400 29.553 C 306.400 27.597,306.742 27.268,309.000 27.051 L 311.600 26.800 311.600 18.451 L 311.600 10.102 309.050 9.441 C 306.928 8.891,306.458 8.346,306.250 6.190 C 306.022 3.828,305.736 3.578,303.000 3.352 C 300.650 3.157,300.000 2.767,300.000 1.552 C 300.000 0.106,299.371 0.000,290.800 0.000 C 282.133 0.000,281.600 0.093,281.600 1.600 " stroke="none" fill="#ffffff" fill-rule="evenodd"></path></g></svg>