<?xml version="1.0" encoding="UTF-8" standalone="no"?>
<svg width="36px" height="36px" viewBox="0 0 36 36" version="1.1" xmlns="http://www.w3.org/2000/svg" xmlns:xlink="http://www.w3.org/1999/xlink">
    <!-- Generator: Sketch 47.1 (45422) - http://www.bohemiancoding.com/sketch -->
    <title>logo</title>
    <desc>Created with Sketch.</desc>
    <defs></defs>
    <g id="Page-1" stroke="none" stroke-width="1" fill="none" fill-rule="evenodd">
        <g id="logo" fill="#000000">
            <path d="M29.1535,12.9722 C29.1535,15.1902 27.9245,16.9922 25.1345,16.9922 L23.0085,16.9922 C20.2205,16.9922 18.9965,15.1902 18.9965,12.9722 L18.9965,11.2192 C18.9965,9.0052 20.2205,7.2032 23.0085,7.2032 L25.1345,7.2032 C27.9245,7.2032 29.1535,9.0052 29.1535,11.2192 L29.1535,12.9722 Z M27.1915,23.1612 C27.6045,23.1612 27.9435,23.5012 27.9435,23.9172 C27.9435,24.3342 27.6045,24.6722 27.1915,24.6722 L21.7165,24.6722 L21.7165,24.7032 C21.7165,27.2882 22.8815,27.3012 24.3125,27.3012 L28.0785,27.3012 C28.4955,27.3012 28.8325,27.6412 28.8325,28.0562 C28.8325,28.4742 28.4955,28.8102 28.0785,28.8102 L23.1005,28.8102 C20.8355,28.8102 18.9965,28.1202 18.9965,24.7032 L18.9965,23.1292 C18.9965,19.7112 20.8355,19.0232 23.1005,19.0232 L28.0785,19.0232 C28.4955,19.0232 28.8325,19.3632 28.8325,19.7772 C28.8325,20.1942 28.4955,20.5342 28.0785,20.5342 L24.3125,20.5342 C22.8815,20.5342 21.7165,20.5452 21.7165,23.1292 L21.7165,23.1612 L27.1915,23.1612 Z M12.0275,15.5132 L14.0715,15.5132 C14.1935,15.5132 14.2945,15.4142 14.2945,15.2892 L14.2945,12.8482 L13.0615,12.8482 C12.6575,12.8482 12.3245,12.5192 12.3245,12.1092 C12.3245,11.7022 12.6575,11.3732 13.0615,11.3732 L16.2295,11.3732 C16.6355,11.3732 16.9665,11.7022 16.9665,12.1092 L16.9665,15.2892 C16.9665,16.2262 16.2015,16.9922 15.2665,16.9922 L10.8285,16.9922 C8.6135,16.9922 6.8115,15.7642 6.8115,12.9722 L6.8115,11.2192 C6.8115,8.4302 8.6135,7.2042 10.8285,7.2042 L16.2295,7.2042 C16.6355,7.2042 16.9665,7.5332 16.9665,7.9422 C16.9665,8.3452 16.6355,8.6792 16.2295,8.6792 L12.0275,8.6792 C10.6235,8.6792 9.4835,9.2462 9.4835,11.2192 L9.4835,12.9722 C9.4835,14.9492 10.6235,15.5132 12.0275,15.5132 L12.0275,15.5132 Z M16.9665,28.0752 C16.9665,28.4802 16.6355,28.8112 16.2295,28.8112 L15.0345,28.8112 C14.6235,28.8112 14.2945,28.4802 14.2945,28.0752 L14.2945,22.5802 L13.0345,24.4102 C12.8955,24.5662 12.6975,24.6522 12.4885,24.6522 L11.2895,24.6522 C11.0835,24.6522 10.8835,24.5662 10.7425,24.4102 L9.4835,22.5802 L9.4835,28.0752 C9.4835,28.4802 9.1555,28.8112 8.7465,28.8112 L7.5515,28.8112 C7.1425,28.8112 6.8115,28.4802 6.8115,28.0752 L6.8115,19.7612 C6.8115,19.4552 6.9995,19.1812 7.2865,19.0692 C7.3745,19.0352 7.4695,19.0252 7.5625,19.0252 L7.9375,19.0252 L7.9415,19.0252 L8.7585,19.0252 C8.9595,19.0272 9.1555,19.1142 9.2945,19.2682 L11.8885,22.7982 L14.4845,19.2682 C14.6235,19.1142 14.8195,19.0272 15.0195,19.0252 L16.2295,19.0252 C16.3175,19.0252 16.4065,19.0352 16.4925,19.0692 C16.7795,19.1812 16.9665,19.4552 16.9665,19.7612 L16.9665,28.0752 Z M25.7605,0.0002 L10.2015,0.0002 C4.5685,0.0002 -0.0005,4.5742 -0.0005,10.2172 L-0.0005,25.7972 C-0.0005,31.4392 4.5685,36.0142 10.2015,36.0142 L25.7605,36.0142 C31.3975,36.0142 35.9645,31.4392 35.9645,25.7972 L35.9645,10.2172 C35.9645,4.5742 31.3975,0.0002 25.7605,0.0002 L25.7605,0.0002 Z" id="Fill-1"></path>
            <path d="M24.0707,8.6847 C22.1717,8.6847 21.6667,9.2877 21.6667,11.2187 L21.6667,12.9717 C21.6667,14.9047 22.1717,15.5087 24.0707,15.5087 C25.9777,15.5087 26.4777,14.9047 26.4777,12.9717 L26.4777,11.2187 C26.4777,9.2877 25.9717,8.6847 24.0707,8.6847" id="Fill-4"></path>
        </g>
    </g>
</svg>