<?xml version="1.0" encoding="UTF-8" standalone="no"?>
<svg width="20px" height="20px" viewBox="0 0 20 20" version="1.1" xmlns="http://www.w3.org/2000/svg" xmlns:xlink="http://www.w3.org/1999/xlink">
    <!-- Generator: Sketch 47.1 (45422) - http://www.bohemiancoding.com/sketch -->
    <title>操作指南 copy 2</title>
    <desc>Created with Sketch.</desc>
    <defs></defs>
    <g id="Page-1" stroke="none" stroke-width="1" fill="none" fill-rule="evenodd">
        <path d="M19,10.5 L19,4.5 C19,2.56700338 17.4329966,1 15.5,1 L4.5,1 C2.56700338,1 1,2.56700338 1,4.5 L1,15.5 C1,17.4329966 2.56700338,19 4.5,19 L10.5,19 C10.7761424,19 11,18.7761424 11,18.5 C11,18.2238576 10.7761424,18 10.5,18 L4.5,18 C3.11928813,18 2,16.8807119 2,15.5 L2,4.5 C2,3.11928813 3.11928813,2 4.5,2 L15.5,2 C16.8807119,2 18,3.11928813 18,4.5 L18,10.5 C18,10.7761424 18.2238576,11 18.5,11 C18.7761424,11 19,10.7761424 19,10.5 Z" id="Combined-Shape" fill="#262629" fill-rule="nonzero"></path>
        <path d="M15.9779053,16.4166667 L19,16.4166667 L15.5,12 L12,16.4166667 L14.9779053,16.4166667 L14.9779053,19.3125 C14.9779053,19.5886424 15.2017629,19.8125 15.4779053,19.8125 C15.7540476,19.8125 15.9779053,19.5886424 15.9779053,19.3125 L15.9779053,16.4166667 Z" id="Combined-Shape-Copy-8" fill="#262629"></path>
        <path d="M8.5,8.15212382 L8.5,12.0134646 L11.5890726,10.0827942 L8.5,8.15212382 Z M7.5,13.8177122 L7.5,6.34787618 L13.4758688,10.0827942 L7.5,13.8177122 Z" id="Triangle" fill="#262629" fill-rule="nonzero"></path>
    </g>
</svg>