<?xml version="1.0" encoding="UTF-8" standalone="no"?>
<svg width="20px" height="20px" viewBox="0 0 20 20" version="1.1" xmlns="http://www.w3.org/2000/svg" xmlns:xlink="http://www.w3.org/1999/xlink">
    <!-- Generator: Sketch 47.1 (45422) - http://www.bohemiancoding.com/sketch -->
    <title>操作指南 copy 3</title>
    <desc>Created with Sketch.</desc>
    <defs></defs>
    <g id="Page-1" stroke="none" stroke-width="1" fill="none" fill-rule="evenodd">
        <path d="M11.5,7 C11.7761424,7 12,6.77614237 12,6.5 C12,6.22385763 11.7761424,6 11.5,6 C11.2238576,6 11,6.22385763 11,6.5 C11,6.77614237 11.2238576,7 11.5,7 Z M16.9779053,14.4166667 L16.9779053,17.3125 C16.9779053,17.5886424 16.7540476,17.8125 16.4779053,17.8125 C16.2017629,17.8125 15.9779053,17.5886424 15.9779053,17.3125 L15.9779053,14.4166667 L13,14.4166667 L16.5,10 L20,14.4166667 L16.9779053,14.4166667 Z M11.5,8 C10.6715729,8 10,7.32842712 10,6.5 C10,5.67157288 10.6715729,5 11.5,5 C12.3284271,5 13,5.67157288 13,6.5 C13,7.32842712 12.3284271,8 11.5,8 Z M19,9 C19,9.27614237 18.7761424,9.5 18.5,9.5 C18.2238576,9.5 18,9.27614237 18,9 L18,5.5 C18,4.11928813 16.8807119,3 15.5,3 L3.5,3 C2.11928813,3 1,4.11928813 1,5.5 L1,13.5 C1,14.8807119 2.11928813,16 3.5,16 L11,16 C11.2761424,16 11.5,16.2238576 11.5,16.5 C11.5,16.7761424 11.2761424,17 11,17 L3.5,17 C1.56700338,17 -1.13686838e-13,15.4329966 -1.13686838e-13,13.5 L-1.13686838e-13,5.5 C-1.13686838e-13,3.56700338 1.56700338,2 3.5,2 L15.5,2 C17.4329966,2 19,3.56700338 19,5.5 L19,9 Z M12.6772691,9.33537393 L13.9802837,10.9152687 L13.2088148,11.5515358 L12.3742446,10.5396261 L9.94438571,11.533108 L6.67443074,7.9162207 L4.7553968,12.4375 L12.1203223,12.4375 L12.1203223,13.4375 L3.2446032,13.4375 L6.36585246,6.0837793 L10.2155264,10.341892 L12.6772691,9.33537393 Z" id="Combined-Shape" fill="#262629" fill-rule="nonzero"></path>
    </g>
</svg>