<?xml version="1.0" encoding="UTF-8" standalone="no"?>
<svg width="20px" height="20px" viewBox="0 0 20 20" version="1.1" xmlns="http://www.w3.org/2000/svg" xmlns:xlink="http://www.w3.org/1999/xlink">
    <!-- Generator: Sketch 47.1 (45422) - http://www.bohemiancoding.com/sketch -->
    <title>操作指南 copy</title>
    <desc>Created with Sketch.</desc>
    <defs></defs>
    <g id="Page-1" stroke="none" stroke-width="1" fill="none" fill-rule="evenodd">
        <path d="M4,1 C2.8954305,1 2,1.8954305 2,3 L2,17 C2,18.1045695 2.8954305,19 4,19 L16,19 C17.1045695,19 18,18.1045695 18,17 L18,3 C18,1.8954305 17.1045695,1 16,1 L4,1 Z M4,0 L16,0 C17.6568542,0 19,1.34314575 19,3 L19,17 C19,18.6568542 17.6568542,20 16,20 L4,20 C2.34314575,20 1,18.6568542 1,17 L1,3 C1,1.34314575 2.34314575,0 4,0 Z" id="Rectangle-2" fill="#262629" fill-rule="nonzero"></path>
        <path d="M12,5 C11.4477153,5 11,4.55228475 11,4 C11,3.44771525 11.4477153,3 12,3 C12.5522847,3 13,3.44771525 13,4 C13,4.55228475 12.5522847,5 12,5 Z M4.5,13 L10.5,13 C10.7761424,13 11,13.2238576 11,13.5 C11,13.7761424 10.7761424,14 10.5,14 L4.5,14 C4.22385763,14 4,13.7761424 4,13.5 C4,13.2238576 4.22385763,13 4.5,13 L4.5,13 Z M4.5,16 L15.5,16 C15.7761424,16 16,16.2238576 16,16.5 C16,16.7761424 15.7761424,17 15.5,17 L4.5,17 C4.22385763,17 4,16.7761424 4,16.5 C4,16.2238576 4.22385763,16 4.5,16 L4.5,16 Z M7.5201416,5.0625 L11.0799561,10 L13.5257568,8 L16,11 L4,11 L7.5201416,5.0625 Z" id="Combined-Shape" fill="#262629"></path>
    </g>
</svg>