<?xml version="1.0" encoding="UTF-8"?>
<svg width="44px" height="44px" viewBox="0 0 44 44" version="1.1" xmlns="http://www.w3.org/2000/svg" xmlns:xlink="http://www.w3.org/1999/xlink">
    <!-- Generator: Sketch 44.1 (41455) - http://www.bohemiancoding.com/sketch -->
    <title>项目阶段分析图标@2x</title>
    <desc>Created with Sketch.</desc>
    <defs></defs>
    <g id="切片" stroke="none" stroke-width="1" fill="none" fill-rule="evenodd">
        <path d="M17.0859375,25.0859375 L12.6445313,15.4921875 C13.5039063,15.0195312 14.2539063,14.3789062 14.8515625,13.6132812 L29.5859375,18.3984375 C29.5820313,18.4921875 29.578125,18.5859375 29.578125,18.6796875 C29.578125,19.9804688 29.9765625,21.1835938 30.6601563,22.1835938 L24.6132813,27.0664062 C23.1015625,25.7109375 21.1015625,24.890625 18.9140625,24.890625 C18.2851563,24.890625 17.6757813,24.9570312 17.0859375,25.0859375 M9.1875,2 C5.21875,2 2,5.21875 2,9.1875 C2,13.15625 5.21875,16.375 9.1875,16.375 C9.44140625,16.375 9.69140625,16.359375 9.9375,16.3359375 L14.4726562,26.1328125 C12.0078125,27.6328125 10.359375,30.3476562 10.359375,33.4453125 C10.359375,38.171875 14.1875,42 18.9140625,42 C23.640625,42 27.46875,38.171875 27.46875,33.4453125 C27.46875,31.9257812 27.0703125,30.4960938 26.375,29.2617187 L32.7578125,24.1015625 C33.65625,24.6054688 34.6875,24.890625 35.7890625,24.890625 C39.21875,24.890625 42,22.109375 42,18.6796875 C42,15.25 39.21875,12.46875 35.7890625,12.46875 C33.4453125,12.46875 31.4023437,13.7695312 30.3476562,15.6875 L16.125,11.0703125 C16.2890625,10.46875 16.375,9.83984375 16.375,9.1875 C16.375,5.21875 13.15625,2 9.1875,2 M18.9140625,27.703125 C20.328125,27.703125 21.6875,28.2226562 22.7382812,29.1640625 L23.453125,29.8046875 L23.921875,30.640625 C24.4023438,31.4921875 24.6523438,32.4648438 24.6523438,33.4492188 C24.6523438,34.984375 24.0546875,36.4257812 22.96875,37.5078125 C21.8828125,38.59375 20.4414062,39.1914062 18.9101562,39.1914062 C17.3789062,39.1914062 15.9374512,38.5898438 14.8554688,37.5039062 C13.7695312,36.4179688 13.171875,34.9765625 13.171875,33.4453125 C13.171875,32.4414062 13.4335938,31.453125 13.9296875,30.5898437 C14.4140625,29.75 15.1054688,29.0390625 15.9335938,28.5351562 L16.75,28.0390625 L17.6835938,27.8359375 C18.0859375,27.7460937 18.5,27.703125 18.9140625,27.703125 M35.7890625,15.28125 C37.6640625,15.28125 39.1875,16.8046875 39.1875,18.6796875 C39.1875,20.5546875 37.6640625,22.078125 35.7890625,22.078125 C35.1992188,22.078125 34.640625,21.9335938 34.1328125,21.6484375 L33.4335938,21.2578125 L32.9804688,20.59375 C32.59375,20.03125 32.390625,19.3671875 32.390625,18.6796875 C32.390625,18.6328125 32.390625,18.5820312 32.3945313,18.5234375 L32.4296875,17.734375 L32.8085938,17.046875 C33.4101562,15.9570313 34.5507812,15.28125 35.7890625,15.28125 M9.1875,4.8125 C10.3554688,4.8125 11.453125,5.26953125 12.28125,6.09375 C13.109375,6.91796875 13.5625,8.01953125 13.5625,9.1875 C13.5625,9.578125 13.5117188,9.9609375 13.4101562,10.3359375 L13.1796875,11.1835938 L12.6367188,11.8789062 C12.265625,12.3515625 11.8125,12.734375 11.2890625,13.0234375 L10.5195312,13.4453125 L9.64453125,13.5351563 C9.48828125,13.5507812 9.33203125,13.5585938 9.18359375,13.5585938 C8.015625,13.5585938 6.91796875,13.1054688 6.08984375,12.2773438 C5.26171875,11.4492188 4.80859375,10.3515625 4.80859375,9.18359375 C4.80859375,8.015625 5.26171875,6.91796875 6.08984375,6.08984375 C6.91796875,5.26171875 8.01953125,4.8125 9.1875,4.8125" id="项目阶段分析图标" fill="#D63333"></path>
    </g>
</svg>