<?xml version="1.0" encoding="UTF-8"?>
<svg width="45px" height="44px" viewBox="0 0 45 44" version="1.1" xmlns="http://www.w3.org/2000/svg" xmlns:xlink="http://www.w3.org/1999/xlink">
    <!-- Generator: Sketch 44.1 (41455) - http://www.bohemiancoding.com/sketch -->
    <title>项目筛选搜索图标@2x</title>
    <desc>Created with Sketch.</desc>
    <defs>
        <polygon id="path-1" points="5.71428571e-06 0 39.9685143 0 39.9685143 39.9667343 5.71428571e-06 39.9667343"></polygon>
    </defs>
    <g id="切片" stroke="none" stroke-width="1" fill="none" fill-rule="evenodd">
        <g id="项目筛选搜索图标" transform="translate(4.100671, 2.000000)">
            <mask id="mask-2" fill="white">
                <use xlink:href="#path-1"></use>
            </mask>
            <g id="Clip-2"></g>
            <path d="M3.63343429,17.2580914 C3.63343429,9.73329143 9.73383429,3.63323429 17.2588629,3.63323429 C24.7840057,3.63323429 30.8842914,9.73329143 30.8842914,17.2580914 C30.8842914,20.8416914 29.50012,24.1014057 27.2380629,26.5337486 C27.0940629,26.6130057 26.95852,26.7131771 26.83652,26.8352343 C26.7144629,26.9572914 26.6142343,27.0928343 26.5349771,27.2368343 C24.1025771,29.4988343 20.8426343,30.8830057 17.25892,30.8830057 C9.73383429,30.8830057 3.63343429,24.7829486 3.63343429,17.2580914 M39.4462343,36.9226057 L30.6586914,28.1354057 C33.0714343,25.1670057 34.5178343,21.38152 34.5178343,17.2580914 C34.5178343,7.72672 26.7908057,-2.28571429e-05 17.2589771,-2.28571429e-05 C7.72714857,-2.28571429e-05 5.71428571e-06,7.72672 5.71428571e-06,17.2580914 C5.71428571e-06,26.78952 7.72709143,34.5162629 17.2588629,34.5162629 C21.3824629,34.5162629 25.16812,33.06992 28.1366914,30.6572343 L36.9241771,39.4444343 C37.6205771,40.1408343 38.74972,40.1408343 39.44612,39.4444343 C40.1426343,38.7480343 40.1426343,37.6190057 39.4462343,36.9226057" id="Fill-1" fill="#D63333" mask="url(#mask-2)"></path>
        </g>
    </g>
</svg>